<svg xmlns="http://www.w3.org/2000/svg" width="90" height="90" viewBox="0 0 90 90">
  <g id="Grupo_56603" data-name="Grupo 56603" transform="translate(-180 -6267)">
    <circle id="Elipse_1423" data-name="Elipse 1423" cx="45" cy="45" r="45" transform="translate(180 6267)" fill="#5e448f"/>
    <g id="reloj-de-arena" transform="translate(183.632 6282.982)">
      <path id="Trazado_103820" data-name="Trazado 103820" d="M50.676,30.243l8.547-6.914a4.988,4.988,0,0,0,1.841-3.868V9.4H32.5V19.461a4.987,4.987,0,0,0,1.845,3.868l8.533,6.914a3.664,3.664,0,0,1,1.36,2.838v2.149a3.627,3.627,0,0,1-1.36,2.834l-8.542,6.919a4.956,4.956,0,0,0-1.845,3.863V58.989H61.055V48.847a4.987,4.987,0,0,0-1.845-3.868l-8.529-6.91a3.654,3.654,0,0,1-1.36-2.838V33.082a3.664,3.664,0,0,1,1.356-2.838Z" transform="translate(-5.81 -5.138)" fill="#d8ffff"/>
      <rect id="Rect치ngulo_5594" data-name="Rect치ngulo 5594" width="37.062" height="4.829" rx="2.15" transform="translate(22.436)" fill="#96f8f8"/>
      <path id="Trazado_103821" data-name="Trazado 103821" d="M60.2.975V3.854a.975.975,0,0,1-.97.975H24.11a.97.97,0,0,1-.97-.975V3.246H58.352a.453.453,0,0,0,.453-.453V0h.453A.97.97,0,0,1,60.2.975Z" transform="translate(-0.7)" fill="#d8ffff"/>
      <rect id="Rect치ngulo_5595" data-name="Rect치ngulo 5595" width="38.195" height="4.829" rx="2.15" transform="translate(21.869 53.208)" fill="#96f8f8"/>
      <path id="Trazado_103822" data-name="Trazado 103822" d="M60.064,118.325v2.884a.97.97,0,0,1-.961.97H22.83a.975.975,0,0,1-.97-.97v-.6H57.924a.476.476,0,0,0,.453-.481V117.35H59.1A.97.97,0,0,1,60.064,118.325Z" transform="translate(0 -64.142)" fill="#d8ffff"/>
      <path id="Trazado_103824" data-name="Trazado 103824" d="M50.57,66.091V44.5a6.375,6.375,0,0,1,1.7-2.117l8.456-6.846H39.5l8.456,6.842a6.479,6.479,0,0,1,1.709,2.126V66.091L38.6,66.181v6.452H61.642V66.181Z" transform="translate(-9.15 -19.426)" fill="#392a8d"/>
    </g>
  </g>
</svg>
