<svg xmlns="http://www.w3.org/2000/svg" width="90" height="90" viewBox="0 0 90 90">
  <g id="Grupo_56590" data-name="Grupo 56590" transform="translate(-802 -6397)">
    <circle id="Elipse_1422" data-name="Elipse 1422" cx="45" cy="45" r="45" transform="translate(802 6397)" fill="#5e448f"/>
    <g id="porcentaje" transform="translate(816.461 6411.461)">
      <path id="Trazado_103780" data-name="Trazado 103780" d="M30.465,0A30.465,30.465,0,1,0,60.93,30.465,30.465,30.465,0,0,0,30.465,0Zm0,49.506A19.041,19.041,0,1,1,49.506,30.465,19.041,19.041,0,0,1,30.465,49.506Z" fill="#d8ffff"/>
      <path id="Trazado_103781" data-name="Trazado 103781" d="M120.1,30.465A21.224,21.224,0,1,0,98.875,51.689,21.224,21.224,0,0,0,120.1,30.465Zm-40.265,0A19.041,19.041,0,1,1,98.875,49.506,19.041,19.041,0,0,1,79.835,30.465Zm49.506,0A30.465,30.465,0,0,1,98.875,60.93c-.439,0-.875-.011-1.309-.03a30.463,30.463,0,0,0,0-60.871C98,.011,98.437,0,98.875,0A30.465,30.465,0,0,1,129.34,30.465Z" transform="translate(-68.41)" fill="#a397e3"/>
      <g id="Grupo_56573" data-name="Grupo 56573" transform="translate(22.438)">
        <path id="Trazado_103782" data-name="Trazado 103782" d="M204.077,189.529l-12.485,12.128a1.785,1.785,0,0,1-2.524-2.524L201.553,187a1.785,1.785,0,1,1,2.524,2.524Zm-12.265,1.231a2.38,2.38,0,1,0-2.38-2.38A2.383,2.383,0,0,0,191.813,190.76Zm9.52,7.14a2.38,2.38,0,1,0,2.38,2.38A2.383,2.383,0,0,0,201.333,197.9Z" transform="translate(-188.546 -163.865)" fill="aqua"/>
        <path id="Trazado_103783" data-name="Trazado 103783" d="M286.465,30.465h-13.22a.6.6,0,0,1-.594-.576,16.661,16.661,0,0,0-16.075-16.074.6.6,0,0,1-.576-.594V0A30.465,30.465,0,0,1,286.465,30.465Z" transform="translate(-247.973)" fill="#d8ffff"/>
      </g>
      <path id="Trazado_103784" data-name="Trazado 103784" d="M283.847,31.3h-8.806A19.041,19.041,0,0,0,256,12.262V.951A30.467,30.467,0,0,1,283.847,31.3Zm2.611-.6c0,.2.008.4.008.6h0c0-.2,0-.4-.008-.6Z" transform="translate(-225.535 -0.838)" fill="aqua"/>
    </g>
  </g>
</svg>
