<svg xmlns="http://www.w3.org/2000/svg" width="76.767" height="92.76" viewBox="0 0 76.767 92.76">
  <g id="Grupo_56742" data-name="Grupo 56742" transform="translate(-180 -490)">
    <g id="documento" transform="translate(140 490)">
      <path id="Trazado_103577" data-name="Trazado 103577" d="M107.171,118.362H40V32H84.781l22.39,22.39Z" transform="translate(0 -25.603)" fill="#96f8f8"/>
      <path id="Trazado_103578" data-name="Trazado 103578" d="M155.171,83.164H88V0h44.781l22.39,22.39Z" transform="translate(-38.404)" fill="#392a8d"/>
      <path id="Trazado_103579" data-name="Trazado 103579" d="M312,22.39h22.39L312,0Z" transform="translate(-217.624)" fill="#96f8f8"/>
      <g id="Grupo_56422" data-name="Grupo 56422" transform="translate(57.592 14.394)">
        <path id="Trazado_103580" data-name="Trazado 103580" d="M132.8,339.2h-3.2a1.6,1.6,0,0,1,0-3.2h3.2a1.6,1.6,0,0,1,0,3.2Z" transform="translate(-128 -283.223)" fill="#d8ffff"/>
        <path id="Trazado_103581" data-name="Trazado 103581" d="M215.983,339.2H177.6a1.6,1.6,0,1,1,0-3.2h38.383a1.6,1.6,0,1,1,0,3.2Z" transform="translate(-166.404 -283.223)" fill="#d8ffff"/>
        <path id="Trazado_103582" data-name="Trazado 103582" d="M132.8,291.2h-3.2a1.6,1.6,0,0,1,0-3.2h3.2a1.6,1.6,0,0,1,0,3.2Z" transform="translate(-128 -244.819)" fill="#d8ffff"/>
        <path id="Trazado_103583" data-name="Trazado 103583" d="M215.983,291.2H177.6a1.6,1.6,0,0,1,0-3.2h38.383a1.6,1.6,0,0,1,0,3.2Z" transform="translate(-166.404 -244.819)" fill="#d8ffff"/>
        <path id="Trazado_103584" data-name="Trazado 103584" d="M132.8,243.2h-3.2a1.6,1.6,0,0,1,0-3.2h3.2a1.6,1.6,0,0,1,0,3.2Z" transform="translate(-128 -206.415)" fill="#d8ffff"/>
        <path id="Trazado_103585" data-name="Trazado 103585" d="M215.983,243.2H177.6a1.6,1.6,0,0,1,0-3.2h38.383a1.6,1.6,0,0,1,0,3.2Z" transform="translate(-166.404 -206.415)" fill="#d8ffff"/>
        <path id="Trazado_103586" data-name="Trazado 103586" d="M132.8,195.2h-3.2a1.6,1.6,0,0,1,0-3.2h3.2a1.6,1.6,0,0,1,0,3.2Z" transform="translate(-128 -168.01)" fill="#d8ffff"/>
        <path id="Trazado_103587" data-name="Trazado 103587" d="M215.983,195.2H177.6a1.6,1.6,0,0,1,0-3.2h38.383a1.6,1.6,0,0,1,0,3.2Z" transform="translate(-166.404 -168.01)" fill="#d8ffff"/>
        <path id="Trazado_103588" data-name="Trazado 103588" d="M132.8,147.2h-3.2a1.6,1.6,0,0,1,0-3.2h3.2a1.6,1.6,0,0,1,0,3.2Z" transform="translate(-128 -129.606)" fill="#d8ffff"/>
        <path id="Trazado_103589" data-name="Trazado 103589" d="M215.983,147.2H177.6a1.6,1.6,0,0,1,0-3.2h38.383a1.6,1.6,0,0,1,0,3.2Z" transform="translate(-166.404 -129.606)" fill="#d8ffff"/>
        <path id="Trazado_103590" data-name="Trazado 103590" d="M136,72h9.6v9.6H136Z" transform="translate(-134.401 -72)" fill="#d8ffff"/>
      </g>
    </g>
  </g>
</svg>
