<svg xmlns="http://www.w3.org/2000/svg" xmlns:xlink="http://www.w3.org/1999/xlink" width="406" height="295" viewBox="0 0 406 295">
  <defs>
    <linearGradient id="linear-gradient" y1="0.5" x2="1" y2="0.5" gradientUnits="objectBoundingBox">
      <stop offset="0" stop-color="#dae3fe"/>
      <stop offset="1" stop-color="#e9effd"/>
    </linearGradient>
    <linearGradient id="linear-gradient-2" x1="214.204" y1="-32.653" x2="202.972" y2="-32.262" gradientUnits="objectBoundingBox">
      <stop offset="0" stop-color="#09005d"/>
      <stop offset="1" stop-color="#1a0f91"/>
    </linearGradient>
    <linearGradient id="linear-gradient-3" x1="51.033" y1="-127.784" x2="50.646" y2="-128.761" xlink:href="#linear-gradient-2"/>
    <linearGradient id="linear-gradient-4" x1="261.511" y1="-47.995" x2="252.997" y2="-47.603" xlink:href="#linear-gradient-2"/>
    <linearGradient id="linear-gradient-5" x1="62.1" y1="-141.037" x2="61.713" y2="-142.013" xlink:href="#linear-gradient-2"/>
    <linearGradient id="linear-gradient-6" x1="220.833" y1="16.973" x2="216.434" y2="20.09" xlink:href="#linear-gradient-2"/>
    <linearGradient id="linear-gradient-7" x1="53.789" y1="60.929" x2="52.753" y2="72.649" xlink:href="#linear-gradient-2"/>
    <linearGradient id="linear-gradient-8" x1="0.53" y1="-2.281" x2="0.484" y2="1.946" xlink:href="#linear-gradient-2"/>
    <linearGradient id="linear-gradient-23" x1="-13.587" y1="11.174" x2="-16.37" y2="14.481" gradientUnits="objectBoundingBox">
      <stop offset="0" stop-color="#2b3582"/>
      <stop offset="1" stop-color="#150e42"/>
    </linearGradient>
    <linearGradient id="linear-gradient-24" x1="-11.735" y1="86.583" x2="-12.853" y2="89.185" xlink:href="#linear-gradient-23"/>
    <linearGradient id="linear-gradient-25" x1="-7.016" y1="62.68" x2="-7.488" y2="64.493" xlink:href="#linear-gradient-23"/>
    <linearGradient id="linear-gradient-26" x1="-15.942" y1="0.954" x2="-13.781" y2="-0.303" gradientUnits="objectBoundingBox">
      <stop offset="0" stop-color="#4042e2"/>
      <stop offset="1" stop-color="#4f52ff"/>
    </linearGradient>
    <linearGradient id="linear-gradient-27" x1="-1.278" y1="0.128" x2="-1.032" y2="-20.758" xlink:href="#linear-gradient-26"/>
    <linearGradient id="linear-gradient-28" x1="-1.05" y1="4.039" x2="-0.854" y2="-0.315" xlink:href="#linear-gradient-26"/>
    <linearGradient id="linear-gradient-29" x1="0.213" y1="0.685" x2="-1.031" y2="1.322" gradientUnits="objectBoundingBox">
      <stop offset="0" stop-color="#ff928e"/>
      <stop offset="1" stop-color="#feb3b1"/>
    </linearGradient>
    <linearGradient id="linear-gradient-30" x1="-5.148" y1="0.006" x2="-5.352" y2="3.202" xlink:href="#linear-gradient-26"/>
    <linearGradient id="linear-gradient-31" x1="0.515" y1="-1.056" x2="0.505" y2="0.094" xlink:href="#linear-gradient-29"/>
    <linearGradient id="linear-gradient-32" x1="-6.997" y1="-2.158" x2="-7.156" y2="6.275" xlink:href="#linear-gradient-26"/>
    <linearGradient id="linear-gradient-33" x1="-0.195" y1="0.121" x2="-0.736" y2="0.568" xlink:href="#linear-gradient-2"/>
    <linearGradient id="linear-gradient-34" x1="0.391" y1="0.873" x2="-0.612" y2="3.58" xlink:href="#linear-gradient-29"/>
    <linearGradient id="linear-gradient-35" x1="1.243" y1="0.364" x2="0.109" y2="0.598" xlink:href="#linear-gradient-29"/>
    <linearGradient id="linear-gradient-36" x1="-13.797" y1="-14.844" x2="-14.595" y2="-13.714" xlink:href="#linear-gradient-2"/>
    <linearGradient id="linear-gradient-37" x1="5.216" y1="-0.252" x2="0.325" y2="0.499" xlink:href="#linear-gradient-29"/>
    <linearGradient id="linear-gradient-38" x1="0.024" y1="3.934" x2="0.584" y2="-0.109" xlink:href="#linear-gradient-29"/>
    <linearGradient id="linear-gradient-39" x1="-1.558" y1="5.839" x2="-2.297" y2="8.275" xlink:href="#linear-gradient-2"/>
    <linearGradient id="linear-gradient-40" x1="-1.981" y1="0.134" x2="-2.381" y2="0.8" xlink:href="#linear-gradient-2"/>
    <linearGradient id="linear-gradient-41" x1="0.512" y1="-0.059" x2="0.404" y2="9.254" xlink:href="#linear-gradient-2"/>
    <linearGradient id="linear-gradient-42" x1="0.535" y1="0.243" x2="0.018" y2="4.062" xlink:href="#linear-gradient-2"/>
    <linearGradient id="linear-gradient-43" x1="1.404" y1="0.244" x2="-12.033" y2="4.048" xlink:href="#linear-gradient-2"/>
    <linearGradient id="linear-gradient-44" x1="-47.535" y1="-0.346" x2="-47.172" y2="0.297" gradientUnits="objectBoundingBox">
      <stop offset="0" stop-color="#020039"/>
      <stop offset="1" stop-color="#090056"/>
    </linearGradient>
    <linearGradient id="linear-gradient-45" x1="-41.38" y1="-3.46" x2="-40.828" y2="-2.383" xlink:href="#linear-gradient-29"/>
    <linearGradient id="linear-gradient-46" x1="-112.325" y1="1.602" x2="-111.291" y2="-1.187" xlink:href="#linear-gradient-29"/>
    <linearGradient id="linear-gradient-47" x1="-48.124" y1="1.698" x2="-47.66" y2="-1.193" xlink:href="#linear-gradient-29"/>
    <linearGradient id="linear-gradient-48" x1="0.83" y1="-0.484" x2="0.3" y2="1.294" xlink:href="#linear-gradient-29"/>
    <linearGradient id="linear-gradient-49" x1="-85.572" y1="0.5" x2="-84.572" y2="0.5" xlink:href="#linear-gradient-29"/>
    <linearGradient id="linear-gradient-50" x1="-63.792" y1="-21.39" x2="-64.814" y2="-21.045" xlink:href="#linear-gradient-29"/>
    <linearGradient id="linear-gradient-51" x1="-85.355" y1="-7.709" x2="-84.724" y2="-6.306" xlink:href="#linear-gradient-44"/>
    <linearGradient id="linear-gradient-52" x1="-240.502" y1="-68.426" x2="-244.364" y2="-67.332" xlink:href="#linear-gradient-29"/>
    <linearGradient id="linear-gradient-53" x1="-122.152" y1="-8.918" x2="-120.561" y2="-5.911" xlink:href="#linear-gradient-29"/>
    <linearGradient id="linear-gradient-54" x1="0.046" y1="-4.646" x2="0.413" y2="-0.611" xlink:href="#linear-gradient-29"/>
    <linearGradient id="linear-gradient-65" x1="0" y1="0.5" x2="1" y2="0.5" xlink:href="#linear-gradient"/>
    <linearGradient id="linear-gradient-66" x1="0.352" y1="-7.703" x2="0.524" y2="1.783" xlink:href="#linear-gradient-29"/>
    <linearGradient id="linear-gradient-67" x1="0.071" y1="-3.365" x2="0.357" y2="-0.698" xlink:href="#linear-gradient-29"/>
  </defs>
  <g id="Grupo_56713" data-name="Grupo 56713" transform="translate(-954 -4529)">
    <rect id="Rectángulo_5659" data-name="Rectángulo 5659" width="406" height="295" transform="translate(954 4529)" fill="none"/>
    <g id="Grupo_55453" data-name="Grupo 55453" transform="translate(860.978 4451.642)">
      <path id="Trazado_101100" data-name="Trazado 101100" d="M144.5,255.314c9.481-14.021,29.574-21.534,30.1-42.545.2-7.957-5.479-14.349-2.924-22.151,17.143-52.334,98.121-16.467,133.1-5.407,14.563,4.605,31.986,9.736,47.645,9.063,18.027-.774,34.775-9.836,52.618-11.537a42.921,42.921,0,0,1,15.437,1.229c18.006,4.886,33.9,23.231,39.89,43.613,4.853,16.522-1.347,32.832,6.273,49.011,8.122,17.245,24.116,29.223,28.146,49.132,4.837,23.9-13.642,44.675-33.492,45.325-12.635.414-36.054-1.724-46.788-9.982-13.069-10.054-25.915-10.716-41.151-10.331-29,.733-57.99,7.644-86.612,12.565-24.525,4.216-48.7,10.461-73.554,11.253-18.254.582-33.745.844-43.623-20.157C157.757,329.3,124.615,284.725,144.5,255.314Z" transform="translate(-19.072 -44.559)" fill="#fff"/>
      <g id="Grupo_55415" data-name="Grupo 55415" transform="translate(207.03 109.821)">
        <path id="Trazado_101107" data-name="Trazado 101107" d="M860.224,112.138a8.074,8.074,0,0,0-5.69-2.317l-162.369.092a8.074,8.074,0,0,0-5.688,2.325,7.5,7.5,0,0,0-2.23,5.556l6.436,199.97a7.7,7.7,0,0,0,7.923,7.288H848.446a7.7,7.7,0,0,0,7.923-7.3l6.093-200.121A7.366,7.366,0,0,0,860.224,112.138Z" transform="translate(-684.243 -109.821)" fill="#392a8d"/>
        <path id="Trazado_101108" data-name="Trazado 101108" d="M894.509,170.41a7.38,7.38,0,0,0-5.2-2.117l-148.406.084a7.379,7.379,0,0,0-5.2,2.125,6.85,6.85,0,0,0-2.038,5.078l5.883,182.747a7.031,7.031,0,0,0,7.241,6.65H883.744a7.03,7.03,0,0,0,7.242-6.662l5.569-182.89A6.72,6.72,0,0,0,894.509,170.41Z" transform="translate(-725.713 -158.888)" fill="url(#linear-gradient)"/>
        <g id="Grupo_55413" data-name="Grupo 55413" transform="translate(22.44 13.985)">
          <g id="Grupo_55403" data-name="Grupo 55403" transform="translate(50.618)">
            <ellipse id="Elipse_1382" data-name="Elipse 1382" cx="16.053" cy="15.48" rx="16.053" ry="15.48" fill="#392a8d"/>
            <ellipse id="Elipse_1383" data-name="Elipse 1383" cx="14.916" cy="14.383" rx="14.916" ry="14.383" transform="translate(1.517 1.097)" fill="#392a8d"/>
          </g>
          <g id="Grupo_55404" data-name="Grupo 55404" transform="translate(50.618 152.849)">
            <ellipse id="Elipse_1384" data-name="Elipse 1384" cx="16.053" cy="15.48" rx="16.053" ry="15.48" fill="#392a8d"/>
            <ellipse id="Elipse_1385" data-name="Elipse 1385" cx="14.916" cy="14.383" rx="14.916" ry="14.383" transform="translate(1.517 1.097)" fill="#392a8d"/>
          </g>
          <path id="Trazado_101109" data-name="Trazado 101109" d="M1141.595,514.167,1123.015,532l18.489,17.916,18.58-17.828Z" transform="translate(-1074.878 -463.112)" fill="#392a8d"/>
          <path id="Trazado_101110" data-name="Trazado 101110" d="M1149.5,523.26l-17.059,16.369,16.976,16.45,17.059-16.369Z" transform="translate(-1082.791 -470.743)" fill="aqua"/>
          <g id="Grupo_55405" data-name="Grupo 55405" transform="translate(98.975 102.515)">
            <path id="Trazado_101111" data-name="Trazado 101111" d="M1472.821,843.966a10.061,10.061,0,0,1-10.239,9.873H1449.31a10.061,10.061,0,0,1-10.239-9.873h0a10.061,10.061,0,0,1,10.239-9.873h13.272a10.061,10.061,0,0,1,10.239,9.873Z" transform="translate(-1439.071 -834.093)" fill="#392a8d"/>
            <path id="Trazado_101112" data-name="Trazado 101112" d="M1477.65,847.782a9.252,9.252,0,0,1-9.42,9.142h-12.318a9.252,9.252,0,0,1-9.42-9.142h0a9.252,9.252,0,0,1,9.42-9.142h12.318a9.252,9.252,0,0,1,9.42,9.142Z" transform="translate(-1445.297 -837.909)" fill="aqua"/>
          </g>
          <g id="Grupo_55406" data-name="Grupo 55406" transform="translate(50.056 102.515)">
            <path id="Trazado_101113" data-name="Trazado 101113" d="M1168.7,843.966a10.061,10.061,0,0,1-10.239,9.873h-13.273a10.061,10.061,0,0,1-10.239-9.873h0a10.061,10.061,0,0,1,10.239-9.873h13.273a10.061,10.061,0,0,1,10.239,9.873Z" transform="translate(-1134.947 -834.093)" fill="#392a8d"/>
            <path id="Trazado_101114" data-name="Trazado 101114" d="M1173.526,847.782a9.252,9.252,0,0,1-9.42,9.142h-12.319a9.252,9.252,0,0,1-9.42-9.142h0a9.252,9.252,0,0,1,9.42-9.142h12.319a9.252,9.252,0,0,1,9.42,9.142Z" transform="translate(-1141.173 -837.909)" fill="aqua"/>
          </g>
          <g id="Grupo_55407" data-name="Grupo 55407" transform="translate(0 102.515)">
            <path id="Trazado_101115" data-name="Trazado 101115" d="M857.5,843.966a10.061,10.061,0,0,1-10.239,9.873H833.989a10.061,10.061,0,0,1-10.239-9.873h0a10.061,10.061,0,0,1,10.239-9.873h13.272a10.061,10.061,0,0,1,10.239,9.873Z" transform="translate(-823.75 -834.093)" fill="#392a8d"/>
            <path id="Trazado_101116" data-name="Trazado 101116" d="M862.329,847.782a9.252,9.252,0,0,1-9.42,9.142H840.59a9.252,9.252,0,0,1-9.42-9.142h0a9.252,9.252,0,0,1,9.42-9.142h12.319a9.252,9.252,0,0,1,9.42,9.142Z" transform="translate(-829.977 -837.909)" fill="aqua"/>
          </g>
          <g id="Grupo_55408" data-name="Grupo 55408" transform="translate(64.342 32.49)">
            <path id="Trazado_101117" data-name="Trazado 101117" d="M1237.606,413.744a.548.548,0,0,1-.548-.548V399.3a.549.549,0,0,1,1.1,0v13.9A.549.549,0,0,1,1237.606,413.744Z" transform="translate(-1234.919 -398.752)" fill="url(#linear-gradient-2)"/>
            <path id="Trazado_101118" data-name="Trazado 101118" d="M1228.418,474.908l-2.329,3.891-2.329-3.891Z" transform="translate(-1223.759 -462.658)" fill="url(#linear-gradient-3)"/>
          </g>
          <g id="Grupo_55409" data-name="Grupo 55409" transform="translate(64.342 87.706)">
            <path id="Trazado_101119" data-name="Trazado 101119" d="M1237.606,753.36a.549.549,0,0,1-.548-.549V742.573a.549.549,0,1,1,1.1,0v10.239A.549.549,0,0,1,1237.606,753.36Z" transform="translate(-1234.919 -742.024)" fill="url(#linear-gradient-4)"/>
            <path id="Trazado_101120" data-name="Trazado 101120" d="M1228.418,795.447l-2.329,3.891-2.329-3.891Z" transform="translate(-1223.759 -786.854)" fill="url(#linear-gradient-5)"/>
          </g>
          <g id="Grupo_55410" data-name="Grupo 55410" transform="translate(63.759 133.78)">
            <path id="Trazado_101121" data-name="Trazado 101121" d="M1233.06,1043.09a.549.549,0,0,1-.549-.548v-13.53a.548.548,0,1,1,1.1,0v13.53A.548.548,0,0,1,1233.06,1043.09Z" transform="translate(-1230.52 -1028.463)" fill="url(#linear-gradient-6)"/>
            <path id="Trazado_101122" data-name="Trazado 101122" d="M1224.792,1102.346l-2.329,3.89-2.33-3.89Z" transform="translate(-1220.134 -1090.462)" fill="url(#linear-gradient-7)"/>
          </g>
          <g id="Grupo_55411" data-name="Grupo 55411" transform="translate(12.39 68.143)">
            <path id="Trazado_101123" data-name="Trazado 101123" d="M914.795,647.643a.549.549,0,0,1-.549-.548V620.949a.549.549,0,0,1,.549-.548h31.264a.549.549,0,1,1,0,1.1H915.343v25.6A.549.549,0,0,1,914.795,647.643Z" transform="translate(-912.079 -620.401)" fill="#392a8d"/>
            <path id="Trazado_101124" data-name="Trazado 101124" d="M905.434,784.08l-2.329,3.891-2.329-3.891Z" transform="translate(-900.775 -757.752)" fill="#392a8d"/>
          </g>
          <g id="Grupo_55412" data-name="Grupo 55412" transform="translate(87.507 68.143)">
            <path id="Trazado_101125" data-name="Trazado 101125" d="M1399.587,647.643a.549.549,0,0,1-.548-.548V621.5h-30.716a.549.549,0,1,1,0-1.1h31.265a.548.548,0,0,1,.548.548v26.145A.549.549,0,0,1,1399.587,647.643Z" transform="translate(-1367.774 -620.401)" fill="#392a8d"/>
            <path id="Trazado_101126" data-name="Trazado 101126" d="M1551.122,784.08l2.329,3.891,2.33-3.891Z" transform="translate(-1521.63 -757.752)" fill="#392a8d"/>
          </g>
          <path id="Trazado_101127" data-name="Trazado 101127" d="M1016.736,977.87H912.521a.549.549,0,0,1-.549-.548v-9.69a.549.549,0,0,1,1.1,0v9.142h103.118v-9.142a.549.549,0,0,1,1.1,0v9.69A.549.549,0,0,1,1016.736,977.87Z" transform="translate(-897.781 -843.176)" fill="url(#linear-gradient-8)"/>
        </g>
        <g id="Grupo_55414" data-name="Grupo 55414" transform="translate(17.25 18.501)" opacity="0.8">
          <path id="Trazado_101128" data-name="Trazado 101128" d="M835.366,227.338a2.322,2.322,0,0,1-2.412,2.258H793.768a2.21,2.21,0,0,1-2.282-2.258v-.122a2.308,2.308,0,0,1,2.282-2.374h39.186a2.418,2.418,0,0,1,2.412,2.374Z" transform="translate(-791.486 -224.842)" fill="#392a8d"/>
          <path id="Trazado_101129" data-name="Trazado 101129" d="M835.366,293.265a2.322,2.322,0,0,1-2.412,2.258H793.768a2.21,2.21,0,0,1-2.282-2.258v-.122a2.307,2.307,0,0,1,2.282-2.374h39.186a2.418,2.418,0,0,1,2.412,2.374Z" transform="translate(-791.486 -280.165)" fill="#392a8d"/>
        </g>
      </g>
      <g id="Grupo_55418" data-name="Grupo 55418" transform="translate(132.703 154.304)">
        <g id="Grupo_55416" data-name="Grupo 55416" transform="translate(0)">
          <path id="Trazado_101130" data-name="Trazado 101130" d="M281.149,386.681l-56.029-.312a2.941,2.941,0,0,0-2.538,4.455l.281.468a2.941,2.941,0,0,0,2.521,1.427h55.747a2.941,2.941,0,0,0,2.941-2.941v-.156A2.941,2.941,0,0,0,281.149,386.681Z" transform="translate(-222.158 -386.369)" fill="#d7c8f2"/>
          <path id="Trazado_101131" data-name="Trazado 101131" d="M637.556,391.656v.091a2.941,2.941,0,0,0,2.941,2.941h12.438a2.941,2.941,0,0,0,2.841-2.182h0a2.941,2.941,0,0,0-2.82-3.7l-12.438-.091A2.941,2.941,0,0,0,637.556,391.656Z" transform="translate(-570.739 -388.338)" fill="#d7c8f2"/>
        </g>
        <g id="Grupo_55417" data-name="Grupo 55417" transform="translate(0 10.557)">
          <path id="Trazado_101132" data-name="Trazado 101132" d="M267.671,452.314,225.12,452a2.941,2.941,0,0,0-2.538,4.455l.281.469a2.941,2.941,0,0,0,2.521,1.427h42.27a2.941,2.941,0,0,0,2.941-2.941v-.156A2.941,2.941,0,0,0,267.671,452.314Z" transform="translate(-222.158 -452.002)" fill="#d7c8f2"/>
          <path id="Trazado_101133" data-name="Trazado 101133" d="M553.766,457.289v.091a2.941,2.941,0,0,0,2.941,2.941h12.438a2.941,2.941,0,0,0,2.841-2.182h0a2.941,2.941,0,0,0-2.82-3.7l-12.438-.091A2.941,2.941,0,0,0,553.766,457.289Z" transform="translate(-500.426 -453.971)" fill="#d7c8f2"/>
        </g>
      </g>
      <g id="Grupo_55428" data-name="Grupo 55428" transform="translate(389.642 136.55)">
        <g id="Grupo_55424" data-name="Grupo 55424" transform="translate(15.987 14.931)">
          <g id="Grupo_55419" data-name="Grupo 55419" transform="translate(0 18.724)">
            <path id="Trazado_101134" data-name="Trazado 101134" d="M2207.394,767.113a.365.365,0,0,1-.14-.7c.447-.185.893-.381,1.323-.582a.366.366,0,1,1,.309.663c-.439.205-.895.405-1.353.595A.362.362,0,0,1,2207.394,767.113Z" transform="translate(-2160.685 -720.663)" fill="#7d97f4"/>
            <path id="Trazado_101135" data-name="Trazado 101135" d="M1952.757,564.042c-.6,0-1.211-.016-1.811-.048a.366.366,0,0,1-.345-.385.372.372,0,0,1,.385-.346c.935.05,1.879.06,2.824.031a.366.366,0,1,1,.023.731Q1953.292,564.042,1952.757,564.042Zm5.677-.478a.366.366,0,0,1-.061-.726c.925-.157,1.854-.355,2.761-.59a.366.366,0,1,1,.183.708c-.927.24-1.877.443-2.823.6A.4.4,0,0,1,1958.434,563.564Zm-12.069-.137a.36.36,0,0,1-.07-.007c-.94-.183-1.885-.41-2.807-.673a.366.366,0,0,1,.2-.7c.9.258,1.825.479,2.745.658a.366.366,0,0,1-.07.724Zm-7.137-2.248a.364.364,0,0,1-.148-.031c-.877-.389-1.747-.821-2.586-1.282a.366.366,0,1,1,.352-.641c.821.451,1.672.873,2.53,1.254a.366.366,0,0,1-.148.7Zm-6.458-3.778a.365.365,0,0,1-.218-.072c-.767-.573-1.521-1.186-2.238-1.822a.366.366,0,0,1,.485-.547c.7.622,1.439,1.222,2.19,1.782a.366.366,0,0,1-.219.659Zm-5.462-5.109a.365.365,0,0,1-.278-.128c-.624-.729-1.223-1.493-1.781-2.271a.366.366,0,1,1,.594-.426c.546.761,1.132,1.509,1.742,2.221a.366.366,0,0,1-.278.6Zm-4.2-6.189a.365.365,0,0,1-.324-.2c-.445-.847-.859-1.725-1.231-2.609a.366.366,0,1,1,.674-.284c.363.864.768,1.723,1.2,2.552a.365.365,0,0,1-.323.536Zm-2.712-6.969a.366.366,0,0,1-.353-.272c-.244-.923-.452-1.872-.618-2.818a.366.366,0,1,1,.72-.126c.162.927.366,1.854.6,2.758a.366.366,0,0,1-.354.459Zm-1.1-7.4a.366.366,0,0,1-.365-.352q-.023-.631-.023-1.257c0-.54.013-1.088.039-1.63a.366.366,0,0,1,.731.035c-.026.53-.039,1.067-.039,1.595q0,.613.023,1.23a.366.366,0,0,1-.352.379Zm.56-7.462a.378.378,0,0,1-.068-.006.366.366,0,0,1-.291-.427c.178-.943.4-1.888.658-2.81a.366.366,0,1,1,.7.2c-.253.9-.469,1.827-.644,2.749A.365.365,0,0,1,1919.863,524.274Z" transform="translate(-1918.915 -515.046)" fill="#7d97f4"/>
            <path id="Trazado_101136" data-name="Trazado 101136" d="M1936.7,487.282a.366.366,0,0,1-.335-.512c.2-.45.407-.9.623-1.34a.366.366,0,1,1,.656.322c-.211.431-.416.872-.609,1.312A.365.365,0,0,1,1936.7,487.282Z" transform="translate(-1933.531 -485.225)" fill="#7d97f4"/>
          </g>
          <g id="Grupo_55420" data-name="Grupo 55420" transform="translate(21.961)">
            <path id="Trazado_101137" data-name="Trazado 101137" d="M2055.812,379.576a.366.366,0,0,1-.126-.709c.464-.17.935-.331,1.4-.478a.366.366,0,1,1,.221.7c-.453.144-.914.3-1.368.468A.369.369,0,0,1,2055.812,379.576Z" transform="translate(-2055.446 -376.834)" fill="#7d97f4"/>
            <path id="Trazado_101138" data-name="Trazado 101138" d="M2129.512,413.621a.366.366,0,0,1-.347-.481c.292-.877.551-1.775.768-2.671a.366.366,0,1,1,.71.172c-.222.915-.486,1.834-.784,2.73A.366.366,0,0,1,2129.512,413.621Zm1.544-7.2-.037,0a.366.366,0,0,1-.327-.4c.093-.917.147-1.85.162-2.774a.374.374,0,0,1,.372-.36.366.366,0,0,1,.36.372c-.016.944-.071,1.9-.166,2.835A.366.366,0,0,1,2131.055,406.421Zm-.07-7.362a.365.365,0,0,1-.362-.322c-.109-.918-.257-1.84-.442-2.743a.366.366,0,0,1,.717-.146c.188.922.34,1.865.451,2.8a.366.366,0,0,1-.32.407Zm-1.66-7.169a.366.366,0,0,1-.345-.244c-.306-.871-.653-1.738-1.031-2.58a.366.366,0,0,1,.667-.3c.386.86.741,1.747,1.054,2.637a.366.366,0,0,1-.224.466A.359.359,0,0,1,2129.326,391.891Zm-3.191-6.628a.365.365,0,0,1-.31-.172c-.489-.78-1.018-1.551-1.572-2.29a.366.366,0,1,1,.585-.439c.566.756,1.107,1.543,1.606,2.341a.366.366,0,0,1-.31.56Zm-4.566-5.77a.363.363,0,0,1-.26-.109c-.648-.656-1.333-1.294-2.033-1.894a.366.366,0,0,1,.476-.556c.716.613,1.415,1.264,2.077,1.936a.365.365,0,0,1-.26.622Zm-5.713-4.642a.365.365,0,0,1-.2-.058c-.777-.5-1.583-.975-2.4-1.407a.366.366,0,0,1,.344-.646c.831.442,1.654.926,2.448,1.438a.366.366,0,0,1-.2.673Zm-6.587-3.288a.365.365,0,0,1-.126-.022c-.867-.319-1.757-.6-2.646-.849a.366.366,0,0,1,.194-.7c.909.25,1.819.542,2.7.868a.366.366,0,0,1-.126.709Zm-17.294-1.556a.366.366,0,0,1-.062-.726c.924-.16,1.872-.282,2.816-.366a.366.366,0,0,1,.064.728c-.924.082-1.851.2-2.756.358A.382.382,0,0,1,2091.976,370.007Zm10.145-.208a.37.37,0,0,1-.048,0c-.913-.12-1.844-.2-2.767-.246a.366.366,0,0,1-.348-.383.37.37,0,0,1,.383-.348c.943.044,1.895.129,2.828.252a.366.366,0,0,1-.047.728Z" transform="translate(-2085.794 -368.818)" fill="#7d97f4"/>
            <path id="Trazado_101139" data-name="Trazado 101139" d="M2310.265,671.181a.366.366,0,0,1-.32-.542c.229-.416.455-.848.669-1.281a.366.366,0,1,1,.656.324c-.219.443-.45.884-.684,1.31A.365.365,0,0,1,2310.265,671.181Z" transform="translate(-2268.97 -620.844)" fill="#7d97f4"/>
          </g>
          <g id="Grupo_55423" data-name="Grupo 55423" transform="translate(7.717 7.963)">
            <g id="Grupo_55421" data-name="Grupo 55421">
              <path id="Trazado_101140" data-name="Trazado 101140" d="M2013.878,459.335a.4.4,0,0,0,.054-.464l-2.362-4.288a21.316,21.316,0,0,0,2.323-6.506l4.539-1.824a.4.4,0,0,0,.252-.393l-.294-5.865a.4.4,0,0,0-.29-.366l-4.7-1.361a21.332,21.332,0,0,0-2.962-6.241l1.921-4.5a.4.4,0,0,0-.1-.456l-4.355-3.939a.4.4,0,0,0-.464-.054l-4.288,2.362a21.316,21.316,0,0,0-6.506-2.323l-1.824-4.539a.4.4,0,0,0-.393-.252l-5.865.294a.4.4,0,0,0-.366.29l-1.361,4.7a21.315,21.315,0,0,0-6.241,2.962l-4.5-1.921a.4.4,0,0,0-.456.1L1971.7,429.1a.4.4,0,0,0-.054.464l2.362,4.288a21.325,21.325,0,0,0-2.323,6.506l-4.539,1.824a.4.4,0,0,0-.252.393l.294,5.865a.4.4,0,0,0,.29.366l4.7,1.361a21.314,21.314,0,0,0,2.962,6.241l-1.921,4.5a.4.4,0,0,0,.1.456l4.355,3.939a.4.4,0,0,0,.464.054l4.288-2.362a21.328,21.328,0,0,0,6.506,2.323l1.824,4.539a.4.4,0,0,0,.393.252l5.864-.294a.4.4,0,0,0,.366-.29l1.361-4.7a21.321,21.321,0,0,0,6.241-2.962l4.5,1.921a.4.4,0,0,0,.456-.1Z" transform="translate(-1966.893 -418.321)" fill="#91b3fa"/>
            </g>
            <g id="Grupo_55422" data-name="Grupo 55422" transform="translate(20.134 20.134)">
              <path id="Trazado_101141" data-name="Trazado 101141" d="M2097.817,555.019a5.781,5.781,0,1,1,1.7-.256A5.793,5.793,0,0,1,2097.817,555.019Zm0-10.431a4.666,4.666,0,1,0,4.463,3.3A4.642,4.642,0,0,0,2097.821,544.587Z" transform="translate(-2092.061 -543.491)" fill="#bdd0fb"/>
            </g>
            <path id="Trazado_101142" data-name="Trazado 101142" d="M2050.476,516.786a14.717,14.717,0,0,1-14.681-13.981q-.019-.374-.019-.745a14.717,14.717,0,1,1,29.269,2.225c-.009.058-.018.116-.027.175l-1.083-.177a13.644,13.644,0,0,0,.179-2.207q0-.345-.018-.688h0c-.007-.154-.018-.308-.031-.461a13.509,13.509,0,0,0-3.713-8.256c-.053-.056-.107-.112-.162-.167q-.271-.274-.56-.536a13.62,13.62,0,0,0-22.757,10.093q0,.343.017.689a13.623,13.623,0,0,0,21.172,10.644l.611.911a14.7,14.7,0,0,1-7.444,2.462C2050.978,516.779,2050.726,516.786,2050.476,516.786Z" transform="translate(-2024.696 -476.248)" fill="#bdd0fb"/>
          </g>
        </g>
        <g id="Grupo_55425" data-name="Grupo 55425" transform="translate(3.417 3.402)">
          <path id="Trazado_101143" data-name="Trazado 101143" d="M1867.768,318.923l-1.51-2.29a11.948,11.948,0,0,0,1.009-3.737l2.454-1.22a.226.226,0,0,0,.123-.231l-.425-3.262a.225.225,0,0,0-.178-.192l-2.685-.552a11.952,11.952,0,0,0-1.931-3.355l.873-2.6a.225.225,0,0,0-.076-.25l-2.607-2.007a.226.226,0,0,0-.261-.009l-2.29,1.509a11.948,11.948,0,0,0-3.737-1.009l-1.221-2.454a.225.225,0,0,0-.231-.123l-3.262.424a.225.225,0,0,0-.192.178l-.552,2.685a11.948,11.948,0,0,0-3.355,1.932l-2.6-.873a.226.226,0,0,0-.25.076l-2.007,2.607a.225.225,0,0,0-.01.262l1.509,2.29a11.946,11.946,0,0,0-1.009,3.737l-2.454,1.221a.225.225,0,0,0-.123.231l.425,3.262a.225.225,0,0,0,.178.192l2.685.552a11.949,11.949,0,0,0,1.932,3.355l-.873,2.6a.225.225,0,0,0,.076.25l2.607,2.007a.225.225,0,0,0,.261.01l2.29-1.509a11.952,11.952,0,0,0,3.737,1.009l1.221,2.454a.225.225,0,0,0,.231.123l3.262-.425a.225.225,0,0,0,.192-.178l.552-2.685a11.949,11.949,0,0,0,3.355-1.931l2.6.873a.226.226,0,0,0,.251-.076l2.007-2.607A.226.226,0,0,0,1867.768,318.923Z" transform="translate(-1840.769 -297.139)" fill="#bdd0fb"/>
        </g>
        <path id="Trazado_101144" data-name="Trazado 101144" d="M1913.05,372.891a3.471,3.471,0,1,1,3.228-4.748h0a3.474,3.474,0,0,1-3.228,4.748Zm0-5.845a2.373,2.373,0,1,0,2.209,1.5A2.364,2.364,0,0,0,1913.049,367.046Z" transform="translate(-1895.096 -351.479)" fill="url(#linear-gradient)"/>
        <g id="Grupo_55426" data-name="Grupo 55426" transform="translate(0 14.745)">
          <path id="Trazado_101145" data-name="Trazado 101145" d="M1995.445,468.547a.366.366,0,0,1-.221-.657c.379-.287.751-.594,1.1-.911a.366.366,0,0,1,.488.545c-.369.33-.756.65-1.152.949A.362.362,0,0,1,1995.445,468.547Z" transform="translate(-1966.841 -450.925)" fill="#91b3fa"/>
          <path id="Trazado_101146" data-name="Trazado 101146" d="M1838.38,419.712h-.005a18.028,18.028,0,0,1-2.788-.257.366.366,0,1,1,.123-.721,17.351,17.351,0,0,0,2.675.247.366.366,0,0,1-.005.731Zm4.421-.5a.366.366,0,0,1-.087-.721,17.523,17.523,0,0,0,2.256-.72q.15-.059.3-.12a.365.365,0,1,1,.281.675c-.1.043-.205.085-.309.126a18.285,18.285,0,0,1-2.35.75A.351.351,0,0,1,1842.8,419.208Zm-11.41-1.047a.365.365,0,0,1-.149-.032,18.152,18.152,0,0,1-2.457-1.34.366.366,0,1,1,.4-.613,17.507,17.507,0,0,0,2.358,1.286.366.366,0,0,1-.15.7Zm-5.8-4.192a.364.364,0,0,1-.27-.119,17.98,17.98,0,0,1-1.721-2.209.366.366,0,1,1,.61-.4,17.215,17.215,0,0,0,1.651,2.118.366.366,0,0,1-.27.613Zm-3.65-6.156a.365.365,0,0,1-.346-.246,18.08,18.08,0,0,1-.706-2.71.366.366,0,1,1,.72-.129,17.412,17.412,0,0,0,.677,2.6.366.366,0,0,1-.346.485Z" transform="translate(-1820.666 -398.513)" fill="#91b3fa"/>
          <path id="Trazado_101147" data-name="Trazado 101147" d="M1819.89,369.841h-.029a.366.366,0,0,1-.336-.394c.039-.5.1-.994.179-1.481a.366.366,0,1,1,.722.118c-.077.468-.134.946-.172,1.421A.366.366,0,0,1,1819.89,369.841Z" transform="translate(-1819.524 -367.657)" fill="#91b3fa"/>
        </g>
        <g id="Grupo_55427" data-name="Grupo 55427" transform="translate(6.959 0)">
          <path id="Trazado_101148" data-name="Trazado 101148" d="M1863.154,294.1a.366.366,0,0,1-.22-.658c.394-.3.807-.582,1.228-.848a.366.366,0,0,1,.39.618c-.4.255-.8.529-1.178.813A.363.363,0,0,1,1863.154,294.1Z" transform="translate(-1862.788 -289.881)" fill="#91b3fa"/>
          <path id="Trazado_101149" data-name="Trazado 101149" d="M1918.241,292.093a.366.366,0,0,1-.363-.32,17.253,17.253,0,0,0-.532-2.588.366.366,0,0,1,.7-.2,18.036,18.036,0,0,1,.555,2.7.366.366,0,0,1-.317.409Zm-2.257-6.67a.366.366,0,0,1-.317-.182,17.115,17.115,0,0,0-1.5-2.175.366.366,0,0,1,.569-.46,17.955,17.955,0,0,1,1.561,2.268.366.366,0,0,1-.316.549Zm-4.683-5.254a.364.364,0,0,1-.219-.072,17.388,17.388,0,0,0-2.231-1.414.366.366,0,1,1,.343-.646,18.067,18.067,0,0,1,2.325,1.473.366.366,0,0,1-.219.659Zm-16.022-2.644a.366.366,0,0,1-.113-.713,18,18,0,0,1,2.675-.653.366.366,0,1,1,.119.721,17.3,17.3,0,0,0-2.567.626A.362.362,0,0,1,1895.279,277.525Zm9.656-.361a.35.35,0,0,1-.088-.011,17.317,17.317,0,0,0-2.606-.433.366.366,0,1,1,.064-.728,18.054,18.054,0,0,1,2.717.451.366.366,0,0,1-.087.721Z" transform="translate(-1889.745 -275.991)" fill="#91b3fa"/>
          <path id="Trazado_101150" data-name="Trazado 101150" d="M2036.532,401.036a.372.372,0,0,1-.076-.008.366.366,0,0,1-.282-.433c.1-.466.178-.94.238-1.411a.366.366,0,0,1,.726.091c-.062.491-.145.986-.248,1.471A.366.366,0,0,1,2036.532,401.036Z" transform="translate(-2008.278 -379.099)" fill="#91b3fa"/>
        </g>
        <path id="Trazado_101151" data-name="Trazado 101151" d="M1886.5,351.5a8.487,8.487,0,1,1,8.422-9.583h0a8.549,8.549,0,0,1,.043,1.806l-1.093-.091q.025-.3.025-.61a7.5,7.5,0,0,0-.062-.964l0-.024a7.4,7.4,0,0,0-7.592-6.407h-.007q-.338.013-.68.057a7.4,7.4,0,0,0-6.437,7.325,7.486,7.486,0,0,0,.062.957,7.392,7.392,0,0,0,11.909,4.846l.681.86a8.508,8.508,0,0,1-5.268,1.828Z" transform="translate(-1868.612 -325.105)" fill="url(#linear-gradient)"/>
      </g>
      <g id="Grupo_55430" data-name="Grupo 55430" transform="translate(191.421 201.412)">
        <path id="Trazado_101152" data-name="Trazado 101152" d="M605.62,682.653l24.724,9.751a2.753,2.753,0,0,1,1.6,3.44l-12.312,36.566A2.031,2.031,0,0,1,617,733.663L588.457,723a1.927,1.927,0,0,1-1.119-2.513l14.227-36.077A3.125,3.125,0,0,1,605.62,682.653Z" transform="translate(-587.203 -681.919)" fill="#392a8d"/>
        <path id="Trazado_101153" data-name="Trazado 101153" d="M598.957,894.912h0L595.8,893.62a2.109,2.109,0,0,1-1.159-2.716l1.888-4.787a.081.081,0,0,1,.1-.045.08.08,0,0,1,.045.1l-1.888,4.787a1.949,1.949,0,0,0,1.07,2.509l3.155,1.291a.08.08,0,0,1-.058.149Z" transform="translate(-593.323 -852.797)" fill="#fff"/>
        <path id="Trazado_101154" data-name="Trazado 101154" d="M610.79,872.947h0a.08.08,0,0,1-.045-.1l.306-.775a.077.077,0,0,1,.1-.045.08.08,0,0,1,.045.1l-.306.775A.08.08,0,0,1,610.79,872.947Z" transform="translate(-606.952 -841.005)" fill="#fff"/>
        <g id="Grupo_55429" data-name="Grupo 55429" transform="translate(3.17 1.438)">
          <path id="Trazado_101156" data-name="Trazado 101156" d="M622.342,688.285c3.075,1.722,13.711,7.491,23.229,10.425a.808.808,0,0,1,.53,1.028l-11.823,35.376a.93.93,0,0,1-1.171.589c-3.976-1.3-20.327-6.724-25.8-9.572a.736.736,0,0,1-.346-.92L621.1,688.732A.874.874,0,0,1,622.342,688.285Z" transform="translate(-606.911 -688.173)" fill="#bdd0fb"/>
          <path id="Trazado_101157" data-name="Trazado 101157" d="M728.866,725.528c.329.13.635.121.68-.02s-.187-.364-.515-.5l-20.21-8.155c-.328-.132-.536-.043-.463.2a1.336,1.336,0,0,0,.733.675Z" transform="translate(-692.029 -712.192)" fill="url(#linear-gradient)"/>
          <path id="Trazado_101158" data-name="Trazado 101158" d="M705.427,725.467c-.328-.133-.536-.043-.462.2a1.337,1.337,0,0,0,.733.675l19.774,7.8c.329.13.635.121.68-.02s-.187-.364-.515-.5Z" transform="translate(-689.18 -719.416)" fill="url(#linear-gradient)"/>
          <path id="Trazado_101159" data-name="Trazado 101159" d="M679.7,786.709l-.008,0-2.807-1.034a.811.811,0,0,1-.547-.929l.6-2.452a.553.553,0,0,1,.263-.347.664.664,0,0,1,.513-.059h0c.243.069.581.158.952.256.808.213,1.723.455,2.248.635l.012,0a.841.841,0,0,1,.585.837,12.549,12.549,0,0,1-.846,2.7A.747.747,0,0,1,679.7,786.709Zm-2.056-4.589a.419.419,0,0,0-.323.035.31.31,0,0,0-.149.194l-.6,2.452a.568.568,0,0,0,.394.642l2.807,1.034.006,0a.5.5,0,0,0,.65-.246,12.477,12.477,0,0,0,.831-2.635.6.6,0,0,0-.432-.591c-.516-.177-1.467-.428-2.231-.63-.372-.1-.711-.188-.956-.257Z" transform="translate(-665.156 -766.79)" fill="#fff"/>
          <path id="Trazado_101160" data-name="Trazado 101160" d="M680.761,785.539c.606.171,1.939.5,2.552.71a.579.579,0,0,1,.411.572,10.182,10.182,0,0,1-.67,2.133.5.5,0,0,1-.648.252l-2.243-.826a.552.552,0,0,1-.376-.627l.477-1.959A.388.388,0,0,1,680.761,785.539Z" transform="translate(-668.052 -769.863)" fill="url(#linear-gradient)"/>
          <path id="Trazado_101161" data-name="Trazado 101161" d="M716.926,802.936a.458.458,0,0,0-.655.41l-.022.258a.883.883,0,0,0,.551.857l13.433,4.8a.591.591,0,0,0,.782-.313.642.642,0,0,0-.424-.76Z" transform="translate(-698.659 -784.442)" fill="url(#linear-gradient)"/>
          <path id="Trazado_101162" data-name="Trazado 101162" d="M683.8,783.093h0a.459.459,0,0,1,.538.375l.2,1.194a.148.148,0,0,0,.252.078l2.474-2.575a.163.163,0,0,1,.27.172,6.43,6.43,0,0,1-3.269,3.585,3.5,3.5,0,0,1-.855-2.315A.482.482,0,0,1,683.8,783.093Z" transform="translate(-671.105 -767.004)" fill="#392a8d"/>
          <path id="Trazado_101163" data-name="Trazado 101163" d="M695.374,748l-.008,0-2.807-1.034a.811.811,0,0,1-.547-.928l.6-2.452a.552.552,0,0,1,.263-.347.663.663,0,0,1,.513-.059h0c.243.069.581.158.952.256.808.213,1.723.455,2.248.635l.012,0a.841.841,0,0,1,.585.837,12.536,12.536,0,0,1-.846,2.7A.747.747,0,0,1,695.374,748Zm-2.056-4.589a.418.418,0,0,0-.323.035.31.31,0,0,0-.149.194l-.6,2.452a.568.568,0,0,0,.394.642l2.807,1.034.006,0a.5.5,0,0,0,.65-.246,12.489,12.489,0,0,0,.831-2.635.6.6,0,0,0-.432-.591c-.516-.177-1.467-.428-2.231-.63-.373-.1-.711-.188-.956-.257Z" transform="translate(-678.307 -734.304)" fill="#fff"/>
          <path id="Trazado_101164" data-name="Trazado 101164" d="M696.433,746.826c.606.171,1.939.5,2.551.711a.579.579,0,0,1,.411.572,10.17,10.17,0,0,1-.67,2.133.5.5,0,0,1-.649.252l-2.243-.826a.552.552,0,0,1-.376-.627l.477-1.959A.388.388,0,0,1,696.433,746.826Z" transform="translate(-681.203 -737.377)" fill="url(#linear-gradient)"/>
          <path id="Trazado_101165" data-name="Trazado 101165" d="M732.6,764.223a.458.458,0,0,0-.655.41l-.022.258a.883.883,0,0,0,.551.857l13.433,4.8a.591.591,0,0,0,.782-.313.641.641,0,0,0-.424-.76Z" transform="translate(-711.81 -751.957)" fill="url(#linear-gradient)"/>
          <path id="Trazado_101166" data-name="Trazado 101166" d="M699.473,744.38h0a.459.459,0,0,1,.538.375l.2,1.195a.147.147,0,0,0,.252.078l2.474-2.575a.163.163,0,0,1,.27.171,6.431,6.431,0,0,1-3.269,3.585,3.5,3.5,0,0,1-.855-2.315A.482.482,0,0,1,699.473,744.38Z" transform="translate(-684.257 -734.518)" fill="#392a8d"/>
          <path id="Trazado_101167" data-name="Trazado 101167" d="M666.288,824.239l-.008,0-2.807-1.034a.811.811,0,0,1-.547-.928l.6-2.452a.553.553,0,0,1,.263-.348.664.664,0,0,1,.513-.059h0c.243.069.58.158.952.256.808.213,1.723.455,2.248.635l.011,0a.841.841,0,0,1,.585.837,12.527,12.527,0,0,1-.846,2.7A.746.746,0,0,1,666.288,824.239Zm-2.056-4.588a.418.418,0,0,0-.323.035.311.311,0,0,0-.149.194l-.6,2.452a.568.568,0,0,0,.394.642l2.807,1.034.005,0a.5.5,0,0,0,.65-.246,12.46,12.46,0,0,0,.831-2.634.607.607,0,0,0-.432-.591c-.516-.177-1.467-.428-2.231-.63-.373-.1-.711-.188-.956-.257Z" transform="translate(-653.899 -798.283)" fill="#fff"/>
          <path id="Trazado_101168" data-name="Trazado 101168" d="M667.347,823.068c.606.171,1.939.5,2.552.711a.579.579,0,0,1,.411.572,10.163,10.163,0,0,1-.67,2.133.5.5,0,0,1-.649.252l-2.243-.826a.552.552,0,0,1-.376-.627l.477-1.959A.388.388,0,0,1,667.347,823.068Z" transform="translate(-656.796 -801.355)" fill="url(#linear-gradient)"/>
          <path id="Trazado_101169" data-name="Trazado 101169" d="M703.512,840.466a.458.458,0,0,0-.655.41l-.022.258a.883.883,0,0,0,.551.858l13.433,4.8a.592.592,0,0,0,.782-.313.642.642,0,0,0-.424-.76Z" transform="translate(-687.403 -815.935)" fill="url(#linear-gradient)"/>
          <path id="Trazado_101170" data-name="Trazado 101170" d="M670.388,820.623h0a.459.459,0,0,1,.538.375l.2,1.194a.147.147,0,0,0,.252.078l2.474-2.575a.163.163,0,0,1,.27.172,6.432,6.432,0,0,1-3.269,3.585,3.5,3.5,0,0,1-.854-2.315A.482.482,0,0,1,670.388,820.623Z" transform="translate(-659.85 -798.497)" fill="#392a8d"/>
          <path id="Trazado_101171" data-name="Trazado 101171" d="M651.768,859.69l-.008,0-2.807-1.034a.811.811,0,0,1-.547-.929l.6-2.452a.551.551,0,0,1,.263-.347.664.664,0,0,1,.513-.06h0c.243.069.58.158.951.256.768.2,1.724.455,2.249.636a.853.853,0,0,1,.6.841,12.543,12.543,0,0,1-.847,2.7A.747.747,0,0,1,651.768,859.69Zm-2.055-4.589a.418.418,0,0,0-.323.035.31.31,0,0,0-.149.194l-.6,2.452a.568.568,0,0,0,.394.642l2.807,1.034a.513.513,0,0,0,.656-.244,12.475,12.475,0,0,0,.831-2.635.611.611,0,0,0-.432-.591c-.516-.177-1.467-.429-2.232-.631-.372-.1-.71-.188-.955-.257Z" transform="translate(-641.716 -828.032)" fill="#fff"/>
          <path id="Trazado_101172" data-name="Trazado 101172" d="M652.828,858.52c.606.171,1.939.5,2.552.711a.579.579,0,0,1,.411.572,10.161,10.161,0,0,1-.67,2.133.5.5,0,0,1-.648.252l-2.243-.826a.552.552,0,0,1-.376-.627l.477-1.959A.388.388,0,0,1,652.828,858.52Z" transform="translate(-644.612 -831.105)" fill="url(#linear-gradient)"/>
          <path id="Trazado_101173" data-name="Trazado 101173" d="M688.993,875.918a.458.458,0,0,0-.655.41l-.022.258a.883.883,0,0,0,.551.857l13.433,4.8a.592.592,0,0,0,.782-.313.642.642,0,0,0-.424-.761Z" transform="translate(-675.219 -845.685)" fill="url(#linear-gradient)"/>
          <path id="Trazado_101174" data-name="Trazado 101174" d="M655.868,856.074h0a.459.459,0,0,1,.538.375l.2,1.195a.148.148,0,0,0,.252.078l2.474-2.575a.163.163,0,0,1,.27.172,6.431,6.431,0,0,1-3.269,3.585,3.5,3.5,0,0,1-.855-2.315A.482.482,0,0,1,655.868,856.074Z" transform="translate(-647.665 -828.246)" fill="#392a8d"/>
          <path id="Trazado_101175" data-name="Trazado 101175" d="M636.5,896.143l-.008,0-2.807-1.034a.811.811,0,0,1-.547-.929l.6-2.452a.552.552,0,0,1,.263-.347.664.664,0,0,1,.512-.059h0c.244.069.581.158.952.256.808.213,1.724.455,2.248.635a.851.851,0,0,1,.6.841,12.539,12.539,0,0,1-.846,2.7A.747.747,0,0,1,636.5,896.143Zm-2.056-4.589a.419.419,0,0,0-.323.035.311.311,0,0,0-.149.194l-.6,2.452a.569.569,0,0,0,.394.642l2.807,1.034.005,0a.5.5,0,0,0,.65-.246,12.472,12.472,0,0,0,.831-2.635.615.615,0,0,0-.432-.591c-.516-.177-1.467-.428-2.231-.63-.372-.1-.711-.188-.956-.257Z" transform="translate(-628.9 -858.621)" fill="#fff"/>
          <path id="Trazado_101176" data-name="Trazado 101176" d="M637.555,894.972c.606.171,1.939.5,2.552.71a.579.579,0,0,1,.411.572,10.17,10.17,0,0,1-.67,2.133.5.5,0,0,1-.648.252l-2.243-.826a.552.552,0,0,1-.376-.627l.477-1.959A.388.388,0,0,1,637.555,894.972Z" transform="translate(-631.797 -861.694)" fill="url(#linear-gradient)"/>
          <path id="Trazado_101177" data-name="Trazado 101177" d="M673.721,912.37a.458.458,0,0,0-.655.41l-.022.258a.883.883,0,0,0,.551.858l13.433,4.8a.591.591,0,0,0,.782-.313.641.641,0,0,0-.424-.76Z" transform="translate(-662.404 -876.274)" fill="url(#linear-gradient)"/>
          <path id="Trazado_101178" data-name="Trazado 101178" d="M640.6,892.527h0a.459.459,0,0,1,.538.375l.2,1.194a.147.147,0,0,0,.252.078l2.474-2.575a.163.163,0,0,1,.27.172,6.432,6.432,0,0,1-3.269,3.585,3.5,3.5,0,0,1-.855-2.315A.482.482,0,0,1,640.6,892.527Z" transform="translate(-634.85 -858.835)" fill="#392a8d"/>
        </g>
        <path id="Trazado_101179" data-name="Trazado 101179" d="M778.964,680.559a2.7,2.7,0,0,0-2.04-1.322,1.172,1.172,0,0,0-1.227.841l-.779,2.666,2.707,1.355S780.235,682.468,778.964,680.559Zm-2.052,1.59a.752.752,0,1,1,.975-.424A.752.752,0,0,1,776.912,682.148Z" transform="translate(-744.725 -679.232)" fill="url(#linear-gradient-23)"/>
        <path id="Trazado_101180" data-name="Trazado 101180" d="M778.6,683.983a.149.149,0,0,1-.044-.154l.124-.425a.149.149,0,1,1,.287.084l-.124.424a.149.149,0,0,1-.243.07Zm.243-.832A.149.149,0,0,1,778.8,683l.094-.323a1.2,1.2,0,0,1,1.249-.856,2.33,2.33,0,0,1,1.077.374.149.149,0,1,1-.163.25,2.035,2.035,0,0,0-.94-.327.9.9,0,0,0-.936.642l-.094.323a.149.149,0,0,1-.242.07Z" transform="translate(-747.774 -681.399)" fill="#fff"/>
        <path id="Trazado_101181" data-name="Trazado 101181" d="M747.039,692.462l.51-1.294a.848.848,0,0,1,1.128-.467l8.8,3.823a.825.825,0,0,1,.456,1.013l-.416,1.273Z" transform="translate(-721.329 -688.798)" fill="url(#linear-gradient-24)"/>
        <path id="Trazado_101182" data-name="Trazado 101182" d="M769.346,698.7h0l-.383-.151a.08.08,0,0,1,.057-.15h0l.383.151a.08.08,0,0,1-.057.15Z" transform="translate(-739.682 -695.311)" fill="#fff"/>
        <path id="Trazado_101183" data-name="Trazado 101183" d="M750.324,694.489a.149.149,0,0,1-.04-.167l.206-.523a.865.865,0,0,1,1.122-.487l1.41.556a.149.149,0,1,1-.11.278l-1.41-.556a.567.567,0,0,0-.734.319l-.207.523a.149.149,0,0,1-.194.084A.145.145,0,0,1,750.324,694.489Z" transform="translate(-724.044 -690.996)" fill="#fff"/>
        <path id="Trazado_101184" data-name="Trazado 101184" d="M722.826,691.89l15.6,6.151a1.239,1.239,0,0,1,.759,1.4l-.017.081a1.064,1.064,0,0,1-1.433.774l-16-6.311a.692.692,0,0,1-.377-.928l.317-.7A.9.9,0,0,1,722.826,691.89Z" transform="translate(-699.724 -689.801)" fill="url(#linear-gradient-25)"/>
      </g>
      <g id="Grupo_55438" data-name="Grupo 55438" transform="translate(150.837 254.768)">
        <g id="Grupo_55431" data-name="Grupo 55431" transform="translate(3.09 56.372)">
          <rect id="Rectángulo_5283" data-name="Rectángulo 5283" width="2.019" height="21.838" transform="translate(12.478 26.732) rotate(180)" fill="url(#linear-gradient-26)"/>
          <path id="Trazado_101185" data-name="Trazado 101185" d="M370.426,1523.355h17.687a1.315,1.315,0,0,0-1.315-1.315H371.74a1.315,1.315,0,0,0-1.314,1.315Z" transform="translate(-367.801 -1496.202)" fill="url(#linear-gradient-27)"/>
          <rect id="Rectángulo_5284" data-name="Rectángulo 5284" width="22.238" height="6.307" rx="3.153" fill="url(#linear-gradient-28)"/>
        </g>
        <g id="Grupo_55432" data-name="Grupo 55432" transform="translate(0.816 42.603)">
          <path id="Trazado_101186" data-name="Trazado 101186" d="M480.376,1301.3a17.579,17.579,0,0,1,6.375,2.72,1.682,1.682,0,0,1,.742,1.607,71.3,71.3,0,0,1-7.542,23.673,2.546,2.546,0,0,0-.245,1.747l.952,4.429,1.765,1.655h-4.545l-3.027-8.19,1.294-.409a2.449,2.449,0,0,0,1.71-2.292l.152-8.786a10,10,0,0,1,2.4-6.615l-7.259-.353Z" transform="translate(-451.725 -1297.2)" fill="url(#linear-gradient-29)"/>
          <path id="Trazado_101187" data-name="Trazado 101187" d="M487.975,1479.893c.414.542-4.455,1.257-6.916.071,0,0-3.41-5.933-3.41-8.988,0,0,.271-.623,2.273-.482,0,0,1.145,7.026,2.354,7.812s3.383.08,3.383.08A7.12,7.12,0,0,1,487.975,1479.893Z" transform="translate(-455.503 -1439.161)" fill="url(#linear-gradient-30)"/>
          <path id="Trazado_101188" data-name="Trazado 101188" d="M478.857,1316.853c.039-.067,7.816-.935,7.816-.935a17.973,17.973,0,0,0,.541,5.62c.8,3.255,12.214,17.358,12.214,17.358l-1.2,3.8a19.258,19.258,0,0,0,10.926.657l-7.42-4.453s-6.944-23.664-11.2-27.886l-7.8-2.7Z" transform="translate(-456.517 -1303.084)" fill="url(#linear-gradient-31)"/>
          <path id="Trazado_101189" data-name="Trazado 101189" d="M344.868,1275.8s-4.481,6.665-4.848,9.7,1.227,4.275,5.929,4.479,17.252.2,17.252.2l10.712-9.155s-7.807-2.786-9.836-3.573S344.868,1275.8,344.868,1275.8Z" transform="translate(-339.968 -1275.803)" fill="#392a8d"/>
          <path id="Trazado_101190" data-name="Trazado 101190" d="M598.354,1514.094a2.192,2.192,0,0,0-.418,2.637s10.211,1.81,12.983.989c0,0-.576-1.314-3.7-2.81l.23.177a.373.373,0,0,1-.246.669C605.148,1515.639,600.891,1515.263,598.354,1514.094Z" transform="translate(-556.188 -1475.765)" fill="url(#linear-gradient-32)"/>
        </g>
        <g id="Grupo_55434" data-name="Grupo 55434">
          <path id="Trazado_101191" data-name="Trazado 101191" d="M350.1,1035.242c-.48.522-3.118,1.087-2.8,2.657a.288.288,0,0,1-.36.329c-1.051-.283-3.374-.64-4.814,1.164-1.271,1.593-.321,3.1.453,3.922a.289.289,0,0,1-.241.489c-1.933-.244-6.134-.3-6.822,3.633-.641,3.67,1.913,4.7,3.428,5a.287.287,0,0,1,.1.526,3.06,3.06,0,0,0-1.278,3.425c.555,3.064,6.563,2.814,7.265,2.774a.286.286,0,0,0,.125-.037l9.624-5.489a.289.289,0,0,0,.142-.2l1.943-11.22a.289.289,0,0,0-.077-.25l-1.9-6.67C354.807,1035.211,353.183,1031.889,350.1,1035.242Z" transform="translate(-335.329 -1030.079)" fill="url(#linear-gradient-33)"/>
          <path id="Trazado_101192" data-name="Trazado 101192" d="M358.868,1144.288a102.33,102.33,0,0,0,7.786-8.26,6.982,6.982,0,0,0,1.182-6.284,86.747,86.747,0,0,0-3.447-8.679c-.291-.976-6.142-.935-6.142-.935s-11.513,7.472-16.036,20.129l5.08,1.581a59.374,59.374,0,0,1,5.976-8.249s-5.139,6.789-5.32,9.568Z" transform="translate(-341.035 -1102.567)" fill="#5e448f"/>
          <path id="Trazado_101193" data-name="Trazado 101193" d="M450.18,1087.918c-.061.2-1.588,5.265-1.708,5.37s-3.349.279-4.869-.76l2.579-5.4Z" transform="translate(-426.118 -1074.876)" fill="url(#linear-gradient-34)"/>
          <g id="Grupo_55433" data-name="Grupo 55433" transform="translate(17.161)">
            <path id="Trazado_101194" data-name="Trazado 101194" d="M465.843,1035.47a10.314,10.314,0,0,1-.2,6.922c-1.39,4.177-3.672,4.544-5.119,3.515a8.231,8.231,0,0,1-3.564-6.652C456.724,1035.472,464.2,1032,465.843,1035.47Z" transform="translate(-454.485 -1030.326)" fill="url(#linear-gradient-35)"/>
            <path id="Trazado_101195" data-name="Trazado 101195" d="M446.884,1019.623s2.513-5.655,6.3-2.141l.295,1.454s3.6-1.032,2.412-4.3-4.706-4.852-8.556-2.729-5.949,4-5.737,6.971,2.438,1.951,2.438,1.951.425-2.186,1.471-2.576,1.026,1.264,1.026,1.264Z" transform="translate(-441.585 -1010.947)" fill="url(#linear-gradient-36)"/>
            <path id="Trazado_101196" data-name="Trazado 101196" d="M457.28,1058.776s1.309-2.9-.532-3-1.087,2.794-.718,3.851Z" transform="translate(-453.313 -1048.563)" fill="url(#linear-gradient-37)"/>
          </g>
          <path id="Trazado_101197" data-name="Trazado 101197" d="M363.359,1249.667l-3.834-3.7-5.3,2.24s-5.279.818-8.3,0l-3.021-.818-6.828-2.125L335,1248.3a1.825,1.825,0,0,0,.667,2.1,12.079,12.079,0,0,0,1.724,1.074c.9.393,22.164-.272,22.164-.272Z" transform="translate(-334.896 -1207.578)" fill="url(#linear-gradient-38)"/>
        </g>
        <g id="Grupo_55435" data-name="Grupo 55435" transform="translate(13.009 23.64)">
          <path id="Trazado_101198" data-name="Trazado 101198" d="M416.72,1272.935h.051l22.238-.024a1,1,0,0,0,0-1.991l-22.238.024a1,1,0,0,0-.049,1.99Z" transform="translate(-415.775 -1252.744)" fill="url(#linear-gradient-39)"/>
          <path id="Trazado_101199" data-name="Trazado 101199" d="M526.568,1157.916h-18.52a3.53,3.53,0,0,0-3.192,2.024l-8.562,18.155h23.016a2.145,2.145,0,0,0,2-1.357l6.639-16.8A1.479,1.479,0,0,0,526.568,1157.916Z" transform="translate(-483.342 -1157.916)" fill="url(#linear-gradient-40)"/>
        </g>
        <g id="Grupo_55437" data-name="Grupo 55437" transform="translate(9.682 42.618)">
          <g id="Grupo_55436" data-name="Grupo 55436" transform="translate(3.999 0.981)">
            <path id="Trazado_101200" data-name="Trazado 101200" d="M758.353,1288.23c.086.354,8.253,30.987,10.324,38.753a1.4,1.4,0,0,1-1.344,1.774h0a1.4,1.4,0,0,1-1.35-1.067l-9.067-36.76Z" transform="translate(-702.715 -1287.228)" fill="#7d97f4"/>
            <path id="Trazado_101201" data-name="Trazado 101201" d="M683.929,1287.674c-.086.355-8.253,31.055-10.324,38.838a1.406,1.406,0,0,0,1.344,1.778h0a1.4,1.4,0,0,0,1.35-1.07l9.066-36.841Z" transform="translate(-632.764 -1286.762)" fill="#7d97f4"/>
            <path id="Trazado_101202" data-name="Trazado 101202" d="M735.927,1282h5.087v4.085a1.057,1.057,0,0,1-1.05,1.063h-.7v9.176a.8.8,0,0,1-.8.8h0a.8.8,0,0,1-.8-.8v-9.176h-.354a1.4,1.4,0,0,1-1.394-1.411Z" transform="translate(-685.102 -1282.003)" fill="#7d97f4"/>
            <path id="Trazado_101203" data-name="Trazado 101203" d="M504.748,1288.23c.086.354,8.253,30.987,10.324,38.753a1.4,1.4,0,0,1-1.344,1.774h0a1.394,1.394,0,0,1-1.35-1.067l-9.067-36.76Z" transform="translate(-489.902 -1287.228)" fill="#7d97f4"/>
            <path id="Trazado_101204" data-name="Trazado 101204" d="M430.323,1288.23c-.085.354-8.253,30.987-10.324,38.753a1.4,1.4,0,0,0,1.344,1.774h0a1.4,1.4,0,0,0,1.35-1.067l9.067-36.76Z" transform="translate(-419.951 -1287.228)" fill="#7d97f4"/>
            <path id="Trazado_101205" data-name="Trazado 101205" d="M482.321,1282h5.087v4.085a1.057,1.057,0,0,1-1.05,1.063h-.7v9.176a.8.8,0,0,1-.8.8h0a.8.8,0,0,1-.8-.8v-9.176h-.354a1.4,1.4,0,0,1-1.394-1.411Z" transform="translate(-472.289 -1282.003)" fill="#7d97f4"/>
          </g>
          <path id="Trazado_101206" data-name="Trazado 101206" d="M467.884,1275.9H396.359a.872.872,0,0,0-.843.661l-.4,1.555a.879.879,0,0,0,.848,1.1l72.266-.17a.879.879,0,0,0,.839-1.1l-.345-1.386A.872.872,0,0,0,467.884,1275.9Z" transform="translate(-395.092 -1275.902)" fill="#7d97f4"/>
        </g>
      </g>
      <g id="Grupo_55444" data-name="Grupo 55444" transform="translate(370.783 162.029)">
        <path id="Trazado_101218" data-name="Trazado 101218" d="M1914.249,1486.538h-39.38a3.944,3.944,0,0,0-3.823,4.022h47.027A3.944,3.944,0,0,0,1914.249,1486.538Z" transform="translate(-1843.9 -1317.299)" fill="url(#linear-gradient-41)"/>
        <circle id="Elipse_1386" data-name="Elipse 1386" cx="6.303" cy="6.303" r="6.303" transform="translate(42.474 12.509) rotate(-82.914)" fill="url(#linear-gradient-42)"/>
        <path id="Trazado_101219" data-name="Trazado 101219" d="M2069.42,843.73l-6.885-6.552a2.837,2.837,0,0,0-1.913-.811h-36.993v16.455h36.929a2.746,2.746,0,0,0,1.991-.8l6.9-7.028a.879.879,0,0,0-.025-1.268Z" transform="translate(-1971.94 -771.709)" fill="aqua"/>
        <g id="Grupo_55441" data-name="Grupo 55441" transform="translate(55.345 67.218)">
          <path id="Trazado_101220" data-name="Trazado 101220" d="M2075.98,853.925a1.645,1.645,0,0,1-1.646,1.646h-26.328a1.645,1.645,0,0,1-1.645-1.646h0a1.645,1.645,0,0,1,1.645-1.645h26.328a1.645,1.645,0,0,1,1.646,1.645Z" transform="translate(-2046.361 -852.28)" fill="#fff" opacity="0.6"/>
          <path id="Trazado_101221" data-name="Trazado 101221" d="M2066.473,890.3a1.646,1.646,0,0,1-1.646,1.646h-16.821a1.645,1.645,0,0,1-1.645-1.646h0a1.645,1.645,0,0,1,1.645-1.646h16.821a1.646,1.646,0,0,1,1.646,1.646Z" transform="translate(-2046.361 -882.802)" fill="#fff" opacity="0.6"/>
        </g>
        <path id="Trazado_101222" data-name="Trazado 101222" d="M2069.42,582.292l-6.885-6.55a2.835,2.835,0,0,0-1.913-.808h-36.993v16.455h36.929a2.748,2.748,0,0,0,1.991-.8l6.9-7.029a.881.881,0,0,0-.025-1.269Z" transform="translate(-1971.94 -552.328)" fill="aqua"/>
        <g id="Grupo_55442" data-name="Grupo 55442" transform="translate(55.345 25.166)">
          <path id="Trazado_101223" data-name="Trazado 101223" d="M2075.98,592.493a1.645,1.645,0,0,1-1.646,1.645h-26.328a1.645,1.645,0,0,1-1.645-1.645h0a1.646,1.646,0,0,1,1.645-1.646h26.328a1.646,1.646,0,0,1,1.646,1.646Z" transform="translate(-2046.361 -590.847)" fill="#fff" opacity="0.6"/>
          <path id="Trazado_101224" data-name="Trazado 101224" d="M2066.473,628.867a1.646,1.646,0,0,1-1.646,1.646h-16.821a1.645,1.645,0,0,1-1.645-1.646h0a1.645,1.645,0,0,1,1.645-1.646h16.821a1.646,1.646,0,0,1,1.646,1.646Z" transform="translate(-2046.361 -621.37)" fill="#fff" opacity="0.6"/>
        </g>
        <path id="Trazado_101225" data-name="Trazado 101225" d="M1702.567,700.607l6.885-6.6a2.889,2.889,0,0,1,1.913-.859h37.488V709.6h-37.423a2.705,2.705,0,0,1-1.992-.747l-6.9-7a.851.851,0,0,1,.026-1.244Z" transform="translate(-1702.283 -651.526)" fill="#a397e3"/>
        <g id="Grupo_55443" data-name="Grupo 55443" transform="translate(13.659 44.547)">
          <path id="Trazado_101226" data-name="Trazado 101226" d="M1816.821,712.98a1.646,1.646,0,0,0-1.646-1.646h-26.328a1.646,1.646,0,0,0-1.646,1.646h0a1.646,1.646,0,0,0,1.646,1.645h26.328a1.646,1.646,0,0,0,1.646-1.645Z" transform="translate(-1787.202 -711.334)" fill="#fff" opacity="0.6"/>
          <path id="Trazado_101227" data-name="Trazado 101227" d="M1864.148,747.08a1.645,1.645,0,0,0-1.646-1.646h-16.821a1.645,1.645,0,0,0-1.645,1.646h0a1.645,1.645,0,0,0,1.645,1.646H1862.5a1.645,1.645,0,0,0,1.646-1.646Z" transform="translate(-1834.894 -739.949)" fill="#fff" opacity="0.6"/>
        </g>
        <rect id="Rectángulo_5285" data-name="Rectángulo 5285" width="6.216" height="162.356" transform="translate(46.569 7.98)" fill="url(#linear-gradient-43)"/>
      </g>
      <g id="Grupo_55447" data-name="Grupo 55447" transform="translate(344.602 223.003)">
        <path id="Trazado_101228" data-name="Trazado 101228" d="M1629.689,876.16s-2.385,1.16-2.824,2.493c-.352,1.069-2.99,1.207-3.25,3.311a2.413,2.413,0,0,1-2.02,2.121c-2.694.413-6.846,1.812-7.51,6.489-.507,3.57,1.313,4.924,3.223,5.392a2.706,2.706,0,0,1,2.051,3.125c-.272,1.358.134,2.929,2.487,4.171,5.274,2.783,10.541-6.593,10.541-6.593l1.079-16.37Z" transform="translate(-1602.018 -866.075)" fill="url(#linear-gradient-44)"/>
        <path id="Trazado_101229" data-name="Trazado 101229" d="M1769.687,852.033s-10.53,16.655-23.051,19.872c0,0,2.44,6.949,4.323,7.744,0,0,15.4-12.853,19.363-25.25Z" transform="translate(-1713.321 -845.829)" fill="url(#linear-gradient-45)"/>
        <path id="Trazado_101230" data-name="Trazado 101230" d="M1545.509,1508.7l-.341,2.806a1.159,1.159,0,0,1-1.016,1.014,17.933,17.933,0,0,1-3.755.059.992.992,0,0,1-.833-1.287,10.223,10.223,0,0,1,1.882-3.666h3.112A.959.959,0,0,1,1545.509,1508.7Z" transform="translate(-1539.516 -1395.97)" fill="#392a8d"/>
        <path id="Trazado_101231" data-name="Trazado 101231" d="M1696.986,1309.987l.525,3.09s-1.759,17.818-2.072,24.945a5.585,5.585,0,0,0,.826,3.174l3.059,4.967-7.774-4.587-.155-.949,1.272-1.75L1691,1318.917a6.125,6.125,0,0,1,.7-3.387l1.608-3.021Z" transform="translate(-1666.617 -1230.121)" fill="url(#linear-gradient-46)"/>
        <path id="Trazado_101232" data-name="Trazado 101232" d="M1698.812,1500.892h-2.481a1.493,1.493,0,0,1-1.186-.581c-.773-1-2.376-2.965-3.142-3.017-1.031-.069-.9,3.6-.9,3.6h-.578l-.732-4.556a2.7,2.7,0,0,1,1.415-2.819h0a3.814,3.814,0,0,0,1.514,2.515c1.278.771,5.2,3.533,5.2,3.533a3.546,3.546,0,0,1,1.008.027A.656.656,0,0,1,1698.812,1500.892Z" transform="translate(-1665.593 -1384.129)" fill="#392a8d"/>
        <path id="Trazado_101233" data-name="Trazado 101233" d="M1564.923,1312.411s-10.305,19.548-11.944,24.012a42.868,42.868,0,0,0-2.234,8.539c-.034.551-.72,1.079-2.609,1.079a1.811,1.811,0,0,1-1.686-.769,1.1,1.1,0,0,1-.042-1.067c.6-1.206,2.488-5.062,3.188-6.81.837-2.088,2.636-11.549,3.623-14.839s2.1-6.858,6.4-10.145C1559.62,1312.411,1562.57,1309.522,1564.923,1312.411Z" transform="translate(-1545.202 -1231.078)" fill="url(#linear-gradient-47)"/>
        <path id="Trazado_101234" data-name="Trazado 101234" d="M1681.329,997.014c2.658-11.264-4.076-17.635-4.076-17.635,4.249-4.079,11.991-5.935,11.991-5.935s7.387,5.4,6.511,9.628c-.514,2.478-5.193,14.841-5.193,14.841A10.281,10.281,0,0,1,1681.329,997.014Z" transform="translate(-1655.098 -947.711)" fill="#d8ffff"/>
        <path id="Trazado_101235" data-name="Trazado 101235" d="M1633.366,1125.555c1.082-3.259,5.894-5.577,5.894-5.577a10.28,10.28,0,0,0,9.234.9,18.526,18.526,0,0,1,.3,7.156c-.67,3.447-4.872,25.6-4.872,25.6-6.621,1.342-16.8-1.349-16.8-1.349C1631.337,1144.794,1632.284,1128.814,1633.366,1125.555Z" transform="translate(-1613.029 -1070.675)" fill="#392a8d"/>
        <path id="Trazado_101236" data-name="Trazado 101236" d="M1710.326,922.337l-2.161,9.708c-.207.855.573.715,1.437.552,1.416-.267,3.241-.817,3.85-1.918a1.036,1.036,0,0,0,.111-.366l.929-6.732a1.209,1.209,0,0,0-.708-1.271l-1.792-.795A1.209,1.209,0,0,0,1710.326,922.337Z" transform="translate(-1681.009 -904.048)" fill="url(#linear-gradient-48)"/>
        <path id="Trazado_101237" data-name="Trazado 101237" d="M1639.093,1010.34s-15.084,10.792-1.929,22.133a3.4,3.4,0,0,0,1.488.863,16.384,16.384,0,0,1,2.719,1.845.512.512,0,0,0,.749-.135h0a.7.7,0,0,0,.039-.67l-1.867-3.949a1.441,1.441,0,0,0-1.871-.081h0a.71.71,0,0,1-1.077-.244c-1.017-2.071-2.938-8.163,4.922-15.046a.852.852,0,0,0,.189-1.035C1641.9,1012.959,1640.64,1010.852,1639.093,1010.34Z" transform="translate(-1616.938 -978.672)" fill="url(#linear-gradient-49)"/>
        <g id="Grupo_55445" data-name="Grupo 55445" transform="translate(25.037 5.697)">
          <path id="Trazado_101238" data-name="Trazado 101238" d="M1718.1,870.343a9.579,9.579,0,0,1,3.289,5.524c.989,3.966-.618,5.389-2.265,5.3a7.641,7.641,0,0,1-6.1-3.442C1710.954,874.881,1715.087,868.439,1718.1,870.343Z" transform="translate(-1709.683 -866.6)" fill="url(#linear-gradient-50)"/>
          <path id="Trazado_101239" data-name="Trazado 101239" d="M1700.6,858.407s-.843-5.684,3.876-4.814l.954.993s2.31-2.6-.246-4.567-6.1-1.463-8.065,2.117-2.675,6.095-1.03,8.319,2.882.317,2.882.317-.754-1.925-.129-2.751,1.433.48,1.433.48Z" transform="translate(-1695.17 -848.88)" fill="url(#linear-gradient-51)"/>
          <path id="Trazado_101240" data-name="Trazado 101240" d="M1713.853,902.419s-.416-2.924-1.91-2.088.538,2.731,1.353,3.377Z" transform="translate(-1708.798 -891.929)" fill="url(#linear-gradient-52)"/>
        </g>
        <g id="Grupo_55446" data-name="Grupo 55446" transform="translate(54.642 0)">
          <path id="Trazado_101241" data-name="Trazado 101241" d="M1880.875,823.1c.032.344-1.246.581-1.652-.884.112-.636.31-3.421.8-3.853a51.467,51.467,0,0,1,7.227-4.9.947.947,0,0,1-.161,1.311l-2.312,1.56a9.346,9.346,0,0,1,.633,2.416,2.708,2.708,0,0,1-.683,1.89c-.46.526-1.079,1.2-1.638,1.72A2.672,2.672,0,0,1,1880.875,823.1Z" transform="translate(-1879.222 -813.463)" fill="url(#linear-gradient-53)"/>
          <path id="Trazado_101242" data-name="Trazado 101242" d="M1889.479,841.526l-.338-.139a19.747,19.747,0,0,1,1.691-3.368.819.819,0,0,0,.3-.548.4.4,0,0,0-.125-.248l-1.878,1-.827,1.3-.308-.2.879-1.376,2.184-1.168.094.077a.825.825,0,0,1,.347.589,1.13,1.13,0,0,1-.4.823A18.864,18.864,0,0,0,1889.479,841.526Z" transform="translate(-1886.579 -833.031)" fill="url(#linear-gradient-54)"/>
        </g>
      </g>
      <g id="Grupo_55449" data-name="Grupo 55449" transform="translate(115.556 209.329)">
        <path id="Trazado_101243" data-name="Trazado 101243" d="M115.556,756.886a18.578,18.578,0,0,0,18.578,18.579,19.289,19.289,0,0,0,19.038-18.942c0-10.26-8.777-18.215-19.038-18.215A18.578,18.578,0,0,0,115.556,756.886Z" transform="translate(-115.556 -736.723)" fill="#392a8d"/>
        <g id="Grupo_55448" data-name="Grupo 55448" transform="translate(11.337 2.346)">
          <path id="Trazado_101244" data-name="Trazado 101244" d="M335.748,812.93a.123.123,0,0,0,.033,0,.128.128,0,0,0,.091-.157,16.794,16.794,0,0,0-.759-2.213.128.128,0,1,0-.236.1,16.472,16.472,0,0,1,.747,2.179A.129.129,0,0,0,335.748,812.93Z" transform="translate(-310.927 -799.629)" fill="#bdd0fb"/>
          <path id="Trazado_101245" data-name="Trazado 101245" d="M208.018,750.53a.128.128,0,0,0,.1-.205,18.621,18.621,0,0,0-14.832-7.29,17.694,17.694,0,0,0-7.176,1.5.128.128,0,0,0,.1.235,17.433,17.433,0,0,1,7.073-1.482,18.364,18.364,0,0,1,14.627,7.187A.128.128,0,0,0,208.018,750.53Z" transform="translate(-186.036 -743.035)" fill="#bdd0fb"/>
        </g>
        <path id="Trazado_101246" data-name="Trazado 101246" d="M131.27,769.912a16.082,16.082,0,0,0,16.082,16.082,16.7,16.7,0,0,0,16.479-16.4c0-8.882-7.6-15.767-16.479-15.767A16.082,16.082,0,0,0,131.27,769.912Z" transform="translate(-128.742 -749.748)" fill="#d7c8f2"/>
        <path id="Trazado_101247" data-name="Trazado 101247" d="M131.27,769.912a16.082,16.082,0,0,1,16.082-16.082,16.865,16.865,0,0,1,12.3,5.281l-12.388,10.308-2.547,16.358A16.085,16.085,0,0,1,131.27,769.912Z" transform="translate(-128.742 -749.748)" fill="#a397e3"/>
        <path id="Trazado_101248" data-name="Trazado 101248" d="M144.878,771.142a14.667,14.667,0,0,0,14.815,14.514c8.182,0,15.181-6.782,15.181-14.8s-7-14.23-15.181-14.23A14.666,14.666,0,0,0,144.878,771.142Z" transform="translate(-140.162 -752.097)" fill="#d7c8f2"/>
        <path id="Trazado_101249" data-name="Trazado 101249" d="M308.139,841.789a1.238,1.238,0,1,0,1.164-1.308A1.238,1.238,0,0,0,308.139,841.789Z" transform="translate(-277.16 -822.459)" fill="url(#linear-gradient)"/>
        <path id="Trazado_101250" data-name="Trazado 101250" d="M141.844,851.468a1.238,1.238,0,1,0,1.164-1.308A1.238,1.238,0,0,0,141.844,851.468Z" transform="translate(-137.614 -830.581)" fill="url(#linear-gradient)"/>
        <path id="Trazado_101251" data-name="Trazado 101251" d="M240.969,927.27a1.238,1.238,0,1,0,1.44,1A1.238,1.238,0,0,0,240.969,927.27Z" transform="translate(-219.944 -895.272)" fill="url(#linear-gradient)"/>
        <path id="Trazado_101252" data-name="Trazado 101252" d="M211.039,763.4a1.238,1.238,0,1,0,1.44,1A1.238,1.238,0,0,0,211.039,763.4Z" transform="translate(-194.828 -757.765)" fill="url(#linear-gradient)"/>
        <path id="Trazado_101253" data-name="Trazado 101253" d="M191.144,929.206c-.126.317-.094.615.07.664s.4-.168.526-.486.094-.615-.07-.664S191.269,928.888,191.144,929.206Z" transform="translate(-178.921 -896.501)" fill="url(#linear-gradient)"/>
        <path id="Trazado_101254" data-name="Trazado 101254" d="M258.044,773.779c-.126.318-.094.615.07.664s.4-.168.526-.486.094-.615-.07-.664S258.17,773.462,258.044,773.779Z" transform="translate(-235.06 -766.075)" fill="url(#linear-gradient)"/>
        <path id="Trazado_101255" data-name="Trazado 101255" d="M154.909,901.146c-.272.206-.4.477-.285.6s.429.064.7-.142.4-.476.285-.6S155.181,900.94,154.909,901.146Z" transform="translate(-148.304 -873.193)" fill="url(#linear-gradient)"/>
        <path id="Trazado_101256" data-name="Trazado 101256" d="M292.785,803.048c-.272.206-.4.477-.285.6s.429.064.7-.142.4-.476.285-.6S293.057,802.842,292.785,803.048Z" transform="translate(-264.003 -790.875)" fill="url(#linear-gradient)"/>
        <path id="Trazado_101257" data-name="Trazado 101257" d="M148.692,813.687c-.308-.147-.607-.135-.667.026s.141.411.449.557.607.135.667-.025S149,813.834,148.692,813.687Z" transform="translate(-142.793 -799.891)" fill="url(#linear-gradient)"/>
        <path id="Trazado_101258" data-name="Trazado 101258" d="M299.289,890.847c-.308-.147-.607-.135-.667.026s.141.411.449.557.607.135.667-.026S299.6,890.994,299.289,890.847Z" transform="translate(-269.166 -864.639)" fill="#fff" opacity="0.78"/>
        <path id="Trazado_101259" data-name="Trazado 101259" d="M180.591,779.477c-.187-.285-.448-.431-.584-.324s-.092.424.095.71.449.431.583.324S180.779,779.762,180.591,779.477Z" transform="translate(-169.575 -770.968)" fill="url(#linear-gradient)"/>
        <path id="Trazado_101260" data-name="Trazado 101260" d="M269.234,923.614c-.187-.285-.449-.431-.584-.324s-.092.424.095.709.449.431.584.324S269.422,923.9,269.234,923.614Z" transform="translate(-243.959 -891.92)" fill="url(#linear-gradient-65)"/>
        <path id="Trazado_101261" data-name="Trazado 101261" d="M232.213,850.554l9.946,4.961a.285.285,0,0,0,.412-.263l-.039-1.28a.285.285,0,0,1,.473-.222l7.191,6.332a.285.285,0,0,1-.248.492l-9.262-1.978a.285.285,0,0,1-.14-.481l1.084-1.069a.285.285,0,0,0-.058-.449l-9.628-5.539a.285.285,0,0,1-.108-.383h0A.285.285,0,0,1,232.213,850.554Z" transform="translate(-213.103 -830.888)" fill="aqua"/>
        <path id="Trazado_101262" data-name="Trazado 101262" d="M301.33,900.373a.246.246,0,0,0,.154-.435l-1.574-1.3a.128.128,0,0,0-.163.2l1.574,1.3c-2.1-.479-7.008-1.549-7.11-1.559a.128.128,0,0,0-.029.255c.147.024,3.911.842,7.094,1.536A.252.252,0,0,0,301.33,900.373Z" transform="translate(-265.356 -871.21)" fill="url(#linear-gradient-66)"/>
        <path id="Trazado_101263" data-name="Trazado 101263" d="M217.759,747.628l.02-9.725a.285.285,0,0,0-.423-.244l-1.119.624a.285.285,0,0,1-.415-.318l2.314-9.3a.285.285,0,0,1,.551-.007l2.5,9.134a.285.285,0,0,1-.363.346l-1.448-.471a.285.285,0,0,0-.373.258l-.68,9.709a.285.285,0,0,1-.29.272h0A.285.285,0,0,1,217.759,747.628Z" transform="translate(-199.686 -728.451)" fill="aqua"/>
        <path id="Trazado_101264" data-name="Trazado 101264" d="M230.437,742.6a.126.126,0,0,0,.047-.009.128.128,0,0,0,.074-.164c-.047-.141-1.052-3.859-1.9-7a.245.245,0,0,0-.477.012l-.431,2a.128.128,0,0,0,.251.054l.431-2c.539,2.082,1.849,6.934,1.886,7.03A.128.128,0,0,0,230.437,742.6Z" transform="translate(-209.701 -734.148)" fill="url(#linear-gradient-67)"/>
        <path id="Trazado_101265" data-name="Trazado 101265" d="M223.544,844.016a1.322,1.322,0,1,0,1.322-1.322A1.322,1.322,0,0,0,223.544,844.016Z" transform="translate(-206.174 -824.318)" fill="aqua"/>
      </g>
      <g id="Grupo_55452" data-name="Grupo 55452" transform="translate(207.308 120.874)">
        <g id="Grupo_55450" data-name="Grupo 55450" transform="translate(0 19.915)">
          <path id="Trazado_101266" data-name="Trazado 101266" d="M1873.175,302.42l1.177.869a.365.365,0,1,1-.434.587l-1.176-.867a.366.366,0,0,1,.433-.589Z" transform="translate(-1681.722 -302.348)" fill="#7d97f4"/>
          <path id="Trazado_101267" data-name="Trazado 101267" d="M1893.271,317.311l1.172.876a.364.364,0,1,1-.436.582l-1.171-.875a.364.364,0,1,1,.435-.585Z" transform="translate(-1698.586 -314.843)" fill="#7d97f4"/>
          <path id="Trazado_101268" data-name="Trazado 101268" d="M1913.274,332.336l1.166.886a.362.362,0,1,1-.439.576l-1.164-.883a.363.363,0,1,1,.437-.579Z" transform="translate(-1715.372 -327.45)" fill="#7d97f4"/>
          <path id="Trazado_101269" data-name="Trazado 101269" d="M1933.156,347.525l1.157.9a.361.361,0,1,1-.443.57l-1.155-.893a.361.361,0,1,1,.44-.573Z" transform="translate(-1732.055 -340.195)" fill="#7d97f4"/>
          <path id="Trazado_101270" data-name="Trazado 101270" d="M1952.884,362.9l1.148.909a.359.359,0,1,1-.447.562l-1.146-.906a.36.36,0,1,1,.444-.566Z" transform="translate(-1748.61 -353.097)" fill="#7d97f4"/>
          <path id="Trazado_101271" data-name="Trazado 101271" d="M1972.444,378.5l1.138.924a.358.358,0,1,1-.452.554l-1.136-.921a.358.358,0,1,1,.448-.558Z" transform="translate(-1765.023 -366.188)" fill="#7d97f4"/>
          <path id="Trazado_101272" data-name="Trazado 101272" d="M1991.814,394.361l1.124.939a.356.356,0,1,1-.456.547h0l-1.122-.936h0a.357.357,0,0,1,.457-.548Z" transform="translate(-1781.276 -379.491)" fill="#7d97f4"/>
          <path id="Trazado_101273" data-name="Trazado 101273" d="M2010.948,410.485l1.11.956a.354.354,0,1,1-.463.537h0l-1.108-.952h0a.355.355,0,0,1,.463-.539Z" transform="translate(-1797.331 -393.019)" fill="#7d97f4"/>
          <path id="Trazado_101274" data-name="Trazado 101274" d="M2029.826,426.909l1.094.975a.353.353,0,0,1-.47.527h0l-1.091-.971,0,0a.354.354,0,1,1,.47-.528Z" transform="translate(-1813.171 -406.798)" fill="#7d97f4"/>
          <path id="Trazado_101275" data-name="Trazado 101275" d="M2048.416,443.658l1.076.995a.351.351,0,1,1-.477.516h0l-1.073-.991,0,0a.352.352,0,1,1,.478-.517Z" transform="translate(-1828.769 -420.85)" fill="#7d97f4"/>
          <path id="Trazado_101276" data-name="Trazado 101276" d="M2066.684,460.76l1.055,1.017a.35.35,0,1,1-.485.5h0l-1.052-1.012,0,0a.351.351,0,1,1,.486-.505Z" transform="translate(-1844.096 -435.197)" fill="#7d97f4"/>
          <path id="Trazado_101277" data-name="Trazado 101277" d="M2084.591,478.242l1.033,1.04a.349.349,0,0,1-.5.491v0l-1.03-1.035v0a.349.349,0,1,1,.495-.492Z" transform="translate(-1859.12 -449.862)" fill="#7d97f4"/>
          <path id="Trazado_101278" data-name="Trazado 101278" d="M2102.092,496.128l1.007,1.065a.347.347,0,0,1-.5.477l0,0-1-1.06,0,0a.348.348,0,0,1,.5-.478Z" transform="translate(-1873.803 -464.867)" fill="#7d97f4"/>
          <path id="Trazado_101279" data-name="Trazado 101279" d="M2119.142,514.448l.979,1.092a.346.346,0,0,1-.515.461l0,0-.975-1.086,0,0a.346.346,0,0,1,.515-.462Z" transform="translate(-1888.107 -480.235)" fill="#7d97f4"/>
          <path id="Trazado_101280" data-name="Trazado 101280" d="M2135.686,533.228l.947,1.12a.344.344,0,1,1-.525.444l0,0-.943-1.113,0,0a.344.344,0,0,1,.526-.445Z" transform="translate(-1901.987 -495.988)" fill="#7d97f4"/>
          <path id="Trazado_101281" data-name="Trazado 101281" d="M2151.662,552.492l.911,1.15a.342.342,0,1,1-.537.425l0,0-.906-1.142,0,0a.343.343,0,0,1,.537-.427Z" transform="translate(-1915.39 -512.147)" fill="#7d97f4"/>
          <path id="Trazado_101282" data-name="Trazado 101282" d="M2167,572.267l.871,1.181a.341.341,0,0,1-.549.405l0,0-.866-1.173,0,0a.341.341,0,0,1,.549-.406Z" transform="translate(-1928.259 -528.734)" fill="#7d97f4"/>
          <path id="Trazado_101283" data-name="Trazado 101283" d="M2181.632,592.576l.826,1.213a.339.339,0,1,1-.561.382l0,0-.822-1.2,0,0a.34.34,0,1,1,.562-.383Z" transform="translate(-1940.532 -545.767)" fill="#7d97f4"/>
          <path id="Trazado_101284" data-name="Trazado 101284" d="M2195.466,613.435l.776,1.246a.338.338,0,0,1-.574.357l0,0-.771-1.236,0,0a.339.339,0,0,1,.574-.358Z" transform="translate(-1952.136 -563.262)" fill="#7d97f4"/>
          <path id="Trazado_101285" data-name="Trazado 101285" d="M2208.407,634.856l.72,1.28a.337.337,0,0,1-.587.33l0,0-.715-1.269,0-.005a.337.337,0,1,1,.587-.331Z" transform="translate(-1962.991 -581.228)" fill="#7d97f4"/>
          <path id="Trazado_101286" data-name="Trazado 101286" d="M2220.355,656.847l.657,1.313a.335.335,0,0,1-.6.3l0-.005-.653-1.3,0-.006a.336.336,0,0,1,.6-.3Z" transform="translate(-1973.014 -599.67)" fill="#7d97f4"/>
          <path id="Trazado_101287" data-name="Trazado 101287" d="M2231.2,679.4l.588,1.346a.333.333,0,0,1-.611.267l0-.006-.583-1.333,0-.006a.334.334,0,0,1,.612-.268Z" transform="translate(-1982.11 -618.581)" fill="#7d97f4"/>
          <path id="Trazado_101288" data-name="Trazado 101288" d="M2240.827,702.5l.511,1.376a.332.332,0,0,1-.622.231l0-.006-.508-1.363,0-.007a.333.333,0,0,1,.623-.232Z" transform="translate(-1990.186 -637.952)" fill="#7d97f4"/>
          <path id="Trazado_101289" data-name="Trazado 101289" d="M2249.12,726.109l.429,1.4a.331.331,0,0,1-.632.193l0-.007-.425-1.39,0-.007a.331.331,0,0,1,.633-.194Z" transform="translate(-1997.142 -657.75)" fill="#7d97f4"/>
          <path id="Trazado_101290" data-name="Trazado 101290" d="M2255.966,750.175l.339,1.43a.329.329,0,1,1-.64.152v-.007l-.338-1.415,0-.007a.33.33,0,0,1,.642-.153Z" transform="translate(-2002.884 -677.929)" fill="#7d97f4"/>
          <path id="Trazado_101291" data-name="Trazado 101291" d="M2261.265,774.64l.245,1.45a.327.327,0,1,1-.645.109l0-.008-.244-1.434v-.008a.328.328,0,0,1,.647-.11Z" transform="translate(-2007.33 -698.442)" fill="#7d97f4"/>
          <path id="Trazado_101292" data-name="Trazado 101292" d="M2264.929,799.4l.147,1.463a.326.326,0,0,1-.648.065v-.008l-.146-1.447v-.008a.326.326,0,1,1,.649-.065Z" transform="translate(-2010.404 -719.204)" fill="#7d97f4"/>
          <path id="Trazado_101293" data-name="Trazado 101293" d="M2266.9,824.358l.046,1.47a.324.324,0,1,1-.648.02v-.008l-.047-1.454v-.008a.325.325,0,1,1,.649-.021Z" transform="translate(-2012.058 -740.128)" fill="#7d97f4"/>
          <path id="Trazado_101294" data-name="Trazado 101294" d="M2266.853,849.389l-.056,1.468a.323.323,0,1,1-.645-.025v-.008l.054-1.452v-.008a.323.323,0,0,1,.646.024Z" transform="translate(-2011.977 -761.115)" fill="#7d97f4"/>
          <path id="Trazado_101295" data-name="Trazado 101295" d="M2264.851,874.358l-.156,1.461a.321.321,0,1,1-.639-.068v-.008l.154-1.446v-.008a.322.322,0,0,1,.64.068Z" transform="translate(-2010.217 -782.05)" fill="#7d97f4"/>
          <path id="Trazado_101296" data-name="Trazado 101296" d="M2261.179,899.18l-.253,1.448a.32.32,0,0,1-.63-.11v-.007l.249-1.433v-.007a.32.32,0,0,1,.631.11Z" transform="translate(-2007.059 -802.863)" fill="#7d97f4"/>
          <path id="Trazado_101297" data-name="Trazado 101297" d="M2255.908,923.752c-.114.477-.224.955-.345,1.43a.318.318,0,1,1-.617-.157c.12-.47.228-.944.341-1.416V923.6a.319.319,0,0,1,.62.148Z" transform="translate(-2002.566 -823.468)" fill="#7d97f4"/>
          <path id="Trazado_101298" data-name="Trazado 101298" d="M2249.018,947.957l-.442,1.4a.317.317,0,0,1-.6-.19l0-.007.436-1.388,0-.007a.317.317,0,1,1,.605.19Z" transform="translate(-1996.709 -843.763)" fill="#7d97f4"/>
          <path id="Trazado_101299" data-name="Trazado 101299" d="M2240.511,971.665l-.536,1.369a.315.315,0,1,1-.587-.23l0-.007.529-1.355,0-.007a.316.316,0,0,1,.589.23Z" transform="translate(-1989.5 -863.643)" fill="#7d97f4"/>
          <path id="Trazado_101300" data-name="Trazado 101300" d="M2230.454,994.775l-.625,1.33a.314.314,0,0,1-.568-.267l0-.007.617-1.317,0-.007a.314.314,0,0,1,.569.267Z" transform="translate(-1980.996 -883.022)" fill="#7d97f4"/>
          <path id="Trazado_101301" data-name="Trazado 101301" d="M2218.935,1017.2l-.708,1.287a.312.312,0,1,1-.547-.3l0-.006.7-1.275,0-.006a.313.313,0,0,1,.548.3Z" transform="translate(-1971.27 -901.83)" fill="#7d97f4"/>
          <path id="Trazado_101302" data-name="Trazado 101302" d="M2206.056,1038.887l-.786,1.241a.311.311,0,0,1-.525-.333l0-.005.778-1.23,0-.005a.311.311,0,0,1,.526.332Z" transform="translate(-1960.408 -920.013)" fill="#7d97f4"/>
          <path id="Trazado_101303" data-name="Trazado 101303" d="M2191.923,1059.776l-.856,1.193a.309.309,0,0,1-.5-.361l0-.005.849-1.183,0-.005a.31.31,0,0,1,.5.361Z" transform="translate(-1948.5 -937.531)" fill="#7d97f4"/>
          <path id="Trazado_101304" data-name="Trazado 101304" d="M2176.647,1079.842l-.922,1.143a.308.308,0,1,1-.479-.386l0,0,.913-1.135,0,0a.308.308,0,1,1,.48.386Z" transform="translate(-1935.637 -954.36)" fill="#7d97f4"/>
          <path id="Trazado_101305" data-name="Trazado 101305" d="M2160.333,1099.067l-.98,1.094a.306.306,0,0,1-.457-.409l0,0,.971-1.086,0,0a.307.307,0,0,1,.458.409Z" transform="translate(-1921.909 -970.484)" fill="#7d97f4"/>
          <path id="Trazado_101306" data-name="Trazado 101306" d="M2143.083,1117.445l-1.032,1.044a.3.3,0,1,1-.433-.428l0,0,1.024-1.037,0,0a.305.305,0,1,1,.434.429Z" transform="translate(-1907.4 -985.899)" fill="#7d97f4"/>
          <path id="Trazado_101307" data-name="Trazado 101307" d="M2124.99,1134.982l-1.08.995a.3.3,0,0,1-.411-.446l0,0,1.072-.989,0,0a.3.3,0,0,1,.412.447Z" transform="translate(-1892.189 -1000.61)" fill="#7d97f4"/>
          <path id="Trazado_101308" data-name="Trazado 101308" d="M2106.145,1151.687l-1.122.946a.3.3,0,0,1-.39-.461l0,0,1.114-.941,0,0a.3.3,0,0,1,.39.462Z" transform="translate(-1876.35 -1014.622)" fill="#7d97f4"/>
          <path id="Trazado_101309" data-name="Trazado 101309" d="M2086.623,1167.575l-1.159.9a.3.3,0,0,1-.368-.475l0,0,1.152-.894,0,0a.3.3,0,1,1,.369.475Z" transform="translate(-1859.946 -1027.95)" fill="#7d97f4"/>
          <path id="Trazado_101310" data-name="Trazado 101310" d="M2066.494,1182.666l-1.193.853a.3.3,0,0,1-.348-.486l0,0,1.187-.849,0,0a.3.3,0,1,1,.348.487Z" transform="translate(-1843.037 -1040.61)" fill="#7d97f4"/>
          <path id="Trazado_101311" data-name="Trazado 101311" d="M2045.819,1196.979l-1.224.808a.3.3,0,0,1-.328-.5l0,0,1.217-.8,0,0a.3.3,0,1,1,.328.5Z" transform="translate(-1825.672 -1052.619)" fill="#7d97f4"/>
          <path id="Trazado_101312" data-name="Trazado 101312" d="M2024.654,1210.536l-1.252.764a.3.3,0,0,1-.308-.5l0,0,1.245-.761,0,0a.3.3,0,1,1,.309.505Z" transform="translate(-1807.897 -1063.992)" fill="#7d97f4"/>
          <path id="Trazado_101313" data-name="Trazado 101313" d="M2003.045,1223.355l-1.276.721a.294.294,0,1,1-.29-.512l0,0,1.27-.719,0,0a.295.295,0,0,1,.291.513Z" transform="translate(-1789.753 -1074.747)" fill="#7d97f4"/>
          <path id="Trazado_101314" data-name="Trazado 101314" d="M1981.038,1235.454l-1.3.68a.293.293,0,0,1-.271-.519h0l1.292-.678,0,0a.293.293,0,1,1,.272.519Z" transform="translate(-1771.275 -1084.899)" fill="#7d97f4"/>
          <path id="Trazado_101315" data-name="Trazado 101315" d="M1958.665,1246.85l-1.319.639a.291.291,0,1,1-.254-.524h0l1.313-.637,0,0a.292.292,0,1,1,.255.525Z" transform="translate(-1752.492 -1094.461)" fill="#7d97f4"/>
          <path id="Trazado_101316" data-name="Trazado 101316" d="M1935.964,1257.556l-1.338.6a.29.29,0,0,1-.236-.529h0l1.332-.6h0a.29.29,0,1,1,.238.529Z" transform="translate(-1733.435 -1103.443)" fill="#7d97f4"/>
          <path id="Trazado_101317" data-name="Trazado 101317" d="M1912.961,1267.581l-1.355.559a.288.288,0,1,1-.22-.533h0l1.349-.558h0a.289.289,0,1,1,.221.533Z" transform="translate(-1714.127 -1111.856)" fill="#7d97f4"/>
          <path id="Trazado_101318" data-name="Trazado 101318" d="M1889.682,1276.934l-1.37.52a.287.287,0,1,1-.2-.536h0l1.364-.519h0a.287.287,0,0,1,.2.537Z" transform="translate(-1694.588 -1119.704)" fill="#7d97f4"/>
          <path id="Trazado_101319" data-name="Trazado 101319" d="M1866.153,1285.62l-1.385.481a.285.285,0,0,1-.187-.539h0l1.378-.48h0a.286.286,0,1,1,.188.539Z" transform="translate(-1674.839 -1126.993)" fill="#7d97f4"/>
          <path id="Trazado_101320" data-name="Trazado 101320" d="M1842.393,1293.637l-1.4.442a.284.284,0,1,1-.171-.541h0l1.392-.441h0a.284.284,0,0,1,.172.542Z" transform="translate(-1654.899 -1133.721)" fill="#7d97f4"/>
          <path id="Trazado_101321" data-name="Trazado 101321" d="M1818.422,1300.982l-1.41.4a.282.282,0,0,1-.155-.543h0l1.4-.4h0a.282.282,0,1,1,.156.543Z" transform="translate(-1634.781 -1139.885)" fill="#7d97f4"/>
          <path id="Trazado_101322" data-name="Trazado 101322" d="M1794.258,1307.645l-1.421.362a.281.281,0,0,1-.139-.544h0l1.414-.361h0a.281.281,0,1,1,.139.545Z" transform="translate(-1614.502 -1145.477)" fill="#7d97f4"/>
          <path id="Trazado_101323" data-name="Trazado 101323" d="M1769.916,1313.61l-1.431.32a.279.279,0,1,1-.122-.545h0l1.424-.32h0a.28.28,0,0,1,.123.546Z" transform="translate(-1594.076 -1150.483)" fill="#7d97f4"/>
          <path id="Trazado_101324" data-name="Trazado 101324" d="M1745.415,1318.854l-1.44.277a.278.278,0,0,1-.1-.545h0l1.433-.276h0a.278.278,0,0,1,.106.546Z" transform="translate(-1573.517 -1154.885)" fill="#7d97f4"/>
          <path id="Trazado_101325" data-name="Trazado 101325" d="M1720.771,1323.35l-1.448.231a.276.276,0,1,1-.087-.545h0l1.441-.231h0a.277.277,0,1,1,.088.546Z" transform="translate(-1552.839 -1158.659)" fill="#7d97f4"/>
          <path id="Trazado_101326" data-name="Trazado 101326" d="M1696.027,1327.121l-1.451.2a.275.275,0,1,1-.074-.544h0l1.447-.2h0a.275.275,0,0,1,.075.545Z" transform="translate(-1532.079 -1161.825)" fill="#7d97f4"/>
          <path id="Trazado_101327" data-name="Trazado 101327" d="M1671.21,1330.351l-1.455.167a.273.273,0,1,1-.062-.543h0l1.451-.167h0a.274.274,0,1,1,.063.544Z" transform="translate(-1511.256 -1164.538)" fill="#7d97f4"/>
          <path id="Trazado_101328" data-name="Trazado 101328" d="M1646.332,1333.04l-1.459.134a.272.272,0,0,1-.05-.541h0l1.454-.135h0a.272.272,0,0,1,.051.542Z" transform="translate(-1490.384 -1166.796)" fill="#7d97f4"/>
          <path id="Trazado_101329" data-name="Trazado 101329" d="M1621.4,1335.169l-1.461.1a.27.27,0,0,1-.038-.539h0l1.457-.1h0a.271.271,0,1,1,.038.54Z" transform="translate(-1469.469 -1168.585)" fill="#7d97f4"/>
          <path id="Trazado_101330" data-name="Trazado 101330" d="M1596.436,1336.722l-1.463.067a.268.268,0,1,1-.024-.536h0l1.459-.068h0a.269.269,0,1,1,.025.537Z" transform="translate(-1448.523 -1169.89)" fill="#7d97f4"/>
          <path id="Trazado_101331" data-name="Trazado 101331" d="M1571.451,1337.682l-1.463.031a.267.267,0,0,1-.011-.534h0l1.458-.032h0a.268.268,0,0,1,.012.535Z" transform="translate(-1427.564 -1170.698)" fill="#7d97f4"/>
          <path id="Trazado_101332" data-name="Trazado 101332" d="M1546.449,1338.014l-1.465-.005a.266.266,0,0,1,0-.531h0l1.46,0h0a.266.266,0,0,1,0,.532Z" transform="translate(-1406.588 -1170.976)" fill="#7d97f4"/>
          <path id="Trazado_101333" data-name="Trazado 101333" d="M1521.449,1337.552l-1.464-.042a.264.264,0,1,1,.015-.528h0l1.46.041h0a.265.265,0,0,1-.015.529Z" transform="translate(-1385.617 -1170.559)" fill="#7d97f4"/>
          <path id="Trazado_101334" data-name="Trazado 101334" d="M1496.471,1336.447l-1.463-.08a.263.263,0,0,1,.029-.525h0l1.458.079h0a.263.263,0,0,1-.028.525Z" transform="translate(-1364.665 -1169.604)" fill="#7d97f4"/>
          <path id="Trazado_101335" data-name="Trazado 101335" d="M1471.53,1334.691l-1.46-.118a.261.261,0,0,1,.042-.52h0l1.455.117h0a.262.262,0,0,1-.042.521Z" transform="translate(-1343.745 -1168.101)" fill="#7d97f4"/>
          <path id="Trazado_101336" data-name="Trazado 101336" d="M1446.646,1332.27l-1.457-.157a.259.259,0,1,1,.056-.516h0l1.451.156h0a.26.26,0,1,1-.055.517Z" transform="translate(-1322.873 -1166.04)" fill="#7d97f4"/>
          <path id="Trazado_101337" data-name="Trazado 101337" d="M1421.837,1329.177l-1.452-.2a.258.258,0,0,1,.069-.511h0l1.447.2h0a.258.258,0,0,1-.069.512Z" transform="translate(-1302.066 -1163.414)" fill="#7d97f4"/>
          <path id="Trazado_101338" data-name="Trazado 101338" d="M1397.123,1325.4l-1.446-.237a.256.256,0,0,1,.083-.506h0l1.441.235h0a.257.257,0,0,1-.083.507Z" transform="translate(-1281.34 -1160.218)" fill="#7d97f4"/>
          <path id="Trazado_101339" data-name="Trazado 101339" d="M1372.523,1320.945l-1.439-.277a.255.255,0,0,1,.1-.5h0l1.434.275h0a.255.255,0,0,1-.1.5Z" transform="translate(-1260.71 -1156.445)" fill="#7d97f4"/>
          <path id="Trazado_101340" data-name="Trazado 101340" d="M1348.059,1315.8l-1.43-.318a.253.253,0,0,1,.11-.495h0l1.426.316h0a.254.254,0,0,1-.11.5Z" transform="translate(-1240.194 -1152.095)" fill="#7d97f4"/>
          <path id="Trazado_101341" data-name="Trazado 101341" d="M1323.749,1309.96l-1.421-.358a.252.252,0,0,1,.123-.489h0l1.416.356h0a.252.252,0,0,1-.123.49Z" transform="translate(-1219.81 -1147.167)" fill="#7d97f4"/>
          <path id="Trazado_101342" data-name="Trazado 101342" d="M1299.615,1303.432l-1.41-.4a.25.25,0,1,1,.136-.482h0l1.405.4h0a.251.251,0,0,1-.136.483Z" transform="translate(-1199.573 -1141.66)" fill="#7d97f4"/>
          <path id="Trazado_101343" data-name="Trazado 101343" d="M1275.676,1296.22l-1.4-.438a.249.249,0,1,1,.149-.475h0l1.394.436h0a.249.249,0,0,1-.149.476Z" transform="translate(-1179.501 -1135.578)" fill="#7d97f4"/>
          <path id="Trazado_101344" data-name="Trazado 101344" d="M1251.953,1288.327l-1.385-.478a.247.247,0,1,1,.161-.468h0l1.381.475h0a.248.248,0,0,1-.161.469Z" transform="translate(-1159.612 -1128.926)" fill="#7d97f4"/>
          <path id="Trazado_101345" data-name="Trazado 101345" d="M1228.463,1279.763l-1.371-.517a.246.246,0,0,1,.174-.46h0l1.367.515h0a.246.246,0,1,1-.174.461Z" transform="translate(-1139.918 -1121.711)" fill="#7d97f4"/>
          <path id="Trazado_101346" data-name="Trazado 101346" d="M1205.223,1270.584l-1.356-.548a.244.244,0,1,1,.184-.453l1.354.546a.245.245,0,1,1-.181.455Z" transform="translate(-1120.434 -1113.988)" fill="#7d97f4"/>
          <path id="Trazado_101347" data-name="Trazado 101347" d="M1182.128,1261.034l-1.349-.566a.243.243,0,1,1,.188-.448l1.347.564a.243.243,0,0,1-.186.45Z" transform="translate(-1101.063 -1105.962)" fill="#7d97f4"/>
          <path id="Trazado_101348" data-name="Trazado 101348" d="M1159.148,1251.219l-1.343-.58a.241.241,0,1,1,.192-.443l1.342.579a.242.242,0,1,1-.19.445Z" transform="translate(-1081.787 -1097.716)" fill="#7d97f4"/>
          <path id="Trazado_101349" data-name="Trazado 101349" d="M1136.249,1241.193l-1.339-.591a.24.24,0,1,1,.194-.439l1.338.59a.24.24,0,1,1-.193.44Z" transform="translate(-1062.578 -1089.297)" fill="#7d97f4"/>
          <path id="Trazado_101350" data-name="Trazado 101350" d="M1113.408,1231.018l-1.336-.6a.238.238,0,1,1,.2-.435l1.336.6a.239.239,0,0,1-.195.436Z" transform="translate(-1043.415 -1080.755)" fill="#7d97f4"/>
          <path id="Trazado_101351" data-name="Trazado 101351" d="M1090.6,1220.752l-1.334-.6a.237.237,0,1,1,.195-.432l1.334.6a.237.237,0,0,1-.195.433Z" transform="translate(-1024.278 -1072.14)" fill="#7d97f4"/>
          <path id="Trazado_101352" data-name="Trazado 101352" d="M1067.812,1210.462l-1.334-.6a.235.235,0,0,1,.194-.429l1.334.6a.236.236,0,0,1-.194.43Z" transform="translate(-1005.157 -1063.508)" fill="#7d97f4"/>
          <path id="Trazado_101353" data-name="Trazado 101353" d="M1045.011,1200.2l-1.335-.6a.234.234,0,1,1,.191-.427l1.336.6a.234.234,0,0,1-.192.428Z" transform="translate(-986.022 -1054.903)" fill="#7d97f4"/>
          <path id="Trazado_101354" data-name="Trazado 101354" d="M1022.161,1190.029l-1.337-.593a.232.232,0,1,1,.188-.425l1.339.593a.233.233,0,0,1-.189.426Z" transform="translate(-966.846 -1046.374)" fill="#7d97f4"/>
          <path id="Trazado_101355" data-name="Trazado 101355" d="M999.252,1180.007l-1.341-.583a.231.231,0,1,1,.183-.424l1.343.582a.231.231,0,1,1-.184.425Z" transform="translate(-947.618 -1037.974)" fill="#7d97f4"/>
          <path id="Trazado_101356" data-name="Trazado 101356" d="M976.262,1170.2l-1.347-.569a.229.229,0,1,1,.178-.423l1.348.569a.23.23,0,1,1-.178.423Z" transform="translate(-928.32 -1029.755)" fill="#7d97f4"/>
          <path id="Trazado_101357" data-name="Trazado 101357" d="M953.167,1160.658l-1.353-.552a.228.228,0,1,1,.171-.423l1.355.552a.228.228,0,1,1-.172.423Z" transform="translate(-908.933 -1021.767)" fill="#7d97f4"/>
          <path id="Trazado_101358" data-name="Trazado 101358" d="M929.947,1151.455l-1.36-.531a.226.226,0,1,1,.163-.422l1.363.531a.227.227,0,0,1-.164.423Z" transform="translate(-889.439 -1014.063)" fill="#7d97f4"/>
          <path id="Trazado_101359" data-name="Trazado 101359" d="M906.569,1142.642l-1.369-.506a.225.225,0,1,1,.154-.422l1.373.506a.225.225,0,0,1-.156.423Z" transform="translate(-869.812 -1006.689)" fill="#7d97f4"/>
          <path id="Trazado_101360" data-name="Trazado 101360" d="M883.026,1134.284l-1.379-.478a.223.223,0,1,1,.144-.422l1.383.478a.224.224,0,1,1-.146.423Z" transform="translate(-850.044 -999.7)" fill="#7d97f4"/>
          <path id="Trazado_101361" data-name="Trazado 101361" d="M859.3,1126.444l-1.39-.446h0a.222.222,0,0,1,.136-.422l1.394.447a.222.222,0,0,1-.136.423h0Z" transform="translate(-830.124 -993.148)" fill="#7d97f4"/>
          <path id="Trazado_101362" data-name="Trazado 101362" d="M835.387,1119.192l-1.4-.41h0a.22.22,0,1,1,.124-.422l1.407.41a.221.221,0,1,1-.124.424h0Z" transform="translate(-810.042 -987.095)" fill="#7d97f4"/>
          <path id="Trazado_101363" data-name="Trazado 101363" d="M811.236,1112.776l-1.416-.354h0a.219.219,0,0,1,.106-.424l1.422.354a.219.219,0,1,1-.106.426h0Z" transform="translate(-789.757 -981.758)" fill="#7d97f4"/>
          <path id="Trazado_101364" data-name="Trazado 101364" d="M786.845,1107.354l-1.429-.3h0a.217.217,0,0,1,.088-.425l1.436.3a.218.218,0,0,1-.088.427h0Z" transform="translate(-769.271 -977.258)" fill="#7d97f4"/>
          <path id="Trazado_101365" data-name="Trazado 101365" d="M762.248,1102.954l-1.44-.235h0a.216.216,0,0,1,.069-.426l1.447.235a.216.216,0,0,1-.069.427h0Z" transform="translate(-748.615 -973.619)" fill="#7d97f4"/>
          <path id="Trazado_101366" data-name="Trazado 101366" d="M737.487,1099.607l-1.449-.173h0a.214.214,0,0,1,.051-.426l1.456.173a.215.215,0,1,1-.051.426h0Z" transform="translate(-727.823 -970.863)" fill="#7d97f4"/>
          <path id="Trazado_101367" data-name="Trazado 101367" d="M712.6,1097.338l-1.455-.109h0a.213.213,0,0,1,.032-.424l1.462.109a.213.213,0,0,1-.032.426h0Z" transform="translate(-706.93 -969.015)" fill="#7d97f4"/>
          <path id="Trazado_101368" data-name="Trazado 101368" d="M687.637,1096.176l-1.459-.044h0a.211.211,0,0,1,.013-.422l1.466.043a.212.212,0,1,1-.012.423h0Z" transform="translate(-685.969 -968.096)" fill="#7d97f4"/>
        </g>
        <g id="Grupo_55451" data-name="Grupo 55451" transform="translate(163.041 0)">
          <path id="Trazado_101369" data-name="Trazado 101369" d="M1837.874,260.222l-2.126,6.232-3.306-4.119Z" transform="translate(-1811.071 -247.083)" fill="#7d97f4"/>
          <path id="Trazado_101370" data-name="Trazado 101370" d="M1699.584,178.536l11.793,20.5a1.666,1.666,0,0,0,2.329.581l20.141-12.615a.668.668,0,0,0-.215-1.219Z" transform="translate(-1699.584 -178.536)" fill="#91b3fa"/>
          <path id="Trazado_101371" data-name="Trazado 101371" d="M1726.385,191.675l-26.8-13.139,23.557,15.185-.516,1.753Z" transform="translate(-1699.584 -178.536)" fill="#7d97f4"/>
          <path id="Trazado_101372" data-name="Trazado 101372" d="M1834.019,274.14l3.053,2.987-1.12-4.186Z" transform="translate(-1812.395 -257.756)" fill="#7d97f4"/>
        </g>
      </g>
    </g>
  </g>
</svg>
