<svg xmlns="http://www.w3.org/2000/svg" xmlns:xlink="http://www.w3.org/1999/xlink" width="406" height="295" viewBox="0 0 406 295">
  <defs>
    <linearGradient id="linear-gradient" y1="0.5" x2="1" y2="0.5" gradientUnits="objectBoundingBox">
      <stop offset="0" stop-color="#dae3fe"/>
      <stop offset="1" stop-color="#e9effd"/>
    </linearGradient>
    <linearGradient id="linear-gradient-5" x1="0.691" y1="0.011" x2="-0.252" y2="3.129" gradientUnits="objectBoundingBox">
      <stop offset="0" stop-color="#09005d"/>
      <stop offset="1" stop-color="#1a0f91"/>
    </linearGradient>
    <linearGradient id="linear-gradient-6" x1="0.51" y1="-6.767" x2="0.499" y2="1.455" xlink:href="#linear-gradient-5"/>
    <linearGradient id="linear-gradient-22" x1="12.061" y1="21.079" x2="9.147" y2="24.635" xlink:href="#linear-gradient-5"/>
    <linearGradient id="linear-gradient-23" x1="-4.734" y1="123.76" x2="-5.812" y2="130.123" xlink:href="#linear-gradient-5"/>
    <linearGradient id="linear-gradient-24" x1="-2.704" y1="125.065" x2="-3.149" y2="131.277" xlink:href="#linear-gradient-5"/>
    <linearGradient id="linear-gradient-25" x1="0.819" y1="-1.661" x2="0.593" y2="-0.128" xlink:href="#linear-gradient-5"/>
    <linearGradient id="linear-gradient-26" y1="0.5" x2="1" y2="0.5" gradientUnits="objectBoundingBox">
      <stop offset="0" stop-color="#4042e2"/>
      <stop offset="1" stop-color="#4f52ff"/>
    </linearGradient>
    <linearGradient id="linear-gradient-36" x1="-0.183" y1="-0.178" x2="1.099" y2="0.971" gradientUnits="objectBoundingBox">
      <stop offset="0" stop-color="#ff928e"/>
      <stop offset="1" stop-color="#feb3b1"/>
    </linearGradient>
    <linearGradient id="linear-gradient-37" x1="47.577" y1="5.607" x2="48.341" y2="4.248" xlink:href="#linear-gradient-36"/>
    <linearGradient id="linear-gradient-38" x1="123.005" y1="-5.594" x2="121.802" y2="0.571" xlink:href="#linear-gradient-5"/>
    <linearGradient id="linear-gradient-39" x1="88.119" y1="-14.746" x2="87.26" y2="-0.838" xlink:href="#linear-gradient-5"/>
    <linearGradient id="linear-gradient-40" x1="81.845" y1="5.836" x2="83.163" y2="4.383" xlink:href="#linear-gradient-36"/>
    <linearGradient id="linear-gradient-41" x1="140.883" y1="0.5" x2="141.883" y2="0.5" gradientUnits="objectBoundingBox">
      <stop offset="0" stop-color="#f9b776"/>
      <stop offset="1" stop-color="#f47960"/>
    </linearGradient>
    <linearGradient id="linear-gradient-42" x1="77.258" y1="0.479" x2="81.239" y2="0.754" xlink:href="#linear-gradient-36"/>
    <linearGradient id="linear-gradient-43" x1="40.313" y1="0.426" x2="39.591" y2="1.36" xlink:href="#linear-gradient-5"/>
    <linearGradient id="linear-gradient-44" x1="39.501" y1="-6.768" x2="40.229" y2="-5.719" xlink:href="#linear-gradient-36"/>
  </defs>
  <g id="Grupo_56722" data-name="Grupo 56722" transform="translate(-954 -5006)">
    <rect id="Rect치ngulo_5659" data-name="Rect치ngulo 5659" width="406" height="295" transform="translate(954 5006)" fill="none"/>
    <g id="Grupo_56721" data-name="Grupo 56721" transform="translate(782.466 4895.596)">
      <path id="Trazado_101473" data-name="Trazado 101473" d="M285.527,363.577s-32.594-4.337-48.07-.95-53.813-14.986-41.107-43.823,27.092-46.707,10.47-62.476-21.848-45.8-4.711-62.676,22.3.488,35.95-5.728-3.684-38.636,34.887-47.8,67.375,13.8,84.913,10.673,45.671-17.573,64.6-16.766,16.578,29.024,41.692,27.379,44.827-4.487,61.1,19.534,12.356,54.487-3.154,66.527S509.6,275.7,538.2,276.633s25.377,34.511,2.04,59.3S496.887,361,473.577,362.627,285.527,363.577,285.527,363.577Z" transform="translate(0 0)" fill="#fff"/>
      <g id="Grupo_55493" data-name="Grupo 55493" transform="translate(202.459 232.387)">
        <path id="Trazado_101474" data-name="Trazado 101474" d="M341.392,840.186h-81.34a4.7,4.7,0,0,1-4.7-4.7V713.66a4.7,4.7,0,0,1,4.684-4.7l81.991-.22a4.7,4.7,0,0,1,4.709,4.722l-.65,122.049A4.7,4.7,0,0,1,341.392,840.186Z" transform="translate(-255.355 -708.744)" fill="#7d97f4"/>
        <path id="Trazado_101475" data-name="Trazado 101475" d="M359.6,743.861l-72.731.448a4.765,4.765,0,0,0-4.736,4.787l.507,109.346a4.765,4.765,0,0,0,4.678,4.743l70.667,1.289a4.765,4.765,0,0,0,4.852-4.7l1.556-111.083A4.765,4.765,0,0,0,359.6,743.861Z" transform="translate(-277.547 -737.849)" fill="#91b3fa"/>
        <rect id="Rect치ngulo_5317" data-name="Rect치ngulo 5317" width="58.89" height="3.353" rx="1.676" transform="translate(20.203 10.712)" fill="url(#linear-gradient)"/>
        <path id="Trazado_101476" data-name="Trazado 101476" d="M429.789,809.215h0a1.426,1.426,0,0,1-1.4,1.348l-49.009.893a1.425,1.425,0,0,1-1.451-1.426v-.116a1.425,1.425,0,0,1,1.4-1.425l49.009-.777A1.426,1.426,0,0,1,429.789,809.215Z" transform="translate(-356.948 -790.77)" fill="url(#linear-gradient)"/>
        <path id="Trazado_101477" data-name="Trazado 101477" d="M369.435,948.054l-66.287-.8a4.062,4.062,0,0,1-4.012-4.139l1.705-89.924a4.062,4.062,0,0,1,4.14-3.984l66.172,1.288a4.068,4.068,0,0,1,3.982,4.133h0l-1.59,89.431a4.072,4.072,0,0,1-4.061,3.99ZM303.023,851.32a2.692,2.692,0,0,0-.83,1.9l-1.706,89.923a2.709,2.709,0,0,0,2.677,2.762l66.287.8a2.706,2.706,0,0,0,2.742-2.662l1.591-89.431h0a2.714,2.714,0,0,0-2.657-2.758l-66.172-1.288H304.9A2.692,2.692,0,0,0,303.023,851.32Z" transform="translate(-291.64 -825.165)" fill="url(#linear-gradient)"/>
        <path id="Trazado_101478" data-name="Trazado 101478" d="M309.148,903.126H381.34a.676.676,0,1,0,0-1.352H309.148a.676.676,0,0,0,0,1.352Z" transform="translate(-299.379 -868.73)" fill="url(#linear-gradient)"/>
      </g>
      <g id="Grupo_55498" data-name="Grupo 55498" transform="translate(253.254 170.692)">
        <path id="Trazado_101485" data-name="Trazado 101485" d="M1227.229,1189.612l-4.916,44.093h57.039l-7.43-44.093Z" transform="translate(-1107.58 -1045.601)" fill="url(#linear-gradient-5)"/>
        <path id="Trazado_101486" data-name="Trazado 101486" d="M552.083,361.866v121.3a18.4,18.4,0,0,0,17.926,18.4c44.3,1.142,199.256,3.912,241.43,3.291a13.54,13.54,0,0,0,13.33-13.154c.813-28.179,2.134-95.94-2.754-127.4A13.933,13.933,0,0,0,808.693,352.5c-37.121-1.187-201.38-4.958-243.534-4.012A13.374,13.374,0,0,0,552.083,361.866Z" transform="translate(-552.083 -348.341)" fill="#392a8d"/>
        <path id="Trazado_101488" data-name="Trazado 101488" d="M635.515,407.9V516.064a10.077,10.077,0,0,0,10,10.005L869.44,528.8a9.813,9.813,0,0,0,10.027-9.7l.375-107.2a7.171,7.171,0,0,0-7.049-7.147l-229.258-4.565A7.776,7.776,0,0,0,635.515,407.9Z" transform="translate(-621.233 -391.31)" fill="#f1eaff"/>
        <path id="Trazado_101489" data-name="Trazado 101489" d="M852.776,1179.356h-.006l-257.979-4.4a.361.361,0,0,1,.012-.721l257.979,4.4a.361.361,0,0,1-.006.721Z" transform="translate(-587.186 -1032.858)" fill="#7d97f4"/>
        <g id="Grupo_55497" data-name="Grupo 55497" transform="translate(136.1 145.776)">
          <path id="Trazado_101490" data-name="Trazado 101490" d="M1350.184,1206.01a3.045,3.045,0,1,1,3.045-3.045A3.048,3.048,0,0,1,1350.184,1206.01Zm0-5.368a2.324,2.324,0,1,0,2.324,2.323A2.327,2.327,0,0,0,1350.184,1200.641Z" transform="translate(-1347.139 -1199.92)" fill="#7d97f4"/>
        </g>
        <path id="Trazado_101491" data-name="Trazado 101491" d="M1205.664,1440.046h-83.481c-2.268,0-3.971-1.615-3.533-3.349l1.071-4.236a3.454,3.454,0,0,1,3.389-2.261l80.479-2.511a3.559,3.559,0,0,1,3.658,2.193l1.931,6.748C1209.68,1438.382,1207.969,1440.046,1205.664,1440.046Z" transform="translate(-1021.606 -1242.92)" fill="url(#linear-gradient-6)"/>
        <path id="Trazado_101492" data-name="Trazado 101492" d="M1400.4,1445.854a.361.361,0,0,1-.005-.721l3.448-.05a.372.372,0,0,1,.366.355.361.361,0,0,1-.355.366l-3.448.05Z" transform="translate(-1254.881 -1257.339)" fill="#7d97f4"/>
        <path id="Trazado_101493" data-name="Trazado 101493" d="M1135.292,1452.831a.379.379,0,0,1-.057,0,.361.361,0,0,1-.3-.413l.492-3.081a3.525,3.525,0,0,1,3.436-2.975l36.578-.535a.357.357,0,0,1,.366.355.361.361,0,0,1-.355.366l-36.578.535a2.805,2.805,0,0,0-2.734,2.367l-.492,3.081A.36.36,0,0,1,1135.292,1452.831Z" transform="translate(-1035.157 -1257.952)" fill="#7d97f4"/>
      </g>
      <g id="Grupo_55499" data-name="Grupo 55499" transform="translate(270.06 204.576)">
        <path id="Trazado_101494" data-name="Trazado 101494" d="M741.98,928.793l-85.958,1.022c-3.31.039-5.92,2.183-5.758,4.729l1.431,22.51c.153,2.4,2.726,4.289,5.849,4.289h84.526c3.234,0,5.856-2.019,5.856-4.509V933.3C747.926,930.785,745.249,928.755,741.98,928.793Z" transform="translate(-650.257 -863.313)" fill="#91b3fa" opacity="0.52"/>
        <path id="Trazado_101495" data-name="Trazado 101495" d="M1361.966,892.214l-85.958,1.251a5.668,5.668,0,0,0-5.758,5.787l1.431,27.543a5.715,5.715,0,0,0,5.849,5.247h84.527a5.694,5.694,0,0,0,5.855-5.517V897.731A5.7,5.7,0,0,0,1361.966,892.214Z" transform="translate(-1164.112 -832.995)" fill="#91b3fa" opacity="0.52"/>
        <path id="Trazado_101496" data-name="Trazado 101496" d="M796.467,546.282H663.733A3.626,3.626,0,0,0,660,549.79v34.1a3.626,3.626,0,0,0,3.733,3.508H796.467a3.626,3.626,0,0,0,3.733-3.508v-34.1A3.626,3.626,0,0,0,796.467,546.282Z" transform="translate(-658.332 -546.282)" fill="#91b3fa" opacity="0.52"/>
        <path id="Trazado_101497" data-name="Trazado 101497" d="M1739.037,557h-53.1a1.829,1.829,0,0,0-.463.044c-4.438,1.164-5.933-2.558-7.658,3.094-.069.227.09.466.09.7v33.769c0,1.937,3.493,3.508,7.8,3.508h53.329c4.308,0,7.8-1.571,7.8-3.508v-34.1C1746.838,558.575,1743.345,557,1739.037,557Z" transform="translate(-1501.902 -555.086)" fill="#91b3fa" opacity="0.52"/>
      </g>
      <g id="Grupo_55500" data-name="Grupo 55500" transform="translate(230.962 298.107)">
        <path id="Trazado_101498" data-name="Trazado 101498" d="M427.2,1157.788h81.34c2.594,0,4.7-1.553,4.7-3.47V1096.3c0-1.913-2.095-3.464-4.684-3.47l-81.991-.162c-2.608-.005-4.723,1.561-4.709,3.488l.65,58.184C422.522,1156.245,424.62,1157.788,427.2,1157.788Z" transform="translate(-421.858 -1092.664)" fill="#7d97f4"/>
        <path id="Trazado_101499" data-name="Trazado 101499" d="M453.162,1118.607l72.731.331c2.629.012,4.748,1.595,4.736,3.537l-.507,48.8c-.012,1.913-2.089,3.469-4.678,3.5l-70.668.953c-2.639.036-4.815-1.521-4.852-3.471l-1.556-50.083C448.33,1120.2,450.493,1118.595,453.162,1118.607Z" transform="translate(-443.829 -1114.166)" fill="#91b3fa"/>
        <path id="Trazado_101500" data-name="Trazado 101500" d="M493.652,1139.945v.37c0,.582.638,1.053,1.426,1.053h56.039c.787,0,1.426-.472,1.426-1.053v-.37c0-.582-.638-1.053-1.426-1.053H495.078C494.29,1138.892,493.652,1139.364,493.652,1139.945Z" transform="translate(-481.362 -1130.978)" fill="url(#linear-gradient)"/>
        <path id="Trazado_101501" data-name="Trazado 101501" d="M530.167,1166.889h0a1.3,1.3,0,0,0,1.4,1l49.009.66c.8.011,1.452-.464,1.452-1.053v-.086c0-.575-.625-1.044-1.4-1.053l-49.009-.574C530.786,1165.769,530.122,1166.279,530.167,1166.889Z" transform="translate(-511.624 -1153.262)" fill="url(#linear-gradient)"/>
        <path id="Trazado_101502" data-name="Trazado 101502" d="M469.531,1233.7l-1.59-34.087c0-.005,0-.01,0-.015a2.761,2.761,0,0,1,.813-1.977,4.485,4.485,0,0,1,3.173-1.261l66.171-.951h.076c2.2,0,4.016,1.384,4.06,3.1l1.707,34.467a2.76,2.76,0,0,1-.817,1.986,4.491,4.491,0,0,1-3.2,1.256l-66.287.588h-.049C471.352,1236.8,469.573,1235.438,469.531,1233.7Zm68.586-36.94-66.171.951a3.179,3.179,0,0,0-2.219.846,1.428,1.428,0,0,0-.435,1l1.591,34.094c.024.98,1.261,1.8,2.71,1.8h.034l66.287-.588a3.185,3.185,0,0,0,2.237-.844,1.419,1.419,0,0,0,.439-1l-1.706-34.467c-.025-.982-1.26-1.8-2.71-1.8Zm-69.5,2.821h0Z" transform="translate(-460.051 -1177.818)" fill="url(#linear-gradient)"/>
        <path id="Trazado_101503" data-name="Trazado 101503" d="M473.635,1235.591h72.191a.676.676,0,1,0,0-1.351H473.635a.676.676,0,1,0,0,1.351Z" transform="translate(-464.211 -1210.004)" fill="url(#linear-gradient)"/>
      </g>
      <g id="Grupo_55504" data-name="Grupo 55504" transform="translate(434.456 221.894)">
        <path id="Trazado_101508" data-name="Trazado 101508" d="M1620.923,746.864l78.984.652a8.183,8.183,0,0,1,8.108,7.834l4.885,114.561a6.035,6.035,0,0,1-5.969,6.291l-90.54.9a5.728,5.728,0,0,1-5.785-5.775l.952-115.25A9.288,9.288,0,0,1,1620.923,746.864Z" transform="translate(-1610.607 -729.845)" fill="#392a8d"/>
        <path id="Trazado_101509" data-name="Trazado 101509" d="M1643.032,1390.272h0l-10.128-.215a6.289,6.289,0,0,1-6.132-6.315l.126-15.294a.258.258,0,0,1,.26-.256.261.261,0,0,1,.256.26l-.126,15.293a5.771,5.771,0,0,0,5.627,5.8l10.128.214a.258.258,0,0,1-.01.516Z" transform="translate(-1624.004 -1244.814)" fill="#fff" opacity="0.7"/>
        <path id="Trazado_101510" data-name="Trazado 101510" d="M1627.994,1329.045a.258.258,0,0,1-.254-.26l.02-2.477a.258.258,0,0,1,.26-.256h0a.258.258,0,0,1,.254.26l-.02,2.477a.258.258,0,0,1-.26.256Z" transform="translate(-1624.807 -1209.886)" fill="#fff" opacity="0.7"/>
        <g id="Grupo_55502" data-name="Grupo 55502" transform="translate(7.198 16.064)">
          <path id="Trazado_101511" data-name="Trazado 101511" d="M1656.024,741.319c10.774,1.552,47.827,6.382,78.512,4.281a2.494,2.494,0,0,1,2.667,2.375l5.163,115.074a2.871,2.871,0,0,1-2.722,3c-12.9.657-66.044,3.169-84.973,1.028a2.274,2.274,0,0,1-2.016-2.268l.287-120.821A2.7,2.7,0,0,1,1656.024,741.319Z" transform="translate(-1652.655 -741.291)" fill="#7d97f4"/>
          <path id="Trazado_101512" data-name="Trazado 101512" d="M1663.242,758.809c10.368,1.493,46.026,6.142,75.556,4.12a2.4,2.4,0,0,1,2.567,2.286l4.969,110.74a2.762,2.762,0,0,1-2.619,2.884c-12.418.632-63.557,3.049-81.774.989a2.189,2.189,0,0,1-1.941-2.182l.276-116.271A2.6,2.6,0,0,1,1663.242,758.809Z" transform="translate(-1658.743 -755.788)" fill="#bdd0fb"/>
          <path id="Trazado_101513" data-name="Trazado 101513" d="M1787.7,826.792a.635.635,0,0,0,.645-.678l-.013-.226a.751.751,0,0,0-.724-.694l-67.214-1.085c-.376-.006-.495.231-.263.528l.837,1.069a1.612,1.612,0,0,0,1.107.545Z" transform="translate(-1708.486 -809.931)" fill="url(#linear-gradient)"/>
          <path id="Trazado_101514" data-name="Trazado 101514" d="M1720.185,849.952c-.376-.006-.495.232-.263.528l.837,1.068a1.612,1.612,0,0,0,1.107.545l65.625.542a.634.634,0,0,0,.645-.678l-.013-.226a.751.751,0,0,0-.724-.695Z" transform="translate(-1708.309 -831.351)" fill="url(#linear-gradient)"/>
          <path id="Trazado_101515" data-name="Trazado 101515" d="M1728.11,1026.318h-.024l-8.889.129a2.41,2.41,0,0,1-2.508-1.991l-.961-7.438a1.641,1.641,0,0,1,.358-1.244,1.972,1.972,0,0,1,1.358-.712h0c.749-.069,1.779-.182,2.912-.306,2.469-.27,5.266-.577,6.913-.637h.036a2.5,2.5,0,0,1,2.515,1.7c.505,1.7.542,4.946.538,8.4A2.218,2.218,0,0,1,1728.11,1026.318Zm-10.6-10.532a1.242,1.242,0,0,0-.859.442.921.921,0,0,0-.205.7l.961,7.438a1.688,1.688,0,0,0,1.779,1.359l8.889-.129h.018a1.494,1.494,0,0,0,1.54-1.377c0-3.4-.031-6.584-.508-8.194a1.8,1.8,0,0,0-1.829-1.177c-1.62.059-4.526.378-6.86.633-1.138.125-2.173.238-2.925.308Z" transform="translate(-1704.92 -967.414)" fill="#fff"/>
          <path id="Trazado_101516" data-name="Trazado 101516" d="M1726.474,1024.444c1.864-.172,5.911-.682,7.835-.753a1.721,1.721,0,0,1,1.751,1.148,30.213,30.213,0,0,1,.418,6.631,1.479,1.479,0,0,1-1.53,1.39l-7.1.1a1.641,1.641,0,0,1-1.713-1.339l-.768-5.943A1.154,1.154,0,0,1,1726.474,1024.444Z" transform="translate(-1712.91 -975.348)" fill="url(#linear-gradient)"/>
          <path id="Trazado_101517" data-name="Trazado 101517" d="M1829.829,1039.018a.488.488,0,0,0-.494.658l.9,3.1a.94.94,0,0,0,.875.641l44.836-1.081a.669.669,0,0,0,.653-.7l-.09-1.945a.726.726,0,0,0-.716-.684Z" transform="translate(-1799.068 -988.04)" fill="url(#linear-gradient)"/>
          <path id="Trazado_101518" data-name="Trazado 101518" d="M1731,1003.072h0a1.364,1.364,0,0,1,1.894.467l1.829,3.1a.438.438,0,0,0,.781-.053l4.114-9.784a.485.485,0,0,1,.933.187,19.112,19.112,0,0,1-5.24,13.433s-2.631-.95-4.842-5.51A1.431,1.431,0,0,1,1731,1003.072Z" transform="translate(-1717.03 -952.816)" fill="#392a8d"/>
          <path id="Trazado_101519" data-name="Trazado 101519" d="M1730.125,909.706h-.024l-8.889.129a2.41,2.41,0,0,1-2.508-1.991l-.961-7.438a1.642,1.642,0,0,1,.358-1.244,1.972,1.972,0,0,1,1.358-.711h0c.748-.069,1.779-.182,2.912-.306,2.469-.27,5.266-.577,6.913-.637h.036a2.5,2.5,0,0,1,2.516,1.7c.505,1.7.542,4.946.538,8.4A2.218,2.218,0,0,1,1730.125,909.706Zm-10.6-10.533a1.243,1.243,0,0,0-.859.442.923.923,0,0,0-.205.7l.962,7.438a1.688,1.688,0,0,0,1.778,1.359l8.889-.129h.017a1.493,1.493,0,0,0,1.54-1.377c0-3.4-.031-6.584-.508-8.194a1.8,1.8,0,0,0-1.829-1.177c-1.62.059-4.526.378-6.86.633-1.138.125-2.173.238-2.924.308Z" transform="translate(-1706.589 -870.764)" fill="#fff"/>
          <path id="Trazado_101520" data-name="Trazado 101520" d="M1728.487,907.832c1.864-.173,5.911-.682,7.835-.753a1.721,1.721,0,0,1,1.751,1.148,30.223,30.223,0,0,1,.418,6.631,1.479,1.479,0,0,1-1.53,1.39l-7.1.1a1.641,1.641,0,0,1-1.713-1.339l-.768-5.943A1.154,1.154,0,0,1,1728.487,907.832Z" transform="translate(-1714.578 -878.698)" fill="url(#linear-gradient)"/>
          <path id="Trazado_101521" data-name="Trazado 101521" d="M1831.843,922.4a.488.488,0,0,0-.494.658l.9,3.1a.94.94,0,0,0,.875.641l44.836-1.082a.669.669,0,0,0,.653-.7l-.089-1.945a.726.726,0,0,0-.716-.684Z" transform="translate(-1800.738 -891.389)" fill="url(#linear-gradient)"/>
          <path id="Trazado_101522" data-name="Trazado 101522" d="M1733.014,886.46h0a1.364,1.364,0,0,1,1.894.467l1.828,3.1a.438.438,0,0,0,.781-.053l4.114-9.784a.486.486,0,0,1,.933.187,19.114,19.114,0,0,1-5.24,13.433s-2.631-.95-4.842-5.51A1.431,1.431,0,0,1,1733.014,886.46Z" transform="translate(-1718.699 -856.165)" fill="#392a8d"/>
          <path id="Trazado_101523" data-name="Trazado 101523" d="M1730.795,1137.581h-.024l-8.889.129a2.41,2.41,0,0,1-2.508-1.991l-.961-7.437a1.643,1.643,0,0,1,.358-1.244,1.971,1.971,0,0,1,1.358-.711h0c.748-.069,1.779-.182,2.913-.306,2.468-.27,5.266-.577,6.912-.637h.036a2.5,2.5,0,0,1,2.515,1.7c.505,1.7.543,4.946.538,8.4A2.218,2.218,0,0,1,1730.795,1137.581Zm-10.6-10.532a1.242,1.242,0,0,0-.859.442.921.921,0,0,0-.2.7l.961,7.437a1.688,1.688,0,0,0,1.778,1.359l8.889-.129h.017a1.493,1.493,0,0,0,1.54-1.377c0-3.4-.03-6.584-.508-8.194a1.807,1.807,0,0,0-1.83-1.177c-1.62.059-4.526.378-6.86.633-1.138.125-2.173.238-2.924.308Z" transform="translate(-1707.144 -1059.631)" fill="#fff"/>
          <path id="Trazado_101524" data-name="Trazado 101524" d="M1729.157,1135.709c1.864-.173,5.912-.683,7.835-.753a1.721,1.721,0,0,1,1.751,1.148,30.209,30.209,0,0,1,.418,6.631,1.479,1.479,0,0,1-1.53,1.39l-7.1.1a1.641,1.641,0,0,1-1.713-1.339l-.768-5.943A1.154,1.154,0,0,1,1729.157,1135.709Z" transform="translate(-1715.134 -1067.566)" fill="#d8ffff"/>
          <path id="Trazado_101525" data-name="Trazado 101525" d="M1832.513,1150.282a.488.488,0,0,0-.494.658l.9,3.1a.939.939,0,0,0,.875.641l44.836-1.081a.669.669,0,0,0,.653-.7l-.09-1.945a.726.726,0,0,0-.717-.684Z" transform="translate(-1801.293 -1080.257)" fill="url(#linear-gradient)"/>
          <path id="Trazado_101527" data-name="Trazado 101527" d="M1728.513,1244.544h-.024l-8.889.128a2.409,2.409,0,0,1-2.508-1.991l-.961-7.437a1.643,1.643,0,0,1,.358-1.244,1.975,1.975,0,0,1,1.358-.712h0c.748-.069,1.777-.182,2.91-.306,2.347-.257,5.269-.577,6.916-.637a2.535,2.535,0,0,1,2.551,1.7c.505,1.7.543,4.946.538,8.4A2.219,2.219,0,0,1,1728.513,1244.544Zm-10.6-10.533a1.244,1.244,0,0,0-.859.443.923.923,0,0,0-.2.7l.961,7.437a1.688,1.688,0,0,0,1.778,1.359l8.889-.128a1.527,1.527,0,0,0,1.558-1.378c0-3.4-.031-6.583-.508-8.194a1.817,1.817,0,0,0-1.829-1.177c-1.621.059-4.527.378-6.863.633-1.137.125-2.171.238-2.922.307Z" transform="translate(-1705.254 -1148.284)" fill="#fff"/>
          <path id="Trazado_101528" data-name="Trazado 101528" d="M1726.876,1242.667c1.864-.173,5.911-.682,7.835-.753a1.721,1.721,0,0,1,1.75,1.148,30.221,30.221,0,0,1,.418,6.631,1.48,1.48,0,0,1-1.531,1.391l-7.1.1a1.642,1.642,0,0,1-1.713-1.339l-.768-5.944A1.154,1.154,0,0,1,1726.876,1242.667Z" transform="translate(-1713.243 -1156.214)" fill="url(#linear-gradient)"/>
          <path id="Trazado_101529" data-name="Trazado 101529" d="M1830.232,1257.239a.487.487,0,0,0-.494.658l.9,3.1a.94.94,0,0,0,.875.641l44.836-1.081a.669.669,0,0,0,.653-.7l-.089-1.945a.726.726,0,0,0-.716-.684Z" transform="translate(-1799.402 -1168.905)" fill="url(#linear-gradient)"/>
          <path id="Trazado_101531" data-name="Trazado 101531" d="M1725.274,1354.87h-.024l-8.889.129a2.41,2.41,0,0,1-2.508-1.992l-.961-7.437a1.642,1.642,0,0,1,.358-1.244,1.973,1.973,0,0,1,1.358-.712h0c.749-.069,1.779-.182,2.912-.306,2.469-.27,5.266-.577,6.913-.637a2.529,2.529,0,0,1,2.552,1.7c.505,1.7.543,4.946.538,8.4A2.219,2.219,0,0,1,1725.274,1354.87Zm-10.6-10.533a1.243,1.243,0,0,0-.859.442.921.921,0,0,0-.2.7l.961,7.438a1.688,1.688,0,0,0,1.778,1.359l8.889-.129h.018a1.493,1.493,0,0,0,1.54-1.377c.005-3.4-.031-6.584-.508-8.194a1.828,1.828,0,0,0-1.829-1.177c-1.62.059-4.526.378-6.86.633-1.138.125-2.173.238-2.924.308Z" transform="translate(-1702.569 -1239.725)" fill="#fff"/>
          <path id="Trazado_101532" data-name="Trazado 101532" d="M1723.637,1352.987c1.864-.173,5.911-.682,7.835-.753a1.721,1.721,0,0,1,1.75,1.148,30.18,30.18,0,0,1,.418,6.631,1.478,1.478,0,0,1-1.53,1.39l-7.1.1a1.642,1.642,0,0,1-1.713-1.339l-.768-5.943A1.154,1.154,0,0,1,1723.637,1352.987Z" transform="translate(-1710.558 -1247.65)" fill="url(#linear-gradient)"/>
          <path id="Trazado_101533" data-name="Trazado 101533" d="M1826.992,1367.56a.488.488,0,0,0-.494.658l.9,3.1a.939.939,0,0,0,.875.641l44.836-1.081a.668.668,0,0,0,.653-.7l-.089-1.945a.726.726,0,0,0-.716-.684Z" transform="translate(-1796.718 -1260.341)" fill="url(#linear-gradient)"/>
        </g>
        <path id="Trazado_101535" data-name="Trazado 101535" d="M1884.537,649.222a8.025,8.025,0,0,0-7.068-1.489,3.484,3.484,0,0,0-2.5,3.642l.685,8.226,8.955.869S1890.1,653.16,1884.537,649.222Zm-4,6.6a2.235,2.235,0,1,1,2.253-2.216A2.235,2.235,0,0,1,1880.541,655.821Z" transform="translate(-1829.7 -647.45)" fill="url(#linear-gradient-22)"/>
        <g id="Grupo_55503" data-name="Grupo 55503" transform="translate(46.123 0.983)">
          <path id="Trazado_101536" data-name="Trazado 101536" d="M1880.641,661.109a.443.443,0,0,1-.286-.379l-.109-1.31a.444.444,0,0,1,.885-.073l.109,1.31a.444.444,0,0,1-.6.452Zm-.214-2.567a.444.444,0,0,1-.286-.379l-.083-.995a3.553,3.553,0,0,1,2.551-3.707,6.927,6.927,0,0,1,3.386-.111.444.444,0,0,1-.185.869,6.046,6.046,0,0,0-2.957.1,2.663,2.663,0,0,0-1.91,2.78l.083.995a.444.444,0,0,1-.6.452Z" transform="translate(-1880.045 -653.191)" fill="#bdd0fb"/>
        </g>
        <path id="Trazado_101537" data-name="Trazado 101537" d="M1807.319,716.756l.034-4.133a2.522,2.522,0,0,1,2.629-2.5l28.486,1.212a2.453,2.453,0,0,1,2.345,2.324l.205,3.973Z" transform="translate(-1773.645 -699.393)" fill="url(#linear-gradient-23)"/>
        <path id="Trazado_101538" data-name="Trazado 101538" d="M1861.231,717.306a.258.258,0,0,1,.007-.516l1.226.01a.255.255,0,0,1,.256.26.258.258,0,0,1-.26.256l-1.226-.01Z" transform="translate(-1818.119 -704.92)" fill="#bdd0fb"/>
        <path id="Trazado_101539" data-name="Trazado 101539" d="M1814.1,720.065a.444.444,0,0,1-.288-.419l.014-1.672a2.571,2.571,0,0,1,2.592-2.549l4.505.037a.444.444,0,0,1-.008.888l-4.505-.038a1.685,1.685,0,0,0-1.7,1.669l-.014,1.672a.444.444,0,0,1-.448.44A.451.451,0,0,1,1814.1,720.065Z" transform="translate(-1779.025 -703.788)" fill="#bdd0fb"/>
        <path id="Trazado_101540" data-name="Trazado 101540" d="M1741.508,739.609l49.827.41a3.683,3.683,0,0,1,3.6,3.085l.04.244a3.163,3.163,0,0,1-3.147,3.677l-51.12-.422a2.056,2.056,0,0,1-2.036-2.172l.129-2.287A2.685,2.685,0,0,1,1741.508,739.609Z" transform="translate(-1716.75 -723.832)" fill="url(#linear-gradient-24)"/>
      </g>
      <path id="Trazado_101567" data-name="Trazado 101567" d="M1589.257,431.716c-13.041-.35-77.549-2.405-90.789-2.828-1.306-.042-2.377,1.875-2.377,4.253v10.993c0,2.349,1.046,4.254,2.337,4.254h90.794c1.291,0,2.337-1.9,2.337-4.254v-8.165C1591.558,433.644,1590.534,431.75,1589.257,431.716Z" transform="translate(-1081.237 -244.407)" fill="url(#linear-gradient-25)"/>
      <g id="Grupo_55516" data-name="Grupo 55516" transform="translate(417.784 186.702)">
        <path id="Trazado_101568" data-name="Trazado 101568" d="M1517.113,456.493l3.37-1.765a.9.9,0,0,1,.836,0l3.365,1.775a.9.9,0,0,0,1.306-.945l-.637-3.75a.9.9,0,0,1,.26-.8l2.728-2.651a.9.9,0,0,0-.5-1.534l-3.764-.553a.9.9,0,0,1-.676-.493l-1.679-3.414a.9.9,0,0,0-1.612,0l-1.689,3.409a.9.9,0,0,1-.677.491l-3.765.541a.9.9,0,0,0-.5,1.532l2.72,2.66a.9.9,0,0,1,.257.8l-.649,3.748A.9.9,0,0,0,1517.113,456.493Z" transform="translate(-1513.21 -441.867)" fill="aqua"/>
      </g>
      <g id="Grupo_55520" data-name="Grupo 55520" transform="translate(491.142 286.196)">
        <path id="Trazado_101572" data-name="Trazado 101572" d="M1942.824,1113.541a1.048,1.048,0,0,0,1.059-.8l16.726-88.538a.978.978,0,0,0-.882-1.107,1.069,1.069,0,0,0-1.239.787l-16.726,88.538a.978.978,0,0,0,.881,1.107A1.238,1.238,0,0,0,1942.824,1113.541Z" transform="translate(-1941.748 -1023.083)" fill="url(#linear-gradient-26)"/>
        <path id="Trazado_101573" data-name="Trazado 101573" d="M2177,1119.114a1.178,1.178,0,0,0,.213-.019.97.97,0,0,0,.842-1.131l-19.717-87.386a1.075,1.075,0,0,0-1.267-.752.969.969,0,0,0-.842,1.131l19.717,87.386A1.054,1.054,0,0,0,2177,1119.114Z" transform="translate(-2119.494 -1028.655)" fill="url(#linear-gradient-26)"/>
        <path id="Trazado_101574" data-name="Trazado 101574" d="M2017.384,1148.143h28.583a.967.967,0,1,0,0-1.921h-28.583a.967.967,0,1,0,0,1.921Z" transform="translate(-2003.545 -1125.143)" fill="url(#linear-gradient-26)"/>
        <path id="Trazado_101575" data-name="Trazado 101575" d="M2020.6,1148.143h27.545a.963.963,0,1,0,0-1.921H2020.6a.963.963,0,1,0,0,1.921Z" transform="translate(-2006.243 -1125.143)" fill="url(#linear-gradient-26)"/>
        <path id="Trazado_101576" data-name="Trazado 101576" d="M2017.384,1241.661h28.583a.967.967,0,1,0,0-1.921h-28.583a.967.967,0,1,0,0,1.921Z" transform="translate(-2003.545 -1202.652)" fill="url(#linear-gradient-26)"/>
        <path id="Trazado_101577" data-name="Trazado 101577" d="M2002.223,1241.661h34.652a.967.967,0,1,0,0-1.921h-34.652a.967.967,0,1,0,0,1.921Z" transform="translate(-1990.98 -1202.652)" fill="url(#linear-gradient-26)"/>
        <path id="Trazado_101578" data-name="Trazado 101578" d="M2017.384,1335.18h28.583a.967.967,0,1,0,0-1.921h-28.583a.967.967,0,1,0,0,1.921Z" transform="translate(-2003.545 -1280.162)" fill="url(#linear-gradient-26)"/>
        <path id="Trazado_101579" data-name="Trazado 101579" d="M1982.888,1335.18h41.478a.967.967,0,1,0,0-1.921h-41.478a.967.967,0,1,0,0,1.921Z" transform="translate(-1974.954 -1280.162)" fill="url(#linear-gradient-26)"/>
        <path id="Trazado_101580" data-name="Trazado 101580" d="M2017.384,1428.7h38.908a.967.967,0,1,0,0-1.921h-38.908a.967.967,0,1,0,0,1.921Z" transform="translate(-2003.545 -1357.672)" fill="url(#linear-gradient-26)"/>
        <path id="Trazado_101581" data-name="Trazado 101581" d="M1967.248,1428.7h47.49a.967.967,0,1,0,0-1.921h-47.49a.967.967,0,1,0,0,1.921Z" transform="translate(-1961.992 -1357.672)" fill="url(#linear-gradient-26)"/>
      </g>
      <g id="Grupo_55527" data-name="Grupo 55527" transform="translate(486.401 182.059)">
        <g id="Grupo_55525" data-name="Grupo 55525">
          <path id="Trazado_101593" data-name="Trazado 101593" d="M1923.21,444.62l6.48-4.047a1.8,1.8,0,0,1,1.675-.125l7.007,3.044a1.805,1.805,0,0,0,2.471-2.092L1939,433.988a1.806,1.806,0,0,1,.4-1.632l5.06-5.724a1.805,1.805,0,0,0-1.226-3l-7.621-.535a1.805,1.805,0,0,1-1.429-.884l-3.88-6.581a1.805,1.805,0,0,0-3.229.24l-2.863,7.083a1.805,1.805,0,0,1-1.282,1.085l-7.458,1.656a1.805,1.805,0,0,0-.769,3.145l5.851,4.912a1.805,1.805,0,0,1,.636,1.555l-.729,7.6A1.8,1.8,0,0,0,1923.21,444.62Z" transform="translate(-1914.054 -414.747)" fill="aqua"/>
        </g>
        <g id="Grupo_55526" data-name="Grupo 55526" transform="translate(0.996 19.412)">
          <path id="Trazado_101594" data-name="Trazado 101594" d="M2039.342,533.654s-10.626,13.6,1.5,27.442l4.558-.425c-.262.024-1.347-2.449-1.455-2.665a47.1,47.1,0,0,1-2.812-6.9,31.821,31.821,0,0,1-1.6-9.1,20.811,20.811,0,0,1,.459-4.744,2.379,2.379,0,0,1,1.41-1.94,4.5,4.5,0,0,0,2.312-1.979,3.488,3.488,0,0,0-1.648-4.8c-.285-.136-2.479-.644-2.479-.268a6.275,6.275,0,0,0,.894,2.423C2041.139,532.189,2040.559,532.913,2039.342,533.654Z" transform="translate(-2015.32 -528.146)" fill="url(#linear-gradient-36)"/>
          <path id="Trazado_101595" data-name="Trazado 101595" d="M2094.2,932.047s8.609,18.764,13.126,26.536c0,0,.9,4.89,0,6.428l-.765.34,3.568-.106s.317-6.578.069-6.945a.908.908,0,0,0-.742-.343s-1.53-12.122-5.961-14.709l-4.294-14.791Z" transform="translate(-2064.357 -859.93)" fill="url(#linear-gradient-37)"/>
          <path id="Trazado_101596" data-name="Trazado 101596" d="M2157.511,1108.929c-.005.086,2.786.047,4.3.019a1.206,1.206,0,0,0,1.157-.951l1.146-6.017a1.082,1.082,0,0,0-.822-1.257l-.639-.146a3.424,3.424,0,0,0-.625,2.429c.287,1.178.542,4.228-.183,4.584a10.586,10.586,0,0,1-2.812.417S2157.559,1108.155,2157.511,1108.929Z" transform="translate(-2116.831 -1002.587)" fill="url(#linear-gradient-38)"/>
          <path id="Trazado_101597" data-name="Trazado 101597" d="M2045.757,1134.817a.315.315,0,0,0,.159.589c2.538-.025,8.224-.106,8.73-.316.652-.271-.238-2.616-1.175-3.409l-5.173,1.688Z" transform="translate(-2024.075 -1028.366)" fill="url(#linear-gradient-39)"/>
          <path id="Trazado_101598" data-name="Trazado 101598" d="M2037.151,942.438s5.564,26.915,7.137,32.165l-3.723,2.337s1.866-.317,3.249-.418a4.742,4.742,0,0,0,2.657-1.688l-.446-.711s-1.4-26.768-1.055-29.807Z" transform="translate(-2017.075 -871.518)" fill="url(#linear-gradient-40)"/>
          <path id="Trazado_101599" data-name="Trazado 101599" d="M2008.971,693.041c2.133.591,9.357,2.492,13.868,2.414l-2.77,15.627.221,2.549-9.029-.041a70.023,70.023,0,0,0-4.547-8.846c-.579-.85-.148-1.864.18-2.838l-.451-.3a1.228,1.228,0,0,1-.487-1.4l2.2-6.727A.671.671,0,0,1,2008.971,693.041Z" transform="translate(-1991.169 -664.793)" fill="#392a8d"/>
          <path id="Trazado_101600" data-name="Trazado 101600" d="M2029.838,803.9l.177,1.544s-2.552,7.641,1.276,25.488c0,0,8.289,2.348,15.1-3.271,0,0-1.922-16.845-2.447-17.629-2.615-3.908-4.356-4.758-4.356-4.758l-.079-1.687S2032.225,804.9,2029.838,803.9Z" transform="translate(-2010.47 -756.434)" fill="#392a8d"/>
          <path id="Trazado_101601" data-name="Trazado 101601" d="M2053.656,672.5c-.032-.042,1.885-5.786,1.885-5.786l2.746.249,1.073,6.517S2055.056,674.349,2053.656,672.5Z" transform="translate(-2030.754 -642.993)" fill="url(#linear-gradient-41)"/>
          <path id="Trazado_101602" data-name="Trazado 101602" d="M2053.544,612.435c-.183.114-5.866,2.463-4.645,8.363a1.106,1.106,0,0,0,.63.789,9.627,9.627,0,0,0,4.777.791c2.977-.3,4.928-5.5,4.845-7.01S2055.358,611.3,2053.544,612.435Z" transform="translate(-2026.669 -597.774)" fill="url(#linear-gradient-42)"/>
          <path id="Trazado_101603" data-name="Trazado 101603" d="M2059.464,599.728c-.149.02-3.284,1.111-1.73,3.383s2.138,3.609,1.4,4.606c-.67.909-2.154.391-2.025,2.282a1.059,1.059,0,0,1-.452.958c-1.4.947-4.81,3.86-1.43,8.016a1.058,1.058,0,0,1,.119,1.184c-.99,1.776-3.07,6.978,4.459,9.864,7.44,2.852,10.126-2.012,10.877-3.956a1.037,1.037,0,0,1,1.027-.656c.817.038,1.976-.1,1.923-1.19a2.732,2.732,0,0,0-.936-1.735,1.036,1.036,0,0,1,.2-1.632,2.031,2.031,0,0,0,1-1.261c.451-1.671-.449-6.666-5.238-7.513a1.13,1.13,0,0,1-.876-.847c0-.006,0-.012,0-.018a1.035,1.035,0,0,1,.385-1.018,2.687,2.687,0,0,0,.949-3.5,3.923,3.923,0,0,0-3.067-2.321,1.043,1.043,0,0,1-.855-1.247C2065.536,601.53,2065.24,598.971,2059.464,599.728Z" transform="translate(-2030.859 -587.361)" fill="url(#linear-gradient-43)"/>
          <path id="Trazado_101604" data-name="Trazado 101604" d="M1926.137,537.257s-.767,14,11.979,21.155l-3.069,7s-11.541-6.98-11.114-26.018a2.213,2.213,0,0,0-.542-1.491l-2.453-2.846a4.4,4.4,0,0,1-.936-3.943l.323-1.291a.669.669,0,0,1,.985-.416l.257.149a4.5,4.5,0,0,1,1.849,2.055l1.231,1.943c.45,1.006.555,1.427,1.652,1.333l2.041.023Z" transform="translate(-1919.872 -529.116)" fill="url(#linear-gradient-44)"/>
        </g>
      </g>
      <g id="Grupo_55524" data-name="Grupo 55524" transform="translate(382.731 269.255)">
        <g id="Grupo_55522" data-name="Grupo 55522" transform="translate(14.318 2.764)">
          <path id="Trazado_101590" data-name="Trazado 101590" d="M1068.256,843.1a.974.974,0,0,1-.934-.442l-1.155-1.8a11.859,11.859,0,0,1-2.975-.466l-1.653,1.367a.972.972,0,0,1-1.128.08l-2.617-1.6a.973.973,0,0,1-.444-1.041l.459-2.093a11.858,11.858,0,0,1-1.776-2.432l-2.133-.2a.974.974,0,0,1-.855-.74l-.722-2.981a.974.974,0,0,1,.421-1.049l1.8-1.156a11.907,11.907,0,0,1,.466-2.975l-1.366-1.652a.975.975,0,0,1-.081-1.128l1.6-2.619a.974.974,0,0,1,1.04-.444l2.094.459a11.87,11.87,0,0,1,2.432-1.776l.2-2.133a.975.975,0,0,1,.74-.855l2.981-.722a.971.971,0,0,1,1.048.419l1.157,1.807a11.865,11.865,0,0,1,2.975.466l1.652-1.367a.976.976,0,0,1,1.126-.082l2.62,1.6a.975.975,0,0,1,.444,1.039l-.459,2.1a11.876,11.876,0,0,1,1.776,2.432l2.133.2a.975.975,0,0,1,.855.74l.722,2.981a.974.974,0,0,1-.422,1.05l-1.8,1.156a11.9,11.9,0,0,1-.466,2.975l1.366,1.652a.976.976,0,0,1,.081,1.128l-1.6,2.619a.975.975,0,0,1-1.039.445l-2.1-.459a11.89,11.89,0,0,1-2.432,1.776l-.2,2.133a.976.976,0,0,1-.74.855l-2.982.722A.919.919,0,0,1,1068.256,843.1Zm-5.4-4.421.4.132a10.362,10.362,0,0,0,3.321.52l.422,0,1.393,2.174,2.213-.536.243-2.571.376-.19a10.363,10.363,0,0,0,2.715-1.982l.3-.3,2.524.553,1.186-1.944-1.647-1.991.132-.4a10.356,10.356,0,0,0,.52-3.32l0-.422,2.174-1.393-.536-2.213-2.57-.244-.19-.376a10.375,10.375,0,0,0-1.982-2.714l-.3-.3.553-2.524-1.944-1.186-1.991,1.646-.4-.132a10.357,10.357,0,0,0-3.32-.52l-.421,0-1.393-2.174-2.213.536-.243,2.57-.376.19a10.354,10.354,0,0,0-2.714,1.982l-.3.3-2.524-.553-1.186,1.944,1.646,1.991-.132.4a10.355,10.355,0,0,0-.52,3.321l0,.422-2.174,1.392.536,2.213,2.57.243.19.377a10.36,10.36,0,0,0,1.983,2.714l.3.3-.553,2.523,1.944,1.186Zm-2.295,1.9h0Zm-1.724-1.053v0Zm-.254-.59h0Zm-2.12-17.969v0Zm10.923,16.007a8.16,8.16,0,1,1,7.226-8.311.764.764,0,1,1-1.527.039,6.677,6.677,0,0,0-.186-1.4,6.634,6.634,0,1,0-1.8,6.3.764.764,0,0,1,1.072,1.089,8.154,8.154,0,0,1-3.8,2.112A8.3,8.3,0,0,1,1067.391,836.969Z" transform="translate(-1052.295 -814.668)" fill="#fff"/>
          <path id="Trazado_101591" data-name="Trazado 101591" d="M1118.866,884.3a3.488,3.488,0,1,1,2.679-5.091h0a3.491,3.491,0,0,1-2.679,5.091Zm-.634-5.412a1.96,1.96,0,1,0,1.961,1.034h0a1.963,1.963,0,0,0-1.961-1.034Z" transform="translate(-1104.241 -866.617)" fill="#fff"/>
        </g>
        <g id="Grupo_55523" data-name="Grupo 55523">
          <path id="Trazado_101592" data-name="Trazado 101592" d="M974.883,812.578a.674.674,0,0,1-.247-.017l-1.428-.369a.675.675,0,0,1-.5-.6l-.073-.923a5.919,5.919,0,0,1-1.026-.772l-.9.184a.671.671,0,0,1-.714-.316l-.75-1.273a.673.673,0,0,1,.069-.78l.6-.7a5.932,5.932,0,0,1-.178-1.271l-.77-.51a.676.676,0,0,1-.28-.731l.369-1.428a.685.685,0,0,1,.6-.5l.92-.073a5.911,5.911,0,0,1,.772-1.025l-.184-.9a.676.676,0,0,1,.32-.716l1.27-.748a.675.675,0,0,1,.782.07l.7.6a5.907,5.907,0,0,1,1.271-.178l.51-.77a.675.675,0,0,1,.731-.28l1.427.369a.673.673,0,0,1,.5.6l.073.923a5.923,5.923,0,0,1,1.025.772l.9-.183a.674.674,0,0,1,.718.321l.747,1.268a.674.674,0,0,1-.066.778l-.6.7a5.905,5.905,0,0,1,.178,1.271l.77.51a.675.675,0,0,1,.28.732l-.369,1.427a.677.677,0,0,1-.6.5l-.923.073a5.9,5.9,0,0,1-.772,1.025l.184.9a.673.673,0,0,1-.317.714l-1.272.749a.674.674,0,0,1-.782-.07l-.7-.6a5.944,5.944,0,0,1-1.271.178l-.51.77A.672.672,0,0,1,974.883,812.578Zm-.472-.931,0,0Zm4.178-.59,0,0Zm-.542-.045h0Zm-4.228.155.776.2.668-1.008.316.007a4.756,4.756,0,0,0,1.535-.215l.3-.094.92.785.691-.407-.24-1.185.229-.218a4.784,4.784,0,0,0,.933-1.238l.147-.28,1.206-.1.2-.777-1.008-.668.007-.316a4.77,4.77,0,0,0-.215-1.535l-.094-.3.785-.92-.407-.691-1.185.241-.218-.229a4.778,4.778,0,0,0-1.238-.932l-.28-.147-.1-1.205-.777-.2-.668,1.008-.316-.007a4.791,4.791,0,0,0-1.535.215l-.3.094-.919-.784-.691.407.241,1.185-.229.218a4.781,4.781,0,0,0-.933,1.239l-.146.28-1.206.1-.2.777,1.008.668-.007.316a4.775,4.775,0,0,0,.215,1.535l.094.3-.785.919.407.691,1.185-.241.218.229a4.775,4.775,0,0,0,1.238.932l.28.147Zm5.275-.4v0Zm-8.916-2.306h0Zm.046-.547,0,0Zm11.362-1.6v0Zm-.44-3.125h0Zm-.246-1.048h0Zm-.5-.222,0,0Zm.386-.338h0Zm-8.729-.742h0Zm5.821-.818h0Zm-1.427-.369h0Zm-3.671.392,0,0Zm3.359,9.609a4.131,4.131,0,1,1,3.441-5.4.573.573,0,0,1-1.088.36,2.985,2.985,0,1,0-.214,2.367.573.573,0,1,1,1.006.548,4.145,4.145,0,0,1-3.145,2.128Z" transform="translate(-968.655 -798.52)" fill="#fff"/>
        </g>
      </g>
    </g>
    <path id="Trazado_104141" data-name="Trazado 104141" d="M-44.48-4.267h-1.577V0H-48.97V-12.086h4.756a5.3,5.3,0,0,1,3.362.955,3.236,3.236,0,0,1,1.212,2.7,3.932,3.932,0,0,1-.51,2.092A3.624,3.624,0,0,1-41.749-5l2.523,4.873V0h-3.121Zm-1.577-2.25h1.843a1.657,1.657,0,0,0,1.249-.436,1.682,1.682,0,0,0,.419-1.216,1.7,1.7,0,0,0-.423-1.224,1.641,1.641,0,0,0-1.245-.444h-1.843Zm15.672,1.395h-4.582v2.88h5.412V0h-8.326V-12.086h8.342v2.25h-5.429v2.548h4.582ZM-25.454-4.1V0h-2.914V-12.086h4.823a5.617,5.617,0,0,1,2.453.51,3.847,3.847,0,0,1,1.652,1.453,3.967,3.967,0,0,1,.585,2.137,3.5,3.5,0,0,1-1.266,2.826A5.252,5.252,0,0,1-23.595-4.1Zm0-2.25h1.909a1.8,1.8,0,0,0,1.291-.423,1.573,1.573,0,0,0,.444-1.2,1.944,1.944,0,0,0-.457-1.353,1.617,1.617,0,0,0-1.245-.515h-1.942Zm12.642,2.083h-1.577V0H-17.3V-12.086h4.756a5.3,5.3,0,0,1,3.362.955,3.236,3.236,0,0,1,1.212,2.7,3.932,3.932,0,0,1-.51,2.092A3.624,3.624,0,0,1-10.081-5L-7.558-.125V0h-3.121Zm-1.577-2.25h1.843A1.657,1.657,0,0,0-11.3-6.952a1.682,1.682,0,0,0,.419-1.216A1.7,1.7,0,0,0-11.3-9.392a1.641,1.641,0,0,0-1.245-.444h-1.843Zm18.411.722a7.127,7.127,0,0,1-.656,3.129A4.847,4.847,0,0,1,1.5-.569,5.189,5.189,0,0,1-1.249.166a5.262,5.262,0,0,1-2.739-.71,4.838,4.838,0,0,1-1.864-2.03,6.922,6.922,0,0,1-.7-3.03v-.681A7.159,7.159,0,0,1-5.9-9.417a4.835,4.835,0,0,1,1.868-2.1,5.225,5.225,0,0,1,2.768-.739,5.174,5.174,0,0,1,2.739.73A4.922,4.922,0,0,1,3.345-9.442,6.953,6.953,0,0,1,4.022-6.35ZM1.058-6.3a5.082,5.082,0,0,0-.6-2.735,1.93,1.93,0,0,0-1.722-.934q-2.191,0-2.316,3.287l-.008.888A5.227,5.227,0,0,0-3-3.063a1.927,1.927,0,0,0,1.751.955,1.9,1.9,0,0,0,1.7-.938,5.084,5.084,0,0,0,.606-2.7ZM5.524,0V-12.086H9.865a6.147,6.147,0,0,1,3.549.855A2.845,2.845,0,0,1,14.63-8.749a2.876,2.876,0,0,1-.432,1.6,2.515,2.515,0,0,1-1.27.979,2.547,2.547,0,0,1,1.453.93,2.7,2.7,0,0,1,.506,1.66A3.2,3.2,0,0,1,13.763-.909,5.352,5.352,0,0,1,10.43,0ZM8.438-5.138v2.9h1.909A1.816,1.816,0,0,0,11.559-2.6a1.264,1.264,0,0,0,.423-1.017,1.34,1.34,0,0,0-1.5-1.519Zm0-1.909H9.957A2.163,2.163,0,0,0,11.318-7.4a1.235,1.235,0,0,0,.407-1,1.3,1.3,0,0,0-.44-1.1,2.36,2.36,0,0,0-1.419-.336H8.438Zm14.917,4.79H19.362L18.664,0H15.552l4.433-12.086h2.739L27.189,0H24.06Zm-3.3-2.25h2.6L21.354-8.7ZM28.069,0V-12.086h3.893a5.727,5.727,0,0,1,2.88.726,5.105,5.105,0,0,1,2,2.05,6.19,6.19,0,0,1,.726,2.968v.556a6.226,6.226,0,0,1-.7,2.976A5.127,5.127,0,0,1,34.888-.751,5.6,5.6,0,0,1,32.045,0Zm2.914-9.836v7.6H32a2.267,2.267,0,0,0,1.926-.892,4.373,4.373,0,0,0,.672-2.652v-.523a4.337,4.337,0,0,0-.672-2.64,2.306,2.306,0,0,0-1.959-.888ZM49.294-5.794a7.127,7.127,0,0,1-.656,3.129,4.847,4.847,0,0,1-1.864,2.1,5.189,5.189,0,0,1-2.752.735,5.262,5.262,0,0,1-2.739-.71,4.838,4.838,0,0,1-1.864-2.03,6.922,6.922,0,0,1-.7-3.03v-.681a7.159,7.159,0,0,1,.652-3.134,4.835,4.835,0,0,1,1.868-2.1,5.225,5.225,0,0,1,2.768-.739,5.174,5.174,0,0,1,2.739.73,4.922,4.922,0,0,1,1.872,2.079,6.953,6.953,0,0,1,.677,3.092ZM46.331-6.3a5.082,5.082,0,0,0-.6-2.735,1.93,1.93,0,0,0-1.722-.934q-2.191,0-2.316,3.287l-.008.888a5.227,5.227,0,0,0,.589,2.731,1.927,1.927,0,0,0,1.751.955,1.9,1.9,0,0,0,1.7-.938,5.084,5.084,0,0,0,.606-2.7Z" transform="matrix(0.995, -0.105, 0.105, 0.995, 1122.627, 5126.967)" fill="#392a8d"/>
  </g>
</svg>
