<svg xmlns="http://www.w3.org/2000/svg" xmlns:xlink="http://www.w3.org/1999/xlink" width="312" height="226.459" viewBox="0 0 312 226.459">
  <defs>
    <linearGradient id="linear-gradient" x1="74.698" y1="-1.308" x2="71.861" y2="5.08" gradientUnits="objectBoundingBox">
      <stop offset="0" stop-color="#09005d"/>
      <stop offset="1" stop-color="#1a0f91"/>
    </linearGradient>
    <linearGradient id="linear-gradient-2" x1="294.732" y1="-1.081" x2="295.739" y2="-1.081" gradientUnits="objectBoundingBox">
      <stop offset="0" stop-color="#febbba"/>
      <stop offset="1" stop-color="#ff928e"/>
    </linearGradient>
    <linearGradient id="linear-gradient-3" x1="94.278" y1="-0.073" x2="91.261" y2="0.782" xlink:href="#linear-gradient"/>
    <linearGradient id="linear-gradient-4" x1="185.543" y1="-3.175" x2="178.523" y2="4.39" xlink:href="#linear-gradient"/>
    <linearGradient id="linear-gradient-5" x1="343.594" y1="-0.682" x2="344.608" y2="-0.682" xlink:href="#linear-gradient-2"/>
    <linearGradient id="linear-gradient-6" x1="63.163" y1="-0.139" x2="61.145" y2="0.704" xlink:href="#linear-gradient"/>
    <linearGradient id="linear-gradient-7" x1="56.86" y1="0.222" x2="57.853" y2="0.222" xlink:href="#linear-gradient-2"/>
    <linearGradient id="linear-gradient-8" x1="-70.452" y1="1.023" x2="-68.471" y2="3.707" xlink:href="#linear-gradient-2"/>
    <linearGradient id="linear-gradient-9" x1="409.415" y1="-0.657" x2="411.416" y2="-2.437" xlink:href="#linear-gradient-2"/>
    <linearGradient id="linear-gradient-10" x1="45.312" y1="0.037" x2="46.314" y2="0.037" xlink:href="#linear-gradient-2"/>
    <linearGradient id="linear-gradient-11" x1="-0.103" y1="1.691" x2="0.844" y2="-0.028" xlink:href="#linear-gradient-2"/>
    <linearGradient id="linear-gradient-12" x1="33.139" y1="46.635" x2="32.815" y2="45.569" xlink:href="#linear-gradient-2"/>
    <linearGradient id="linear-gradient-13" x1="25.118" y1="34.692" x2="25.322" y2="35.875" xlink:href="#linear-gradient"/>
    <linearGradient id="linear-gradient-14" x1="106.616" y1="221.975" x2="105.67" y2="217.362" xlink:href="#linear-gradient-2"/>
    <linearGradient id="linear-gradient-15" x1="41.57" y1="-0.062" x2="42.084" y2="2.428" xlink:href="#linear-gradient"/>
    <linearGradient id="linear-gradient-16" x1="141.633" y1="0.5" x2="142.633" y2="0.5" xlink:href="#linear-gradient-2"/>
    <linearGradient id="linear-gradient-17" x1="9.972" y1="-0.407" x2="8.878" y2="0.795" xlink:href="#linear-gradient-2"/>
    <linearGradient id="linear-gradient-18" x1="-24.57" y1="1.893" x2="-25.182" y2="2.513" xlink:href="#linear-gradient"/>
    <linearGradient id="linear-gradient-19" x1="-115.067" y1="7.711" x2="-114.842" y2="6.801" xlink:href="#linear-gradient-2"/>
    <linearGradient id="linear-gradient-20" x1="-66.571" y1="5.644" x2="-65.362" y2="6.807" xlink:href="#linear-gradient-2"/>
    <linearGradient id="linear-gradient-21" x1="-76.739" y1="5.01" x2="-78.62" y2="6.915" xlink:href="#linear-gradient"/>
    <linearGradient id="linear-gradient-22" x1="-187.299" y1="18.446" x2="-183.923" y2="22.765" xlink:href="#linear-gradient-2"/>
    <linearGradient id="linear-gradient-23" x1="7.286" y1="1.272" x2="8.687" y2="0.135" xlink:href="#linear-gradient-2"/>
    <linearGradient id="linear-gradient-24" x1="16.645" y1="0.43" x2="17.64" y2="0.43" xlink:href="#linear-gradient"/>
    <linearGradient id="linear-gradient-25" x1="15.83" y1="0.377" x2="11.933" y2="0.708" xlink:href="#linear-gradient-2"/>
    <linearGradient id="linear-gradient-26" x1="15.631" y1="0.421" x2="16.624" y2="0.421" xlink:href="#linear-gradient"/>
    <linearGradient id="linear-gradient-27" x1="1.968" y1="-0.231" x2="0.935" y2="0.314" xlink:href="#linear-gradient"/>
    <linearGradient id="linear-gradient-28" x1="8.911" y1="0.789" x2="11.881" y2="-1.387" xlink:href="#linear-gradient-2"/>
    <linearGradient id="linear-gradient-29" x1="-9.604" y1="-1.469" x2="-10.014" y2="-0.35" xlink:href="#linear-gradient"/>
    <linearGradient id="linear-gradient-30" x1="-30.264" y1="-0.93" x2="-29.136" y2="-0.93" xlink:href="#linear-gradient-2"/>
    <linearGradient id="linear-gradient-31" x1="-4.436" y1="0.383" x2="-3.744" y2="-0.528" xlink:href="#linear-gradient"/>
    <linearGradient id="linear-gradient-32" x1="-8.486" y1="-1.105" x2="-9.728" y2="2.367" xlink:href="#linear-gradient"/>
    <linearGradient id="linear-gradient-33" x1="-8.81" y1="-1.332" x2="-7.877" y2="-1.332" gradientUnits="objectBoundingBox">
      <stop offset="0" stop-color="#4f52ff"/>
      <stop offset="1" stop-color="#4042e2"/>
    </linearGradient>
    <linearGradient id="linear-gradient-34" x1="-26.908" y1="-1.077" x2="-26.006" y2="-1.077" xlink:href="#linear-gradient-2"/>
    <linearGradient id="linear-gradient-35" x1="-3.986" y1="0.705" x2="-3.955" y2="-0.272" xlink:href="#linear-gradient"/>
    <linearGradient id="linear-gradient-36" x1="-6.41" y1="0.002" x2="-5.417" y2="0.002" xlink:href="#linear-gradient-2"/>
    <linearGradient id="linear-gradient-37" x1="-15.914" y1="-0.516" x2="-14.795" y2="-0.516" xlink:href="#linear-gradient-2"/>
    <linearGradient id="linear-gradient-38" x1="-4.698" y1="0.781" x2="-5.941" y2="7.598" xlink:href="#linear-gradient-2"/>
    <linearGradient id="linear-gradient-39" x1="-9.537" y1="-10.969" x2="-10.634" y2="-9.655" xlink:href="#linear-gradient-2"/>
    <linearGradient id="linear-gradient-40" x1="-11.662" y1="-10.689" x2="-10.387" y2="-10.689" xlink:href="#linear-gradient"/>
    <linearGradient id="linear-gradient-41" x1="-36.21" y1="-39.653" x2="-33.79" y2="-42.329" xlink:href="#linear-gradient-2"/>
    <linearGradient id="linear-gradient-42" x1="31.102" y1="22.046" x2="30.362" y2="24.483" xlink:href="#linear-gradient"/>
    <linearGradient id="linear-gradient-43" x1="23.832" y1="0.134" x2="23.432" y2="0.8" xlink:href="#linear-gradient"/>
  </defs>
  <g id="Grupo_56743" data-name="Grupo 56743" transform="translate(-1056 -5053.598)">
    <g id="Grupo_56571" data-name="Grupo 56571" transform="translate(570.305 3809.654)">
      <g id="Grupo_56553" data-name="Grupo 56553" transform="translate(599.791 1243.943)">
        <g id="Grupo_56547" data-name="Grupo 56547" transform="translate(0 8.53)">
          <g id="Grupo_56543" data-name="Grupo 56543" opacity="0.3">
            <path id="Trazado_103688" data-name="Trazado 103688" d="M1571.149,1331.991a.936.936,0,0,1-1.324,0c-.71-.71-1.461-1.4-2.234-2.051a.936.936,0,0,1-.124-1.3l.012-.014a.936.936,0,0,1,1.319-.112c.812.685,1.6,1.411,2.351,2.159a.936.936,0,0,1,.066,1.25A.887.887,0,0,1,1571.149,1331.991Zm-7.532-4.961c-.853-.539-1.737-1.047-2.629-1.509a.936.936,0,1,1,.862-1.662c.938.487,1.869,1.021,2.767,1.588a.936.936,0,0,1,.291,1.292.952.952,0,0,1-.065.09A.936.936,0,0,1,1563.616,1327.03Zm-7.146-3.467c-.949-.335-1.924-.632-2.9-.884a.936.936,0,1,1,.469-1.812c1.026.266,2.054.579,3.053.931a.936.936,0,1,1-.623,1.766Zm-7.742-1.782c-1-.114-2.019-.186-3.025-.215a.936.936,0,0,1,.052-1.871c1.06.03,2.131.106,3.185.226a.936.936,0,0,1-.212,1.86Zm-7.946-.013c-1,.111-2.008.266-3,.461a.936.936,0,1,1-.362-1.837c1.041-.206,2.1-.369,3.154-.485a.936.936,0,1,1,.206,1.86Zm-7.751,1.746c-.951.329-1.9.7-2.821,1.112a.936.936,0,0,1-.76-1.711c.969-.431,1.967-.824,2.969-1.171a.936.936,0,0,1,.612,1.769Zm-23.876,25.261a.936.936,0,0,1-.67-1.142c.267-1.025.582-2.052.938-3.052a.936.936,0,0,1,1.764.626c-.337.95-.637,1.925-.89,2.9a.935.935,0,0,1-1.142.67Zm16.709-21.843c-.854.532-1.695,1.108-2.5,1.712a.936.936,0,1,1-1.123-1.5c.848-.636,1.733-1.242,2.633-1.8a.936.936,0,1,1,.99,1.589Zm-13.973,14.157a.936.936,0,0,1-.4-1.263c.49-.939,1.026-1.869,1.595-2.765a.936.936,0,0,1,1.581,1c-.54.851-1.05,1.735-1.515,2.628a.936.936,0,0,1-1.263.4Zm7.751-9.224c-.713.71-1.4,1.459-2.055,2.228a.936.936,0,0,1-1.442-1.194l.013-.015c.685-.81,1.413-1.6,2.163-2.346a.936.936,0,0,1,1.388,1.252A.991.991,0,0,1,1519.642,1331.867Z" transform="translate(-1507.38 -1319.695)" fill="#91b3fa"/>
            <path id="Trazado_103689" data-name="Trazado 103689" d="M1500.581,1608.963a.932.932,0,0,0,.206-.52c.035-.481.082-.97.137-1.452a.936.936,0,1,0-1.86-.213c-.058.507-.107,1.021-.144,1.528a.936.936,0,0,0,1.661.658Z" transform="translate(-1498.917 -1573.714)" fill="#91b3fa"/>
          </g>
          <g id="Grupo_56544" data-name="Grupo 56544" transform="translate(8.205 37.465)" opacity="0.3">
            <path id="Trazado_103690" data-name="Trazado 103690" d="M1574.417,1851.711a.937.937,0,0,0-.031-1.214c-.322-.359-.642-.731-.951-1.106a.936.936,0,1,0-1.445,1.191c.325.394.662.786,1,1.165a.936.936,0,0,0,1.322.073A.947.947,0,0,0,1574.417,1851.711Z" transform="translate(-1571.777 -1826.907)" fill="#91b3fa"/>
            <path id="Trazado_103691" data-name="Trazado 103691" d="M1664.44,1728.083a.936.936,0,0,1-1.395-1.249c.656-.733,1.292-1.506,1.9-2.3a.936.936,0,0,1,1.493,1.13q-.393.519-.8,1.021C1665.249,1727.158,1664.846,1727.63,1664.44,1728.083Zm3.515-6.334a.936.936,0,0,1-.357-1.274c.486-.865.941-1.76,1.352-2.661a.936.936,0,1,1,1.7.777c-.432.948-.911,1.89-1.423,2.8a.921.921,0,0,1-.09.132A.936.936,0,0,1,1667.955,1721.749Zm-7.17,9.892c-.794.674-1.628,1.323-2.479,1.928a.936.936,0,1,1-1.086-1.525c.808-.575,1.6-1.191,2.354-1.831a.936.936,0,0,1,1.333,1.3A.961.961,0,0,1,1660.785,1731.641Zm10.5-17.2a.936.936,0,0,1-.629-1.165c.284-.949.531-1.922.733-2.891a.936.936,0,0,1,1.832.383c-.213,1.021-.473,2.045-.772,3.045a.934.934,0,0,1-1.165.628Zm-17.321,21.791c-.922.482-1.878.931-2.841,1.336a.936.936,0,1,1-.724-1.726c.915-.384,1.823-.811,2.7-1.269a.936.936,0,1,1,.867,1.659Zm-7.666,2.985c-1.008.269-2.039.5-3.064.684a.936.936,0,1,1-.331-1.842c.974-.175,1.954-.394,2.912-.65a.936.936,0,1,1,.484,1.808Zm-8.135,1.243c-1.043.044-2.1.044-3.14,0a.936.936,0,0,1,.078-1.87c.989.041,1.993.041,2.984,0a.936.936,0,1,1,.078,1.87Zm-8.212-.561c-1.027-.185-2.059-.417-3.065-.689a.936.936,0,1,1,.487-1.807c.956.258,1.935.478,2.911.653a.936.936,0,1,1-.333,1.842Zm-7.892-2.353c-.959-.406-1.913-.859-2.836-1.346a.936.936,0,0,1,.873-1.656c.877.463,1.783.892,2.694,1.279a.936.936,0,1,1-.731,1.723Zm-7.175-4.024c-.624-.446-1.243-.917-1.838-1.4q-.323-.262-.639-.53a.925.925,0,0,1-.109-1.319.936.936,0,0,1,1.319-.109q.3.255.607.5c.566.459,1.153.906,1.747,1.33a.936.936,0,0,1,.218,1.306c-.011.016-.023.031-.035.046A.936.936,0,0,1,1614.882,1733.523Z" transform="translate(-1607.532 -1703.197)" fill="#91b3fa"/>
            <path id="Trazado_103692" data-name="Trazado 103692" d="M2146.384,1655.422a.934.934,0,0,0,.206-.524c.035-.506.06-1.021.073-1.533a.936.936,0,1,0-1.871-.051c-.013.486-.037.976-.07,1.456a.936.936,0,0,0,1.661.653Z" transform="translate(-2080.203 -1652.403)" fill="#91b3fa"/>
          </g>
          <g id="Grupo_56546" data-name="Grupo 56546" transform="translate(8.937 9.098)">
            <path id="Trazado_103693" data-name="Trazado 103693" d="M1633.2,1419.768a.438.438,0,0,0-.373-.345l-5.282-.674a23.189,23.189,0,0,0-4.227-6.213l1.308-5.158a.438.438,0,0,0-.184-.473l-5.341-3.5a.438.438,0,0,0-.508.02l-4.209,3.256a23.192,23.192,0,0,0-7.383-1.4l-2.724-4.575a.437.437,0,0,0-.465-.2l-6.253,1.3a.438.438,0,0,0-.345.373l-.674,5.281a23.19,23.19,0,0,0-6.213,4.227l-5.158-1.307a.437.437,0,0,0-.473.184l-3.5,5.341a.437.437,0,0,0,.02.508l3.256,4.209a23.192,23.192,0,0,0-1.4,7.383l-4.575,2.724a.438.438,0,0,0-.2.465l1.3,6.253a.437.437,0,0,0,.373.345l5.282.675a23.188,23.188,0,0,0,4.227,6.213l-1.308,5.158a.437.437,0,0,0,.184.473l5.341,3.5a.438.438,0,0,0,.507-.02l4.209-3.256a23.2,23.2,0,0,0,7.383,1.4l2.724,4.575a.438.438,0,0,0,.465.2l6.253-1.3a.437.437,0,0,0,.345-.373l.674-5.282a23.19,23.19,0,0,0,6.213-4.227l5.158,1.308a.438.438,0,0,0,.473-.184l3.5-5.341a.438.438,0,0,0-.02-.508l-3.256-4.209a23.191,23.191,0,0,0,1.4-7.384l4.575-2.724a.437.437,0,0,0,.2-.465Z" transform="translate(-1578.285 -1400.49)" fill="#d8ffff"/>
            <g id="Grupo_56545" data-name="Grupo 56545" transform="translate(21.694 21.697)">
              <path id="Trazado_103694" data-name="Trazado 103694" d="M1781.7,1604.317a6.416,6.416,0,1,1,.646-.687A6.427,6.427,0,0,1,1781.7,1604.317Zm-9.262-4.935a4.922,4.922,0,1,0,1.587-3.417,5,5,0,0,0-.5.532A4.886,4.886,0,0,0,1772.441,1599.383Z" transform="translate(-1770.939 -1593.173)" fill="#bdd0fb"/>
            </g>
            <path id="Trazado_103695" data-name="Trazado 103695" d="M1714.563,1535.912a16.077,16.077,0,0,0,.957-1.31h0q.141-.215.275-.435a15.893,15.893,0,0,0,1.142-2.256l.013-.032.036-.091c.024-.059.047-.118.069-.177a.374.374,0,0,0-.113-.425.379.379,0,0,0-.1-.059.375.375,0,0,0-.484.215,15.055,15.055,0,0,1-14.255,9.634,14.943,14.943,0,0,1-8.028-2.456,15.3,15.3,0,0,1-1.25-.912,15.038,15.038,0,0,1,17.739-24.237,15.043,15.043,0,0,1,5.289,6.015.375.375,0,0,0,.5.174.374.374,0,0,0,.174-.5,15.787,15.787,0,1,0-24.175,19.129,16.142,16.142,0,0,0,1.312.958,15.789,15.789,0,0,0,20.9-3.236Z" transform="translate(-1674.339 -1497.816)" fill="#bdd0fb"/>
          </g>
        </g>
        <g id="Grupo_56552" data-name="Grupo 56552" transform="translate(60.657 0)">
          <g id="Grupo_56548" data-name="Grupo 56548" opacity="0.3">
            <path id="Trazado_103696" data-name="Trazado 103696" d="M2399.751,1329.262a.578.578,0,0,0,.027-.692c-.279-.4-.573-.805-.876-1.192a.578.578,0,1,0-.911.712c.289.369.569.751.835,1.136a.578.578,0,0,0,.8.147A.588.588,0,0,0,2399.751,1329.262Z" transform="translate(-2357.297 -1317.786)" fill="#91b3fa"/>
            <path id="Trazado_103697" data-name="Trazado 103697" d="M2077.145,1252.051a.579.579,0,0,1-.818,0,23.974,23.974,0,0,0-1.8-1.621q-.2-.16-.4-.318a.579.579,0,0,1-.1-.811.6.6,0,0,1,.812-.1q.212.165.419.333a24.984,24.984,0,0,1,1.892,1.7.578.578,0,0,1,.042.773C2077.172,1252.022,2077.158,1252.036,2077.145,1252.051Zm-5.447-3.594a23.96,23.96,0,0,0-2.607-1.348.578.578,0,1,1,.467-1.058,25.077,25.077,0,0,1,2.733,1.413.579.579,0,0,1,.2.793.637.637,0,0,1-.048.068A.578.578,0,0,1,2071.7,1248.457Zm-5.363-2.363a23.727,23.727,0,0,0-2.859-.666.578.578,0,0,1,.192-1.14,24.989,24.989,0,0,1,3,.7.578.578,0,0,1-.332,1.108Zm-5.779-.973a23.869,23.869,0,0,0-2.935.054.578.578,0,0,1-.093-1.153,25.031,25.031,0,0,1,3.078-.057.578.578,0,0,1-.05,1.155Zm-5.842.468a24.063,24.063,0,0,0-2.834.765.578.578,0,1,1-.369-1.1,25.277,25.277,0,0,1,2.97-.8.578.578,0,0,1,.233,1.133Zm-5.552,1.871a23.7,23.7,0,0,0-2.559,1.432.578.578,0,0,1-.626-.972,24.878,24.878,0,0,1,2.684-1.5.578.578,0,0,1,.5,1.042Zm-4.923,3.171a23.779,23.779,0,0,0-2.131,2.019.579.579,0,0,1-.846-.79,25.137,25.137,0,0,1,2.235-2.116.578.578,0,0,1,.82.807A.589.589,0,0,1,2044.239,1250.632Zm-6.36,6.987a.578.578,0,0,1-.226-.786,25.117,25.117,0,0,1,1.418-2.266c.077-.112.156-.221.235-.33a.578.578,0,0,1,.935.681c-.075.1-.149.206-.222.312a23.942,23.942,0,0,0-1.355,2.164.576.576,0,0,1-.786.226Z" transform="translate(-2037.581 -1243.943)" fill="#91b3fa"/>
          </g>
          <g id="Grupo_56549" data-name="Grupo 56549" transform="translate(16.115 25.08)" opacity="0.3">
            <path id="Trazado_103698" data-name="Trazado 103698" d="M2205.674,1517.176a25.2,25.2,0,0,1-2.073,2.2.578.578,0,1,1-.793-.842,23.847,23.847,0,0,0,1.977-2.1.578.578,0,0,1,.894.734Zm.995-2.269a.578.578,0,0,1-.171-.8,24.1,24.1,0,0,0,1.421-2.515.578.578,0,0,1,1.04.508,25.262,25.262,0,0,1-1.49,2.636.585.585,0,0,1-.037.051A.578.578,0,0,1,2206.668,1514.907Zm-5.4,6.411a25.075,25.075,0,0,1-2.545,1.639.578.578,0,0,1-.566-1.009,24.006,24.006,0,0,0,2.428-1.563.578.578,0,0,1,.791.83A.569.569,0,0,1,2201.273,1521.318Zm8.109-11.658a.578.578,0,0,1-.358-.735,23.821,23.821,0,0,0,.771-2.783.578.578,0,1,1,1.131.24,24.8,24.8,0,0,1-.809,2.919.578.578,0,0,1-.735.359ZM2196,1524.273a25.157,25.157,0,0,1-2.864.978.578.578,0,1,1-.307-1.115,23.786,23.786,0,0,0,2.732-.933.578.578,0,0,1,.439,1.07Zm-5.826,1.6a25.22,25.22,0,0,1-3.016.265.578.578,0,1,1-.031-1.156,24.13,24.13,0,0,0,2.877-.253.578.578,0,0,1,.17,1.144Zm-6.043.164a24.981,24.981,0,0,1-2.992-.467.578.578,0,0,1,.247-1.13,23.643,23.643,0,0,0,2.854.445.578.578,0,0,1-.108,1.152Z" transform="translate(-2180.688 -1501.29)" fill="#91b3fa"/>
            <path id="Trazado_103699" data-name="Trazado 103699" d="M2443.992,1469.046a.576.576,0,0,0,.126-.314c.043-.493.071-.99.085-1.476a.578.578,0,0,0-1.156-.032c-.012.464-.04.938-.08,1.408a.578.578,0,0,0,1.025.413Z" transform="translate(-2413.43 -1466.662)" fill="#91b3fa"/>
          </g>
          <g id="Grupo_56551" data-name="Grupo 56551" transform="translate(2.953 6.049)">
            <path id="Trazado_103700" data-name="Trazado 103700" d="M2100.557,1310.564a.293.293,0,0,0-.25-.231l-3.534-.451a15.52,15.52,0,0,0-2.829-4.157l.875-3.451a.293.293,0,0,0-.123-.317l-3.574-2.343a.292.292,0,0,0-.339.013l-2.817,2.179a15.518,15.518,0,0,0-4.94-.936l-1.823-3.061a.293.293,0,0,0-.311-.137l-4.184.87a.293.293,0,0,0-.231.25l-.451,3.534a15.524,15.524,0,0,0-4.157,2.829l-3.451-.875a.292.292,0,0,0-.317.123l-2.344,3.574a.293.293,0,0,0,.013.34l2.179,2.816a15.522,15.522,0,0,0-.937,4.941l-3.061,1.823a.293.293,0,0,0-.137.311l.87,4.184a.293.293,0,0,0,.25.231l3.534.451a15.515,15.515,0,0,0,2.829,4.157l-.875,3.451a.293.293,0,0,0,.123.317l3.574,2.343a.292.292,0,0,0,.339-.013l2.817-2.178a15.521,15.521,0,0,0,4.94.936l1.823,3.061a.293.293,0,0,0,.311.137l4.184-.87a.293.293,0,0,0,.231-.25l.451-3.534a15.522,15.522,0,0,0,4.158-2.828l3.451.875a.293.293,0,0,0,.317-.123l2.343-3.574a.293.293,0,0,0-.013-.34l-2.179-2.816a15.524,15.524,0,0,0,.937-4.941l3.061-1.823a.293.293,0,0,0,.137-.311Z" transform="translate(-2063.807 -1297.665)" fill="#91b3fa"/>
            <g id="Grupo_56550" data-name="Grupo 56550" transform="translate(14.442 14.442)">
              <path id="Trazado_103701" data-name="Trazado 103701" d="M2199.39,1433.505a4.36,4.36,0,1,1,.444-.472A4.442,4.442,0,0,1,2199.39,1433.505Zm-5.328-1.043a3.217,3.217,0,0,0,4.545.192h0a3.217,3.217,0,0,0-4.353-4.738,3.274,3.274,0,0,0-.324.344A3.222,3.222,0,0,0,2194.062,1432.462Z" transform="translate(-2192.06 -1425.915)" fill="#bdd0fb"/>
            </g>
            <path id="Trazado_103702" data-name="Trazado 103702" d="M2152.677,1385.844q.345-.426.653-.894a10.935,10.935,0,0,0,1.023-1.969l.036-.093a.578.578,0,1,0-1.079-.416,9.743,9.743,0,0,1-.947,1.843h0l-.063.095a9.638,9.638,0,0,1-3.544,3.188,9.786,9.786,0,0,1-2.464.893l-.021,0-.065.014a9.672,9.672,0,0,1-7.32-1.39,9.851,9.851,0,0,1-.809-.591,9.735,9.735,0,1,1,14.907-11.8.578.578,0,1,0,1.041-.5,10.864,10.864,0,0,0-2.937-3.7,10.978,10.978,0,0,0-.893-.653,10.891,10.891,0,0,0-12.848,17.554,11.108,11.108,0,0,0,.9.661A10.907,10.907,0,0,0,2152.677,1385.844Z" transform="translate(-2125.5 -1360.155)" fill="#bdd0fb"/>
          </g>
        </g>
      </g>
      <g id="Grupo_56559" data-name="Grupo 56559" transform="translate(485.695 1293.12)">
        <path id="Trazado_103703" data-name="Trazado 103703" d="M805.709,3164.231s-.651,3.491-.987,6.949a2.385,2.385,0,0,0,2.257,2.605c4.607.236,14.463.7,18,.579a.776.776,0,0,0,.693-1.056,1.737,1.737,0,0,0-.879-.944l-16.215-7.64Z" transform="translate(-768.787 -2997.17)" fill="url(#linear-gradient)"/>
        <path id="Trazado_103704" data-name="Trazado 103704" d="M809.255,3141.164l.456,4.187s2.84,1.355,4.8-.122l-1.137-4.672Z" transform="translate(-772.82 -2976.162)" fill="url(#linear-gradient-2)"/>
        <path id="Trazado_103705" data-name="Trazado 103705" d="M716.856,2446.816c-.225,1.09-1.67,54.491,3.81,78.481a.812.812,0,0,1-.485.94,14.138,14.138,0,0,1-4.659.9,1.4,1.4,0,0,1-1.379-1.017c-1.579-5.569-9.133-33.467-9.9-60.056-.857-29.711.01-1.011.01-1.011l.844-18.352Z" transform="translate(-679.298 -2360.44)" fill="url(#linear-gradient-3)"/>
        <path id="Trazado_103706" data-name="Trazado 103706" d="M631.06,3178.843a25.165,25.165,0,0,0-2,6.437,1.455,1.455,0,0,0,1.264,1.755c1.521.164,3.862.379,5.739.384a1.451,1.451,0,0,0,1.452-1.6,12.236,12.236,0,0,0-2.792-6.738Z" transform="translate(-612.89 -3010.137)" fill="url(#linear-gradient-4)"/>
        <path id="Trazado_103707" data-name="Trazado 103707" d="M639.839,3129.364l1.1,6.336a4.091,4.091,0,0,0,3.412.267l-.488-6.81Z" transform="translate(-622.481 -2966.046)" fill="url(#linear-gradient-5)"/>
        <path id="Trazado_103708" data-name="Trazado 103708" d="M602.239,2438.8c-4.938,28.135.348,69.658,2.187,77.793a1.266,1.266,0,0,0,1.013.971,8.5,8.5,0,0,0,3.654-.111,1.16,1.16,0,0,0,.844-1.06c.32-6.56.241-46.848,4.744-62.726a3.617,3.617,0,0,1,1.414-1.982l8.5-5.923.74-9.7Z" transform="translate(-587.293 -2350.998)" fill="url(#linear-gradient-6)"/>
        <g id="Grupo_56554" data-name="Grupo 56554" transform="translate(13.404 13.391)">
          <path id="Trazado_103709" data-name="Trazado 103709" d="M636.535,1971.752c-13.991-.365-29.468,3.393-29.468,3.393-4.4,24.3-1.229,52.4-1.229,52.4,10.806,2.944,23.07-1.517,23.07-1.517,1.9-10.156,10.572-38.7,10.572-38.7a46.1,46.1,0,0,0,17.159-5.266,30,30,0,0,1-5.812-12.46A46.959,46.959,0,0,1,636.535,1971.752Z" transform="translate(-604.731 -1950.455)" fill="#a397e3"/>
          <path id="Trazado_103710" data-name="Trazado 103710" d="M1041.316,1800.654a2.677,2.677,0,0,0-3.106-.9c-2.142,8.679-13.007,15.628-24.132,18.97a30,30,0,0,0,5.812,12.46C1038.4,1821,1041.316,1800.654,1041.316,1800.654Z" transform="translate(-967.983 -1799.573)" fill="url(#linear-gradient-7)"/>
        </g>
        <g id="Grupo_56555" data-name="Grupo 56555" transform="translate(83.664 0)">
          <path id="Trazado_103711" data-name="Trazado 103711" d="M1231.4,1695.547c.139.459-1.533,1.139-2.5-.74-.026-.9-.534-4.742.008-5.467a71.525,71.525,0,0,1,8.466-8.684,1.316,1.316,0,0,1,.147,1.83l-2.71,2.769a12.981,12.981,0,0,1,1.537,3.111,3.76,3.76,0,0,1-.4,2.763c-.479.844-1.132,1.941-1.748,2.8A3.712,3.712,0,0,1,1231.4,1695.547Z" transform="translate(-1228.666 -1680.656)" fill="url(#linear-gradient-8)"/>
          <path id="Trazado_103712" data-name="Trazado 103712" d="M1247.11,1737.5l-2.464,2.049-.787,2.056,2.157,2.439a28.123,28.123,0,0,1,1.325-4.968C1247.893,1738.2,1247.615,1737.765,1247.11,1737.5Z" transform="translate(-1242.147 -1731.1)" fill="url(#linear-gradient-9)"/>
        </g>
        <path id="Trazado_103713" data-name="Trazado 103713" d="M509.258,2032.442l-5.238-13.6s-13.155,8.756-15.412,20a30.939,30.939,0,0,1,11.333,3.154C500.959,2036.682,509.258,2032.442,509.258,2032.442Z" transform="translate(-488.28 -1980.759)" fill="#a397e3"/>
        <path id="Trazado_103714" data-name="Trazado 103714" d="M517.973,2202.872s-14.754,8.153-19.638,1.024a5.566,5.566,0,0,1-.979-4.335,30.933,30.933,0,0,0-11.333-3.154,15.542,15.542,0,0,0,1.588,10.67c8.522,15.949,32.27-.569,32.27-.569Z" transform="translate(-485.695 -2138.331)" fill="url(#linear-gradient-10)"/>
        <path id="Trazado_103715" data-name="Trazado 103715" d="M725.983,1886.621l-4.575,12.834a.464.464,0,0,0,.206.561,10.467,10.467,0,0,0,10.863-.627,2.184,2.184,0,0,0,1.021-1.551l1.548-11.13Z" transform="translate(-694.841 -1863.428)" fill="url(#linear-gradient-11)"/>
        <g id="Grupo_56556" data-name="Grupo 56556" transform="translate(22.738 4.667)">
          <path id="Trazado_103716" data-name="Trazado 103716" d="M759.106,1781.556s4.8,9.25,4.139,12.962-6.719,3.387-11.981.317l-3.6-9.973Z" transform="translate(-740.899 -1774.861)" fill="url(#linear-gradient-12)"/>
          <path id="Trazado_103717" data-name="Trazado 103717" d="M698.259,1737.194a.379.379,0,0,0,.171-.554,9.906,9.906,0,0,1-1.333-2.9s-.874-.571,2.25-1.287,7.781-1.829,8.783-4.472c.977-2.577-1.463-9.1-5.5-3.96a.379.379,0,0,1-.6,0c-.646-.858-2.35-2.642-4.749-1.593a3.587,3.587,0,0,0-2.489,3.443.377.377,0,0,1-.45.382,4.375,4.375,0,0,0-5.131,2.332c-1.064,2.282-.4,3.585.212,4.226a.378.378,0,0,1-.168.626,2.276,2.276,0,0,0-1.631,2.582c.11,2.407,2.8,2.221,3.568,2.118a.38.38,0,0,1,.336.122c.65.733,3.578,3.846,6.777,4.249a.382.382,0,0,0,.406-.5l-1.347-4.041a.381.381,0,0,1,.21-.47Z" transform="translate(-687.614 -1722.098)" fill="url(#linear-gradient-13)"/>
          <path id="Trazado_103718" data-name="Trazado 103718" d="M757.51,1851.748s-3.458-2.422-3.732-.413,3.107,2.943,4.793,2.209Z" transform="translate(-746.313 -1836.075)" fill="url(#linear-gradient-14)"/>
        </g>
        <g id="Grupo_56558" data-name="Grupo 56558" transform="translate(29.231 47.028)">
          <g id="Grupo_56557" data-name="Grupo 56557">
            <path id="Trazado_103719" data-name="Trazado 103719" d="M745.311,2128.681l8.037-28.067a.818.818,0,0,1,.692-.589c1.456-.17,5.676-.647,10.547-1.059,5.868-.5,12.683-.9,16.755-.557a.821.821,0,0,1,.671,1.182c-2.316,4.685-11.841,23.742-16.611,29.985a.824.824,0,0,1-.663.325l-18.647-.173A.821.821,0,0,1,745.311,2128.681Z" transform="translate(-745.279 -2098.282)" fill="url(#linear-gradient-15)"/>
            <path id="Trazado_103720" data-name="Trazado 103720" d="M756.7,2232.609s-1.12-4.6-.668-6.237,1.327-3.733,4.243-3.267a42.682,42.682,0,0,1,6.357,1.7,1.67,1.67,0,0,1-2.39,1.441l1.375,1.064s-.2,1.7-2.069.793l1.279,1.41a1.49,1.49,0,0,1-2.182.5C761.266,2229.114,760.605,2233.164,756.7,2232.609Z" transform="translate(-754.725 -2208.991)" fill="url(#linear-gradient-16)"/>
          </g>
          <path id="Trazado_103721" data-name="Trazado 103721" d="M911.991,2160.168a2.359,2.359,0,1,0,2.359-2.359A2.359,2.359,0,0,0,911.991,2160.168Z" transform="translate(-893.218 -2151.106)" fill="#91b3fa"/>
          <path id="Trazado_103722" data-name="Trazado 103722" d="M820.271,2123.12l1.636-5.551a1.9,1.9,0,0,1,1.43-1.336c5.129-1.07,19.167-1.3,19.308-1.3l-.009-.627c-.579.009-14.239.23-19.426,1.313a2.53,2.53,0,0,0-1.9,1.772l-1.636,5.551Z" transform="translate(-811.292 -2112.502)" fill="#bdd0fb"/>
        </g>
      </g>
      <g id="Grupo_56570" data-name="Grupo 56570" transform="translate(623.034 1292.106)">
        <g id="Grupo_56560" data-name="Grupo 56560" transform="translate(108.919 0)">
          <path id="Trazado_103723" data-name="Trazado 103723" d="M2673.414,1819.652a.531.531,0,0,1,.982.1c.477,1.716,1.63,4.709,4.051,5.772.122.053.237.108.349.162a1.231,1.231,0,0,0-.151-1.113c-.753-1.15.606-2.721.606-2.721a3.5,3.5,0,0,0,1.142,2.254,3.367,3.367,0,0,1,.722,3.79c-1.31,5.089-3.272,11.819,4.37,16.736s18.4-9.279,18.4-9.279l-5.341,16.932s-8.244,6.084-17.833-2.471-3.233-21-3.233-21S2670.165,1825.865,2673.414,1819.652Z" transform="translate(-2672.582 -1802.733)" fill="url(#linear-gradient-17)"/>
          <path id="Trazado_103724" data-name="Trazado 103724" d="M2934.1,1679.4s-2.214-9.931,9.162-7.3c0,0,5.522-.9,5.8,4.309,0,0,3.559,2.346.953,6.856,0,0,10.578-4.086,15.187,5.186s.372,14.374-4.069,15.7a4.423,4.423,0,0,1,1.9,5.886c-1.7,4.079-10.328,6.955-15.423,1.994,0,0-14.5,1.916-14.208-8.324,0,0-6.743-4.354.339-12.817S2934.1,1679.4,2934.1,1679.4Z" transform="translate(-2901.46 -1671.65)" fill="url(#linear-gradient-18)"/>
          <path id="Trazado_103725" data-name="Trazado 103725" d="M2886.953,1940.032a15.6,15.6,0,0,1,15.272,3.892,3.921,3.921,0,0,1,1.13,3.906c-1.7,6.26-6.187,24.755-2.253,32.757,0,0-6.932,7.642-14.495,1.483,0,0-3.393-14.789-7.837-21.281-3.069-4.482,4.893-16.831,6.907-19.814A2.358,2.358,0,0,1,2886.953,1940.032Z" transform="translate(-2854.934 -1909.268)" fill="#a397e3"/>
          <path id="Trazado_103726" data-name="Trazado 103726" d="M2977.31,1834.4s3.38,9.563,3.635,13.781a7.231,7.231,0,0,1-7.257-1.169s-.369-9.551-.9-11.261Z" transform="translate(-2938.98 -1816.071)" fill="url(#linear-gradient-19)"/>
          <path id="Trazado_103727" data-name="Trazado 103727" d="M2929.968,1718.06s-8.842,12.374-3.557,15.969,11.58-5.2,11.58-5.2,2.052-6.773-.093-9.071S2929.968,1718.06,2929.968,1718.06Z" transform="translate(-2896.333 -1712.771)" fill="url(#linear-gradient-20)"/>
          <path id="Trazado_103728" data-name="Trazado 103728" d="M2970.834,1691.054s-4.062.962-4.631,2.8,5.76,3.542,7.534,3.626l1.429,7.417s4.224-6.977,2.551-11.006S2970.834,1691.054,2970.834,1691.054Z" transform="translate(-2933.107 -1688.723)" fill="url(#linear-gradient-21)"/>
          <path id="Trazado_103729" data-name="Trazado 103729" d="M3027.3,1788.3s3.442-3.986,4.811-1.387-3.1,4.549-4.645,3.273Z" transform="translate(-2987.356 -1773.15)" fill="url(#linear-gradient-22)"/>
          <path id="Trazado_103730" data-name="Trazado 103730" d="M2860.4,2593.9c.026.671-1.153,6-1.794,8.837a4.677,4.677,0,0,0,.5,3.356l22.217,37.392a5.1,5.1,0,0,1,.583,1.455,32.078,32.078,0,0,1,.811,9.968l-1.149,2.387,4.971-1.129,1.082-13.349-1.407-.858a6.692,6.692,0,0,1-2.7-3.166c-2.009-4.88-7-17.3-8.284-23.355-1.461-6.88-9.1-12.468-9.1-12.468l1.342-3.173Z" transform="translate(-2837.556 -2490.05)" fill="url(#linear-gradient-23)"/>
          <path id="Trazado_103731" data-name="Trazado 103731" d="M3062.17,3029.026s-2.684-4.256-3-5.912-1.2-4.582-2.85-3.7c0,0-.78,8.047-.511,11.191s-3.554,3.043-3.554,3.043a3.571,3.571,0,0,0-1.826.92.9.9,0,0,0,.6,1.505,21.507,21.507,0,0,0,5.325-.3,1.629,1.629,0,0,0,1.314-1.5l.551-9.261,3.386,4.275Z" transform="translate(-3007.661 -2867.502)" fill="url(#linear-gradient-24)"/>
          <path id="Trazado_103732" data-name="Trazado 103732" d="M2956.881,2639.7s.784,33.447.89,38.2-.75,15.278-5.512,18.424l2.072,1.534a27.689,27.689,0,0,0,5.119-6.437,39.118,39.118,0,0,1,3.7-5.628l-.943-1.931a4.247,4.247,0,0,1-.344-2.723c1.028-4.981,4.461-21.547,5.4-25.115,1.105-4.211,1.184-9.835-2.662-14.543S2956.881,2639.7,2956.881,2639.7Z" transform="translate(-2920.765 -2529.89)" fill="url(#linear-gradient-25)"/>
          <path id="Trazado_103733" data-name="Trazado 103733" d="M2942.88,3063.363a.292.292,0,0,0,.294-.25,43.219,43.219,0,0,1,1.358-6.743c.618-1.326,2.638-6.906,0-7.379,0,0-6.562,9.587-7.822,10.88a2.469,2.469,0,0,1-2.849.451,4.742,4.742,0,0,0-2.153,1.545.869.869,0,0,0,.685,1.4l4.42.042a3.11,3.11,0,0,0,2.916-1.959c.778-1.943,2.114-4.794,3.672-6.058l-.81,7.75a.3.3,0,0,0,.291.325Z" transform="translate(-2902.366 -2893.892)" fill="url(#linear-gradient-26)"/>
          <path id="Trazado_103734" data-name="Trazado 103734" d="M2865.234,2268.883s1,3.175-.534,8.4l-9.492,33.147a1.026,1.026,0,0,0,.642,1.249,63.326,63.326,0,0,0,24.914,3.021,1.447,1.447,0,0,0,1.319-1.126c.839-3.779,3.7-16.672,4.293-19.321,2.248-10.094,4.757-20.98-6.282-27.562C2875.006,2268.872,2870.261,2270.156,2865.234,2268.883Z" transform="translate(-2834.607 -2199.687)" fill="url(#linear-gradient-27)"/>
          <path id="Trazado_103735" data-name="Trazado 103735" d="M3029.265,1984.4s10.8,8.975,13.48,21.239-15.782,13.568-15.782,13.568-2.506-2.8-5.481-1.8-.23-4.884,3.251-4.869,1.869,2.768,6.793.537c4.8-2.173,7.762-8.894-4.478-19.081a5.539,5.539,0,0,1-1.617-2.2C3023.055,1985.805,3024.94,1981.881,3029.265,1984.4Z" transform="translate(-2981.069 -1948.494)" fill="url(#linear-gradient-28)"/>
        </g>
        <g id="Grupo_56569" data-name="Grupo 56569" transform="translate(0 30.419)">
          <g id="Grupo_56563" data-name="Grupo 56563" transform="translate(65.776 87.198)">
            <g id="Grupo_56561" data-name="Grupo 56561" transform="translate(19.907 9.92)">
              <rect id="Rect치ngulo_5577" data-name="Rect치ngulo 5577" width="3.852" height="41.66" fill="#7d97f4"/>
            </g>
            <g id="Grupo_56562" data-name="Grupo 56562" transform="translate(4.964 49.876)">
              <path id="Trazado_103736" data-name="Trazado 103736" d="M2367.266,3161.571h-33.74v-2.229a.278.278,0,0,1,.279-.279h33.183a.278.278,0,0,1,.278.279Z" transform="translate(-2333.526 -3159.063)" fill="#7d97f4"/>
            </g>
            <rect id="Rect치ngulo_5578" data-name="Rect치ngulo 5578" width="45.084" height="12.786" rx="6.393" fill="#7d97f4"/>
          </g>
          <g id="Grupo_56565" data-name="Grupo 56565" transform="translate(30.529)">
            <path id="Trazado_103737" data-name="Trazado 103737" d="M2087.333,3054.112s-12.454,5.364-11.74,10.978c0,0,12.874-2.469,15.177-6.148s1.034-5.811,1.034-5.811Z" transform="translate(-2064.401 -2927.985)" fill="url(#linear-gradient-29)"/>
            <path id="Trazado_103738" data-name="Trazado 103738" d="M2164.934,3007.4l.632,5.466a1.808,1.808,0,0,1-1.144,1.92,4.718,4.718,0,0,1-1.578.241,2.106,2.106,0,0,1-2.045-1.535l-1.225-4.421Z" transform="translate(-2138.952 -2887.407)" fill="url(#linear-gradient-30)"/>
            <path id="Trazado_103739" data-name="Trazado 103739" d="M2139.667,2634.7s-22.906-1.06-34.3,5.587.578,38.549.578,38.549,2.978.64,7.265-1.651c0,0-6.118-23.354,4.509-27.417a61.193,61.193,0,0,1,24.306-3.457l-2.29-10.89Z" transform="translate(-2086.479 -2556.616)" fill="url(#linear-gradient-31)"/>
            <path id="Trazado_103740" data-name="Trazado 103740" d="M2061.712,3108.077c2.6-.571,10.328-3.771,11.5-3.728s2.835,1.8,2.835,1.8a3.121,3.121,0,0,1-.552,2.34c-1.99,1.552-6.277,4.4-11.261,4.713a8.361,8.361,0,0,1-7.134-2.644A10.2,10.2,0,0,1,2061.712,3108.077Z" transform="translate(-2048.017 -2973.436)" fill="url(#linear-gradient-32)"/>
            <path id="Trazado_103741" data-name="Trazado 103741" d="M2055.453,3145.837c4.984-.312,9.271-3.161,11.261-4.713a9.72,9.72,0,0,1-3.678,3.2c-5.037,2.846-13.361,2.431-15.012,1.791-1.322-.513-.914-1.749.295-2.925A8.359,8.359,0,0,0,2055.453,3145.837Z" transform="translate(-2039.236 -3006.07)" fill="url(#linear-gradient-33)"/>
            <path id="Trazado_103742" data-name="Trazado 103742" d="M2194.09,3071.888c-.171.645-2,2.583-3.05,3.663a2.075,2.075,0,0,1-1.93.581,5.342,5.342,0,0,1-1.381-.484,1.347,1.347,0,0,1-.521-1.833l2.667-4.851Z" transform="translate(-2163.325 -2942.035)" fill="url(#linear-gradient-34)"/>
            <path id="Trazado_103743" data-name="Trazado 103743" d="M2246.668,2618.126s2,14.185-3.782,17.084-18.461,4.8-22.829,12.154-12.211,21.8-19.35,25.946c0,0-4.076-1.326-5.268-3.331,0,0,8.473-22.274,12.008-27.688,3.061-4.688,7.537-11.443,13.9-14.364,1.821-.836,1.963-2.768,1.643-4.745l-.583-3.6Z" transform="translate(-2170.779 -2541.966)" fill="url(#linear-gradient-35)"/>
            <path id="Trazado_103744" data-name="Trazado 103744" d="M2161.061,2309.441c8.1,2.313,11.733-20.5,11.7-21.051l12.427,14.529s-7.4,13.029-18.585,14.416a13.194,13.194,0,0,1-7.253-1.063A11.617,11.617,0,0,0,2161.061,2309.441Z" transform="translate(-2138.753 -2249.36)" fill="#d7c8f2"/>
            <path id="Trazado_103745" data-name="Trazado 103745" d="M1983.741,2405.825c3.533-1.452,6.529,1.445,6.529,1.445,3.5,3.583,6.276,5.392,8.48,6.021a11.617,11.617,0,0,1-1.711,6.831c-4.367-2-6.913-6.045-7.961-8.063a1.516,1.516,0,0,0-2-.678c-.749.362-1.52.915-1.569,1.665-.1,1.479-1.856,1.567-1.866,1.021a21.923,21.923,0,0,1,1.363-3.469s-4.059,2.6-5.639,3.6-2.925-.648-2.925-.648S1980.208,2407.276,1983.741,2405.825Z" transform="translate(-1976.442 -2353.209)" fill="url(#linear-gradient-36)"/>
            <path id="Trazado_103746" data-name="Trazado 103746" d="M2315.5,2188.89s-10.892-7.43-37.2,6.008c0,0-2.709,3.434-1.44,7.305s16.887,24.823,17.494,34.659c0,0,10.677,6.285,24.536.054C2318.893,2236.916,2323.541,2210.944,2315.5,2188.89Z" transform="translate(-2242.733 -2159.246)" fill="#a397e3"/>
            <path id="Trazado_103747" data-name="Trazado 103747" d="M2353.633,2120.674l4.3,8.434a2.4,2.4,0,0,1-.248,2.586c-1.185,1.485-3.66,3.481-7.882,2.195a3.7,3.7,0,0,1-2.52-2.682l-2.231-9.414Z" transform="translate(-2303.546 -2100.53)" fill="url(#linear-gradient-37)"/>
            <path id="Trazado_103748" data-name="Trazado 103748" d="M2593.313,2234.489c.737-5.127-12.811-15.064-12.811-15.064l4.745-14.387s25.852,18.449,20.416,33.515a10.53,10.53,0,0,1-3.359,4.849C2599.565,2237.786,2595.853,2235.453,2593.313,2234.489Z" transform="translate(-2512.48 -2175.393)" fill="#a397e3"/>
            <path id="Trazado_103749" data-name="Trazado 103749" d="M2435.877,2468s15.325,4.28,18.5-.385a2.432,2.432,0,0,0,.4-1.038c2.54.965,6.253,3.3,8.99,8.913-7.276,5.724-21.306-.692-25.118-2.616a2.693,2.693,0,0,0-2.019-.169,18.393,18.393,0,0,1-5.014,1.008c-1.915-.105-3.97,6.815-7.229,5.063C2424.388,2478.778,2425.869,2466.955,2435.877,2468Z" transform="translate(-2373.946 -2407.484)" fill="url(#linear-gradient-38)"/>
            <g id="Grupo_56564" data-name="Grupo 56564" transform="translate(35.472)">
              <path id="Trazado_103750" data-name="Trazado 103750" d="M2300.55,1995.454c-.136.118-5.814,10.034-8.7,15.089a2.973,2.973,0,0,0,1.412,4.208l1.252.537c1.711.733,5.39,1.347,6.838.178l9.127-9.634S2303.62,1992.8,2300.55,1995.454Z" transform="translate(-2291.453 -1989.094)" fill="url(#linear-gradient-39)"/>
              <path id="Trazado_103751" data-name="Trazado 103751" d="M2361.589,1955.9a2.943,2.943,0,0,0,1.417-4.155,4.151,4.151,0,0,0-4.526-2.342,1.134,1.134,0,0,1-1.2-.817.9.9,0,0,0-.794-.642,1.116,1.116,0,0,1-.881-1.4,3.384,3.384,0,0,0-1.688-4.056c-3.474-2.1-6.721.952-7.625,3.607s2.992,4.722,5.479,5.143c1.891.321,2.814,2.5,3.148,3.53a1.125,1.125,0,0,1-.133.966l-2.775,4.217c.763.96,1.439,1.975,2.106,3,.25-.269.468-.493.639-.649,1.205-1.1,3.348-.534,4.231-.231a1.113,1.113,0,0,0,.876-.064c.961-.5,2.9-1.892,1.311-4.531A1.135,1.135,0,0,1,2361.589,1955.9Z" transform="translate(-2339.996 -1941.787)" fill="url(#linear-gradient-40)"/>
              <path id="Trazado_103752" data-name="Trazado 103752" d="M2407.861,2111.729s1.774-4.56,3.791-4.305,3.525,2.337.923,4.5C2409.337,2114.611,2407.861,2111.729,2407.861,2111.729Z" transform="translate(-2394.753 -2088.763)" fill="url(#linear-gradient-41)"/>
            </g>
          </g>
          <g id="Grupo_56566" data-name="Grupo 56566" transform="translate(2.437 37.768)">
            <path id="Trazado_103753" data-name="Trazado 103753" d="M2057.229,2540.315l-.082,0-35.8-.039a1.6,1.6,0,1,1,0-3.2l35.8.039a1.6,1.6,0,0,1,.079,3.2Z" transform="translate(-1986.775 -2507.808)" fill="url(#linear-gradient-42)"/>
            <path id="Trazado_103754" data-name="Trazado 103754" d="M1729.354,2277.188h29.817a5.684,5.684,0,0,1,5.14,3.259l13.784,29.229h-37.055a3.454,3.454,0,0,1-3.212-2.185l-10.689-27.047A2.381,2.381,0,0,1,1729.354,2277.188Z" transform="translate(-1726.97 -2277.188)" fill="url(#linear-gradient-43)"/>
            <path id="Trazado_103755" data-name="Trazado 103755" d="M1897.171,2386.742c.646,2.008.169,3.957-1.066,4.355s-2.76-.908-3.406-2.915-.169-3.957,1.066-4.354S1896.525,2384.735,1897.171,2386.742Z" transform="translate(-1873.781 -2371.756)" fill="#91b3fa"/>
          </g>
          <g id="Grupo_56568" data-name="Grupo 56568" transform="translate(0 69.935)">
            <g id="Grupo_56567" data-name="Grupo 56567" transform="translate(8.15 3.203)">
              <path id="Trazado_103756" data-name="Trazado 103756" d="M1779.211,2665.215a1.546,1.546,0,0,1-.594-.119,1.44,1.44,0,0,1-.787-1.914l31.554-71.015a1.524,1.524,0,0,1,1.977-.762,1.44,1.44,0,0,1,.788,1.914l-31.554,71.015A1.507,1.507,0,0,1,1779.211,2665.215Z" transform="translate(-1777.707 -2591.286)" fill="#91b3fa"/>
              <path id="Trazado_103757" data-name="Trazado 103757" d="M1846.213,2665.213a1.507,1.507,0,0,1-1.383-.881l-31.554-71.015a1.44,1.44,0,0,1,.788-1.914,1.524,1.524,0,0,1,1.977.762l31.554,71.015a1.439,1.439,0,0,1-.788,1.914A1.545,1.545,0,0,1,1846.213,2665.213Z" transform="translate(-1809.162 -2591.284)" fill="#91b3fa"/>
              <path id="Trazado_103758" data-name="Trazado 103758" d="M2646.594,2665.215a1.546,1.546,0,0,1-.594-.119,1.44,1.44,0,0,1-.788-1.914l31.554-71.015a1.524,1.524,0,0,1,1.976-.762,1.439,1.439,0,0,1,.788,1.914l-31.554,71.015A1.508,1.508,0,0,1,2646.594,2665.215Z" transform="translate(-2547.417 -2591.286)" fill="#91b3fa"/>
              <path id="Trazado_103759" data-name="Trazado 103759" d="M2713.594,2665.213a1.507,1.507,0,0,1-1.383-.881l-31.554-71.015a1.44,1.44,0,0,1,.788-1.914,1.524,1.524,0,0,1,1.977.762l31.554,71.015a1.44,1.44,0,0,1-.787,1.914A1.546,1.546,0,0,1,2713.594,2665.213Z" transform="translate(-2578.869 -2591.284)" fill="#91b3fa"/>
            </g>
            <path id="Trazado_103760" data-name="Trazado 103760" d="M1851.905,2564.735a1.731,1.731,0,0,0-.3-1.313,1.366,1.366,0,0,0-1.1-.578H1706.964a1.6,1.6,0,0,0-1.376.844,2.02,2.02,0,0,0-.107,1.753l1.556,3.769a2.177,2.177,0,0,0,1.977,1.416h140.513a1.71,1.71,0,0,0,1.619-1.5Z" transform="translate(-1705.33 -2562.844)" fill="#91b3fa"/>
          </g>
        </g>
      </g>
    </g>
  </g>
</svg>
