<svg xmlns="http://www.w3.org/2000/svg" width="90" height="90" viewBox="0 0 90 90">
  <g id="Grupo_56588" data-name="Grupo 56588" transform="translate(-180 -6198)">
    <circle id="Elipse_1423" data-name="Elipse 1423" cx="45" cy="45" r="45" transform="translate(180 6198)" fill="#5e448f"/>
    <g id="cambiar" transform="translate(195.938 6212.864)">
      <path id="Trazado_103785" data-name="Trazado 103785" d="M73.616,262.021l-18.281-14.4a.835.835,0,0,0-1.35.656v9.572H33.177c-5.018,0-10.162-1.392-13.962-4.691a.835.835,0,0,0-1.367.784,20.935,20.935,0,0,0,1.825,5.489c2.671,5.265,7.214,7.934,13.5,7.934H53.823v9.139a.834.834,0,0,0,1.334.667L73.6,263.343a.834.834,0,0,0,.015-1.323Z" transform="translate(-15.809 -218.281)" fill="#96f8f8"/>
      <path id="Trazado_103786" data-name="Trazado 103786" d="M354.644,361.171l-2.384-1.877c-17.37,13.028-16.177,12.223-16.575,12.223a.834.834,0,0,1-.834-.834v4.976a.834.834,0,0,0,1.334.667l18.443-13.832a.834.834,0,0,0,.015-1.322Z" transform="translate(-296.837 -317.432)" fill="#d8ffff"/>
      <path id="Trazado_103787" data-name="Trazado 103787" d="M56.085,24.608C54.555,16.48,49.45,11.184,40.756,11.184H20.11V2.046a.835.835,0,0,0-1.334-.667L.333,15.211a.835.835,0,0,0-.016,1.323C20.01,32.039,18.7,31.107,19.115,31.107a.834.834,0,0,0,.834-.834V20.7H40.756c5.03,0,10.172,1.4,13.962,4.691A.835.835,0,0,0,56.085,24.608Z" transform="translate(0 0)" fill="#d7c8f2"/>
      <g id="Grupo_56574" data-name="Grupo 56574" transform="translate(0 13.61)">
        <path id="Trazado_103788" data-name="Trazado 103788" d="M19.115,123.308c-.413,0,.8.86-16.647-12.88l-2.135,1.6a.835.835,0,0,0-.016,1.323l18.281,14.4a.835.835,0,0,0,1.35-.656v-4.617A.834.834,0,0,1,19.115,123.308Z" transform="translate(0 -110.428)" fill="#a397e3"/>
        <path id="Trazado_103789" data-name="Trazado 103789" d="M211.861,140.746a22.01,22.01,0,0,0-1.02-3.653,21.48,21.48,0,0,0-14.309-4.87h-15.7a4.816,4.816,0,0,1-.992.076c-3.031,0-3.9,1.666-4.112,2.98v1.561h20.807c5.03,0,10.172,1.4,13.962,4.691A.835.835,0,0,0,211.861,140.746Z" transform="translate(-155.776 -129.748)" fill="#a397e3"/>
      </g>
      <path id="Trazado_103790" data-name="Trazado 103790" d="M49.287,305.433H33.181c-6.971,0-11.7-3.309-14.144-9.349a.833.833,0,0,0-1.184.9c1.531,8.129,6.635,13.423,15.328,13.423H53.827v-1.183C53.675,307.755,52.868,305.433,49.287,305.433Z" transform="translate(-15.813 -261.321)" fill="#d8ffff"/>
    </g>
  </g>
</svg>
