<svg xmlns="http://www.w3.org/2000/svg" width="90" height="90" viewBox="0 0 90 90">
  <g id="Grupo_56589" data-name="Grupo 56589" transform="translate(-802 -6198)">
    <circle id="Elipse_1421" data-name="Elipse 1421" cx="45" cy="45" r="45" transform="translate(802 6198)" fill="#5e448f"/>
    <g id="calendar" transform="translate(817 6182.213)">
      <path id="Trazado_103761" data-name="Trazado 103761" d="M56.727,98.938,24.108,97.091,0,98.938V135.32a1.148,1.148,0,0,0,1.148,1.148H55.579a1.148,1.148,0,0,0,1.148-1.148V98.938Z" transform="translate(0 -55.048)" fill="#f6f9f9"/>
      <path id="Trazado_103762" data-name="Trazado 103762" d="M1.148,148.422H55.579a1.148,1.148,0,0,0,1.148-1.148V110.892l-4.86-.248v19.028a3.661,3.661,0,0,1-4.173,3.626,9.136,9.136,0,0,0-10.421,8.916q0,.052,0,.1a3.669,3.669,0,0,1-3.661,3.676H0v1.282a1.148,1.148,0,0,0,1.148,1.148Z" transform="translate(0 -67.002)" fill="#e7ecf1"/>
      <path id="Trazado_103763" data-name="Trazado 103763" d="M396.925,180.552v3.261a.228.228,0,0,1-.228.228h-4.631a.228.228,0,0,1-.228-.228v-3.261a.228.228,0,0,1,.228-.228H396.7A.228.228,0,0,1,396.925,180.552Zm0-5.43a.228.228,0,0,0-.228-.228h-4.631a.228.228,0,0,0-.228.228v3.261a.228.228,0,0,0,.228.228H396.7a.228.228,0,0,0,.228-.228Zm0-5.43a.228.228,0,0,0-.228-.228h-4.631a.228.228,0,0,0-.228.228v3.261a.228.228,0,0,0,.228.228H396.7a.228.228,0,0,0,.228-.228Zm0-5.43a.228.228,0,0,0-.228-.228h-4.631a.228.228,0,0,0-.228.228v3.261a.228.228,0,0,0,.228.228H396.7a.228.228,0,0,0,.228-.228Z" transform="translate(-345.62 -114.095)" fill="aqua"/>
      <path id="Trazado_103764" data-name="Trazado 103764" d="M392.065,305.853H396.7a.228.228,0,0,0,.228-.228v-3.261a.228.228,0,0,0-.228-.228h-2a3.645,3.645,0,0,1-1.381.067q-.308-.044-.622-.067h-.625a.228.228,0,0,0-.228.228v3.261A.228.228,0,0,0,392.065,305.853Z" transform="translate(-345.619 -235.906)" fill="#5e448f"/>
      <path id="Trazado_103765" data-name="Trazado 103765" d="M128.927,172.952a.228.228,0,0,1-.228.228h-4.631a.228.228,0,0,1-.228-.228v-3.261a.228.228,0,0,1,.228-.228H128.7a.228.228,0,0,1,.228.228Zm0-8.691a.228.228,0,0,0-.228-.228h-4.631a.228.228,0,0,0-.228.228v3.261a.228.228,0,0,0,.228.228H128.7a.228.228,0,0,0,.228-.228Zm-.228,16.061h-4.631a.228.228,0,0,0-.228.228v3.261a.228.228,0,0,0,.228.228H128.7a.228.228,0,0,0,.228-.228v-3.261A.228.228,0,0,0,128.7,180.322Zm-25.052-12.572H108.3a.228.228,0,0,0,.228-.228v-3.261a.228.228,0,0,0-.228-.228h-4.653a.228.228,0,0,0-.228.228v3.261A.228.228,0,0,0,103.647,167.751Zm-.228,5.2a.228.228,0,0,0,.228.228H108.3a.228.228,0,0,0,.228-.228v-3.261a.228.228,0,0,0-.228-.228h-4.653a.228.228,0,0,0-.228.228Zm25.508,2.169a.228.228,0,0,0-.228-.228h-4.631a.228.228,0,0,0-.228.228v3.261a.228.228,0,0,0,.228.228H128.7a.228.228,0,0,0,.228-.228Zm-25.508,3.261a.228.228,0,0,0,.228.228H108.3a.228.228,0,0,0,.228-.228v-3.261a.228.228,0,0,0-.228-.228h-4.653a.228.228,0,0,0-.228.228Zm32.079,1.94h-4.631a.228.228,0,0,0-.228.228v3.261a.228.228,0,0,0,.228.228H135.5a.228.228,0,0,0,.228-.228v-3.261A.228.228,0,0,0,135.5,180.322Zm.228-5.2a.228.228,0,0,0-.228-.228h-4.631a.228.228,0,0,0-.228.228v3.261a.228.228,0,0,0,.228.228H135.5a.228.228,0,0,0,.228-.228Zm0-5.43a.228.228,0,0,0-.228-.228h-4.631a.228.228,0,0,0-.228.228v3.261a.228.228,0,0,0,.228.228H135.5a.228.228,0,0,0,.228-.228Zm0-5.43a.228.228,0,0,0-.228-.228h-4.631a.228.228,0,0,0-.228.228v3.261a.228.228,0,0,0,.228.228H135.5a.228.228,0,0,0,.228-.228Zm-32.308,24.975a.228.228,0,0,0,.228.228H108.3a.228.228,0,0,0,.228-.228V185.98a.228.228,0,0,0-.228-.228h-4.653a.228.228,0,0,0-.228.228Zm13.621-5.424a.228.228,0,0,0,.228.228H121.9a.228.228,0,0,0,.228-.228v-3.261a.228.228,0,0,0-.228-.228h-4.631a.228.228,0,0,0-.228.228Zm.228-10.631H121.9a.228.228,0,0,0,.228-.228v-3.261a.228.228,0,0,0-.228-.228h-4.631a.228.228,0,0,0-.228.228v3.261A.228.228,0,0,0,117.269,173.18Zm-.228,5.2a.228.228,0,0,0,.228.228H121.9a.228.228,0,0,0,.228-.228v-3.261a.228.228,0,0,0-.228-.228h-4.631a.228.228,0,0,0-.228.228Zm0,10.854a.228.228,0,0,0,.228.228H121.9a.228.228,0,0,0,.228-.228V185.98a.228.228,0,0,0-.228-.228h-4.631a.228.228,0,0,0-.228.228Zm4.859-25.2h-4.631a.228.228,0,0,0-.228.228v3.261a.228.228,0,0,0,.228.228H121.9a.228.228,0,0,0,.228-.228v-3.261A.228.228,0,0,0,121.9,164.033Zm-18.48,19.779a.228.228,0,0,0,.228.228H108.3a.228.228,0,0,0,.228-.228v-3.261a.228.228,0,0,0-.228-.228h-4.653a.228.228,0,0,0-.228.228Zm6.822,5.424a.228.228,0,0,0,.228.228H115.1a.228.228,0,0,0,.228-.228V185.98a.228.228,0,0,0-.228-.228h-4.631a.228.228,0,0,0-.228.228Zm0-16.284a.228.228,0,0,0,.228.228H115.1a.228.228,0,0,0,.228-.228v-3.261a.228.228,0,0,0-.228-.228h-4.631a.228.228,0,0,0-.228.228Zm.228-5.2H115.1a.228.228,0,0,0,.228-.228v-3.261a.228.228,0,0,0-.228-.228h-4.631a.228.228,0,0,0-.228.228v3.261A.228.228,0,0,0,110.469,167.751Zm-.228,10.631a.228.228,0,0,0,.228.228H115.1a.228.228,0,0,0,.228-.228v-3.261a.228.228,0,0,0-.228-.228h-4.631a.228.228,0,0,0-.228.228Zm0,5.43a.228.228,0,0,0,.228.228H115.1a.228.228,0,0,0,.228-.228v-3.261a.228.228,0,0,0-.228-.228h-4.631a.228.228,0,0,0-.228.228Z" transform="translate(-91.221 -114.094)" fill="#dae4ea"/>
      <path id="Trazado_103766" data-name="Trazado 103766" d="M334.191,306.944a.228.228,0,0,0,.228.228h4.631a.228.228,0,0,0,.228-.228v-3.261a.226.226,0,0,0-.006-.052,9.167,9.167,0,0,0-5.081,3.068v.245Z" transform="translate(-294.772 -237.226)" fill="#c6d0da"/>
      <path id="Trazado_103767" data-name="Trazado 103767" d="M55.579,55.877H1.148A1.148,1.148,0,0,0,0,57.025v5.56H56.727v-5.56A1.148,1.148,0,0,0,55.579,55.877Z" transform="translate(0 -18.695)" fill="#a397e3"/>
      <path id="Trazado_103768" data-name="Trazado 103768" d="M45.964,213.556V210.3a.228.228,0,0,1,.228-.228H50.8a.228.228,0,0,1,.228.228v3.261a.228.228,0,0,1-.228.228H46.192A.228.228,0,0,1,45.964,213.556Zm0,5.43a.228.228,0,0,0,.228.228H50.8a.228.228,0,0,0,.228-.228v-3.261a.228.228,0,0,0-.228-.228H46.192a.228.228,0,0,0-.228.228v3.261Zm0,10.854a.228.228,0,0,0,.228.228H50.8a.228.228,0,0,0,.228-.228v-3.256a.228.228,0,0,0-.228-.228H46.192a.228.228,0,0,0-.228.228v3.256Zm0-5.424a.228.228,0,0,0,.228.228H50.8a.228.228,0,0,0,.228-.228v-3.261a.228.228,0,0,0-.228-.228H46.192a.228.228,0,0,0-.228.228v3.261Z" transform="translate(-40.542 -154.698)" fill="#96f8f8"/>
      <g id="Grupo_56572" data-name="Grupo 56572" transform="translate(3.736 34.682)">
        <path id="Trazado_103769" data-name="Trazado 103769" d="M34.265,40.824H32.821a1.144,1.144,0,0,1-1.144-1.144V35.826a1.144,1.144,0,0,1,1.144-1.144h1.444a1.144,1.144,0,0,1,1.144,1.144v3.853A1.144,1.144,0,0,1,34.265,40.824Z" transform="translate(-31.677 -34.682)" fill="#dae4ea"/>
        <path id="Trazado_103770" data-name="Trazado 103770" d="M98.635,40.824h-1.33a1.144,1.144,0,0,1-1.144-1.144V35.826a1.144,1.144,0,0,1,1.144-1.144h1.33a1.144,1.144,0,0,1,1.144,1.144v3.853A1.144,1.144,0,0,1,98.635,40.824Z" transform="translate(-88.555 -34.682)" fill="#dae4ea"/>
        <path id="Trazado_103771" data-name="Trazado 103771" d="M163.12,40.824h-1.33a1.144,1.144,0,0,1-1.144-1.144V35.826a1.144,1.144,0,0,1,1.144-1.144h1.33a1.144,1.144,0,0,1,1.144,1.144v3.853A1.144,1.144,0,0,1,163.12,40.824Z" transform="translate(-145.434 -34.682)" fill="#dae4ea"/>
        <path id="Trazado_103772" data-name="Trazado 103772" d="M227.6,40.824h-1.33a1.144,1.144,0,0,1-1.144-1.144V35.826a1.144,1.144,0,0,1,1.144-1.144h1.33a1.144,1.144,0,0,1,1.144,1.144v3.853A1.144,1.144,0,0,1,227.6,40.824Z" transform="translate(-202.312 -34.682)" fill="#dae4ea"/>
        <path id="Trazado_103773" data-name="Trazado 103773" d="M292.088,40.824h-1.33a1.144,1.144,0,0,1-1.144-1.144V35.826a1.144,1.144,0,0,1,1.144-1.144h1.33a1.144,1.144,0,0,1,1.144,1.144v3.853A1.144,1.144,0,0,1,292.088,40.824Z" transform="translate(-259.19 -34.682)" fill="#dae4ea"/>
        <path id="Trazado_103774" data-name="Trazado 103774" d="M356.572,40.824h-1.33A1.144,1.144,0,0,1,354.1,39.68V35.826a1.144,1.144,0,0,1,1.144-1.144h1.33a1.144,1.144,0,0,1,1.144,1.144v3.853A1.144,1.144,0,0,1,356.572,40.824Z" transform="translate(-316.068 -34.682)" fill="#dae4ea"/>
      </g>
      <path id="Trazado_103775" data-name="Trazado 103775" d="M443.438,55.878H440.85l-.686,1.811a7.662,7.662,0,0,1-.438,1.83v3.067h4.86v-5.56A1.148,1.148,0,0,0,443.438,55.878Z" transform="translate(-387.859 -18.696)" fill="#392a8d"/>
      <path id="Trazado_103776" data-name="Trazado 103776" d="M421.057,40.824h-1.33a1.144,1.144,0,0,1-1.144-1.144V35.826a1.144,1.144,0,0,1,1.144-1.144h1.33a1.144,1.144,0,0,1,1.144,1.144v3.853A1.144,1.144,0,0,1,421.057,40.824Z" transform="translate(-369.21)" fill="#dae4ea"/>
      <circle id="Elipse_1420" data-name="Elipse 1420" cx="9.129" cy="9.129" r="9.129" transform="translate(42.134 68.635)" fill="#a397e3"/>
      <path id="Trazado_103777" data-name="Trazado 103777" d="M388.767,323.524a9.129,9.129,0,0,1-6.326,15.71,9.207,9.207,0,0,1-1.466-.117,9.129,9.129,0,1,0,7.791-15.593Z" transform="translate(-336.039 -254.772)" fill="#d7c8f2"/>
      <path id="Trazado_103778" data-name="Trazado 103778" d="M400.033,369.384l-1.725-1.725a.464.464,0,0,0-.657,0L394.314,371a.464.464,0,0,1-.657,0l-1.6-1.6a.464.464,0,0,0-.657,0l-1.725,1.725a.464.464,0,0,0,0,.657l3.984,3.985a.464.464,0,0,0,.657,0l5.719-5.719A.464.464,0,0,0,400.033,369.384Z" transform="translate(-343.59 -293.582)" fill="#f6f9f9"/>
      <path id="Trazado_103779" data-name="Trazado 103779" d="M468.517,375.478q.011.225.011.453a9.143,9.143,0,0,1-.3,2.341l1.215-1.215a.464.464,0,0,0,0-.657Z" transform="translate(-412.997 -300.598)" fill="#e7ecf1"/>
    </g>
  </g>
</svg>
