<svg xmlns="http://www.w3.org/2000/svg" width="90" height="90" viewBox="0 0 90 90">
  <g id="Grupo_56600" data-name="Grupo 56600" transform="translate(-180 -7140)">
    <circle id="Elipse_1423" data-name="Elipse 1423" cx="45" cy="45" r="45" transform="translate(180 7140)" fill="#5e448f"/>
    <g id="demandante-de-empleo" transform="translate(198.095 7130.239)">
      <g id="Grupo_56599" data-name="Grupo 56599" transform="translate(0 30.487)">
        <g id="Grupo_56594" data-name="Grupo 56594" transform="translate(0 0)">
          <g id="Grupo_56593" data-name="Grupo 56593">
            <g id="Grupo_56591" data-name="Grupo 56591" transform="translate(15.429)">
              <path id="Trazado_103803" data-name="Trazado 103803" d="M164.288,42.844a1.673,1.673,0,0,1-1.671-1.671V35.13a1.3,1.3,0,0,0-1.3-1.3h-9.2a1.3,1.3,0,0,0-1.3,1.3v6.044a1.671,1.671,0,1,1-3.341,0V35.13a4.648,4.648,0,0,1,4.643-4.643h9.2a4.648,4.648,0,0,1,4.643,4.643v6.044A1.672,1.672,0,0,1,164.288,42.844Z" transform="translate(-147.472 -30.487)" fill="#96f8f8"/>
            </g>
            <g id="Grupo_56592" data-name="Grupo 56592" transform="translate(0 8.267)">
              <path id="Trazado_103804" data-name="Trazado 103804" d="M0,188.24v21.493a4.794,4.794,0,0,0,4.794,4.794H38.938a4.794,4.794,0,0,0,4.794-4.794V188.24Z" transform="translate(0 -180.002)" fill="#96f8f8"/>
              <path id="Trazado_103805" data-name="Trazado 103805" d="M367.408,109.5h-6.826a4.794,4.794,0,0,1,4.794,4.794V139.23a4.794,4.794,0,0,1-4.794,4.794h6.826a4.794,4.794,0,0,0,4.794-4.794V114.293A4.794,4.794,0,0,0,367.408,109.5Z" transform="translate(-322.856 -109.499)" fill="#96f8f8"/>
              <path id="Trazado_103806" data-name="Trazado 103806" d="M43.732,125.754V114.293a4.794,4.794,0,0,0-4.794-4.794H4.794A4.794,4.794,0,0,0,0,114.293v3.334a8.687,8.687,0,0,0,8.687,8.687H40.659a8.668,8.668,0,0,0,3.074-.56Z" transform="translate(0 -109.499)" fill="#d8ffff"/>
              <path id="Trazado_103807" data-name="Trazado 103807" d="M367.408,109.5h-6.826a4.794,4.794,0,0,1,4.794,4.794v11.819a8.689,8.689,0,0,0,6.826-8.485v-3.334A4.794,4.794,0,0,0,367.408,109.5Z" transform="translate(-322.856 -109.499)" fill="#d8ffff"/>
            </g>
          </g>
        </g>
        <g id="Grupo_56595" data-name="Grupo 56595" transform="translate(8.787 21.36)">
          <path id="Trazado_103808" data-name="Trazado 103808" d="M86.224,244.334a2.24,2.24,0,0,1-2.24-2.24v-5.206a2.24,2.24,0,0,1,4.48,0v5.206A2.24,2.24,0,0,1,86.224,244.334Z" transform="translate(-83.984 -234.647)" fill="#a397e3"/>
          <path id="Trazado_103809" data-name="Trazado 103809" d="M83.984,289.8v1.677a2.24,2.24,0,0,0,4.48,0V289.8Z" transform="translate(-83.984 -284.027)" fill="#a397e3"/>
        </g>
        <g id="Grupo_56598" data-name="Grupo 56598" transform="translate(19.72 13.341)">
          <g id="Grupo_56597" data-name="Grupo 56597">
            <g id="Grupo_56596" data-name="Grupo 56596">
              <path id="Trazado_103810" data-name="Trazado 103810" d="M0,0H3.252V6.811H0Z" transform="translate(12.822 18.72) rotate(45)" fill="#f4fbff"/>
              <path id="Trazado_103811" data-name="Trazado 103811" d="M198.289,390.791,195.3,387.8l-.932.333-5.139,5.139a2.538,2.538,0,0,0,3.59,3.59l5.139-5.139Z" transform="translate(-188.485 -363.757)" fill="#a397e3"/>
              <path id="Trazado_103812" data-name="Trazado 103812" d="M249.749,376.885l-2.222-2.222a.967.967,0,0,0-1.368,0l-1.454,1.454,3.59,3.59,1.454-1.454A.967.967,0,0,0,249.749,376.885Z" transform="translate(-238.824 -351.741)" fill="#4a80aa"/>
              <circle id="Elipse_1425" data-name="Elipse 1425" cx="12.588" cy="12.588" r="12.588" transform="translate(8.672)" fill="#a397e3"/>
              <circle id="Elipse_1426" data-name="Elipse 1426" cx="8.901" cy="8.901" r="8.901" transform="translate(12.359 3.687)" fill="#f1eaff"/>
              <path id="Trazado_103813" data-name="Trazado 103813" d="M368.775,195.853a8.9,8.9,0,0,0-9.707-1.928,8.9,8.9,0,0,1,0,16.443,8.9,8.9,0,0,0,9.707-14.515Z" transform="translate(-341.221 -189.559)" fill="#bed8fb"/>
            </g>
          </g>
        </g>
      </g>
    </g>
  </g>
</svg>
