<svg xmlns="http://www.w3.org/2000/svg" width="90" height="90" viewBox="0 0 90 90">
  <g id="Grupo_56580" data-name="Grupo 56580" transform="translate(-180 -6403)">
    <circle id="Elipse_1424" data-name="Elipse 1424" cx="45" cy="45" r="45" transform="translate(180 6403)" fill="#5e448f"/>
    <g id="igualdad" transform="translate(197 6419.327)">
      <g id="Grupo_56575" data-name="Grupo 56575">
        <path id="Trazado_103791" data-name="Trazado 103791" d="M10.269,105A10.269,10.269,0,0,0,0,115.269v9.945a1.621,1.621,0,0,0,1.621,1.621H3.243v20.538A1.621,1.621,0,0,0,4.864,149h10.81a1.621,1.621,0,0,0,1.621-1.621V126.836h1.621a1.621,1.621,0,0,0,1.621-1.621v-9.945A10.269,10.269,0,0,0,10.269,105Z" transform="translate(0 -93.65)" fill="#d8ffff"/>
        <path id="Trazado_103792" data-name="Trazado 103792" d="M95,105v44h5.4a1.621,1.621,0,0,0,1.621-1.621V126.836h1.621a1.621,1.621,0,0,0,1.621-1.621v-9.945A10.269,10.269,0,0,0,95,105Z" transform="translate(-84.731 -93.65)" fill="#96f8f8"/>
        <path id="Trazado_103793" data-name="Trazado 103793" d="M37.026,14.053a7.026,7.026,0,1,1,7.026-7.026A7.034,7.034,0,0,1,37.026,14.053Z" transform="translate(-26.757)" fill="#96f8f8"/>
        <path id="Trazado_103794" data-name="Trazado 103794" d="M102.026,7.026A7.034,7.034,0,0,0,95,0V14.053A7.034,7.034,0,0,0,102.026,7.026Z" transform="translate(-84.731)" fill="#d8ffff"/>
      </g>
      <g id="Grupo_56576" data-name="Grupo 56576" transform="translate(34.807)">
        <path id="Trazado_103795" data-name="Trazado 103795" d="M332.269,105A10.269,10.269,0,0,0,322,115.269v9.945a1.621,1.621,0,0,0,1.621,1.621h1.621v20.538A1.621,1.621,0,0,0,326.864,149h10.81a1.621,1.621,0,0,0,1.621-1.621V126.836h1.621a1.621,1.621,0,0,0,1.621-1.621v-9.945A10.269,10.269,0,0,0,332.269,105Z" transform="translate(-322 -93.65)" fill="#d7c8f2"/>
        <path id="Trazado_103796" data-name="Trazado 103796" d="M417,105v44h5.4a1.621,1.621,0,0,0,1.621-1.621V126.836h1.621a1.621,1.621,0,0,0,1.621-1.621v-9.945A10.269,10.269,0,0,0,417,105Z" transform="translate(-406.731 -93.65)" fill="#a397e3"/>
        <path id="Trazado_103797" data-name="Trazado 103797" d="M359.026,14.053a7.026,7.026,0,1,1,7.026-7.026A7.034,7.034,0,0,1,359.026,14.053Z" transform="translate(-348.757)" fill="#a397e3"/>
        <path id="Trazado_103798" data-name="Trazado 103798" d="M424.026,7.026A7.034,7.034,0,0,0,417,0V14.053A7.034,7.034,0,0,0,424.026,7.026Z" transform="translate(-406.731)" fill="#d7c8f2"/>
      </g>
      <g id="Grupo_56578" data-name="Grupo 56578" transform="translate(21.728 6.486)">
        <path id="Trazado_103799" data-name="Trazado 103799" d="M211.269,63.243h-8.648a1.621,1.621,0,1,1,0-3.243h8.648a1.621,1.621,0,1,1,0,3.243Z" transform="translate(-201 -60)" fill="#96f8f8"/>
        <path id="Trazado_103800" data-name="Trazado 103800" d="M211.269,123.243h-8.648a1.621,1.621,0,1,1,0-3.243h8.648a1.621,1.621,0,1,1,0,3.243Z" transform="translate(-201 -113.514)" fill="#96f8f8"/>
        <g id="Grupo_56577" data-name="Grupo 56577" transform="translate(5.945)">
          <path id="Trazado_103801" data-name="Trazado 103801" d="M260.324,120H256v3.243h4.324a1.621,1.621,0,1,0,0-3.243Z" transform="translate(-256 -113.514)" fill="#d8ffff"/>
          <path id="Trazado_103802" data-name="Trazado 103802" d="M260.324,60H256v3.243h4.324a1.621,1.621,0,1,0,0-3.243Z" transform="translate(-256 -60)" fill="#d8ffff"/>
        </g>
      </g>
    </g>
  </g>
</svg>
