<svg xmlns="http://www.w3.org/2000/svg" width="104.225" height="90.105" viewBox="0 0 104.225 90.105">
  <g id="calendar" transform="translate(0 -34.682)">
    <path id="Trazado_103761" data-name="Trazado 103761" d="M97.9,100.278l-56.3-3.187L0,100.278v62.789a1.981,1.981,0,0,0,1.981,1.981H95.92a1.981,1.981,0,0,0,1.981-1.981V100.278Z" transform="translate(0 -49.705)" fill="#96f8f8"/>
    <path id="Trazado_103762" data-name="Trazado 103762" d="M1.981,175.842H95.92a1.981,1.981,0,0,0,1.981-1.981V111.072l-8.388-.428v32.838a6.318,6.318,0,0,1-7.2,6.257,15.767,15.767,0,0,0-17.984,15.387q0,.089,0,.178a6.332,6.332,0,0,1-6.319,6.343H0v2.213a1.981,1.981,0,0,0,1.981,1.981Z" transform="translate(0 -60.499)" fill="#d8ffff"/>
    <path id="Trazado_103763" data-name="Trazado 103763" d="M400.618,192.54v5.628a.394.394,0,0,1-.394.394h-7.992a.394.394,0,0,1-.394-.394V192.54a.394.394,0,0,1,.394-.394h7.992A.394.394,0,0,1,400.618,192.54Zm0-9.371a.394.394,0,0,0-.394-.394h-7.992a.394.394,0,0,0-.394.394V188.8a.394.394,0,0,0,.394.394h7.992a.394.394,0,0,0,.394-.394Zm0-9.371a.394.394,0,0,0-.394-.394h-7.992a.394.394,0,0,0-.394.394v5.628a.394.394,0,0,0,.394.394h7.992a.394.394,0,0,0,.394-.394Zm0-9.371a.394.394,0,0,0-.394-.394h-7.992a.394.394,0,0,0-.394.394v5.628a.394.394,0,0,0,.394.394h7.992a.394.394,0,0,0,.394-.394Z" transform="translate(-312.074 -103.021)" fill="aqua"/>
    <path id="Trazado_103765" data-name="Trazado 103765" d="M147.441,179.426a.394.394,0,0,1-.394.394h-7.992a.394.394,0,0,1-.394-.394V173.8a.394.394,0,0,1,.394-.394h7.992a.394.394,0,0,1,.394.394Zm0-15a.394.394,0,0,0-.394-.394h-7.992a.394.394,0,0,0-.394.394v5.628a.394.394,0,0,0,.394.394h7.992a.394.394,0,0,0,.394-.394Zm-.394,27.718h-7.992a.394.394,0,0,0-.394.394v5.628a.394.394,0,0,0,.394.394h7.992a.394.394,0,0,0,.394-.394v-5.628A.394.394,0,0,0,147.048,192.145Zm-43.235-21.7h8.031a.394.394,0,0,0,.394-.394v-5.628a.394.394,0,0,0-.394-.394h-8.031a.394.394,0,0,0-.394.394v5.628A.394.394,0,0,0,103.813,170.449Zm-.394,8.977a.394.394,0,0,0,.394.394h8.031a.394.394,0,0,0,.394-.394V173.8a.394.394,0,0,0-.394-.394h-8.031a.394.394,0,0,0-.394.394Zm44.022,3.743a.394.394,0,0,0-.394-.394h-7.992a.394.394,0,0,0-.394.394V188.8a.394.394,0,0,0,.394.394h7.992a.394.394,0,0,0,.394-.394ZM103.419,188.8a.394.394,0,0,0,.394.394h8.031a.394.394,0,0,0,.394-.394v-5.628a.394.394,0,0,0-.394-.394h-8.031a.394.394,0,0,0-.394.394Zm55.363,3.349H150.79a.394.394,0,0,0-.394.394v5.628a.394.394,0,0,0,.394.394h7.992a.394.394,0,0,0,.394-.394v-5.628A.394.394,0,0,0,158.782,192.145Zm.394-8.977a.394.394,0,0,0-.394-.394H150.79a.394.394,0,0,0-.394.394V188.8a.394.394,0,0,0,.394.394h7.992a.394.394,0,0,0,.394-.394Zm0-9.371a.394.394,0,0,0-.394-.394H150.79a.394.394,0,0,0-.394.394v5.628a.394.394,0,0,0,.394.394h7.992a.394.394,0,0,0,.394-.394Zm0-9.371a.394.394,0,0,0-.394-.394H150.79a.394.394,0,0,0-.394.394v5.628a.394.394,0,0,0,.394.394h7.992a.394.394,0,0,0,.394-.394Zm-55.757,43.1a.394.394,0,0,0,.394.394h8.031a.394.394,0,0,0,.394-.394V201.91a.394.394,0,0,0-.394-.394h-8.031a.394.394,0,0,0-.394.394Zm23.508-9.362a.394.394,0,0,0,.394.394h7.992a.394.394,0,0,0,.394-.394v-5.628a.394.394,0,0,0-.394-.394h-7.992a.394.394,0,0,0-.394.394Zm.394-18.348h7.992a.394.394,0,0,0,.394-.394V173.8a.394.394,0,0,0-.394-.394h-7.992a.394.394,0,0,0-.394.394v5.628A.394.394,0,0,0,127.321,179.82Zm-.394,8.977a.394.394,0,0,0,.394.394h7.992a.394.394,0,0,0,.394-.394v-5.628a.394.394,0,0,0-.394-.394h-7.992a.394.394,0,0,0-.394.394Zm0,18.732a.394.394,0,0,0,.394.394h7.992a.394.394,0,0,0,.394-.394V201.91a.394.394,0,0,0-.394-.394h-7.992a.394.394,0,0,0-.394.394Zm8.386-43.5h-7.992a.394.394,0,0,0-.394.394v5.628a.394.394,0,0,0,.394.394h7.992a.394.394,0,0,0,.394-.394v-5.628A.394.394,0,0,0,135.313,164.033Zm-31.894,34.134a.394.394,0,0,0,.394.394h8.031a.394.394,0,0,0,.394-.394v-5.628a.394.394,0,0,0-.394-.394h-8.031a.394.394,0,0,0-.394.394Zm11.774,9.362a.394.394,0,0,0,.394.394h7.992a.394.394,0,0,0,.394-.394V201.91a.394.394,0,0,0-.394-.394h-7.992a.394.394,0,0,0-.394.394Zm0-28.1a.394.394,0,0,0,.394.394h7.992a.394.394,0,0,0,.394-.394V173.8a.394.394,0,0,0-.394-.394h-7.992a.394.394,0,0,0-.394.394Zm.394-8.977h7.992a.394.394,0,0,0,.394-.394v-5.628a.394.394,0,0,0-.394-.394h-7.992a.394.394,0,0,0-.394.394v5.628A.394.394,0,0,0,115.586,170.449Zm-.394,18.348a.394.394,0,0,0,.394.394h7.992a.394.394,0,0,0,.394-.394v-5.628a.394.394,0,0,0-.394-.394h-7.992a.394.394,0,0,0-.394.394Zm0,9.371a.394.394,0,0,0,.394.394h7.992a.394.394,0,0,0,.394-.394v-5.628a.394.394,0,0,0-.394-.394h-7.992a.394.394,0,0,0-.394.394Z" transform="translate(-82.367 -103.02)" fill="#392a8d"/>
    <path id="Trazado_103766" data-name="Trazado 103766" d="M334.191,309.348a.394.394,0,0,0,.394.394h7.992a.394.394,0,0,0,.394-.394V303.72a.388.388,0,0,0-.01-.089,15.821,15.821,0,0,0-8.77,5.294v.423Z" transform="translate(-266.162 -214.201)" fill="#c6d0da"/>
    <path id="Trazado_103767" data-name="Trazado 103767" d="M95.919,55.877H1.982A1.982,1.982,0,0,0,0,57.859v9.595H97.9V57.859A1.982,1.982,0,0,0,95.919,55.877Z" transform="translate(0 -16.88)" fill="#392a8d"/>
    <path id="Trazado_103768" data-name="Trazado 103768" d="M45.964,216.089v-5.628a.394.394,0,0,1,.394-.394h7.953a.394.394,0,0,1,.394.394v5.628a.394.394,0,0,1-.394.394H46.358A.394.394,0,0,1,45.964,216.089Zm0,9.371a.394.394,0,0,0,.394.394h7.953a.394.394,0,0,0,.394-.394v-5.628a.394.394,0,0,0-.394-.394H46.358a.394.394,0,0,0-.394.394v5.628Zm0,18.732a.394.394,0,0,0,.394.394h7.953a.394.394,0,0,0,.394-.394v-5.619a.394.394,0,0,0-.394-.394H46.358a.394.394,0,0,0-.394.394v5.619Zm0-9.361a.394.394,0,0,0,.394.394h7.953a.394.394,0,0,0,.394-.394V229.2a.394.394,0,0,0-.394-.394H46.358a.394.394,0,0,0-.394.394v5.628Z" transform="translate(-36.607 -139.683)" fill="#96f8f8"/>
    <g id="Grupo_56572" data-name="Grupo 56572" transform="translate(6.448 34.682)">
      <path id="Trazado_103769" data-name="Trazado 103769" d="M36.144,45.281H33.651a1.974,1.974,0,0,1-1.974-1.974v-6.65a1.974,1.974,0,0,1,1.974-1.974h2.492a1.974,1.974,0,0,1,1.974,1.974v6.65A1.974,1.974,0,0,1,36.144,45.281Z" transform="translate(-31.677 -34.682)" fill="#dae4ea"/>
      <path id="Trazado_103770" data-name="Trazado 103770" d="M100.431,45.281h-2.3a1.974,1.974,0,0,1-1.974-1.974v-6.65a1.974,1.974,0,0,1,1.974-1.974h2.3a1.974,1.974,0,0,1,1.974,1.974v6.65A1.974,1.974,0,0,1,100.431,45.281Z" transform="translate(-83.034 -34.682)" fill="#dae4ea"/>
      <path id="Trazado_103771" data-name="Trazado 103771" d="M164.916,45.281h-2.3a1.974,1.974,0,0,1-1.974-1.974v-6.65a1.974,1.974,0,0,1,1.974-1.974h2.3a1.974,1.974,0,0,1,1.974,1.974v6.65A1.974,1.974,0,0,1,164.916,45.281Z" transform="translate(-134.392 -34.682)" fill="#dae4ea"/>
      <path id="Trazado_103772" data-name="Trazado 103772" d="M229.4,45.281h-2.3a1.974,1.974,0,0,1-1.974-1.974v-6.65a1.974,1.974,0,0,1,1.974-1.974h2.3a1.974,1.974,0,0,1,1.974,1.974v6.65A1.974,1.974,0,0,1,229.4,45.281Z" transform="translate(-185.75 -34.682)" fill="#dae4ea"/>
      <path id="Trazado_103773" data-name="Trazado 103773" d="M293.884,45.281h-2.3a1.974,1.974,0,0,1-1.974-1.974v-6.65a1.974,1.974,0,0,1,1.974-1.974h2.3a1.974,1.974,0,0,1,1.974,1.974v6.65A1.974,1.974,0,0,1,293.884,45.281Z" transform="translate(-237.107 -34.682)" fill="#dae4ea"/>
      <path id="Trazado_103774" data-name="Trazado 103774" d="M358.368,45.281h-2.3a1.974,1.974,0,0,1-1.974-1.974v-6.65a1.974,1.974,0,0,1,1.974-1.974h2.3a1.974,1.974,0,0,1,1.974,1.974v6.65A1.974,1.974,0,0,1,358.368,45.281Z" transform="translate(-288.465 -34.682)" fill="#dae4ea"/>
    </g>
    <path id="Trazado_103775" data-name="Trazado 103775" d="M446.133,55.878h-4.467L440.482,59a13.223,13.223,0,0,1-.756,3.158v5.292h8.388V57.859A1.981,1.981,0,0,0,446.133,55.878Z" transform="translate(-350.214 -16.881)" fill="#392a8d"/>
    <path id="Trazado_103776" data-name="Trazado 103776" d="M422.853,45.281h-2.3a1.974,1.974,0,0,1-1.974-1.974v-6.65a1.974,1.974,0,0,1,1.974-1.974h2.3a1.974,1.974,0,0,1,1.974,1.974v6.65A1.975,1.975,0,0,1,422.853,45.281Z" transform="translate(-333.375 0)" fill="#dae4ea"/>
    <circle id="Elipse_1420" data-name="Elipse 1420" cx="15.754" cy="15.754" r="15.754" transform="translate(72.716 93.278)" fill="#392a8d"/>
    <path id="Trazado_103777" data-name="Trazado 103777" d="M394.423,323.524a15.754,15.754,0,0,1-10.917,27.113,15.893,15.893,0,0,1-2.529-.2,15.755,15.755,0,1,0,13.447-26.911Z" transform="translate(-303.423 -230.044)" fill="#392a8d"/>
    <path id="Trazado_103778" data-name="Trazado 103778" d="M407.652,370.735l-2.977-2.977a.8.8,0,0,0-1.133,0l-5.76,5.76a.8.8,0,0,1-1.133,0l-2.766-2.766a.8.8,0,0,0-1.133,0l-2.977,2.977a.8.8,0,0,0,0,1.133l6.877,6.877a.8.8,0,0,0,1.133,0l9.87-9.87A.8.8,0,0,0,407.652,370.735Z" transform="translate(-310.241 -265.087)" fill="#f6f9f9"/>
    <path id="Trazado_103779" data-name="Trazado 103779" d="M468.729,375.478q.019.389.019.782a15.777,15.777,0,0,1-.523,4.039l2.1-2.1a.8.8,0,0,0,0-1.133Z" transform="translate(-372.911 -271.422)" fill="#e7ecf1"/>
  </g>
</svg>
