<svg xmlns="http://www.w3.org/2000/svg" xmlns:xlink="http://www.w3.org/1999/xlink" width="500" height="342.854" viewBox="0 0 500 342.854">
  <defs>
    <linearGradient id="linear-gradient" y1="0.5" x2="1" y2="0.5" gradientUnits="objectBoundingBox">
      <stop offset="0" stop-color="#dae3fe"/>
      <stop offset="1" stop-color="#e9effd"/>
    </linearGradient>
    <linearGradient id="linear-gradient-2" x1="0" y1="0.5" x2="1" y2="0.5" xlink:href="#linear-gradient"/>
    <linearGradient id="linear-gradient-21" x1="1.519" y1="-0.775" x2="-1.484" y2="2.907" gradientUnits="objectBoundingBox">
      <stop offset="0" stop-color="#09005d"/>
      <stop offset="1" stop-color="#1a0f91"/>
    </linearGradient>
    <linearGradient id="linear-gradient-23" x1="1.004" y1="-2.464" x2="-0.074" y2="4.125" xlink:href="#linear-gradient-21"/>
    <linearGradient id="linear-gradient-26" x1="-0.281" y1="0.954" x2="1.881" y2="-0.303" gradientUnits="objectBoundingBox">
      <stop offset="0" stop-color="#4042e2"/>
      <stop offset="1" stop-color="#4f52ff"/>
    </linearGradient>
    <linearGradient id="linear-gradient-27" x1="0.507" y1="0.068" x2="0.761" y2="-21.397" xlink:href="#linear-gradient-26"/>
    <linearGradient id="linear-gradient-28" x1="0.34" y1="4.039" x2="0.537" y2="-0.315" xlink:href="#linear-gradient-26"/>
    <linearGradient id="linear-gradient-29" x1="0.712" y1="0.715" x2="0.854" y2="1.061" gradientUnits="objectBoundingBox">
      <stop offset="0" stop-color="#ff928e"/>
      <stop offset="1" stop-color="#feb3b1"/>
    </linearGradient>
    <linearGradient id="linear-gradient-30" x1="0.532" y1="0.006" x2="0.327" y2="3.202" xlink:href="#linear-gradient-21"/>
    <linearGradient id="linear-gradient-31" x1="0.258" y1="0.704" x2="0.871" y2="0.217" xlink:href="#linear-gradient-29"/>
    <linearGradient id="linear-gradient-32" x1="0" y1="0.5" x2="1" y2="0.5" xlink:href="#linear-gradient-21"/>
    <linearGradient id="linear-gradient-33" x1="0.554" y1="-2.158" x2="0.395" y2="6.275" xlink:href="#linear-gradient-21"/>
    <linearGradient id="linear-gradient-34" x1="0.958" y1="0.108" x2="0.417" y2="0.574" xlink:href="#linear-gradient-21"/>
    <linearGradient id="linear-gradient-35" x1="0.268" y1="-0.098" x2="0.725" y2="1.234" xlink:href="#linear-gradient-29"/>
    <linearGradient id="linear-gradient-36" x1="-0.006" y1="0.333" x2="0.924" y2="0.733" xlink:href="#linear-gradient-29"/>
    <linearGradient id="linear-gradient-37" x1="-4.903" y1="2.288" x2="-5.834" y2="3.144" xlink:href="#linear-gradient-21"/>
    <linearGradient id="linear-gradient-38" x1="-2.645" y1="-0.595" x2="0.947" y2="0.669" xlink:href="#linear-gradient-29"/>
    <linearGradient id="linear-gradient-39" x1="1.121" y1="0.08" x2="0.233" y2="0.773" xlink:href="#linear-gradient-29"/>
    <linearGradient id="linear-gradient-40" x1="1.73" y1="-0.13" x2="-1.657" y2="1.467" xlink:href="#linear-gradient-26"/>
    <linearGradient id="linear-gradient-41" x1="1.289" y1="0.127" x2="-2.098" y2="1.724" xlink:href="#linear-gradient-26"/>
    <linearGradient id="linear-gradient-42" x1="0.484" y1="1.179" x2="0.561" y2="-2.195" gradientUnits="objectBoundingBox">
      <stop offset="0" stop-color="#fe7062"/>
      <stop offset="1" stop-color="#ff928e"/>
    </linearGradient>
    <linearGradient id="linear-gradient-43" x1="-11.7" y1="1.564" x2="-12.039" y2="2.918" xlink:href="#linear-gradient-29"/>
    <linearGradient id="linear-gradient-44" x1="0" y1="0.5" x2="1" y2="0.5" xlink:href="#linear-gradient-42"/>
    <linearGradient id="linear-gradient-45" x1="0.772" y1="-6.693" x2="0.499" y2="0.843" gradientUnits="objectBoundingBox">
      <stop offset="0" stop-color="#020039"/>
      <stop offset="1" stop-color="#090056"/>
    </linearGradient>
    <linearGradient id="linear-gradient-46" x1="0" y1="0.5" x2="1" y2="0.5" xlink:href="#linear-gradient-29"/>
    <linearGradient id="linear-gradient-48" x1="0.734" y1="-1.867" x2="0.424" y2="1.1" xlink:href="#linear-gradient-45"/>
    <linearGradient id="linear-gradient-49" x1="0.5" y1="-1.229" x2="0.5" y2="-0.49" xlink:href="#linear-gradient-45"/>
    <linearGradient id="linear-gradient-51" x1="-0.095" y1="2.406" x2="0.49" y2="0.529" xlink:href="#linear-gradient-21"/>
    <linearGradient id="linear-gradient-52" x1="0.635" y1="0.392" x2="0.098" y2="1.51" xlink:href="#linear-gradient-29"/>
    <linearGradient id="linear-gradient-53" x1="0" y1="0.5" x2="1" y2="0.5" xlink:href="#linear-gradient-26"/>
    <linearGradient id="linear-gradient-54" x1="-13.162" y1="18.226" x2="-14.749" y2="19.599" xlink:href="#linear-gradient-29"/>
    <linearGradient id="linear-gradient-55" x1="-7.917" y1="11.511" x2="-6.838" y2="11.511" xlink:href="#linear-gradient-21"/>
    <linearGradient id="linear-gradient-56" x1="-37.347" y1="53.511" x2="-34.193" y2="51.086" xlink:href="#linear-gradient-29"/>
    <linearGradient id="linear-gradient-59" x1="-1.218" y1="1.584" x2="0.954" y2="0.207" xlink:href="#linear-gradient-29"/>
    <linearGradient id="linear-gradient-60" x1="0.506" y1="-1.243" x2="0.427" y2="24.46" xlink:href="#linear-gradient-26"/>
  </defs>
  <g id="Grupo_55752" data-name="Grupo 55752" transform="translate(-156.726 -83.904)">
    <path id="Trazado_102450" data-name="Trazado 102450" d="M526.479,108.471c29.373,34.128,131.31-3.786,130.238,59.135-1.255,73.676-44.181,110.524-20.705,166.939,21.9,52.623-51.678,90.019-182.038,88.926S113.9,357.389,164.427,286.8s16.861-74.206,14.4-105.4,23.1-99.622,124.058-42.558S452.1,22.049,526.479,108.471Z" transform="translate(0)" fill="#f1eaff"/>
    <g id="Grupo_55724" data-name="Grupo 55724" transform="translate(489.813 186.165)">
      <path id="Trazado_102463" data-name="Trazado 102463" d="M1753.256,528.335c2.183,29.758,7.818,203.455-154.227,238.021,0,0-33.146-113.4,150.28-239.921A2.525,2.525,0,0,1,1753.256,528.335Z" transform="translate(-1596.693 -525.987)" fill="#bdd0fb"/>
      <path id="Trazado_102464" data-name="Trazado 102464" d="M1863.3,643.765s-4.553,13.561-12.181,33.606l-3,7.808-3.271,8.332c-2.272,5.708-4.685,11.721-7.266,17.907-2.559,6.2-5.286,12.562-8.093,19.017q-2.138,4.826-4.307,9.716c-1.483,3.238-2.935,6.506-4.454,9.743s-3.009,6.488-4.569,9.691l-2.31,4.8c-.771,1.6-1.568,3.173-2.346,4.752l-2.34,4.709-2.375,4.633c-1.557,3.08-3.167,6.086-4.742,9.047-3.155,5.919-6.322,11.581-9.416,16.9s-6.123,10.286-9.03,14.8c-1.416,2.283-2.867,4.411-4.232,6.444l-1.993,2.971c-.658.955-1.325,1.865-1.956,2.756-1.278,1.771-2.436,3.457-3.578,4.966l-3.159,4.129-1.357,1.765-1.253,1.514-1.977,2.388-1.646,1.988a.942.942,0,0,1-1.452-1.2l0,0,.026-.031,1.639-1.961,1.968-2.355,1.248-1.493,1.354-1.744,3.154-4.081c1.139-1.492,2.3-3.162,3.576-4.915.631-.883,1.3-1.783,1.956-2.729l2-2.945c1.367-2.016,2.82-4.125,4.241-6.391,2.915-4.482,5.949-9.42,9.063-14.7s6.292-10.914,9.468-16.8c1.585-2.946,3.206-5.937,4.773-9l2.392-4.612,2.357-4.688c.785-1.572,1.588-3.143,2.365-4.732l2.329-4.785c1.572-3.189,3.075-6.428,4.607-9.653s3-6.481,4.494-9.708l4.348-9.684c2.833-6.434,5.588-12.781,8.174-18.958,2.608-6.168,5.047-12.164,7.344-17.857l3.307-8.309,3.031-7.788c1.927-5,3.668-9.591,5.182-13.672s2.818-7.645,3.879-10.585c2.116-5.882,3.268-9.259,3.268-9.259a.4.4,0,0,1,.756.257Z" transform="translate(-1722.829 -616.116)" fill="#dce5fe"/>
    </g>
    <g id="Grupo_55725" data-name="Grupo 55725" transform="translate(170.697 317.265)">
      <path id="Trazado_102465" data-name="Trazado 102465" d="M217.293,1094.794a1.386,1.386,0,0,1,2-1.8c11.537,7.814,42.431,27.356,67.271,30.584,40.445,5.256,86,30.8,88.921,61.521C375.481,1185.1,291.151,1233.38,217.293,1094.794Z" transform="translate(-217.123 -1092.747)" fill="#bdd0fb"/>
      <path id="Trazado_102466" data-name="Trazado 102466" d="M280.212,1155.767l.314.283.932.777c.83.69,2.074,1.674,3.654,2.928s3.519,2.753,5.765,4.444,4.8,3.571,7.585,5.621c2.8,2.028,5.844,4.217,9.108,6.465,3.25,2.268,6.731,4.58,10.333,6.97,3.617,2.366,7.367,4.793,11.236,7.164l2.91,1.789,2.951,1.759c1.964,1.189,3.971,2.322,5.966,3.475s4.027,2.239,6.024,3.371l6.03,3.245c2.02,1.029,4.008,2.084,6,3.064l2.975,1.455c.983.487,1.963.961,2.946,1.406,3.91,1.833,7.731,3.513,11.381,5.041s7.149,2.857,10.394,4.041l4.687,1.61c1.5.491,2.925.921,4.263,1.344l1.945.6,1.828.5,3.221.879c1.954.491,3.5.828,4.552,1.084l1.613.379.01,0a.235.235,0,0,1-.1.46l-1.63-.324c-1.061-.222-2.629-.5-4.6-.947l-3.257-.8-1.85-.454-1.969-.556c-1.354-.393-2.806-.779-4.318-1.246l-4.737-1.545c-3.279-1.139-6.819-2.413-10.511-3.9-3.7-1.462-7.546-3.14-11.484-4.962-.991-.442-1.978-.913-2.968-1.4l-3-1.447c-2.009-.973-4.01-2.023-6.045-3.046l-6.073-3.227c-2.012-1.123-4.04-2.236-6.039-3.4s-4.006-2.313-5.972-3.514l-2.953-1.778-2.911-1.808c-3.871-2.4-7.621-4.847-11.238-7.236-3.594-2.423-7.042-4.8-10.272-7.117s-6.26-4.533-9.041-6.6c-5.54-4.169-10.043-7.792-13.166-10.361-1.558-1.291-2.766-2.322-3.582-3.037-.407-.35-.729-.647-.941-.835l-.307-.294a.235.235,0,0,1,.32-.344Z" transform="translate(-265.302 -1141.13)" fill="#dce5fe"/>
    </g>
    <g id="Grupo_55726" data-name="Grupo 55726" transform="translate(177.404 234.031)">
      <rect id="Rectángulo_5329" data-name="Rectángulo 5329" width="7.639" height="56.104" transform="translate(0 45.45)" fill="#7d97f4"/>
      <rect id="Rectángulo_5330" data-name="Rectángulo 5330" width="7.639" height="36.822" transform="translate(12.765 64.732)" fill="#7d97f4"/>
      <rect id="Rectángulo_5331" data-name="Rectángulo 5331" width="7.639" height="84.476" transform="translate(25.529 17.078)" fill="#7d97f4"/>
      <rect id="Rectángulo_5332" data-name="Rectángulo 5332" width="7.639" height="20.294" transform="translate(38.294 81.26)" fill="#7d97f4"/>
      <rect id="Rectángulo_5333" data-name="Rectángulo 5333" width="7.639" height="73.182" transform="translate(51.059 28.372)" fill="#7d97f4"/>
      <rect id="Rectángulo_5334" data-name="Rectángulo 5334" width="7.639" height="60.511" transform="translate(63.823 41.043)" fill="#7d97f4"/>
      <rect id="Rectángulo_5335" data-name="Rectángulo 5335" width="7.639" height="46.738" transform="translate(76.588 54.816)" fill="#7d97f4"/>
      <rect id="Rectángulo_5336" data-name="Rectángulo 5336" width="7.639" height="101.554" transform="translate(89.353 0)" fill="#7d97f4"/>
      <rect id="Rectángulo_5337" data-name="Rectángulo 5337" width="7.639" height="90.811" transform="translate(102.117 10.743)" fill="#7d97f4"/>
      <rect id="Rectángulo_5338" data-name="Rectángulo 5338" width="7.639" height="74.559" transform="translate(114.882 26.995)" fill="#7d97f4"/>
      <rect id="Rectángulo_5339" data-name="Rectángulo 5339" width="7.639" height="18.411" transform="translate(127.647 83.143)" fill="#7d97f4"/>
    </g>
    <g id="Grupo_55727" data-name="Grupo 55727" transform="translate(505.665 188.18)">
      <path id="Trazado_102467" data-name="Trazado 102467" d="M1720.817,535.605a1.206,1.206,0,0,0-2.34.013c-2.831,11.788-11.223,42.465-25.292,59.107-22.908,27.1-37.2,70.234-21.061,91.685C1672.123,686.411,1754.633,667.98,1720.817,535.605Z" transform="translate(-1665.223 -534.699)" fill="#91b3fa"/>
      <path id="Trazado_102468" data-name="Trazado 102468" d="M1757.922,610.184l-.024.369c-.025.247-.063.614-.112,1.092-.1.939-.271,2.312-.512,4.055-.495,3.484-1.253,8.455-2.362,14.386-.57,2.962-1.2,6.17-1.928,9.549-.716,3.382-1.531,6.936-2.418,10.6-.922,3.657-1.894,7.433-2.975,11.244l-.81,2.87-.854,2.876c-.558,1.926-1.176,3.841-1.775,5.763s-1.251,3.827-1.886,5.729q-1.011,2.833-2.013,5.637c-.709,1.851-1.38,3.7-2.1,5.5s-1.413,3.595-2.168,5.326c-1.464,3.481-2.953,6.816-4.478,9.925-1.506,3.118-3.037,6.013-4.48,8.667l-2.143,3.77c-.7,1.186-1.409,2.285-2.051,3.331l-.943,1.511-.925,1.375-1.629,2.422c-1.008,1.445-1.858,2.54-2.411,3.3l-.861,1.162a.235.235,0,0,1-.384-.272l.006-.009.811-1.191c.522-.781,1.316-1.908,2.281-3.37l1.549-2.456.879-1.394.893-1.53c.609-1.058,1.274-2.173,1.944-3.366l2.062-3.784c1.387-2.665,2.857-5.568,4.3-8.694s2.914-6.444,4.349-9.914c.74-1.725,1.4-3.517,2.125-5.31s1.363-3.642,2.058-5.488l1.969-5.621c.618-1.9,1.291-3.786,1.894-5.7s1.232-3.814,1.8-5.729l.865-2.86.821-2.855c1.1-3.791,2.084-7.549,3.022-11.19.915-3.647,1.8-7.172,2.561-10.535.782-3.358,1.456-6.547,2.07-9.492.59-2.951,1.148-5.653,1.589-8.057s.816-4.5,1.108-6.234.509-3.093.639-4.023c.063-.456.112-.806.145-1.042s.036-.366.036-.366l0-.026a.235.235,0,0,1,.468.038Z" transform="translate(-1703.977 -592.531)" fill="#dce5fe"/>
    </g>
    <g id="Grupo_55750" data-name="Grupo 55750" transform="translate(224.052 118.144)">
      <g id="Grupo_55730" data-name="Grupo 55730" transform="translate(91.498 0)">
        <path id="Trazado_102469" data-name="Trazado 102469" d="M862.251,384.612H1023.1a16.664,16.664,0,0,1,16.642,15.817l11.873,233.2a12.288,12.288,0,0,1-12.049,12.911l-184.353,3.351a11.664,11.664,0,0,1-11.876-11.663v-234.7A18.914,18.914,0,0,1,862.251,384.612Z" transform="translate(-843.337 -349.293)" fill="#392a8d"/>
        <path id="Trazado_102470" data-name="Trazado 102470" d="M901.022,1366.344h-.006l-20.628-.267a12.722,12.722,0,0,1-12.509-12.672v-31.144a.44.44,0,1,1,.881,0v31.144A11.838,11.838,0,0,0,880.4,1365.2l20.628.267a.44.44,0,0,1-.005.881Z" transform="translate(-862.202 -1069.711)" fill="url(#linear-gradient)"/>
        <path id="Trazado_102471" data-name="Trazado 102471" d="M868.319,1264.235a.44.44,0,0,1-.44-.44v-5.043a.44.44,0,1,1,.881,0v5.043A.44.44,0,0,1,868.319,1264.235Z" transform="translate(-862.202 -1020.892)" fill="url(#linear-gradient-2)"/>
        <g id="Grupo_55729" data-name="Grupo 55729" transform="translate(13.177 33.378)">
          <path id="Trazado_102472" data-name="Trazado 102472" d="M906.536,376.271c21.966,2.979,97.5,12.191,159.948,7.4a5.08,5.08,0,0,1,5.471,4.791L1084.4,622.7a5.846,5.846,0,0,1-5.493,6.148c-26.265,1.555-134.434,7.563-173.016,3.522a4.632,4.632,0,0,1-4.144-4.584L900.3,381.751A5.494,5.494,0,0,1,906.536,376.271Z" transform="translate(-900.304 -376.221)" fill="#392a8d"/>
          <path id="Trazado_102473" data-name="Trazado 102473" d="M917.486,402.546c21.138,2.867,93.827,11.732,153.925,7.119a4.89,4.89,0,0,1,5.265,4.611l11.98,225.42a5.627,5.627,0,0,1-5.286,5.917c-25.276,1.5-129.371,7.278-166.5,3.389a4.457,4.457,0,0,1-3.988-4.411L911.49,407.82A5.287,5.287,0,0,1,917.486,402.546Z" transform="translate(-908.902 -396.419)" fill="#bdd0fb"/>
          <path id="Trazado_102474" data-name="Trazado 102474" d="M996.073,489.279l2.245,48.328a3.072,3.072,0,0,0,2.982,2.931c8.95.252,36.84.933,52.588.112a3.431,3.431,0,0,0,3.249-3.317c.3-9.063.958-35.442-1.108-46.47a3.872,3.872,0,0,0-3.676-3.15l-52.9-1.85A3.267,3.267,0,0,0,996.073,489.279Z" transform="translate(-973.918 -460.5)" fill="url(#linear-gradient)"/>
          <circle id="Elipse_1408" data-name="Elipse 1408" cx="10.389" cy="10.389" r="10.389" transform="translate(41.016 55.1) rotate(-82.982)" fill="aqua"/>
          <path id="Trazado_102475" data-name="Trazado 102475" d="M1050.554,658.912h33.1a2.563,2.563,0,0,0,2.152-3.951c-2.811-4.4-8.693-10.862-18.88-10.57a23.073,23.073,0,0,0-18.563,10.305A2.678,2.678,0,0,0,1050.554,658.912Z" transform="translate(-1013.738 -582.352)" fill="aqua"/>
          <path id="Trazado_102476" data-name="Trazado 102476" d="M1370.728,504.446a.9.9,0,0,0,.9-.925l-.041-1.393a.982.982,0,0,0-.952-.942l-59.93-1.068a.6.6,0,0,0-.617.856l.915,2.6a1.4,1.4,0,0,0,1.232.873Z" transform="translate(-1215.259 -471.46)" fill="url(#linear-gradient)"/>
          <path id="Trazado_102477" data-name="Trazado 102477" d="M1310.7,539.068a.6.6,0,0,0-.617.856l.915,2.6a1.4,1.4,0,0,0,1.232.873h58.5a.9.9,0,0,0,.9-.925l-.041-1.393a.982.982,0,0,0-.952-.941Z" transform="translate(-1215.259 -501.399)" fill="url(#linear-gradient)"/>
          <path id="Trazado_102478" data-name="Trazado 102478" d="M1310.7,578.582a.6.6,0,0,0-.617.856l.915,2.6a1.4,1.4,0,0,0,1.232.873h58.5a.9.9,0,0,0,.9-.925l-.041-1.393a.983.983,0,0,0-.952-.941Z" transform="translate(-1215.259 -531.773)" fill="url(#linear-gradient)"/>
          <path id="Trazado_102479" data-name="Trazado 102479" d="M1136.352,773.44a.857.857,0,0,0,.864-.923l-.092-1.4a1.014,1.014,0,0,0-.986-.931L998.313,769.1c-.509,0-.666.318-.349.717l2.306,2.9a2.179,2.179,0,0,0,1.5.724Z" transform="translate(-975.248 -678.224)" fill="url(#linear-gradient)"/>
          <path id="Trazado_102480" data-name="Trazado 102480" d="M998.313,808.053c-.509,0-.666.319-.349.717l2.306,2.9a2.18,2.18,0,0,0,1.5.724h134.581a.857.857,0,0,0,.864-.924l-.092-1.4a1.015,1.015,0,0,0-.986-.931Z" transform="translate(-975.248 -708.163)" fill="url(#linear-gradient)"/>
          <path id="Trazado_102481" data-name="Trazado 102481" d="M994.85,871.741c3.268-.251,9.387-.366,12.755-.414a3.053,3.053,0,0,1,3.014,2.335,49.752,49.752,0,0,1,1.434,12.333,2.711,2.711,0,0,1-2.735,2.654l-12.431-.134a2.985,2.985,0,0,1-2.94-2.707l-1.093-11.694A2.175,2.175,0,0,1,994.85,871.741Z" transform="translate(-971.439 -756.801)" fill="url(#linear-gradient)"/>
          <path id="Trazado_102482" data-name="Trazado 102482" d="M1094.1,893.7a.736.736,0,0,0-.787.876l.586,3.9a1.111,1.111,0,0,0,1.063.915h32.108a.914.914,0,0,0,.914-.925l-.03-2.429a.992.992,0,0,0-.937-.964Z" transform="translate(-1048.656 -773.998)" fill="url(#linear-gradient)"/>
          <path id="Trazado_102483" data-name="Trazado 102483" d="M1287.609,871.741c3.267-.251,9.387-.366,12.755-.414a3.053,3.053,0,0,1,3.014,2.335,49.776,49.776,0,0,1,1.434,12.333,2.711,2.711,0,0,1-2.735,2.654l-12.431-.134a2.985,2.985,0,0,1-2.94-2.707l-1.093-11.694A2.174,2.174,0,0,1,1287.609,871.741Z" transform="translate(-1196.478 -756.801)" fill="url(#linear-gradient)"/>
          <path id="Trazado_102484" data-name="Trazado 102484" d="M1386.854,893.7a.736.736,0,0,0-.787.876l.586,3.9a1.111,1.111,0,0,0,1.063.915h32.109a.913.913,0,0,0,.913-.925l-.03-2.429a.991.991,0,0,0-.936-.964Z" transform="translate(-1273.695 -773.998)" fill="url(#linear-gradient)"/>
          <g id="Grupo_55728" data-name="Grupo 55728" transform="translate(25.282 141.731)">
            <path id="Trazado_102485" data-name="Trazado 102485" d="M1025.268,1021.5h-.031l-11.47-.11a3.083,3.083,0,0,1-3.147-2.623l-1.008-9.624a2.091,2.091,0,0,1,.494-1.573,2.517,2.517,0,0,1,1.755-.866h0c.966-.066,2.327-.182,3.768-.3,3.034-.258,6.81-.58,8.934-.606a3.206,3.206,0,0,1,3.212,2.247c.6,2.209.545,6.391.431,10.846A2.835,2.835,0,0,1,1025.268,1021.5Zm-13.347-13.916a1.63,1.63,0,0,0-1.141.554,1.215,1.215,0,0,0-.293.914l1.008,9.624a2.207,2.207,0,0,0,2.279,1.833l11.47.11h.023a1.954,1.954,0,0,0,2.057-1.755c.112-4.388.165-8.5-.4-10.594a2.367,2.367,0,0,0-2.351-1.6c-2.093.027-5.851.346-8.87.6-1.445.123-2.809.239-3.783.306Z" transform="translate(-1009.6 -1001.892)" fill="#fff"/>
            <path id="Trazado_102486" data-name="Trazado 102486" d="M1020.053,1015.4c2.409-.165,7.647-.7,10.131-.728a2.221,2.221,0,0,1,2.222,1.535c.479,1.773.416,5.306.333,8.567a1.909,1.909,0,0,1-2.017,1.746l-9.166-.088a2.118,2.118,0,0,1-2.168-1.78l-.806-7.691A1.489,1.489,0,0,1,1020.053,1015.4Z" transform="translate(-1016.499 -1008.723)" fill="url(#linear-gradient)"/>
            <path id="Trazado_102487" data-name="Trazado 102487" d="M1120.57,1034.186a2.849,2.849,0,0,0,2.779,2.122l106.128-.9a2.154,2.154,0,0,0-.009-4.307l-106.131-.484A2.849,2.849,0,0,0,1120.57,1034.186Z" transform="translate(-1094.827 -1020.971)" fill="url(#linear-gradient)"/>
            <path id="Trazado_102488" data-name="Trazado 102488" d="M1024.058,997.127h0a1.761,1.761,0,0,1,2.429.66l2.263,4.056a.565.565,0,0,0,1.009-.044l5.612-12.493a.627.627,0,0,1,1.2.271,24.668,24.668,0,0,1-7.177,17.165s-3.365-1.308-6.075-7.258A1.847,1.847,0,0,1,1024.058,997.127Z" transform="translate(-1020.016 -988.936)" fill="#392a8d"/>
            <path id="Trazado_102489" data-name="Trazado 102489" d="M1025.268,1127.774h-.031l-11.47-.11a3.083,3.083,0,0,1-3.147-2.622l-1.008-9.624a2.092,2.092,0,0,1,.494-1.573,2.517,2.517,0,0,1,1.755-.866h0c.966-.066,2.327-.182,3.768-.3,3.034-.259,6.81-.58,8.934-.606h.046a3.2,3.2,0,0,1,3.166,2.247c.6,2.209.545,6.391.431,10.846A2.834,2.834,0,0,1,1025.268,1127.774Zm-13.347-13.916a1.631,1.631,0,0,0-1.141.554,1.217,1.217,0,0,0-.293.914l1.008,9.624a2.207,2.207,0,0,0,2.279,1.834l11.47.11h.023a1.954,1.954,0,0,0,2.057-1.755c.112-4.388.165-8.5-.4-10.594a2.354,2.354,0,0,0-2.351-1.6c-2.092.026-5.85.347-8.87.6-1.445.123-2.809.239-3.783.306Z" transform="translate(-1009.6 -1083.585)" fill="#fff"/>
            <path id="Trazado_102490" data-name="Trazado 102490" d="M1020.053,1121.682c2.409-.164,7.647-.7,10.131-.727a2.221,2.221,0,0,1,2.222,1.535c.479,1.773.416,5.306.333,8.567a1.909,1.909,0,0,1-2.017,1.746l-9.166-.088a2.117,2.117,0,0,1-2.168-1.78l-.806-7.691A1.49,1.49,0,0,1,1020.053,1121.682Z" transform="translate(-1016.499 -1090.417)" fill="url(#linear-gradient)"/>
            <path id="Trazado_102491" data-name="Trazado 102491" d="M1120.57,1140.464a2.849,2.849,0,0,0,2.779,2.121l106.128-.9a2.154,2.154,0,0,0-.009-4.307l-106.131-.484A2.849,2.849,0,0,0,1120.57,1140.464Z" transform="translate(-1094.827 -1102.666)" fill="url(#linear-gradient)"/>
            <path id="Trazado_102492" data-name="Trazado 102492" d="M1024.058,1103.405h0a1.76,1.76,0,0,1,2.429.661l2.263,4.055a.565.565,0,0,0,1.009-.044l5.612-12.493a.627.627,0,0,1,1.2.271,24.669,24.669,0,0,1-7.177,17.165s-3.365-1.308-6.075-7.258A1.847,1.847,0,0,1,1024.058,1103.405Z" transform="translate(-1020.016 -1070.63)" fill="#392a8d"/>
            <path id="Trazado_102493" data-name="Trazado 102493" d="M1025.268,1234.052h-.031l-11.47-.11a3.082,3.082,0,0,1-3.147-2.622l-1.008-9.624a2.092,2.092,0,0,1,.494-1.573,2.519,2.519,0,0,1,1.755-.866h0c.966-.066,2.327-.182,3.768-.3,3.034-.258,6.81-.58,8.934-.606h.046a3.2,3.2,0,0,1,3.166,2.247c.6,2.209.545,6.391.431,10.847A2.835,2.835,0,0,1,1025.268,1234.052Zm-13.347-13.917a1.632,1.632,0,0,0-1.141.554,1.217,1.217,0,0,0-.293.914l1.008,9.624a2.207,2.207,0,0,0,2.279,1.833l11.47.11h.023a1.954,1.954,0,0,0,2.057-1.755c.112-4.387.165-8.5-.4-10.594a2.35,2.35,0,0,0-2.351-1.6c-2.092.026-5.85.346-8.87.6-1.445.123-2.809.239-3.783.306Z" transform="translate(-1009.6 -1165.279)" fill="#fff"/>
            <path id="Trazado_102494" data-name="Trazado 102494" d="M1020.053,1227.961c2.409-.165,7.647-.7,10.131-.728a2.221,2.221,0,0,1,2.222,1.536c.479,1.773.416,5.306.333,8.566a1.908,1.908,0,0,1-2.017,1.746l-9.166-.088a2.118,2.118,0,0,1-2.168-1.781l-.806-7.691A1.489,1.489,0,0,1,1020.053,1227.961Z" transform="translate(-1016.499 -1172.111)" fill="url(#linear-gradient)"/>
            <path id="Trazado_102495" data-name="Trazado 102495" d="M1120.57,1246.742a2.849,2.849,0,0,0,2.779,2.122l106.128-.9a2.154,2.154,0,0,0-.009-4.307l-106.131-.484A2.848,2.848,0,0,0,1120.57,1246.742Z" transform="translate(-1094.827 -1184.36)" fill="url(#linear-gradient)"/>
            <path id="Trazado_102496" data-name="Trazado 102496" d="M1024.058,1209.683h0a1.761,1.761,0,0,1,2.429.661l2.263,4.055a.565.565,0,0,0,1.009-.044l5.612-12.493a.627.627,0,0,1,1.2.271,24.668,24.668,0,0,1-7.177,17.165s-3.365-1.308-6.075-7.258A1.847,1.847,0,0,1,1024.058,1209.683Z" transform="translate(-1020.016 -1152.324)" fill="#392a8d"/>
            <path id="Trazado_102497" data-name="Trazado 102497" d="M1025.268,1340.33h-.031l-11.47-.11a3.082,3.082,0,0,1-3.147-2.623l-1.008-9.623a2.092,2.092,0,0,1,.494-1.573,2.517,2.517,0,0,1,1.755-.866h0c.966-.066,2.327-.182,3.768-.3,3.034-.258,6.81-.579,8.934-.606h.046a3.2,3.2,0,0,1,3.166,2.247c.6,2.209.545,6.391.431,10.846A2.834,2.834,0,0,1,1025.268,1340.33Zm-13.347-13.916a1.63,1.63,0,0,0-1.141.553,1.217,1.217,0,0,0-.293.915l1.008,9.624a2.206,2.206,0,0,0,2.279,1.834l11.47.11h.023a1.954,1.954,0,0,0,2.057-1.755c.112-4.388.165-8.5-.4-10.594a2.346,2.346,0,0,0-2.351-1.6c-2.092.027-5.85.346-8.87.6-1.445.123-2.809.239-3.783.306Z" transform="translate(-1009.6 -1246.973)" fill="#fff"/>
            <path id="Trazado_102498" data-name="Trazado 102498" d="M1020.053,1334.239c2.409-.165,7.647-.7,10.131-.727a2.221,2.221,0,0,1,2.222,1.535c.479,1.772.416,5.306.333,8.566a1.908,1.908,0,0,1-2.017,1.746l-9.166-.088a2.118,2.118,0,0,1-2.168-1.78l-.806-7.691A1.49,1.49,0,0,1,1020.053,1334.239Z" transform="translate(-1016.499 -1253.806)" fill="url(#linear-gradient)"/>
            <path id="Trazado_102499" data-name="Trazado 102499" d="M1120.57,1353.021h0a2.849,2.849,0,0,0,2.779,2.122l106.128-.9a2.154,2.154,0,0,0-.009-4.307l-106.131-.484A2.848,2.848,0,0,0,1120.57,1353.021Z" transform="translate(-1094.827 -1266.055)" fill="url(#linear-gradient)"/>
            <path id="Trazado_102500" data-name="Trazado 102500" d="M1024.058,1315.961h0a1.761,1.761,0,0,1,2.429.661l2.263,4.056a.565.565,0,0,0,1.009-.044l5.612-12.493a.626.626,0,0,1,1.2.271,24.668,24.668,0,0,1-7.177,17.165s-3.365-1.308-6.075-7.258A1.847,1.847,0,0,1,1024.058,1315.961Z" transform="translate(-1020.016 -1234.018)" fill="#392a8d"/>
          </g>
        </g>
        <path id="Trazado_102501" data-name="Trazado 102501" d="M1251.159,235.449c-5.81-4.042-10.862-3.962-14.418-2.912a7.093,7.093,0,0,0-5.038,7.458l1.534,16.74,18.25,1.62S1262.553,243.376,1251.159,235.449Zm-8.026,13.505a4.551,4.551,0,1,1,4.551-4.551A4.55,4.55,0,0,1,1243.133,248.954Z" transform="translate(-1141.845 -231.926)" fill="url(#linear-gradient-21)"/>
        <path id="Trazado_102502" data-name="Trazado 102502" d="M1242.557,257.838a.44.44,0,0,1-.438-.4l-.244-2.666a.44.44,0,1,1,.877-.08l.244,2.666a.441.441,0,0,1-.4.479Zm-.479-5.224a.44.44,0,0,1-.438-.4l-.185-2.024a6.771,6.771,0,0,1,4.8-7.1,13.639,13.639,0,0,1,6.67-.274.44.44,0,0,1-.177.863,12.784,12.784,0,0,0-6.244.256,5.889,5.889,0,0,0-4.173,6.18l.186,2.024a.44.44,0,0,1-.4.479Z" transform="translate(-1149.342 -240.072)" fill="url(#linear-gradient)"/>
        <path id="Trazado_102503" data-name="Trazado 102503" d="M1130.752,340.908v-8.416a5.136,5.136,0,0,1,5.312-5.133l58.027,1.988a5,5,0,0,1,4.815,4.693l.485,8.087Z" transform="translate(-1064.269 -305.281)" fill="url(#linear-gradient-23)"/>
        <path id="Trazado_102504" data-name="Trazado 102504" d="M1214.535,338.152h-2.5a.44.44,0,0,1,0-.881h2.5a.44.44,0,0,1,0,.881Z" transform="translate(-1126.414 -312.903)" fill="url(#linear-gradient)"/>
        <path id="Trazado_102505" data-name="Trazado 102505" d="M1142.866,345.887a.44.44,0,0,1-.44-.44v-3.4a4.776,4.776,0,0,1,4.771-4.771h9.174a.44.44,0,0,1,0,.881H1147.2a3.894,3.894,0,0,0-3.89,3.89v3.4A.441.441,0,0,1,1142.866,345.887Z" transform="translate(-1073.242 -312.903)" fill="url(#linear-gradient)"/>
        <path id="Trazado_102506" data-name="Trazado 102506" d="M1033.238,372.618l101.472,0a7.5,7.5,0,0,1,7.39,6.221l.086.5a6.441,6.441,0,0,1-6.347,7.54h-104.1a4.188,4.188,0,0,1-4.183-4.389l.224-4.659A5.468,5.468,0,0,1,1033.238,372.618Z" transform="translate(-984.937 -340.071)" fill="#392a8d"/>
      </g>
      <g id="Grupo_55731" data-name="Grupo 55731" transform="translate(314.77 251.74)">
        <rect id="Rectángulo_5340" data-name="Rectángulo 5340" width="3.835" height="41.472" transform="translate(18.534 9.292)" fill="url(#linear-gradient-26)"/>
        <path id="Rectángulo_5341" data-name="Rectángulo 5341" d="M2.316,0H31.092a2.5,2.5,0,0,1,2.5,2.5v0a0,0,0,0,1,0,0H0a0,0,0,0,1,0,0v-.18A2.316,2.316,0,0,1,2.316,0Z" transform="translate(3.658 49.068)" fill="url(#linear-gradient-27)"/>
        <rect id="Rectángulo_5342" data-name="Rectángulo 5342" width="42.231" height="11.977" rx="5.989" fill="url(#linear-gradient-28)"/>
      </g>
      <g id="Grupo_55735" data-name="Grupo 55735" transform="translate(257.382 137.178)">
        <g id="Grupo_55732" data-name="Grupo 55732" transform="translate(0 88.414)">
          <path id="Trazado_102507" data-name="Trazado 102507" d="M1729.591,1240.852a33.377,33.377,0,0,0-12.105,5.167,3.193,3.193,0,0,0-1.409,3.052c.767,6.077,3.922,25.746,14.323,44.957a4.838,4.838,0,0,1,.464,3.319l-1.807,8.41-3.351,3.142h8.632l5.748-15.554-2.458-.777a4.649,4.649,0,0,1-3.247-4.353l-.288-16.685a18.983,18.983,0,0,0-4.558-12.562l13.786-.671Z" transform="translate(-1680.063 -1233.063)" fill="url(#linear-gradient-29)"/>
          <path id="Trazado_102508" data-name="Trazado 102508" d="M1743.057,1482.141c-.786,1.029,8.461,2.387,13.133.136,0,0,6.476-11.268,6.476-17.069,0,0-.514-1.183-4.316-.914,0,0-2.174,13.341-4.471,14.836s-6.424.151-6.424.151S1744.217,1480.623,1743.057,1482.141Z" transform="translate(-1700.786 -1404.789)" fill="url(#linear-gradient-30)"/>
          <path id="Trazado_102509" data-name="Trazado 102509" d="M1635.18,1266.329c-.073-.127-14.842-1.776-14.842-1.776a34.133,34.133,0,0,1-1.027,10.672c-1.511,6.182-23.195,32.964-23.195,32.964l2.274,7.208a36.57,36.57,0,0,1-20.749,1.248l14.09-8.456s13.187-44.94,21.265-52.957l14.8-5.122Z" transform="translate(-1573.669 -1240.181)" fill="url(#linear-gradient-31)"/>
          <path id="Trazado_102510" data-name="Trazado 102510" d="M1786.286,1207.181s8.51,12.656,9.208,18.429-2.331,8.12-11.259,8.506-32.763.381-32.763.381l-20.343-17.386s14.825-5.29,18.68-6.785S1786.286,1207.181,1786.286,1207.181Z" transform="translate(-1691.652 -1207.181)" fill="url(#linear-gradient-32)"/>
          <path id="Trazado_102511" data-name="Trazado 102511" d="M1584.332,1521.857s2.448,2.371.795,5.009c0,0-19.391,3.437-24.656,1.878,0,0,1.093-2.495,7.022-5.335l-.437.336a.708.708,0,0,0,.468,1.27C1571.429,1524.792,1579.514,1524.076,1584.332,1521.857Z" transform="translate(-1560.471 -1449.067)" fill="url(#linear-gradient-33)"/>
        </g>
        <g id="Grupo_55734" data-name="Grupo 55734" transform="translate(50.84)">
          <path id="Trazado_102512" data-name="Trazado 102512" d="M1849.992,882.924c1.286.4,5.92,2.064,5.322,5.045a.545.545,0,0,0,.683.625c2-.537,6.408-1.215,9.143,2.212,2.415,3.025.61,5.88-.861,7.447a.549.549,0,0,0,.459.928c3.671-.464,11.649-.574,12.954,6.9,1.217,6.969-3.633,8.935-6.51,9.488a.546.546,0,0,0-.182,1c1.436.911,3.1,2.792,2.426,6.505-1.053,5.82-12.463,5.343-13.8,5.267a.539.539,0,0,1-.238-.071l-18.275-10.423a.551.551,0,0,1-.269-.384l-3.689-21.308a.55.55,0,0,1,.145-.475l9.154-13.155C1844.369,881.386,1849.794,882.862,1849.992,882.924Z" transform="translate(-1823.99 -868.879)" fill="url(#linear-gradient-34)"/>
          <path id="Trazado_102513" data-name="Trazado 102513" d="M1809.1,1033.353s-9.909-9.435-14.786-15.685a13.258,13.258,0,0,1-2.245-11.933c2.227-7.5,6.184-15.273,6.546-16.482.553-1.854,11.663-1.777,11.663-1.777s21.864,14.189,30.454,38.225l-9.648,3s-5.709-9.577-11.349-15.666c0,0,9.76,12.893,10.1,18.171Z" transform="translate(-1788.911 -949.883)" fill="#a397e3"/>
          <path id="Trazado_102514" data-name="Trazado 102514" d="M1816.385,937.824c.116.385,3.016,10,3.243,10.2s6.359.529,9.246-1.443l-5.51-12.53Z" transform="translate(-1808.029 -908.815)" fill="url(#linear-gradient-35)"/>
          <g id="Grupo_55733" data-name="Grupo 55733" transform="translate(1.178)">
            <path id="Trazado_102515" data-name="Trazado 102515" d="M1791.62,856.129s-4.473,3.5-5.928,11.737,2.026,10.908,5.374,10.5,8.148-1.79,11.966-7.889S1797.5,851.818,1791.62,856.129Z" transform="translate(-1785.352 -848.24)" fill="url(#linear-gradient-36)"/>
            <path id="Trazado_102516" data-name="Trazado 102516" d="M1800.2,844.225s.914-11.716-8.591-9.273l-1.805,2.162s-5.082-4.979-.146-9.354,12.245-3.85,16.757,3.174,6.322,12.056,3.281,16.828-5.835,1.055-5.835,1.055,1.266-4.035-.128-5.632-2.857,1.183-2.857,1.183Z" transform="translate(-1787.001 -824.96)" fill="url(#linear-gradient-37)"/>
            <path id="Trazado_102517" data-name="Trazado 102517" d="M1843.381,906s.434-6.025,3.6-4.532-.71,5.65-2.281,7.081Z" transform="translate(-1829.958 -883.587)" fill="url(#linear-gradient-38)"/>
          </g>
          <path id="Trazado_102518" data-name="Trazado 102518" d="M1780.259,1161.081l7.281-7.017,10.071,4.255s10.024,1.553,15.762,0l5.738-1.553,12.966-4.037,2.036,5.755a3.464,3.464,0,0,1-1.266,3.981,22.84,22.84,0,0,1-3.275,2.04c-1.707.747-42.091-.517-42.091-.517Z" transform="translate(-1780.259 -1076.911)" fill="url(#linear-gradient-39)"/>
        </g>
      </g>
      <g id="Grupo_55736" data-name="Grupo 55736" transform="translate(0 246.671)">
        <path id="Trazado_102519" data-name="Trazado 102519" d="M455.934,1333.377c-1.1,1.629-5.477,38.518-6.162,52.142a1.611,1.611,0,0,0,1.613,1.69h0a1.615,1.615,0,0,0,1.6-1.365l8-51.293Z" transform="translate(-449.31 -1325.265)" fill="url(#linear-gradient-40)"/>
        <path id="Trazado_102520" data-name="Trazado 102520" d="M611.737,1333.377c1.1,1.629,5.477,38.518,6.162,52.142a1.611,1.611,0,0,1-1.613,1.69h0a1.615,1.615,0,0,1-1.6-1.365l-8-51.293Z" transform="translate(-569.929 -1325.265)" fill="url(#linear-gradient-41)"/>
        <path id="Trazado_102521" data-name="Trazado 102521" d="M447.787,1303.542l0,.4a5.484,5.484,0,0,0,5.589,5.321l37,.629a5.531,5.531,0,0,0,5.791-5.02l.019-.368a5.463,5.463,0,0,0-5.576-5.532l-37.012-.663A5.511,5.511,0,0,0,447.787,1303.542Z" transform="translate(-447.783 -1298.309)" fill="url(#linear-gradient-42)"/>
      </g>
      <g id="Grupo_55741" data-name="Grupo 55741" transform="translate(5.027 130.323)">
        <g id="Grupo_55737" data-name="Grupo 55737" transform="translate(32.687 24.598)">
          <path id="Trazado_102522" data-name="Trazado 102522" d="M746.667,912.238l-.964-1.568a3.485,3.485,0,0,0-2.54-1.633L732.9,907.765s-.455-1.152,1.43-2.516a2.885,2.885,0,0,0,.771-3.584s-2.521,2.068-6.168,5.254a10.164,10.164,0,0,0-3.174,6.04l-1.642,3.6a4.766,4.766,0,0,0,4.487,1.662l.373-2.755A43.88,43.88,0,0,0,746.667,912.238Z" transform="translate(-697.914 -901.665)" fill="url(#linear-gradient-43)"/>
          <path id="Trazado_102523" data-name="Trazado 102523" d="M637.031,966.049l-6.094,13.359a5.848,5.848,0,0,1-7.348,3.058l-12.489-11.1-.277,22.285,13.016,2.607a12.875,12.875,0,0,0,15.287-10.9l2.391-17.651A4.767,4.767,0,0,1,637.031,966.049Z" transform="translate(-610.824 -951.156)" fill="#392a8d"/>
        </g>
        <g id="Grupo_55738" data-name="Grupo 55738" transform="translate(56.097 168.542)">
          <path id="Trazado_102524" data-name="Trazado 102524" d="M723.1,1549.414c-6.577,0-9.487-.564-10.788-1.079a2.5,2.5,0,0,0,2.431,1.932h23.266a1.132,1.132,0,0,0,1.091-1.429C736.45,1549.052,730.817,1549.414,723.1,1549.414Z" transform="translate(-712.248 -1542.694)" fill="url(#linear-gradient-44)"/>
          <path id="Trazado_102525" data-name="Trazado 102525" d="M738.881,1530.092a1.1,1.1,0,0,0-.191-.4c-1.772-2.263-5.332-5.816-10.175-5.748-7.095.1-9.568.87-15.082.044l-1.3,4.311a2.474,2.474,0,0,0-.039,1.286c1.3.515,4.211,1.079,10.788,1.079C730.6,1530.667,736.229,1530.305,738.881,1530.092Z" transform="translate(-712.027 -1523.947)" fill="url(#linear-gradient-45)"/>
        </g>
        <path id="Trazado_102526" data-name="Trazado 102526" d="M719.7,1504.055l-1.6,5.43s3.537,1.61,6.648.318l.611-4.7Z" transform="translate(-660.604 -1340.115)" fill="url(#linear-gradient-46)"/>
        <g id="Grupo_55739" data-name="Grupo 55739" transform="translate(95.796 160.693)">
          <path id="Trazado_102527" data-name="Trazado 102527" d="M903.3,1503.431c-5.127,4.119-7.747,5.5-9.082,5.92a2.492,2.492,0,0,0,3.1-.023l18.137-14.573a1.128,1.128,0,0,0-.041-1.792C913.478,1494.79,909.313,1498.6,903.3,1503.431Z" transform="translate(-891.772 -1492.281)" fill="url(#linear-gradient-44)"/>
          <path id="Trazado_102528" data-name="Trazado 102528" d="M907.289,1490.7a1.094,1.094,0,0,0-.4-.188c-2.792-.645-7.783-1.173-11.515,1.914-5.468,4.521-6.917,6.668-11.729,9.48l1.673,4.16a2.454,2.454,0,0,0,.771,1.022c1.335-.416,3.955-1.8,9.082-5.92C901.189,1496.332,905.355,1492.524,907.289,1490.7Z" transform="translate(-883.649 -1490.015)" fill="url(#linear-gradient-48)"/>
        </g>
        <path id="Trazado_102529" data-name="Trazado 102529" d="M552.174,1236.612s39.375,3.215,47.452,7.017-6.592,57.1-6.592,57.1-2.2,1.059-7.092-.463c0,0,5.018-39.328,1.284-47.857l-42.633-6.973Z" transform="translate(-527.227 -1134.535)" fill="url(#linear-gradient-49)"/>
        <path id="Trazado_102530" data-name="Trazado 102530" d="M866.736,1501.325c.366.333,3.912,7.486,3.912,7.486s3.948-.854,4.754-3.353L871.849,1499Z" transform="translate(-774.852 -1336.23)" fill="url(#linear-gradient-46)"/>
        <path id="Trazado_102531" data-name="Trazado 102531" d="M470.747,1235.189a19.942,19.942,0,0,0-1.231,7.19,10.8,10.8,0,0,0,10.3,10.562l46.548,2.123a2.232,2.232,0,0,1,2.061,1.678c1.094,4.231,6.44,17.223,32.575,43.148a2.107,2.107,0,0,0,2.607.285l3.72-2.35a.857.857,0,0,0,.282-1.157l-27.1-46.281a10.489,10.489,0,0,0-6.373-4.727l-39.673-10.141Z" transform="translate(-469.514 -1133.441)" fill="url(#linear-gradient-51)"/>
        <path id="Trazado_102532" data-name="Trazado 102532" d="M474.255,1012.788s-.461-23.071,4.151-44.783a35.051,35.051,0,0,1,12.574-20.268l2.154-1.7,10.788,4.382,7,10.631a25,25,0,0,1,1.175,19.612c-3.85,10.741-9.56,26.992-10.872,32.46C501.225,1013.125,483.357,1015.485,474.255,1012.788Z" transform="translate(-473.149 -911.177)" fill="#392a8d"/>
        <path id="Trazado_102533" data-name="Trazado 102533" d="M559.967,871.714l-8.428,19.553s2.7,6.068,12.136,3.708l3.371-13.485Z" transform="translate(-532.565 -854.044)" fill="url(#linear-gradient-52)"/>
        <path id="Trazado_102534" data-name="Trazado 102534" d="M708.935,1028.192c0-.337,10.787-36.408,10.787-36.408l11.8-2.023L717.363,1029.2Z" transform="translate(-653.553 -944.784)" fill="url(#linear-gradient-53)"/>
        <path id="Trazado_102535" data-name="Trazado 102535" d="M706.02,1025.842c.674.675,7.416.675,7.416.675l14.159-41.128-11.125,2.36Z" transform="translate(-651.313 -941.424)" fill="aqua"/>
        <g id="Grupo_55740" data-name="Grupo 55740" transform="translate(23.904)">
          <path id="Trazado_102536" data-name="Trazado 102536" d="M614.979,827.313c.1.273.325,19.536.325,19.536l-11-.106-2.924-18.226S613.278,822.741,614.979,827.313Z" transform="translate(-594.78 -818.56)" fill="url(#linear-gradient-54)"/>
          <path id="Trazado_102537" data-name="Trazado 102537" d="M582.678,808.785l.788,9.715a1.346,1.346,0,0,0,.08.361c.266.717,1.361,3.119,3.75,1.848,2.167-1.153,4.162-2.173,5.721-2.042a1.361,1.361,0,0,1,1.248,1.34,58.858,58.858,0,0,1-.556,9.119,1.358,1.358,0,0,1-1.442,1.133,43.855,43.855,0,0,1-10.063-1.784,1.362,1.362,0,0,1-.907-1.057c-.415-2.406-1.7-9.714-2.376-11.694-.632-1.859-3.22-2.5-4.325-2.686a1.338,1.338,0,0,1-.886-.573c-.726-1.078-1.965-3.668,1.234-5.531a1.364,1.364,0,0,0,.471-1.906c-.816-1.309-1.5-3.427.9-5.2a4.988,4.988,0,0,1,6.12.144,1.363,1.363,0,0,0,1.74-.166,1.076,1.076,0,0,1,1.207-.218,1.341,1.341,0,0,0,1.735-.964,4.066,4.066,0,0,1,4.12-3.3c4.874-.211,6.532,4.882,5.952,8.2s-5.878,3.249-8.741,2.257c-2.178-.754-4.409,1.012-5.354,1.9A1.351,1.351,0,0,0,582.678,808.785Z" transform="translate(-572.853 -795.324)" fill="url(#linear-gradient-55)"/>
          <path id="Trazado_102538" data-name="Trazado 102538" d="M582.2,875.555s.763-5.828-1.509-6.725-5.063.428-3.568,4.207C578.979,877.739,582.2,875.555,582.2,875.555Z" transform="translate(-575.809 -851.62)" fill="url(#linear-gradient-56)"/>
        </g>
        <path id="Trazado_102539" data-name="Trazado 102539" d="M565.436,1026.9c-23.95,16.564-34.128-21.222-34.381-21.431-15.507-12.81-14.767,10.444-12.81,13.147,19.812,30.884,42.813,21.912,49.919,12.434A7.7,7.7,0,0,1,565.436,1026.9Z" transform="translate(-506.181 -953.921)" fill="#392a8d"/>
        <path id="Trazado_102540" data-name="Trazado 102540" d="M588.593,1044.738a.7.7,0,0,1-.455-.166c-5.964-5.018-9.8-13.372-11.968-19.5a.707.707,0,1,1,1.333-.472c1.727,4.878,5.523,13.819,11.546,18.886a.707.707,0,0,1-.455,1.248Z" transform="translate(-551.467 -971.206)" fill="url(#linear-gradient-32)"/>
        <path id="Trazado_102541" data-name="Trazado 102541" d="M538.48,1091.169a.712.712,0,0,1-.273-.055c-7.641-3.2-14.688-9.768-20.945-19.522a.707.707,0,1,1,1.19-.763c6.1,9.508,12.93,15.893,20.3,18.981a.707.707,0,0,1-.273,1.359Z" transform="translate(-506.131 -1006.851)" fill="url(#linear-gradient-32)"/>
        <path id="Trazado_102542" data-name="Trazado 102542" d="M738.876,1056.162s-.217.822-2.577,4.193-5.057,5.731-3.708,1.686-.337-5.394-1.942-.989a26.153,26.153,0,0,1-3.115,6.383q-.943.742-1.858,1.373a7.7,7.7,0,0,0,2.728,4.15c.965-.689,1.49-1.14,1.49-1.14s7.754-4.045,8.428-8.091A42.7,42.7,0,0,0,738.876,1056.162Z" transform="translate(-666.422 -995.826)" fill="url(#linear-gradient-59)"/>
      </g>
      <g id="Grupo_55749" data-name="Grupo 55749" transform="translate(47.676 221.823)">
        <g id="Grupo_55748" data-name="Grupo 55748" transform="translate(8.164 2.003)">
          <g id="Grupo_55742" data-name="Grupo 55742" transform="translate(0 2.045)">
            <path id="Trazado_102543" data-name="Trazado 102543" d="M710.361,1208.391c-.175.723-16.851,63.266-21.078,79.121a2.867,2.867,0,0,0,2.744,3.622h0a2.847,2.847,0,0,0,2.756-2.179l18.512-75.053Z" transform="translate(-689.183 -1208.391)" fill="#7d97f4"/>
          </g>
          <g id="Grupo_55743" data-name="Grupo 55743" transform="translate(27.376 1.862)">
            <path id="Trazado_102544" data-name="Trazado 102544" d="M810.467,1207.6c.175.725,16.851,63.405,21.079,79.3a2.871,2.871,0,0,1-2.744,3.629h0a2.849,2.849,0,0,1-2.757-2.183l-18.511-75.219Z" transform="translate(-807.534 -1207.601)" fill="#7d97f4"/>
          </g>
          <g id="Grupo_55744" data-name="Grupo 55744" transform="translate(20.619)">
            <path id="Trazado_102545" data-name="Trazado 102545" d="M788.7,1199.55H778.319v8.34a2.158,2.158,0,0,0,2.145,2.171h1.425V1228.8a1.633,1.633,0,0,0,1.623,1.643h0a1.633,1.633,0,0,0,1.624-1.643v-18.734h.723a2.864,2.864,0,0,0,2.846-2.881Z" transform="translate(-778.319 -1199.55)" fill="#7d97f4"/>
          </g>
          <g id="Grupo_55745" data-name="Grupo 55745" transform="translate(228.877 2.045)">
            <path id="Trazado_102546" data-name="Trazado 102546" d="M1699.819,1208.391c-.175.723-16.851,63.266-21.079,79.121a2.867,2.867,0,0,0,2.744,3.622h0a2.848,2.848,0,0,0,2.757-2.179l18.511-75.053Z" transform="translate(-1678.641 -1208.391)" fill="#7d97f4"/>
          </g>
          <g id="Grupo_55746" data-name="Grupo 55746" transform="translate(256.253 2.045)">
            <path id="Trazado_102547" data-name="Trazado 102547" d="M1799.925,1208.391c.174.723,16.85,63.266,21.078,79.121a2.867,2.867,0,0,1-2.744,3.622h0a2.848,2.848,0,0,1-2.756-2.179l-18.511-75.053Z" transform="translate(-1796.992 -1208.391)" fill="#7d97f4"/>
          </g>
          <g id="Grupo_55747" data-name="Grupo 55747" transform="translate(249.496)">
            <path id="Trazado_102548" data-name="Trazado 102548" d="M1778.164,1199.55h-10.386v8.34a2.157,2.157,0,0,0,2.144,2.171h1.425V1228.8a1.633,1.633,0,0,0,1.624,1.643h0a1.633,1.633,0,0,0,1.624-1.643v-18.734h.723a2.864,2.864,0,0,0,2.847-2.881Z" transform="translate(-1767.778 -1199.55)" fill="#7d97f4"/>
          </g>
        </g>
        <path id="Trazado_102549" data-name="Trazado 102549" d="M656.372,1190.889H947.994a1.781,1.781,0,0,1,1.721,1.349l.81,3.175a1.794,1.794,0,0,1-1.731,2.248l-293.136-.346a1.794,1.794,0,0,1-1.713-2.239l.7-2.829A1.781,1.781,0,0,1,656.372,1190.889Z" transform="translate(-653.889 -1190.889)" fill="url(#linear-gradient-60)"/>
      </g>
    </g>
    <g id="Grupo_55751" data-name="Grupo 55751" transform="translate(226.277 174.387)">
      <path id="Trazado_102550" data-name="Trazado 102550" d="M509.191,957.208l-.875-1.11a.715.715,0,0,1,1.123-.885l0,.006.863,1.12a.707.707,0,0,1-1.115.869Z" transform="translate(-496.421 -843.939)" fill="#7d97f4"/>
      <path id="Trazado_102551" data-name="Trazado 102551" d="M497.378,940.393l-.773-1.183a.741.741,0,0,1,1.241-.811l0,.007.76,1.192a.733.733,0,0,1-1.233.8Z" transform="translate(-487.444 -830.965)" fill="#7d97f4"/>
      <path id="Trazado_102552" data-name="Trazado 102552" d="M487.076,922.614l-.667-1.246a.768.768,0,0,1,1.354-.725l0,.008.654,1.253a.76.76,0,0,1-1.344.71Z" transform="translate(-479.629 -817.263)" fill="#7d97f4"/>
      <path id="Trazado_102553" data-name="Trazado 102553" d="M478.318,904.031l-.56-1.3a.794.794,0,1,1,1.458-.63l0,.008.545,1.3a.786.786,0,0,1-1.447.615Z" transform="translate(-472.999 -802.955)" fill="#7d97f4"/>
      <path id="Trazado_102554" data-name="Trazado 102554" d="M471.113,884.8l-.453-1.339a.821.821,0,1,1,1.555-.527l0,.009.438,1.344a.813.813,0,0,1-1.543.513Z" transform="translate(-467.559 -788.158)" fill="#7d97f4"/>
      <path id="Trazado_102555" data-name="Trazado 102555" d="M465.449,865.058l-.347-1.37a.847.847,0,0,1,1.643-.417l0,.009.332,1.374a.839.839,0,0,1-1.63.4Z" transform="translate(-463.301 -772.983)" fill="#7d97f4"/>
      <path id="Trazado_102556" data-name="Trazado 102556" d="M461.3,844.95l-.243-1.392a.874.874,0,1,1,1.722-.3l0,.009.227,1.4a.866.866,0,0,1-1.707.288Z" transform="translate(-460.204 -757.533)" fill="#7d97f4"/>
      <path id="Trazado_102557" data-name="Trazado 102557" d="M458.647,824.6l-.141-1.406a.9.9,0,0,1,1.792-.18v.01l.125,1.408a.892.892,0,0,1-1.777.169Z" transform="translate(-458.247 -741.902)" fill="#7d97f4"/>
      <path id="Trazado_102558" data-name="Trazado 102558" d="M457.443,804.109,457.4,802.7a.927.927,0,1,1,1.853-.055v.01l.026,1.413a.919.919,0,0,1-1.837.044Z" transform="translate(-457.401 -726.177)" fill="#7d97f4"/>
      <path id="Trazado_102559" data-name="Trazado 102559" d="M457.475,783.594l.055-1.412a.953.953,0,1,1,1.905.075v.011l-.072,1.411a.945.945,0,0,1-1.889-.085Z" transform="translate(-457.457 -710.437)" fill="#7d97f4"/>
      <path id="Trazado_102560" data-name="Trazado 102560" d="M458.763,763.148l.151-1.4a.98.98,0,1,1,1.949.209v.011l-.167,1.4a.972.972,0,0,1-1.931-.218Z" transform="translate(-458.444 -694.758)" fill="#7d97f4"/>
      <path id="Trazado_102561" data-name="Trazado 102561" d="M461.419,742.856l.245-1.393a1.006,1.006,0,1,1,1.982.348l0,.011-.26,1.39a1,1,0,0,1-1.965-.356Z" transform="translate(-460.478 -679.202)" fill="#7d97f4"/>
      <path id="Trazado_102562" data-name="Trazado 102562" d="M465.459,722.864l.34-1.372a1.02,1.02,0,0,1,1.98.491v.006l-.348,1.37a1.016,1.016,0,0,1-1.97-.495Z" transform="translate(-463.572 -663.895)" fill="#7d97f4"/>
      <path id="Trazado_102563" data-name="Trazado 102563" d="M470.839,703.2l.431-1.346a1.034,1.034,0,0,1,1.969.631l0,.006-.439,1.344a1.029,1.029,0,0,1-1.959-.634Z" transform="translate(-467.693 -648.845)" fill="#7d97f4"/>
      <path id="Trazado_102564" data-name="Trazado 102564" d="M477.53,683.97l.521-1.314a1.047,1.047,0,1,1,1.947.772l0,.006-.529,1.311a1.043,1.043,0,0,1-1.937-.775Z" transform="translate(-472.817 -634.129)" fill="#7d97f4"/>
      <path id="Trazado_102565" data-name="Trazado 102565" d="M485.518,665.255l.611-1.277a1.061,1.061,0,0,1,1.915.917l0,.005-.619,1.273a1.057,1.057,0,0,1-1.9-.919Z" transform="translate(-478.935 -619.816)" fill="#7d97f4"/>
      <path id="Trazado_102566" data-name="Trazado 102566" d="M494.8,647.165l.7-1.23A1.075,1.075,0,1,1,497.366,647l0,.005-.707,1.226a1.071,1.071,0,0,1-1.859-1.065Z" transform="translate(-486.04 -605.993)" fill="#7d97f4"/>
      <path id="Trazado_102567" data-name="Trazado 102567" d="M505.35,629.808l.786-1.175a1.089,1.089,0,0,1,1.81,1.211l0,.005-.793,1.17a1.085,1.085,0,0,1-1.8-1.212Z" transform="translate(-494.118 -592.739)" fill="#7d97f4"/>
      <path id="Trazado_102568" data-name="Trazado 102568" d="M517.137,613.285l.866-1.117a1.1,1.1,0,1,1,1.744,1.351l0,.005-.872,1.112a1.1,1.1,0,0,1-1.733-1.351Z" transform="translate(-503.142 -580.125)" fill="#7d97f4"/>
      <path id="Trazado_102569" data-name="Trazado 102569" d="M530.008,597.595l.936-1.059a1.117,1.117,0,0,1,1.674,1.479l0,.005-.942,1.053a1.113,1.113,0,0,1-1.663-1.478Z" transform="translate(-512.999 -568.148)" fill="#7d97f4"/>
      <path id="Trazado_102570" data-name="Trazado 102570" d="M543.869,582.777l1-1a1.131,1.131,0,0,1,1.6,1.6l0,0-1.007.992a1.126,1.126,0,0,1-1.586-1.6Z" transform="translate(-523.613 -556.842)" fill="#7d97f4"/>
      <path id="Trazado_102571" data-name="Trazado 102571" d="M558.637,568.867l1.06-.934a1.144,1.144,0,0,1,1.513,1.717l-.005,0-1.066.928a1.14,1.14,0,0,1-1.5-1.715Z" transform="translate(-534.923 -546.232)" fill="#7d97f4"/>
      <path id="Trazado_102572" data-name="Trazado 102572" d="M574.233,555.888l1.114-.87a1.158,1.158,0,0,1,1.425,1.826l-.006,0-1.119.863a1.154,1.154,0,0,1-1.415-1.824Z" transform="translate(-546.867 -536.336)" fill="#7d97f4"/>
      <path id="Trazado_102573" data-name="Trazado 102573" d="M590.576,543.859l1.163-.8a1.172,1.172,0,0,1,1.333,1.928l-.006,0-1.167.8a1.168,1.168,0,0,1-1.323-1.925Z" transform="translate(-559.383 -527.169)" fill="#7d97f4"/>
      <path id="Trazado_102574" data-name="Trazado 102574" d="M607.588,532.788l1.206-.737a1.186,1.186,0,0,1,1.237,2.023l-.006,0-1.21.73a1.182,1.182,0,0,1-1.227-2.02Z" transform="translate(-572.413 -518.736)" fill="#7d97f4"/>
      <path id="Trazado_102575" data-name="Trazado 102575" d="M625.189,522.693l1.245-.668a1.2,1.2,0,1,1,1.132,2.109h0l-1.247.666a1.2,1.2,0,0,1-1.129-2.108Z" transform="translate(-585.892 -511.053)" fill="#7d97f4"/>
      <path id="Trazado_102576" data-name="Trazado 102576" d="M643.362,513.6l1.279-.6a1.2,1.2,0,0,1,1.021,2.172h0l-1.28.6a1.2,1.2,0,0,1-1.019-2.171Z" transform="translate(-599.817 -504.134)" fill="#7d97f4"/>
      <path id="Trazado_102577" data-name="Trazado 102577" d="M662,505.464l1.309-.535a1.2,1.2,0,0,1,.91,2.227h0l-1.309.533a1.2,1.2,0,0,1-.908-2.226Z" transform="translate(-614.098 -497.953)" fill="#7d97f4"/>
      <path id="Trazado_102578" data-name="Trazado 102578" d="M681.038,498.294l1.333-.468a1.206,1.206,0,1,1,.8,2.275h0l-1.333.466a1.2,1.2,0,0,1-.8-2.274Z" transform="translate(-628.688 -492.51)" fill="#7d97f4"/>
      <path id="Trazado_102579" data-name="Trazado 102579" d="M700.411,492.085l1.356-.4a1.209,1.209,0,0,1,.687,2.318h0l-1.356.4a1.208,1.208,0,0,1-.685-2.316Z" transform="translate(-643.534 -487.801)" fill="#7d97f4"/>
      <path id="Trazado_102580" data-name="Trazado 102580" d="M720.086,486.832l1.375-.336a1.212,1.212,0,1,1,.575,2.354h0l-1.376.334a1.211,1.211,0,0,1-.573-2.353Z" transform="translate(-658.613 -483.826)" fill="#7d97f4"/>
      <path id="Trazado_102581" data-name="Trazado 102581" d="M740.009,482.541l1.388-.269a1.215,1.215,0,0,1,.462,2.385h0l-1.388.267a1.214,1.214,0,0,1-.461-2.383Z" transform="translate(-673.882 -480.589)" fill="#7d97f4"/>
      <path id="Trazado_102582" data-name="Trazado 102582" d="M760.117,479.214l1.4-.2a1.218,1.218,0,0,1,.348,2.41h0l-1.4.2a1.217,1.217,0,0,1-.347-2.408Z" transform="translate(-689.292 -478.09)" fill="#7d97f4"/>
      <path id="Trazado_102583" data-name="Trazado 102583" d="M780.37,476.854l1.407-.135a1.221,1.221,0,1,1,.233,2.43h0l-1.407.133a1.22,1.22,0,0,1-.232-2.428Z" transform="translate(-704.814 -476.333)" fill="#7d97f4"/>
      <path id="Trazado_102584" data-name="Trazado 102584" d="M800.725,475.47l1.414-.067a1.223,1.223,0,1,1,.117,2.444h0l-1.414.066a1.223,1.223,0,0,1-.115-2.442Z" transform="translate(-720.414 -475.324)" fill="#7d97f4"/>
      <path id="Trazado_102585" data-name="Trazado 102585" d="M821.131,475.068h1.422a1.226,1.226,0,1,1,0,2.453h-.013l-1.4,0h-.006a1.225,1.225,0,0,1,0-2.451Z" transform="translate(-736.052 -475.068)" fill="#7d97f4"/>
      <path id="Trazado_102586" data-name="Trazado 102586" d="M841.554,475.406l1.412.064a1.229,1.229,0,1,1-.111,2.456h0l-1.412-.066a1.228,1.228,0,0,1,.112-2.454Z" transform="translate(-751.707 -475.326)" fill="#7d97f4"/>
      <path id="Trazado_102587" data-name="Trazado 102587" d="M861.927,476.634l1.408.124a1.232,1.232,0,1,1-.216,2.455h0l-1.408-.126a1.231,1.231,0,0,1,.218-2.453Z" transform="translate(-767.324 -476.268)" fill="#7d97f4"/>
      <path id="Trazado_102588" data-name="Trazado 102588" d="M882.227,478.726l1.4.183a1.235,1.235,0,1,1-.319,2.45h0l-1.4-.184a1.234,1.234,0,0,1,.32-2.448Z" transform="translate(-782.887 -477.872)" fill="#7d97f4"/>
      <path id="Trazado_102589" data-name="Trazado 102589" d="M902.422,481.654l1.393.239a1.238,1.238,0,1,1-.419,2.44h0L902,484.092a1.237,1.237,0,0,1,.42-2.438Z" transform="translate(-798.37 -480.117)" fill="#7d97f4"/>
      <path id="Trazado_102590" data-name="Trazado 102590" d="M922.482,485.386l1.382.293a1.241,1.241,0,1,1-.515,2.428h0l-1.382-.3a1.24,1.24,0,0,1,.516-2.426Z" transform="translate(-813.75 -482.978)" fill="#7d97f4"/>
      <path id="Trazado_102591" data-name="Trazado 102591" d="M942.381,489.891l1.371.346a1.244,1.244,0,0,1-.608,2.412h0l-1.37-.347a1.243,1.243,0,0,1,.609-2.41Z" transform="translate(-829.008 -486.432)" fill="#7d97f4"/>
      <path id="Trazado_102592" data-name="Trazado 102592" d="M962.1,495.135l1.357.4a1.247,1.247,0,1,1-.7,2.394h0l-1.357-.4a1.246,1.246,0,0,1,.7-2.392Z" transform="translate(-844.127 -490.454)" fill="#7d97f4"/>
      <path id="Trazado_102593" data-name="Trazado 102593" d="M981.609,501.087l1.342.443a1.25,1.25,0,0,1-.783,2.374h0l-1.341-.445a1.249,1.249,0,0,1,.784-2.372Z" transform="translate(-859.091 -495.019)" fill="#7d97f4"/>
      <path id="Trazado_102594" data-name="Trazado 102594" d="M1000.893,507.712l1.325.491a1.25,1.25,0,0,1-.865,2.345l-1.327-.487a1.252,1.252,0,1,1,.862-2.35Z" transform="translate(-873.879 -500.101)" fill="#7d97f4"/>
      <path id="Trazado_102595" data-name="Trazado 102595" d="M1019.98,515.022l1.307.533a1.243,1.243,0,0,1-.936,2.3l-1.308-.529a1.245,1.245,0,0,1,.934-2.308Z" transform="translate(-888.528 -505.709)" fill="#7d97f4"/>
      <path id="Trazado_102596" data-name="Trazado 102596" d="M1038.811,522.941l1.291.575a1.236,1.236,0,0,1-1,2.26l-1.293-.571a1.238,1.238,0,0,1,1-2.265Z" transform="translate(-902.983 -511.785)" fill="#7d97f4"/>
      <path id="Trazado_102597" data-name="Trazado 102597" d="M1057.391,531.446l1.274.615a1.229,1.229,0,0,1-1.065,2.216l-1.275-.611a1.231,1.231,0,1,1,1.064-2.221Z" transform="translate(-917.246 -518.311)" fill="#7d97f4"/>
      <path id="Trazado_102598" data-name="Trazado 102598" d="M1075.71,540.509l1.256.653a1.222,1.222,0,0,1-1.124,2.171l-1.258-.649a1.224,1.224,0,1,1,1.123-2.176Z" transform="translate(-931.31 -525.265)" fill="#7d97f4"/>
      <path id="Trazado_102599" data-name="Trazado 102599" d="M1093.759,550.1l1.237.688a1.215,1.215,0,0,1-1.179,2.126l-1.239-.685a1.217,1.217,0,1,1,1.178-2.131Z" transform="translate(-945.169 -532.629)" fill="#7d97f4"/>
      <path id="Trazado_102600" data-name="Trazado 102600" d="M1111.532,560.208l1.217.722a1.209,1.209,0,0,1-1.231,2.08l-1.22-.719a1.211,1.211,0,0,1,1.23-2.086Z" transform="translate(-958.815 -540.384)" fill="#7d97f4"/>
      <path id="Trazado_102601" data-name="Trazado 102601" d="M1129.018,570.8l1.2.755a1.2,1.2,0,0,1-1.279,2.035l-1.2-.752a1.2,1.2,0,0,1,1.279-2.04Z" transform="translate(-972.244 -548.51)" fill="#7d97f4"/>
      <path id="Trazado_102602" data-name="Trazado 102602" d="M1146.214,581.847l1.176.786a1.195,1.195,0,0,1-1.325,1.989l-1.178-.783a1.2,1.2,0,1,1,1.324-1.994Z" transform="translate(-985.449 -556.992)" fill="#7d97f4"/>
      <path id="Trazado_102603" data-name="Trazado 102603" d="M1163.109,593.339l1.155.814a1.188,1.188,0,0,1-1.367,1.944l-1.157-.811a1.19,1.19,0,0,1,1.366-1.949Z" transform="translate(-998.426 -565.814)" fill="#7d97f4"/>
      <path id="Trazado_102604" data-name="Trazado 102604" d="M1179.714,605.221l1.137.838a1.181,1.181,0,0,1-1.4,1.9l-1.139-.835a1.183,1.183,0,1,1,1.4-1.909Z" transform="translate(-1011.182 -574.937)" fill="#7d97f4"/>
      <path id="Trazado_102605" data-name="Trazado 102605" d="M1196.078,617.432l1.121.858a1.174,1.174,0,0,1-1.424,1.867l-1.124-.855a1.176,1.176,0,1,1,1.425-1.872Z" transform="translate(-1023.756 -584.315)" fill="#7d97f4"/>
      <path id="Trazado_102606" data-name="Trazado 102606" d="M1212.227,629.9l1.11.874a1.167,1.167,0,0,1-1.442,1.836l-1.113-.871a1.17,1.17,0,0,1,1.442-1.842Z" transform="translate(-1036.169 -593.892)" fill="#7d97f4"/>
      <path id="Trazado_102607" data-name="Trazado 102607" d="M1228.217,642.574l1.1.886a1.161,1.161,0,0,1-1.453,1.811l-1.1-.883a1.163,1.163,0,1,1,1.452-1.816Z" transform="translate(-1048.461 -603.63)" fill="#7d97f4"/>
      <path id="Trazado_102608" data-name="Trazado 102608" d="M1244.091,655.4l1.1.894a1.154,1.154,0,0,1-1.457,1.79l-1.1-.891a1.156,1.156,0,1,1,1.456-1.795Z" transform="translate(-1060.667 -613.483)" fill="#7d97f4"/>
      <path id="Trazado_102609" data-name="Trazado 102609" d="M1259.893,668.306l1.092.9a1.147,1.147,0,0,1-1.454,1.774l-1.095-.894a1.149,1.149,0,0,1,1.454-1.78Z" transform="translate(-1072.82 -623.406)" fill="#7d97f4"/>
      <path id="Trazado_102610" data-name="Trazado 102610" d="M1275.669,681.247l1.093.9a1.14,1.14,0,0,1-1.444,1.764l-1.1-.894a1.142,1.142,0,1,1,1.444-1.77Z" transform="translate(-1084.956 -633.355)" fill="#7d97f4"/>
      <path id="Trazado_102611" data-name="Trazado 102611" d="M1291.464,694.162l1.1.893a1.133,1.133,0,0,1-1.429,1.759l-1.1-.89a1.135,1.135,0,1,1,1.429-1.765Z" transform="translate(-1097.108 -643.286)" fill="#7d97f4"/>
      <path id="Trazado_102612" data-name="Trazado 102612" d="M1307.32,706.992l1.1.885a1.126,1.126,0,0,1-1.407,1.759l-1.105-.881a1.128,1.128,0,0,1,1.407-1.765Z" transform="translate(-1109.31 -653.153)" fill="#7d97f4"/>
      <path id="Trazado_102613" data-name="Trazado 102613" d="M1323.284,719.679l1.112.872a1.12,1.12,0,0,1-1.379,1.764l-1.115-.869a1.122,1.122,0,0,1,1.379-1.769Z" transform="translate(-1121.598 -662.913)" fill="#7d97f4"/>
      <path id="Trazado_102614" data-name="Trazado 102614" d="M1339.4,732.161l1.123.854h0a1.113,1.113,0,0,1-1.345,1.773l-1.13-.854a1.115,1.115,0,1,1,1.344-1.778l0,0Z" transform="translate(-1133.999 -672.515)" fill="#7d97f4"/>
      <path id="Trazado_102615" data-name="Trazado 102615" d="M1355.71,744.382l1.141.834a1.106,1.106,0,0,1-1.3,1.787l-1.143-.831a1.108,1.108,0,1,1,1.3-1.793Z" transform="translate(-1146.563 -681.921)" fill="#7d97f4"/>
      <path id="Trazado_102616" data-name="Trazado 102616" d="M1372.26,756.269l1.16.809a1.1,1.1,0,0,1-1.255,1.8l-1.162-.805a1.1,1.1,0,0,1,1.255-1.81Z" transform="translate(-1159.308 -691.07)" fill="#7d97f4"/>
      <path id="Trazado_102617" data-name="Trazado 102617" d="M1389.077,767.765l1.179.779a1.092,1.092,0,0,1-1.2,1.823l-1.182-.775a1.094,1.094,0,0,1,1.2-1.83Z" transform="translate(-1172.26 -699.92)" fill="#7d97f4"/>
      <path id="Trazado_102618" data-name="Trazado 102618" d="M1406.205,778.837l1.2.747a1.076,1.076,0,0,1-1.131,1.83l-1.2-.739a1.08,1.08,0,1,1,1.13-1.842Z" transform="translate(-1185.462 -708.445)" fill="#7d97f4"/>
      <path id="Trazado_102619" data-name="Trazado 102619" d="M1423.664,789.4l1.223.708a1.06,1.06,0,0,1-1.056,1.838l-1.229-.7a1.065,1.065,0,0,1,1.054-1.85Z" transform="translate(-1198.923 -716.581)" fill="#7d97f4"/>
      <path id="Trazado_102620" data-name="Trazado 102620" d="M1441.461,799.375l1.248.664a1.044,1.044,0,0,1-.975,1.847l-1.252-.655a1.049,1.049,0,1,1,.973-1.859Z" transform="translate(-1212.647 -724.264)" fill="#7d97f4"/>
      <path id="Trazado_102621" data-name="Trazado 102621" d="M1459.612,808.681l1.275.614a1.029,1.029,0,0,1-.887,1.856l-1.279-.606a1.033,1.033,0,0,1,.884-1.868Z" transform="translate(-1226.646 -731.432)" fill="#7d97f4"/>
      <path id="Trazado_102622" data-name="Trazado 102622" d="M1478.136,817.24l1.3.558a1.013,1.013,0,0,1-.793,1.864l-1.3-.549a1.018,1.018,0,0,1,.79-1.875Z" transform="translate(-1240.933 -738.027)" fill="#7d97f4"/>
      <path id="Trazado_102623" data-name="Trazado 102623" d="M1497.005,824.957l1.322.495a1,1,0,0,1-.693,1.87l-1.325-.486a1,1,0,0,1,.689-1.881Z" transform="translate(-1255.488 -743.973)" fill="#7d97f4"/>
      <path id="Trazado_102624" data-name="Trazado 102624" d="M1516.217,831.747l1.345.427a.981.981,0,0,1-.587,1.873l-1.348-.418a.986.986,0,1,1,.584-1.884Z" transform="translate(-1270.309 -749.206)" fill="#7d97f4"/>
      <path id="Trazado_102625" data-name="Trazado 102625" d="M1535.753,837.527l1.368.353a.966.966,0,0,1-.476,1.872l-1.37-.344a.97.97,0,1,1,.472-1.882Z" transform="translate(-1285.381 -753.661)" fill="#7d97f4"/>
      <path id="Trazado_102626" data-name="Trazado 102626" d="M1555.58,842.194l1.387.268a.95.95,0,0,1-.354,1.866l-1.39-.259a.955.955,0,1,1,.35-1.877Z" transform="translate(-1300.681 -757.258)" fill="#7d97f4"/>
      <path id="Trazado_102627" data-name="Trazado 102627" d="M1575.66,845.607l1.4.179a.934.934,0,0,1-.231,1.854l-1.4-.17a.939.939,0,0,1,.226-1.864Z" transform="translate(-1316.176 -759.89)" fill="#7d97f4"/>
      <path id="Trazado_102628" data-name="Trazado 102628" d="M1595.913,847.727l1.411.088a.918.918,0,0,1-.108,1.834l-1.411-.078a.923.923,0,1,1,.1-1.843Z" transform="translate(-1331.804 -761.524)" fill="#7d97f4"/>
      <path id="Trazado_102629" data-name="Trazado 102629" d="M1616.258,848.5l1.414-.007a.9.9,0,0,1,.015,1.805l-1.413.016a.907.907,0,1,1-.021-1.815Z" transform="translate(-1347.502 -762.112)" fill="#7d97f4"/>
      <path id="Trazado_102630" data-name="Trazado 102630" d="M1636.6,847.587l1.41-.1a.887.887,0,0,1,.138,1.769l-1.409.114a.892.892,0,1,1-.144-1.777Z" transform="translate(-1363.202 -761.335)" fill="#7d97f4"/>
      <path id="Trazado_102631" data-name="Trazado 102631" d="M1656.853,845.229l1.4-.208a.871.871,0,0,1,.262,1.723l-1.4.217a.876.876,0,0,1-.269-1.731Z" transform="translate(-1378.827 -759.438)" fill="#7d97f4"/>
      <path id="Trazado_102632" data-name="Trazado 102632" d="M1676.889,841.36l1.378-.315a.855.855,0,0,1,.386,1.667l-1.376.324a.86.86,0,0,1-.394-1.674Z" transform="translate(-1394.288 -756.372)" fill="#7d97f4"/>
      <path id="Trazado_102633" data-name="Trazado 102633" d="M1696.579,835.913l1.348-.427a.84.84,0,0,1,.512,1.6l-1.345.435a.844.844,0,0,1-.521-1.607Z" transform="translate(-1409.484 -752.086)" fill="#7d97f4"/>
      <path id="Trazado_102634" data-name="Trazado 102634" d="M1715.766,828.839l1.306-.54a.822.822,0,0,1,.636,1.517l-1.3.552a.829.829,0,0,1-.648-1.526Z" transform="translate(-1424.293 -746.543)" fill="#7d97f4"/>
      <path id="Trazado_102635" data-name="Trazado 102635" d="M1734.312,820.129l1.252-.656a.8.8,0,0,1,.747,1.406l-1.244.671a.8.8,0,1,1-.763-1.416Z" transform="translate(-1438.611 -739.736)" fill="#7d97f4"/>
      <path id="Trazado_102636" data-name="Trazado 102636" d="M1752,809.738l1.181-.773a.77.77,0,0,1,.85,1.284l-1.172.786a.778.778,0,0,1-.866-1.292Z" transform="translate(-1452.267 -731.633)" fill="#7d97f4"/>
      <path id="Trazado_102637" data-name="Trazado 102637" d="M1768.6,797.661l1.094-.9a.744.744,0,0,1,.949,1.147l-1.084.907a.752.752,0,1,1-.965-1.153Z" transform="translate(-1465.085 -722.223)" fill="#7d97f4"/>
      <path id="Trazado_102638" data-name="Trazado 102638" d="M1783.807,783.85l.987-1.011a.718.718,0,0,1,1.033,1l-.976,1.022a.726.726,0,0,1-1.05-1Z" transform="translate(-1476.83 -711.48)" fill="#7d97f4"/>
      <path id="Trazado_102639" data-name="Trazado 102639" d="M1797.445,768.509l.873-1.111a.692.692,0,0,1,1.093.849l-.861,1.121a.7.7,0,1,1-1.11-.853Z" transform="translate(-1487.357 -699.574)" fill="#7d97f4"/>
      <path id="Trazado_102640" data-name="Trazado 102640" d="M1809.405,751.859l.752-1.2a.666.666,0,0,1,1.131.7l-.738,1.2a.674.674,0,1,1-1.149-.7Z" transform="translate(-1496.586 -686.673)" fill="#7d97f4"/>
      <path id="Trazado_102641" data-name="Trazado 102641" d="M1819.579,734.1l.623-1.269a.64.64,0,0,1,1.152.557l-.608,1.276a.648.648,0,0,1-1.169-.558Z" transform="translate(-1504.435 -672.929)" fill="#7d97f4"/>
      <path id="Trazado_102642" data-name="Trazado 102642" d="M1827.845,715.414l.484-1.328a.614.614,0,0,1,1.156.414l-.469,1.333a.622.622,0,0,1-1.173-.412Z" transform="translate(-1510.811 -658.486)" fill="#7d97f4"/>
      <path id="Trazado_102643" data-name="Trazado 102643" d="M1834.057,696l.334-1.374a.588.588,0,0,1,1.144.271l-.318,1.377a.6.6,0,1,1-1.161-.268Z" transform="translate(-1515.602 -643.496)" fill="#7d97f4"/>
      <path id="Trazado_102644" data-name="Trazado 102644" d="M1838.047,676.078l.171-1.4a.562.562,0,0,1,1.116.129l-.155,1.405a.569.569,0,1,1-1.132-.125Z" transform="translate(-1518.679 -628.123)" fill="#7d97f4"/>
      <path id="Trazado_102645" data-name="Trazado 102645" d="M1839.608,655.9l-.006-1.414a.536.536,0,0,1,1.071-.01l.021,1.413a.544.544,0,1,1-1.087.017Z" transform="translate(-1519.877 -612.568)" fill="#7d97f4"/>
      <path id="Trazado_102646" data-name="Trazado 102646" d="M1837.966,635.776l-.194-1.4a.509.509,0,0,1,1.008-.145l.21,1.4a.517.517,0,0,1-1.023.154Z" transform="translate(-1518.467 -597.08)" fill="#7d97f4"/>
      <path id="Trazado_102647" data-name="Trazado 102647" d="M1833.555,616.088l-.39-1.359a.483.483,0,0,1,.928-.272l.4,1.354a.491.491,0,0,1-.942.281Z" transform="translate(-1514.915 -581.949)" fill="#7d97f4"/>
    </g>
  </g>
</svg>
