<svg xmlns="http://www.w3.org/2000/svg" xmlns:xlink="http://www.w3.org/1999/xlink" width="500" height="295.672" viewBox="0 0 500 295.672">
  <defs>
    <linearGradient id="linear-gradient" x1="-4700.237" y1="-961.62" x2="-4700.101" y2="-960.885" gradientUnits="objectBoundingBox">
      <stop offset="0" stop-color="#c9926a"/>
      <stop offset="1" stop-color="#c9926a" stop-opacity="0"/>
    </linearGradient>
    <linearGradient id="linear-gradient-2" x1="-6059.047" y1="-1422.317" x2="-6057.938" y2="-1422.317" gradientUnits="objectBoundingBox">
      <stop offset="0" stop-color="#502f26"/>
      <stop offset="1" stop-color="#3b221d"/>
    </linearGradient>
  </defs>
  <g id="Grupo_56736" data-name="Grupo 56736" transform="translate(-180 -453.139)">
    <path id="Trazado_104193" data-name="Trazado 104193" d="M0,0H500V234H0Z" transform="translate(180 491)" fill="#f6f6f6"/>
    <path id="Trazado_104194" data-name="Trazado 104194" d="M8.408-3.779a1.408,1.408,0,0,0-.532-1.172,6.615,6.615,0,0,0-1.87-.869,17.942,17.942,0,0,1-2.187-.869Q1.055-8.047,1.055-10.42A3.345,3.345,0,0,1,1.743-12.5a4.453,4.453,0,0,1,1.948-1.406,7.582,7.582,0,0,1,2.832-.5,6.632,6.632,0,0,1,2.749.547,4.352,4.352,0,0,1,1.89,1.558A4.068,4.068,0,0,1,11.836-10H8.418a1.719,1.719,0,0,0-.532-1.348,2.075,2.075,0,0,0-1.44-.479A2.339,2.339,0,0,0,5-11.421a1.243,1.243,0,0,0-.532,1.03,1.252,1.252,0,0,0,.586.991,7.389,7.389,0,0,0,2.061.918A12.623,12.623,0,0,1,9.531-7.461a4.07,4.07,0,0,1,2.3,3.662A3.472,3.472,0,0,1,10.43-.869,6.255,6.255,0,0,1,6.572.2a7.653,7.653,0,0,1-3.13-.62,4.719,4.719,0,0,1-2.109-1.7A4.428,4.428,0,0,1,.625-4.609H4.063a2.181,2.181,0,0,0,.591,1.685,2.793,2.793,0,0,0,1.919.542,2.206,2.206,0,0,0,1.343-.366A1.209,1.209,0,0,0,8.408-3.779Zm4.619-1.6A6.236,6.236,0,0,1,13.643-8.2a4.4,4.4,0,0,1,1.768-1.9,5.323,5.323,0,0,1,2.705-.664,4.858,4.858,0,0,1,3.74,1.47,5.64,5.64,0,0,1,1.367,4v.117a5.472,5.472,0,0,1-1.372,3.921A4.871,4.871,0,0,1,18.135.2a4.927,4.927,0,0,1-3.623-1.353,5.29,5.29,0,0,1-1.475-3.667Zm3.291.205a3.932,3.932,0,0,0,.459,2.148,1.529,1.529,0,0,0,1.357.684q1.758,0,1.8-2.705v-.332q0-2.842-1.816-2.842-1.65,0-1.787,2.451ZM34.482-5.2A6.44,6.44,0,0,1,33.408-1.2,3.6,3.6,0,0,1,30.381.2a3.122,3.122,0,0,1-2.6-1.279L27.646,0H24.7V-15h3.291v5.283a3.013,3.013,0,0,1,2.373-1.045,3.6,3.6,0,0,1,3.047,1.416,6.473,6.473,0,0,1,1.074,3.984Zm-3.3-.205a4.309,4.309,0,0,0-.405-2.173,1.365,1.365,0,0,0-1.245-.649,1.575,1.575,0,0,0-1.543.85v4.2a1.584,1.584,0,0,0,1.563.84,1.4,1.4,0,0,0,1.475-1.133A8.148,8.148,0,0,0,31.182-5.4ZM42.324-7.588,41.24-7.666a1.947,1.947,0,0,0-1.992.977V0H35.957V-10.566h3.086l.107,1.357a2.548,2.548,0,0,1,2.314-1.553,3.209,3.209,0,0,1,.918.117ZM48.438.2A5.432,5.432,0,0,1,44.5-1.255,5.008,5.008,0,0,1,43-5.029V-5.3a6.489,6.489,0,0,1,.6-2.861,4.395,4.395,0,0,1,1.753-1.919,5.292,5.292,0,0,1,2.734-.679A4.574,4.574,0,0,1,51.6-9.38a5.43,5.43,0,0,1,1.289,3.853v1.279H46.348a2.372,2.372,0,0,0,.771,1.4,2.3,2.3,0,0,0,1.543.508A2.958,2.958,0,0,0,51.1-3.437l1.5,1.777A4.2,4.2,0,0,1,50.864-.308,5.891,5.891,0,0,1,48.438.2Zm-.371-8.418q-1.445,0-1.719,1.914h3.32v-.254a1.63,1.63,0,0,0-.4-1.226A1.593,1.593,0,0,0,48.066-8.223Zm11.68,5.254a.76.76,0,0,0-.439-.674,6.685,6.685,0,0,0-1.67-.527,7.615,7.615,0,0,1-2.031-.718,3.4,3.4,0,0,1-1.221-1.079,2.577,2.577,0,0,1-.42-1.455,2.92,2.92,0,0,1,1.2-2.4,4.948,4.948,0,0,1,3.145-.942,5.482,5.482,0,0,1,3.359.947,2.962,2.962,0,0,1,1.27,2.49h-3.3q0-1.27-1.338-1.27a1.326,1.326,0,0,0-.869.288.892.892,0,0,0-.352.718.819.819,0,0,0,.43.713,4.06,4.06,0,0,0,1.372.449,11.857,11.857,0,0,1,1.655.42A3.007,3.007,0,0,1,62.92-3.066,2.767,2.767,0,0,1,61.636-.713,5.632,5.632,0,0,1,58.311.2a5.747,5.747,0,0,1-2.422-.488,4.05,4.05,0,0,1-1.66-1.328,3.007,3.007,0,0,1-.6-1.768h3.076A1.272,1.272,0,0,0,57.2-2.319a2.009,2.009,0,0,0,1.2.337,1.58,1.58,0,0,0,1.011-.273A.875.875,0,0,0,59.746-2.969ZM70.41,0A3.716,3.716,0,0,1,70.1-.947,3.06,3.06,0,0,1,67.559.2a3.749,3.749,0,0,1-2.539-.9,2.875,2.875,0,0,1-1.045-2.271,2.955,2.955,0,0,1,1.27-2.6,6.468,6.468,0,0,1,3.691-.879h1.016v-.557q0-1.455-1.26-1.455A1.027,1.027,0,0,0,67.52-7.314H64.229a2.955,2.955,0,0,1,1.3-2.49,5.474,5.474,0,0,1,3.325-.957,4.8,4.8,0,0,1,3.193.986,3.429,3.429,0,0,1,1.2,2.705v4.678A4.79,4.79,0,0,0,73.7-.166V0ZM68.35-2.148a1.836,1.836,0,0,0,1.021-.264,1.653,1.653,0,0,0,.581-.6V-4.7h-.957q-1.719,0-1.719,1.543a.942.942,0,0,0,.3.728A1.1,1.1,0,0,0,68.35-2.148ZM78.545,0h-3.3V-15h3.3Zm5.5,0h-3.3V-10.566h3.3Zm-3.5-13.291a1.469,1.469,0,0,1,.508-1.152,1.916,1.916,0,0,1,1.318-.449,1.916,1.916,0,0,1,1.318.449,1.469,1.469,0,0,1,.508,1.152,1.469,1.469,0,0,1-.508,1.152,1.916,1.916,0,0,1-1.318.449,1.916,1.916,0,0,1-1.318-.449A1.469,1.469,0,0,1,80.547-13.291ZM91.182.2a5.432,5.432,0,0,1-3.936-1.45,5.008,5.008,0,0,1-1.5-3.774V-5.3a6.489,6.489,0,0,1,.6-2.861A4.395,4.395,0,0,1,88.1-10.083a5.292,5.292,0,0,1,2.734-.679A4.574,4.574,0,0,1,94.346-9.38a5.43,5.43,0,0,1,1.289,3.853v1.279H89.092a2.372,2.372,0,0,0,.771,1.4,2.3,2.3,0,0,0,1.543.508,2.958,2.958,0,0,0,2.441-1.094l1.5,1.777A4.2,4.2,0,0,1,93.608-.308,5.891,5.891,0,0,1,91.182.2Zm-.371-8.418q-1.445,0-1.719,1.914h3.32v-.254a1.63,1.63,0,0,0-.4-1.226A1.593,1.593,0,0,0,90.811-8.223Zm9.17-2.344.107,1.24a3.583,3.583,0,0,1,3.018-1.436,3.015,3.015,0,0,1,2.466.986,4.7,4.7,0,0,1,.845,2.969V0h-3.3V-6.67a1.783,1.783,0,0,0-.322-1.177,1.491,1.491,0,0,0-1.172-.376,1.569,1.569,0,0,0-1.436.762V0H96.895V-10.566Zm12.09-2.627v2.627h1.738v2.285H112.07v4.834a1.234,1.234,0,0,0,.215.83,1.152,1.152,0,0,0,.85.234,4.828,4.828,0,0,0,.82-.059V-.088A6.074,6.074,0,0,1,112.1.2a3.448,3.448,0,0,1-2.51-.8,3.282,3.282,0,0,1-.811-2.432V-8.281h-1.348v-2.285h1.348v-2.627ZM120.215.2a5.432,5.432,0,0,1-3.936-1.45,5.008,5.008,0,0,1-1.5-3.774V-5.3a6.489,6.489,0,0,1,.6-2.861,4.395,4.395,0,0,1,1.753-1.919,5.292,5.292,0,0,1,2.734-.679,4.574,4.574,0,0,1,3.516,1.382,5.43,5.43,0,0,1,1.289,3.853v1.279h-6.543a2.372,2.372,0,0,0,.771,1.4,2.3,2.3,0,0,0,1.543.508,2.958,2.958,0,0,0,2.441-1.094l1.5,1.777a4.2,4.2,0,0,1-1.743,1.353A5.891,5.891,0,0,1,120.215.2Zm-.371-8.418q-1.445,0-1.719,1.914h3.32v-.254a1.63,1.63,0,0,0-.4-1.226A1.593,1.593,0,0,0,119.844-8.223Z" transform="translate(387.101 561)" fill="#12263f"/>
    <path id="Trazado_104195" data-name="Trazado 104195" d="M8.408-3.779a1.408,1.408,0,0,0-.532-1.172,6.615,6.615,0,0,0-1.87-.869,17.942,17.942,0,0,1-2.187-.869Q1.055-8.047,1.055-10.42A3.345,3.345,0,0,1,1.743-12.5a4.453,4.453,0,0,1,1.948-1.406,7.582,7.582,0,0,1,2.832-.5,6.632,6.632,0,0,1,2.749.547,4.352,4.352,0,0,1,1.89,1.558A4.068,4.068,0,0,1,11.836-10H8.418a1.719,1.719,0,0,0-.532-1.348,2.075,2.075,0,0,0-1.44-.479A2.339,2.339,0,0,0,5-11.421a1.243,1.243,0,0,0-.532,1.03,1.252,1.252,0,0,0,.586.991,7.389,7.389,0,0,0,2.061.918A12.623,12.623,0,0,1,9.531-7.461a4.07,4.07,0,0,1,2.3,3.662A3.472,3.472,0,0,1,10.43-.869,6.255,6.255,0,0,1,6.572.2a7.653,7.653,0,0,1-3.13-.62,4.719,4.719,0,0,1-2.109-1.7A4.428,4.428,0,0,1,.625-4.609H4.063a2.181,2.181,0,0,0,.591,1.685,2.793,2.793,0,0,0,1.919.542,2.206,2.206,0,0,0,1.343-.366A1.209,1.209,0,0,0,8.408-3.779ZM19.395,0a3.716,3.716,0,0,1-.312-.947A3.06,3.06,0,0,1,16.543.2,3.749,3.749,0,0,1,14-.708a2.875,2.875,0,0,1-1.045-2.271,2.955,2.955,0,0,1,1.27-2.6,6.468,6.468,0,0,1,3.691-.879h1.016v-.557q0-1.455-1.26-1.455A1.027,1.027,0,0,0,16.5-7.314H13.213a2.955,2.955,0,0,1,1.3-2.49,5.474,5.474,0,0,1,3.325-.957,4.8,4.8,0,0,1,3.193.986,3.429,3.429,0,0,1,1.2,2.705v4.678a4.79,4.79,0,0,0,.449,2.227V0ZM17.334-2.148a1.836,1.836,0,0,0,1.021-.264,1.653,1.653,0,0,0,.581-.6V-4.7h-.957q-1.719,0-1.719,1.543a.942.942,0,0,0,.3.728A1.1,1.1,0,0,0,17.334-2.148ZM27.891-13.193v2.627h1.738v2.285H27.891v4.834a1.234,1.234,0,0,0,.215.83,1.152,1.152,0,0,0,.85.234,4.828,4.828,0,0,0,.82-.059V-.088A6.074,6.074,0,0,1,27.92.2a3.448,3.448,0,0,1-2.51-.8A3.282,3.282,0,0,1,24.6-3.037V-8.281H23.252v-2.285H24.6v-2.627ZM34.395,0h-3.3V-10.566h3.3ZM30.9-13.291a1.469,1.469,0,0,1,.508-1.152,1.916,1.916,0,0,1,1.318-.449,1.916,1.916,0,0,1,1.318.449,1.469,1.469,0,0,1,.508,1.152,1.469,1.469,0,0,1-.508,1.152,1.916,1.916,0,0,1-1.318.449,1.916,1.916,0,0,1-1.318-.449A1.469,1.469,0,0,1,30.9-13.291ZM41.953-2.969a.76.76,0,0,0-.439-.674,6.685,6.685,0,0,0-1.67-.527,7.615,7.615,0,0,1-2.031-.718,3.4,3.4,0,0,1-1.221-1.079,2.577,2.577,0,0,1-.42-1.455,2.92,2.92,0,0,1,1.2-2.4,4.948,4.948,0,0,1,3.145-.942,5.482,5.482,0,0,1,3.359.947,2.962,2.962,0,0,1,1.27,2.49h-3.3q0-1.27-1.338-1.27a1.326,1.326,0,0,0-.869.288.892.892,0,0,0-.352.718.819.819,0,0,0,.43.713,4.06,4.06,0,0,0,1.372.449,11.857,11.857,0,0,1,1.655.42,3.007,3.007,0,0,1,2.383,2.939A2.767,2.767,0,0,1,43.843-.713,5.632,5.632,0,0,1,40.518.2,5.747,5.747,0,0,1,38.1-.293a4.05,4.05,0,0,1-1.66-1.328,3.007,3.007,0,0,1-.6-1.768h3.076A1.272,1.272,0,0,0,39.4-2.319a2.009,2.009,0,0,0,1.2.337,1.58,1.58,0,0,0,1.011-.273A.875.875,0,0,0,41.953-2.969ZM47.393,0V-8.281H45.859v-2.285h1.533v-.84a3.651,3.651,0,0,1,1.064-2.8,4.206,4.206,0,0,1,2.988-1A6.544,6.544,0,0,1,52.988-15L53-12.578a3.007,3.007,0,0,0-.811-.088q-1.494,0-1.494,1.289v.811h2.061v2.285H50.693V0ZM59.863,0a3.716,3.716,0,0,1-.312-.947A3.06,3.06,0,0,1,57.012.2a3.749,3.749,0,0,1-2.539-.9,2.875,2.875,0,0,1-1.045-2.271,2.955,2.955,0,0,1,1.27-2.6,6.468,6.468,0,0,1,3.691-.879H59.4v-.557q0-1.455-1.26-1.455a1.027,1.027,0,0,0-1.172,1.152H53.682a2.955,2.955,0,0,1,1.3-2.49,5.474,5.474,0,0,1,3.325-.957,4.8,4.8,0,0,1,3.193.986,3.429,3.429,0,0,1,1.2,2.705v4.678a4.79,4.79,0,0,0,.449,2.227V0ZM57.8-2.148a1.836,1.836,0,0,0,1.021-.264,1.653,1.653,0,0,0,.581-.6V-4.7h-.957q-1.719,0-1.719,1.543a.942.942,0,0,0,.3.728A1.1,1.1,0,0,0,57.8-2.148Zm11.191-.2a1.464,1.464,0,0,0,1.074-.376,1.379,1.379,0,0,0,.371-1.05h3.086A3.653,3.653,0,0,1,72.28-.918,4.631,4.631,0,0,1,69.072.2,4.689,4.689,0,0,1,65.439-1.25a5.7,5.7,0,0,1-1.328-4v-.137A6.436,6.436,0,0,1,64.7-8.218a4.3,4.3,0,0,1,1.7-1.885,5.081,5.081,0,0,1,2.637-.659,4.573,4.573,0,0,1,3.271,1.143,4.053,4.053,0,0,1,1.211,3.1H70.439a1.806,1.806,0,0,0-.4-1.26,1.382,1.382,0,0,0-1.074-.439q-1.279,0-1.494,1.631A11.508,11.508,0,0,0,67.4-5.166a4.52,4.52,0,0,0,.381,2.207A1.319,1.319,0,0,0,68.994-2.344Zm9.756-10.85v2.627h1.738v2.285H78.75v4.834a1.234,1.234,0,0,0,.215.83,1.152,1.152,0,0,0,.85.234,4.828,4.828,0,0,0,.82-.059V-.088A6.074,6.074,0,0,1,78.779.2a3.448,3.448,0,0,1-2.51-.8,3.282,3.282,0,0,1-.811-2.432V-8.281H74.111v-2.285h1.348v-2.627Zm2.324,7.813A6.236,6.236,0,0,1,81.689-8.2a4.4,4.4,0,0,1,1.768-1.9,5.323,5.323,0,0,1,2.705-.664,4.858,4.858,0,0,1,3.74,1.47,5.64,5.64,0,0,1,1.367,4v.117A5.472,5.472,0,0,1,89.9-1.255,4.871,4.871,0,0,1,86.182.2a4.927,4.927,0,0,1-3.623-1.353,5.29,5.29,0,0,1-1.475-3.667Zm3.291.205a3.932,3.932,0,0,0,.459,2.148,1.529,1.529,0,0,0,1.357.684q1.758,0,1.8-2.705v-.332q0-2.842-1.816-2.842-1.65,0-1.787,2.451ZM99.111-7.588l-1.084-.078a1.947,1.947,0,0,0-1.992.977V0H92.744V-10.566H95.83l.107,1.357a2.548,2.548,0,0,1,2.314-1.553,3.209,3.209,0,0,1,.918.117ZM103.77,0h-3.3V-10.566h3.3Zm-3.5-13.291a1.469,1.469,0,0,1,.508-1.152,1.916,1.916,0,0,1,1.318-.449,1.916,1.916,0,0,1,1.318.449,1.469,1.469,0,0,1,.508,1.152,1.469,1.469,0,0,1-.508,1.152,1.916,1.916,0,0,1-1.318.449,1.916,1.916,0,0,1-1.318-.449A1.469,1.469,0,0,1,100.273-13.291Zm5.107,7.91A6.236,6.236,0,0,1,106-8.2a4.4,4.4,0,0,1,1.768-1.9,5.323,5.323,0,0,1,2.705-.664,4.858,4.858,0,0,1,3.74,1.47,5.64,5.64,0,0,1,1.367,4v.117A5.472,5.472,0,0,1,114.2-1.255,4.871,4.871,0,0,1,110.488.2a4.927,4.927,0,0,1-3.623-1.353,5.29,5.29,0,0,1-1.475-3.667Zm3.291.205a3.932,3.932,0,0,0,.459,2.148,1.529,1.529,0,0,0,1.357.684q1.758,0,1.8-2.705v-.332q0-2.842-1.816-2.842-1.65,0-1.787,2.451Z" transform="translate(383.767 628.62)" fill="#12263f"/>
    <path id="Trazado_104196" data-name="Trazado 104196" d="M17.93,0H14.521L9.482-8.848V0H6.055V-14.219H9.482l5.029,8.848v-8.848H17.93Zm1.6-5.381A6.236,6.236,0,0,1,20.146-8.2a4.4,4.4,0,0,1,1.768-1.9,5.323,5.323,0,0,1,2.705-.664,4.858,4.858,0,0,1,3.74,1.47,5.64,5.64,0,0,1,1.367,4v.117a5.472,5.472,0,0,1-1.372,3.921A4.871,4.871,0,0,1,24.639.2a4.927,4.927,0,0,1-3.623-1.353,5.29,5.29,0,0,1-1.475-3.667Zm3.291.205a3.932,3.932,0,0,0,.459,2.148,1.529,1.529,0,0,0,1.357.684q1.758,0,1.8-2.705v-.332q0-2.842-1.816-2.842-1.65,0-1.787,2.451ZM41.689-2.969a.76.76,0,0,0-.439-.674,6.685,6.685,0,0,0-1.67-.527,7.615,7.615,0,0,1-2.031-.718,3.4,3.4,0,0,1-1.221-1.079,2.577,2.577,0,0,1-.42-1.455,2.92,2.92,0,0,1,1.2-2.4,4.948,4.948,0,0,1,3.145-.942,5.482,5.482,0,0,1,3.359.947,2.962,2.962,0,0,1,1.27,2.49h-3.3q0-1.27-1.338-1.27a1.326,1.326,0,0,0-.869.288.892.892,0,0,0-.352.718.819.819,0,0,0,.43.713,4.06,4.06,0,0,0,1.372.449,11.857,11.857,0,0,1,1.655.42,3.007,3.007,0,0,1,2.383,2.939A2.767,2.767,0,0,1,43.579-.713,5.632,5.632,0,0,1,40.254.2a5.747,5.747,0,0,1-2.422-.488,4.05,4.05,0,0,1-1.66-1.328,3.007,3.007,0,0,1-.6-1.768h3.076a1.272,1.272,0,0,0,.488,1.069,2.009,2.009,0,0,0,1.2.337,1.58,1.58,0,0,0,1.011-.273A.875.875,0,0,0,41.689-2.969ZM52.354,0a3.716,3.716,0,0,1-.312-.947A3.06,3.06,0,0,1,49.5.2a3.749,3.749,0,0,1-2.539-.9,2.875,2.875,0,0,1-1.045-2.271,2.955,2.955,0,0,1,1.27-2.6,6.468,6.468,0,0,1,3.691-.879h1.016v-.557q0-1.455-1.26-1.455a1.027,1.027,0,0,0-1.172,1.152H46.172a2.955,2.955,0,0,1,1.3-2.49,5.474,5.474,0,0,1,3.325-.957,4.8,4.8,0,0,1,3.193.986A3.429,3.429,0,0,1,55.2-7.07v4.678a4.79,4.79,0,0,0,.449,2.227V0ZM50.293-2.148a1.836,1.836,0,0,0,1.021-.264,1.653,1.653,0,0,0,.581-.6V-4.7h-.957q-1.719,0-1.719,1.543a.942.942,0,0,0,.3.728A1.1,1.1,0,0,0,50.293-2.148ZM60.85-13.193v2.627h1.738v2.285H60.85v4.834a1.234,1.234,0,0,0,.215.83,1.152,1.152,0,0,0,.85.234,4.828,4.828,0,0,0,.82-.059V-.088A6.074,6.074,0,0,1,60.879.2a3.448,3.448,0,0,1-2.51-.8,3.282,3.282,0,0,1-.811-2.432V-8.281H56.211v-2.285h1.348v-2.627ZM67.354,0h-3.3V-10.566h3.3Zm-3.5-13.291a1.469,1.469,0,0,1,.508-1.152,1.916,1.916,0,0,1,1.318-.449A1.916,1.916,0,0,1,67-14.443a1.469,1.469,0,0,1,.508,1.152A1.469,1.469,0,0,1,67-12.139a1.916,1.916,0,0,1-1.318.449,1.916,1.916,0,0,1-1.318-.449A1.469,1.469,0,0,1,63.857-13.291ZM74.912-2.969a.76.76,0,0,0-.439-.674A6.685,6.685,0,0,0,72.8-4.17a7.615,7.615,0,0,1-2.031-.718,3.4,3.4,0,0,1-1.221-1.079,2.577,2.577,0,0,1-.42-1.455,2.92,2.92,0,0,1,1.2-2.4,4.948,4.948,0,0,1,3.145-.942,5.482,5.482,0,0,1,3.359.947,2.962,2.962,0,0,1,1.27,2.49H74.8q0-1.27-1.338-1.27a1.326,1.326,0,0,0-.869.288.892.892,0,0,0-.352.718.819.819,0,0,0,.43.713,4.06,4.06,0,0,0,1.372.449,11.857,11.857,0,0,1,1.655.42,3.007,3.007,0,0,1,2.383,2.939A2.767,2.767,0,0,1,76.8-.713,5.631,5.631,0,0,1,73.477.2a5.747,5.747,0,0,1-2.422-.488,4.05,4.05,0,0,1-1.66-1.328,3.007,3.007,0,0,1-.6-1.768h3.076a1.272,1.272,0,0,0,.488,1.069,2.009,2.009,0,0,0,1.2.337,1.58,1.58,0,0,0,1.011-.273A.875.875,0,0,0,74.912-2.969ZM80.352,0V-8.281H78.818v-2.285h1.533v-.84a3.651,3.651,0,0,1,1.064-2.8,4.206,4.206,0,0,1,2.988-1A6.544,6.544,0,0,1,85.947-15l.01,2.422a3.007,3.007,0,0,0-.811-.088q-1.494,0-1.494,1.289v.811h2.061v2.285H83.652V0ZM92.822,0a3.716,3.716,0,0,1-.312-.947A3.06,3.06,0,0,1,89.971.2a3.749,3.749,0,0,1-2.539-.9,2.875,2.875,0,0,1-1.045-2.271,2.955,2.955,0,0,1,1.27-2.6,6.468,6.468,0,0,1,3.691-.879h1.016v-.557q0-1.455-1.26-1.455a1.027,1.027,0,0,0-1.172,1.152H86.641a2.955,2.955,0,0,1,1.3-2.49,5.474,5.474,0,0,1,3.325-.957,4.8,4.8,0,0,1,3.193.986,3.429,3.429,0,0,1,1.2,2.705v4.678a4.79,4.79,0,0,0,.449,2.227V0ZM90.762-2.148a1.836,1.836,0,0,0,1.021-.264,1.653,1.653,0,0,0,.581-.6V-4.7h-.957q-1.719,0-1.719,1.543a.942.942,0,0,0,.3.728A1.1,1.1,0,0,0,90.762-2.148Zm11.191-.2a1.464,1.464,0,0,0,1.074-.376,1.379,1.379,0,0,0,.371-1.05h3.086a3.653,3.653,0,0,1-1.245,2.852A4.631,4.631,0,0,1,102.031.2,4.689,4.689,0,0,1,98.4-1.25a5.7,5.7,0,0,1-1.328-4v-.137a6.436,6.436,0,0,1,.591-2.827,4.3,4.3,0,0,1,1.7-1.885A5.081,5.081,0,0,1,102-10.762a4.573,4.573,0,0,1,3.271,1.143,4.053,4.053,0,0,1,1.211,3.1H103.4a1.806,1.806,0,0,0-.4-1.26,1.382,1.382,0,0,0-1.074-.439q-1.279,0-1.494,1.631a11.508,11.508,0,0,0-.068,1.426,4.52,4.52,0,0,0,.381,2.207A1.319,1.319,0,0,0,101.953-2.344Zm9.756-10.85v2.627h1.738v2.285h-1.738v4.834a1.234,1.234,0,0,0,.215.83,1.152,1.152,0,0,0,.85.234,4.828,4.828,0,0,0,.82-.059V-.088A6.074,6.074,0,0,1,111.738.2a3.448,3.448,0,0,1-2.51-.8,3.282,3.282,0,0,1-.811-2.432V-8.281H107.07v-2.285h1.348v-2.627Zm2.324,7.813a6.236,6.236,0,0,1,.615-2.817,4.4,4.4,0,0,1,1.768-1.9,5.323,5.323,0,0,1,2.705-.664,4.858,4.858,0,0,1,3.74,1.47,5.64,5.64,0,0,1,1.367,4v.117a5.472,5.472,0,0,1-1.372,3.921A4.871,4.871,0,0,1,119.141.2a4.927,4.927,0,0,1-3.623-1.353,5.29,5.29,0,0,1-1.475-3.667Zm3.291.205a3.932,3.932,0,0,0,.459,2.148,1.529,1.529,0,0,0,1.357.684q1.758,0,1.8-2.705v-.332q0-2.842-1.816-2.842-1.65,0-1.787,2.451ZM132.07-7.588l-1.084-.078a1.947,1.947,0,0,0-1.992.977V0H125.7V-10.566h3.086l.107,1.357a2.548,2.548,0,0,1,2.314-1.553,3.209,3.209,0,0,1,.918.117ZM136.729,0h-3.3V-10.566h3.3Zm-3.5-13.291a1.469,1.469,0,0,1,.508-1.152,1.916,1.916,0,0,1,1.318-.449,1.916,1.916,0,0,1,1.318.449,1.469,1.469,0,0,1,.508,1.152,1.469,1.469,0,0,1-.508,1.152,1.916,1.916,0,0,1-1.318.449,1.916,1.916,0,0,1-1.318-.449A1.469,1.469,0,0,1,133.232-13.291Zm5.107,7.91a6.236,6.236,0,0,1,.615-2.817,4.4,4.4,0,0,1,1.768-1.9,5.323,5.323,0,0,1,2.705-.664,4.858,4.858,0,0,1,3.74,1.47,5.64,5.64,0,0,1,1.367,4v.117a5.472,5.472,0,0,1-1.372,3.921A4.871,4.871,0,0,1,143.447.2a4.927,4.927,0,0,1-3.623-1.353,5.29,5.29,0,0,1-1.475-3.667Zm3.291.205a3.932,3.932,0,0,0,.459,2.148,1.529,1.529,0,0,0,1.357.684q1.758,0,1.8-2.705v-.332q0-2.842-1.816-2.842-1.65,0-1.787,2.451Z" transform="translate(383.767 694.811)" fill="#12263f"/>
    <g id="estrella" transform="translate(383.766 513.183)">
      <path id="Trazado_103834" data-name="Trazado 103834" d="M25.106,20.735l-8.328-.772L13.469,12.28a.667.667,0,0,0-1.226,0L8.935,19.962l-8.328.772A.667.667,0,0,0,.228,21.9l6.284,5.52-1.839,8.16a.667.667,0,0,0,.992.721l7.192-4.27,7.192,4.27a.667.667,0,0,0,.992-.721L19.2,27.421l6.284-5.52A.667.667,0,0,0,25.106,20.735Z" transform="translate(0 -11.877)" fill="aqua"/>
      <path id="Trazado_103835" data-name="Trazado 103835" d="M13.469,12.28a.667.667,0,0,0-1.226,0L8.935,19.962l-8.328.772A.667.667,0,0,0,.228,21.9l6.284,5.52-1.839,8.16a.667.667,0,0,0,.992.721l1.605-.953A29.436,29.436,0,0,1,15.1,16.079Z" transform="translate(0 -11.877)" fill="#96f8f8"/>
    </g>
    <g id="estrella-2" data-name="estrella" transform="translate(411.395 513.183)">
      <path id="Trazado_103834-2" data-name="Trazado 103834" d="M25.106,20.735l-8.328-.772L13.469,12.28a.667.667,0,0,0-1.226,0L8.935,19.962l-8.328.772A.667.667,0,0,0,.228,21.9l6.284,5.52-1.839,8.16a.667.667,0,0,0,.992.721l7.192-4.27,7.192,4.27a.667.667,0,0,0,.992-.721L19.2,27.421l6.284-5.52A.667.667,0,0,0,25.106,20.735Z" transform="translate(0 -11.877)" fill="aqua"/>
      <path id="Trazado_103835-2" data-name="Trazado 103835" d="M13.469,12.28a.667.667,0,0,0-1.226,0L8.935,19.962l-8.328.772A.667.667,0,0,0,.228,21.9l6.284,5.52-1.839,8.16a.667.667,0,0,0,.992.721l1.605-.953A29.436,29.436,0,0,1,15.1,16.079Z" transform="translate(0 -11.877)" fill="#96f8f8"/>
    </g>
    <g id="estrella-3" data-name="estrella" transform="translate(439.023 513.183)">
      <path id="Trazado_103834-3" data-name="Trazado 103834" d="M25.106,20.735l-8.328-.772L13.469,12.28a.667.667,0,0,0-1.226,0L8.935,19.962l-8.328.772A.667.667,0,0,0,.228,21.9l6.284,5.52-1.839,8.16a.667.667,0,0,0,.992.721l7.192-4.27,7.192,4.27a.667.667,0,0,0,.992-.721L19.2,27.421l6.284-5.52A.667.667,0,0,0,25.106,20.735Z" transform="translate(0 -11.877)" fill="aqua"/>
      <path id="Trazado_103835-3" data-name="Trazado 103835" d="M13.469,12.28a.667.667,0,0,0-1.226,0L8.935,19.962l-8.328.772A.667.667,0,0,0,.228,21.9l6.284,5.52-1.839,8.16a.667.667,0,0,0,.992.721l1.605-.953A29.436,29.436,0,0,1,15.1,16.079Z" transform="translate(0 -11.877)" fill="#96f8f8"/>
    </g>
    <g id="estrella-4" data-name="estrella" transform="translate(466.652 513.183)">
      <path id="Trazado_103834-4" data-name="Trazado 103834" d="M25.106,20.735l-8.328-.772L13.469,12.28a.667.667,0,0,0-1.226,0L8.935,19.962l-8.328.772A.667.667,0,0,0,.228,21.9l6.284,5.52-1.839,8.16a.667.667,0,0,0,.992.721l7.192-4.27,7.192,4.27a.667.667,0,0,0,.992-.721L19.2,27.421l6.284-5.52A.667.667,0,0,0,25.106,20.735Z" transform="translate(0 -11.877)" fill="aqua"/>
      <path id="Trazado_103835-4" data-name="Trazado 103835" d="M13.469,12.28a.667.667,0,0,0-1.226,0L8.935,19.962l-8.328.772A.667.667,0,0,0,.228,21.9l6.284,5.52-1.839,8.16a.667.667,0,0,0,.992.721l1.605-.953A29.436,29.436,0,0,1,15.1,16.079Z" transform="translate(0 -11.877)" fill="#96f8f8"/>
    </g>
    <g id="estrella-5" data-name="estrella" transform="translate(494.28 513.183)">
      <path id="Trazado_103834-5" data-name="Trazado 103834" d="M25.106,20.735l-8.328-.772L13.469,12.28a.667.667,0,0,0-1.226,0L8.935,19.962l-8.328.772A.667.667,0,0,0,.228,21.9l6.284,5.52-1.839,8.16a.667.667,0,0,0,.992.721l7.192-4.27,7.192,4.27a.667.667,0,0,0,.992-.721L19.2,27.421l6.284-5.52A.667.667,0,0,0,25.106,20.735Z" transform="translate(0 -11.877)" fill="aqua"/>
      <path id="Trazado_103835-5" data-name="Trazado 103835" d="M13.469,12.28a.667.667,0,0,0-1.226,0L8.935,19.962l-8.328.772A.667.667,0,0,0,.228,21.9l6.284,5.52-1.839,8.16a.667.667,0,0,0,.992.721l1.605-.953A29.436,29.436,0,0,1,15.1,16.079Z" transform="translate(0 -11.877)" fill="#96f8f8"/>
    </g>
    <g id="Grupo_56606" data-name="Grupo 56606" transform="translate(228.874 453.139)">
      <g id="Grupo_53519" data-name="Grupo 53519" transform="translate(64.401 81.027)">
        <path id="Trazado_99044" data-name="Trazado 99044" d="M367.352,208.85h0a7.814,7.814,0,0,1,3.054,2.168,20.745,20.745,0,0,1,2.27,4.418,50.3,50.3,0,0,1,1.548,6.271c.209.535-.491,1.416-1.331,1.2s-1.559-3.17-1.756-3.82c-.335-1.1-.387-2.25-.791-1.822s-.307,2.851-.31,4.009a50.641,50.641,0,0,1-.362,6.386c-.219,1.389-.752,2.374-1.375,2.242s-.933-1.3-.864-2.16.346-6.238.285-6.438c-.115-.376-.483,7.994-.733,8.886s-2.072,1.476-2.217-.615.25-8.367.211-8.472c-.1-.255-.563,7.086-.708,7.912s-1.4,1.457-1.8.14.159-8.474.113-8.7c-.1-.519-.332,1.364-.439,2.772-.118,1.578-.3,3.161-.826,3.386-.845.359-1.372-.6-1.153-2.742s.124-7.017.14-8.137a26.167,26.167,0,0,1,1.078-4.759,6.31,6.31,0,0,0-.038-.895c-.088-.821.316-1.147,1.153-1.413l2.687-.848A1.711,1.711,0,0,1,367.352,208.85Z" transform="translate(-348.026 -120.713)" fill="#e8c0a8"/>
        <path id="Trazado_99045" data-name="Trazado 99045" d="M377.84,263.229c.28-1.542-.807-28.247-1.666-38.714-1.21-14.759-3.14-27.273-5.727-36.239-3.085-10.684-8.952-12.5-11.235-12.226-6.364.766-1.918,6.466-2.862,14.43-.54,4.553,9.273,29.482,9.3,32.671s2.16,36.65,2.184,40.284C368,264.434,377.69,264.058,377.84,263.229Z" transform="translate(-355.71 -176.025)" fill="#d7d7d7"/>
      </g>
      <g id="Grupo_53521" data-name="Grupo 53521" transform="translate(65.957 279.434)">
        <g id="Grupo_53520" data-name="Grupo 53520">
          <path id="Trazado_99046" data-name="Trazado 99046" d="M381.68,255.076s-8.121-3.913-9.553-6.754a6.164,6.164,0,0,0-5.76,4.487s-6.153,1.07-9.268-2.558l-.752,11.628,36.917-.019C392.248,259.184,391.439,256.286,381.68,255.076Z" transform="translate(-356.155 -248.322)" fill="#2d2a25"/>
          <path id="Trazado_99047" data-name="Trazado 99047" d="M357.1,249.022a5.89,5.89,0,0,0,2.135,1.655c.9,2.363,2.621,6.765,5.308,9.978l-8.2,0Z" transform="translate(-356.155 -247.101)" fill="#2d2a25"/>
          <path id="Trazado_99048" data-name="Trazado 99048" d="M356.469,253.274l-.192,2.681,37.3-.019a4.752,4.752,0,0,0-.195-2.681Z" transform="translate(-356.277 -239.717)" fill="#efeded"/>
        </g>
      </g>
      <g id="Grupo_53524" data-name="Grupo 53524" transform="translate(30.14 279.143)">
        <g id="Grupo_53522" data-name="Grupo 53522" transform="translate(0.281)">
          <path id="Trazado_99049" data-name="Trazado 99049" d="M360.417,260.181l-1.825-7.1a7.44,7.44,0,0,0-13.963,0l-1.3,7.928Z" transform="translate(-343.328 -248.216)" fill="#2d2a25"/>
        </g>
        <g id="Grupo_53523" data-name="Grupo 53523" transform="translate(0 7.558)">
          <path id="Trazado_99050" data-name="Trazado 99050" d="M361.29,253.32a3.432,3.432,0,0,1-.532,2.5H343.779a5.551,5.551,0,0,1-.552-2.541Z" transform="translate(-343.225 -246.942)" fill="#eae7e4"/>
          <path id="Trazado_99051" data-name="Trazado 99051" d="M343.231,257.208c.091-1.542,3.332-6.238,8.757-6.238,6.946,0,8.54,3.935,9.177,5.972a2.184,2.184,0,0,1,.124.458l-18.063-.014C343.226,257.326,343.229,257.268,343.231,257.208Z" transform="translate(-343.224 -250.97)" fill="#2d2a25"/>
        </g>
      </g>
      <path id="Trazado_99052" data-name="Trazado 99052" d="M397.659,204.32l.661,122.986s-9.622,4.833-18.694,1.059L376.16,225.995l-2.678-.126-13.1,102.508s-6.927,3.115-17.155-.656l10.382-123.4Z" transform="translate(-313.081 -45.642)" fill="#002141"/>
      <path id="Trazado_99053" data-name="Trazado 99053" d="M348.235,204.32h44.145v17.174a98.657,98.657,0,0,1-21.472,5.988l-.1-1.479-2.692-.132-.3,2.11a162.508,162.508,0,0,1-21.507,1.743Z" transform="translate(-307.707 -45.642)" fill="#071a29"/>
      <g id="Grupo_53525" data-name="Grupo 53525" transform="translate(0 181.077)">
        <path id="Rectángulo_5111" data-name="Rectángulo 5111" d="M0,0H58.2a0,0,0,0,1,0,0V30.711a2.238,2.238,0,0,1-2.238,2.238H2.238A2.238,2.238,0,0,1,0,30.711V0A0,0,0,0,1,0,0Z" transform="translate(0 20.433)" fill="#8cfcfc"/>
        <rect id="Rectángulo_5112" data-name="Rectángulo 5112" width="58.204" height="18.742" rx="2.521" transform="translate(0 9.524)" fill="#1d1d1b"/>
        <rect id="Rectángulo_5113" data-name="Rectángulo 5113" width="58.204" height="18.742" rx="2.521" transform="translate(0 8.385)" fill="aqua"/>
        <path id="Trazado_99054" data-name="Trazado 99054" d="M349.482,233.361a10.439,10.439,0,1,1,10.44-10.439A10.453,10.453,0,0,1,349.482,233.361Zm0-17.525a7.084,7.084,0,1,0,7.086,7.086A7.092,7.092,0,0,0,349.482,215.836Z" transform="translate(-320.381 -212.482)" fill="aqua"/>
        <rect id="Rectángulo_5114" data-name="Rectángulo 5114" width="7.793" height="5.415" rx="0.552" transform="translate(25.017 25.715)" fill="#5e448f"/>
        <path id="Trazado_99055" data-name="Trazado 99055" d="M365.856,225.333v14.122c0,1.446-1.04,3.356-3.878,3.356H345.716s14.586-.752,15.684-.925,3.011-.925,3.241-2.777S365.856,225.333,365.856,225.333Z" transform="translate(-308.741 -190.066)" fill="#454444"/>
      </g>
      <g id="Grupo_53526" data-name="Grupo 53526" transform="translate(52.87 65.539)">
        <path id="Trazado_99056" data-name="Trazado 99056" d="M362.452,175.583l.181,8.162-10.826.37-.233-10.618A17.465,17.465,0,0,0,362.452,175.583Z" transform="translate(-351.393 -164.946)" fill="#e8c0a8"/>
        <path id="Trazado_99057" data-name="Trazado 99057" d="M351.689,178.932l-.181-8.178,10.826-.373.233,10.637A17.465,17.465,0,0,1,351.689,178.932Z" transform="translate(-351.508 -170.381)" fill="#cf9f82"/>
      </g>
      <path id="Trazado_99058" data-name="Trazado 99058" d="M359.1,182.351c-6.411,0-7.947-4.44-8.167-5.829a33.924,33.924,0,0,1,14.66-.659C365.725,177.475,365.4,182.351,359.1,182.351Z" transform="translate(-299.636 -96.167)" fill="#e8c0a8"/>
      <path id="Trazado_99059" data-name="Trazado 99059" d="M351.817,178.3a28.422,28.422,0,0,1,5.675-2.223c.406-.088,4.331-.321,4.729-.4.277,1.389,4.6,4.877,7.58,4.931,4.841.091,4.635-3.408,4.476-5.022.582.08,1.153-.3,1.7-.016,2.278,1.18,8.51,7.665,12.185,21.672,2.906,11.079,8.944,36.554,7.061,66.094,0,0-19.048,6.85-49.623,1.018,0,0,1.767-65.243,2.319-72.222S348.633,180.326,351.817,178.3Z" transform="translate(-308.942 -95.988)" fill="#e9e9e9"/>
      <path id="Trazado_99060" data-name="Trazado 99060" d="M353.78,182.374l2.978,1.836,7.171,58.926,4.408,7.747s3.943-6.982,3.7-8.878-10.843-54.672-12.687-58.177c.7-1.273,1.386-2.7,1.386-2.7s-3.17-4.418-4.169-4.344S353.78,182.374,353.78,182.374Z" transform="translate(-294.675 -93.676)" fill="#5e448f"/>
      <g id="Grupo_53527" data-name="Grupo 53527" transform="translate(23.73 82.343)">
        <path id="Trazado_99061" data-name="Trazado 99061" d="M348.761,210.2h0a7.93,7.93,0,0,1,2.942,2.423,21.006,21.006,0,0,1,1.981,4.646,50.775,50.775,0,0,1,1.117,6.471c.173.557-.6,1.4-1.438,1.122s-1.353-3.329-1.5-4c-.258-1.142-.231-2.311-.672-1.907s-.365,2.385-.541,3.644c-.044.316-.121.875-.159,1.1-.228,1.284-.5,1.161-1.388,1.035-.639-.093-1.07-.23-.958-1.1a2.7,2.7,0,0,0,.091-.763,6.008,6.008,0,0,1-.327,1.051c-.381.862-2.344.925-2.39-.384-.049-.634-.038-1.18-.044-1.068-.016.31-.11.634-.217,1.282-.143.843-2.174,1.246-2.223-.154-.03-.911.085-1.726.055-1.959a13.4,13.4,0,0,0-.222,1.693c-.123.752-.145,1.147-.659,1.191s-1.117.074-1.117-.324a36.123,36.123,0,0,1,.027-7.514,26.869,26.869,0,0,1,1.438-4.748,6.154,6.154,0,0,0,.027-.908c-.03-.843.4-1.144,1.271-1.353l2.785-.667A1.742,1.742,0,0,1,348.761,210.2Z" transform="translate(-340.89 -119.903)" fill="#e8c0a8"/>
        <path id="Trazado_99062" data-name="Trazado 99062" d="M351.287,269.229c.4-1.545,5.749-40.361,6.3-43.917s6.573-24.408,9.213-33.522c1.9-6.545.247-14.125-5.511-15.143-6.416-1.136-11.186,4.665-12.717,12.673-.878,4.58-6.575,31.977-6.778,35.212s-.428,40.5-.664,44.181C341.221,269.739,351.076,270.06,351.287,269.229Z" transform="translate(-340.475 -176.504)" fill="#fff"/>
      </g>
      <path id="Trazado_99063" data-name="Trazado 99063" d="M355.161,175.183a34.541,34.541,0,0,0-5.642,1.636s5.03,7.316,10.67,11.57a48.718,48.718,0,0,0,4.048-9S358.515,178.413,355.161,175.183Z" transform="translate(-302.108 -96.466)" fill="#fff"/>
      <path id="Trazado_99064" data-name="Trazado 99064" d="M354.768,179.695l4.9,6.194s2.341-5.447.321-9.794a24.325,24.325,0,0,0-3.024-.941S356.662,178.367,354.768,179.695Z" transform="translate(-292.952 -96.518)" fill="#fff"/>
      <g id="Grupo_53529" data-name="Grupo 53529" transform="translate(17.98)">
        <path id="Trazado_99065" data-name="Trazado 99065" d="M366.56,209.571s28.25,4.446,32.029-3.584c.574-1.208-.181-9.248-1.026-14.97-1.249-8.447-4.2-18.958-8.776-24.877-7.566-9.778-26.647-19.814-35.7-11.724S326.333,186.986,366.56,209.571Z" transform="translate(-334.401 -137.85)" fill="#e8c0a8"/>
        <path id="Trazado_99066" data-name="Trazado 99066" d="M359.537,161.866l-.063-.008-.019-1.619c4.237,2.061,8.614,2.972,12.764,4.149-3.867,8.938-12.778,6-14.416-2.259a4.64,4.64,0,0,1,1.734-.263C360,161.927,359.916,161.877,359.537,161.866Z" transform="translate(-305.638 -122.533)" fill="#e8c0a8"/>
        <path id="Trazado_99067" data-name="Trazado 99067" d="M354.19,152.986l1.5.565A2.677,2.677,0,0,1,354.19,152.986Z" transform="translate(-311.94 -135.185)" fill="#d0904b"/>
        <path id="Trazado_99068" data-name="Trazado 99068" d="M369.293,192.088c1.227,5.7,4.4,17.015,1.282,20.426-7.006-2.495-15.9-6.883-21.647-11.737-5.593-4.726-13.752-16.145-8.376-27.654,4.558-12.163,7.215-15.157,11.729-17.385,3.644-1.8,11.169-4.756,16.485-4.462a28.509,28.509,0,0,1,7.374,1.391c1.334.453,3.636,2.475,5.277,3.48l-.741-.277c-2.045,3.68-11.836,1.97-12.443,6.246-.708,4.956,7.283,15.577,7.229,20.549C375.419,186.913,369.724,186.55,369.293,192.088Z" transform="translate(-338.795 -138.205)" fill="#002141"/>
        <path id="Trazado_99069" data-name="Trazado 99069" d="M350.294,171.8c2.585,3.06,7.961,5.2,9.973,3.5s1.551-5.557-1.032-8.617-7.067-6.4-9.613-3.993C347.712,164.493,347.712,168.733,350.294,171.8Z" transform="translate(-322.277 -119.707)" fill="#e8c0a8"/>
        <path id="Trazado_99070" data-name="Trazado 99070" d="M346.534,162.221c-2.516.873-2.165,1.71.318,3.642,1.66,1.29,8.488,6.987,10.261,5.706l1.092.818a48.688,48.688,0,0,0,10.266-2.829c1.734-.637,5.236-1.655,6.792-2.851,3.749-2.884,5.541-15.826.961-17.232s-5.812,3.751-5.812,3.751,3-6.232-2.443-6.7-5.431,7.141-5.431,7.141.236-1.432-.886-1.419-.167,1.693-1.723,3.1C354.951,159.836,350.428,160.87,346.534,162.221Z" transform="translate(-328.302 -146.499)" fill="#002141"/>
        <g id="Grupo_53528" data-name="Grupo 53528" transform="translate(46.625 31.115)">
          <path id="Trazado_99071" data-name="Trazado 99071" d="M362.1,157.89c.916,1.49,4.1,6.916-.192,9.276s-6.081-5.135-6.081-5.135S360.155,159,362.1,157.89Z" transform="translate(-355.709 -157.745)" fill="url(#linear-gradient)"/>
          <path id="Trazado_99072" data-name="Trazado 99072" d="M360.981,158.07c-4.871,2.009-7.278,5.922-2.92,3.793S363.525,157.022,360.981,158.07Z" transform="translate(-355.784 -157.837)" fill="url(#linear-gradient-2)"/>
          <path id="Trazado_99073" data-name="Trazado 99073" d="M357.445,162.978c.165-3.112,3.392-3.375,4.262-1.164" transform="translate(-352.887 -153.431)" fill="none" stroke="#4b2b19" stroke-miterlimit="10" stroke-width="0.309"/>
        </g>
        <path id="Trazado_99074" data-name="Trazado 99074" d="M356.831,166.851c-.623,1.213,1.043,6.556,9.306,3.9" transform="translate(-307.539 -111)" fill="none" stroke="#a56052" stroke-miterlimit="10" stroke-width="0.229"/>
      </g>
    </g>
    <g id="estrella-6" data-name="estrella" transform="translate(383.766 582.1)">
      <path id="Trazado_103834-6" data-name="Trazado 103834" d="M25.106,20.735l-8.328-.772L13.469,12.28a.667.667,0,0,0-1.226,0L8.935,19.962l-8.328.772A.667.667,0,0,0,.228,21.9l6.284,5.52-1.839,8.16a.667.667,0,0,0,.992.721l7.192-4.27,7.192,4.27a.667.667,0,0,0,.992-.721L19.2,27.421l6.284-5.52A.667.667,0,0,0,25.106,20.735Z" transform="translate(0 -11.877)" fill="aqua"/>
      <path id="Trazado_103835-6" data-name="Trazado 103835" d="M13.469,12.28a.667.667,0,0,0-1.226,0L8.935,19.962l-8.328.772A.667.667,0,0,0,.228,21.9l6.284,5.52-1.839,8.16a.667.667,0,0,0,.992.721l1.605-.953A29.436,29.436,0,0,1,15.1,16.079Z" transform="translate(0 -11.877)" fill="#96f8f8"/>
    </g>
    <g id="estrella-7" data-name="estrella" transform="translate(411.395 582.1)">
      <path id="Trazado_103834-7" data-name="Trazado 103834" d="M25.106,20.735l-8.328-.772L13.469,12.28a.667.667,0,0,0-1.226,0L8.935,19.962l-8.328.772A.667.667,0,0,0,.228,21.9l6.284,5.52-1.839,8.16a.667.667,0,0,0,.992.721l7.192-4.27,7.192,4.27a.667.667,0,0,0,.992-.721L19.2,27.421l6.284-5.52A.667.667,0,0,0,25.106,20.735Z" transform="translate(0 -11.877)" fill="aqua"/>
      <path id="Trazado_103835-7" data-name="Trazado 103835" d="M13.469,12.28a.667.667,0,0,0-1.226,0L8.935,19.962l-8.328.772A.667.667,0,0,0,.228,21.9l6.284,5.52-1.839,8.16a.667.667,0,0,0,.992.721l1.605-.953A29.436,29.436,0,0,1,15.1,16.079Z" transform="translate(0 -11.877)" fill="#96f8f8"/>
    </g>
    <g id="estrella-8" data-name="estrella" transform="translate(439.023 582.1)">
      <path id="Trazado_103834-8" data-name="Trazado 103834" d="M25.106,20.735l-8.328-.772L13.469,12.28a.667.667,0,0,0-1.226,0L8.935,19.962l-8.328.772A.667.667,0,0,0,.228,21.9l6.284,5.52-1.839,8.16a.667.667,0,0,0,.992.721l7.192-4.27,7.192,4.27a.667.667,0,0,0,.992-.721L19.2,27.421l6.284-5.52A.667.667,0,0,0,25.106,20.735Z" transform="translate(0 -11.877)" fill="aqua"/>
      <path id="Trazado_103835-8" data-name="Trazado 103835" d="M13.469,12.28a.667.667,0,0,0-1.226,0L8.935,19.962l-8.328.772A.667.667,0,0,0,.228,21.9l6.284,5.52-1.839,8.16a.667.667,0,0,0,.992.721l1.605-.953A29.436,29.436,0,0,1,15.1,16.079Z" transform="translate(0 -11.877)" fill="#96f8f8"/>
    </g>
    <g id="estrella-9" data-name="estrella" transform="translate(383.766 649.72)">
      <path id="Trazado_103834-9" data-name="Trazado 103834" d="M25.106,20.735l-8.328-.772L13.469,12.28a.667.667,0,0,0-1.226,0L8.935,19.962l-8.328.772A.667.667,0,0,0,.228,21.9l6.284,5.52-1.839,8.16a.667.667,0,0,0,.992.721l7.192-4.27,7.192,4.27a.667.667,0,0,0,.992-.721L19.2,27.421l6.284-5.52A.667.667,0,0,0,25.106,20.735Z" transform="translate(0 -11.877)" fill="aqua"/>
      <path id="Trazado_103835-9" data-name="Trazado 103835" d="M13.469,12.28a.667.667,0,0,0-1.226,0L8.935,19.962l-8.328.772A.667.667,0,0,0,.228,21.9l6.284,5.52-1.839,8.16a.667.667,0,0,0,.992.721l1.605-.953A29.436,29.436,0,0,1,15.1,16.079Z" transform="translate(0 -11.877)" fill="#96f8f8"/>
    </g>
  </g>
</svg>
