<svg xmlns="http://www.w3.org/2000/svg" xmlns:xlink="http://www.w3.org/1999/xlink" width="148.126" height="295.672" viewBox="0 0 148.126 295.672">
  <defs>
    <linearGradient id="linear-gradient" x1="4701.237" y1="-961.62" x2="4701.101" y2="-960.885" gradientUnits="objectBoundingBox">
      <stop offset="0" stop-color="#c9926a"/>
      <stop offset="1" stop-color="#c9926a" stop-opacity="0"/>
    </linearGradient>
    <linearGradient id="linear-gradient-2" x1="6060.047" y1="-1422.317" x2="6058.938" y2="-1422.317" gradientUnits="objectBoundingBox">
      <stop offset="0" stop-color="#502f26"/>
      <stop offset="1" stop-color="#3b221d"/>
    </linearGradient>
  </defs>
  <g id="Grupo_56609" data-name="Grupo 56609" transform="translate(-1134.874 -1095.328)">
    <g id="Grupo_56608" data-name="Grupo 56608" transform="translate(391 -5222)">
      <circle id="Elipse_1422" data-name="Elipse 1422" cx="45" cy="45" r="45" transform="translate(802 6397)" fill="#5e448f"/>
      <g id="porcentaje" transform="translate(816.461 6411.461)">
        <path id="Trazado_103780" data-name="Trazado 103780" d="M30.465,0A30.465,30.465,0,1,0,60.93,30.465,30.465,30.465,0,0,0,30.465,0Zm0,49.506A19.041,19.041,0,1,1,49.506,30.465,19.041,19.041,0,0,1,30.465,49.506Z" fill="#d8ffff"/>
        <path id="Trazado_103781" data-name="Trazado 103781" d="M120.1,30.465A21.224,21.224,0,1,0,98.875,51.689,21.224,21.224,0,0,0,120.1,30.465Zm-40.265,0A19.041,19.041,0,1,1,98.875,49.506,19.041,19.041,0,0,1,79.835,30.465Zm49.506,0A30.465,30.465,0,0,1,98.875,60.93c-.439,0-.875-.011-1.309-.03a30.463,30.463,0,0,0,0-60.871C98,.011,98.437,0,98.875,0A30.465,30.465,0,0,1,129.34,30.465Z" transform="translate(-68.41)" fill="#a397e3"/>
        <g id="Grupo_56573" data-name="Grupo 56573" transform="translate(22.438)">
          <path id="Trazado_103782" data-name="Trazado 103782" d="M204.077,189.529l-12.485,12.128a1.785,1.785,0,0,1-2.524-2.524L201.553,187a1.785,1.785,0,1,1,2.524,2.524Zm-12.265,1.231a2.38,2.38,0,1,0-2.38-2.38A2.383,2.383,0,0,0,191.813,190.76Zm9.52,7.14a2.38,2.38,0,1,0,2.38,2.38A2.383,2.383,0,0,0,201.333,197.9Z" transform="translate(-188.546 -163.865)" fill="aqua"/>
          <path id="Trazado_103783" data-name="Trazado 103783" d="M286.465,30.465h-13.22a.6.6,0,0,1-.594-.576,16.661,16.661,0,0,0-16.075-16.074.6.6,0,0,1-.576-.594V0A30.465,30.465,0,0,1,286.465,30.465Z" transform="translate(-247.973)" fill="#d8ffff"/>
        </g>
        <path id="Trazado_103784" data-name="Trazado 103784" d="M283.847,31.3h-8.806A19.041,19.041,0,0,0,256,12.262V.951A30.467,30.467,0,0,1,283.847,31.3Zm2.611-.6c0,.2.008.4.008.6h0c0-.2,0-.4-.008-.6Z" transform="translate(-225.535 -0.838)" fill="aqua"/>
      </g>
    </g>
    <g id="Grupo_56607" data-name="Grupo 56607" transform="translate(1134.874 1095.328)">
      <g id="Grupo_53519" data-name="Grupo 53519" transform="translate(12.723 81.027)">
        <path id="Trazado_99044" data-name="Trazado 99044" d="M367.024,208.85h0a7.814,7.814,0,0,0-3.054,2.168,20.745,20.745,0,0,0-2.27,4.418,50.3,50.3,0,0,0-1.548,6.271c-.209.535.491,1.416,1.331,1.2s1.559-3.17,1.756-3.82c.335-1.1.387-2.25.791-1.822s.307,2.851.31,4.009a50.641,50.641,0,0,0,.362,6.386c.219,1.389.752,2.374,1.375,2.242s.933-1.3.864-2.16-.346-6.238-.285-6.438c.115-.376.483,7.994.733,8.886s2.072,1.476,2.217-.615-.25-8.367-.211-8.472c.1-.255.563,7.086.708,7.912s1.4,1.457,1.8.14-.159-8.474-.113-8.7c.1-.519.332,1.364.439,2.772.118,1.578.3,3.161.826,3.386.845.359,1.372-.6,1.153-2.742s-.124-7.017-.14-8.137a26.167,26.167,0,0,0-1.078-4.759,6.31,6.31,0,0,1,.038-.895c.088-.821-.316-1.147-1.153-1.413l-2.687-.848A1.711,1.711,0,0,0,367.024,208.85Z" transform="translate(-360.115 -120.713)" fill="#e8c0a8"/>
        <path id="Trazado_99045" data-name="Trazado 99045" d="M355.755,263.229c-.28-1.542.807-28.247,1.666-38.714,1.21-14.759,3.14-27.273,5.727-36.239,3.085-10.684,8.952-12.5,11.235-12.226,6.364.766,1.918,6.466,2.862,14.43.54,4.553-9.273,29.482-9.3,32.671s-2.16,36.65-2.184,40.284C365.6,264.434,355.906,264.058,355.755,263.229Z" transform="translate(-351.65 -176.025)" fill="#d7d7d7"/>
      </g>
      <g id="Grupo_53521" data-name="Grupo 53521" transform="translate(0 279.434)">
        <g id="Grupo_53520" data-name="Grupo 53520">
          <path id="Trazado_99046" data-name="Trazado 99046" d="M367.931,255.076s8.121-3.913,9.553-6.754a6.164,6.164,0,0,1,5.76,4.487s6.153,1.07,9.268-2.558l.752,11.628-36.917-.019C357.362,259.184,358.172,256.286,367.931,255.076Z" transform="translate(-356.055 -248.322)" fill="#2d2a25"/>
          <path id="Trazado_99047" data-name="Trazado 99047" d="M363.79,249.022a5.89,5.89,0,0,1-2.135,1.655c-.9,2.363-2.621,6.765-5.308,9.978l8.2,0Z" transform="translate(-327.335 -247.101)" fill="#2d2a25"/>
          <path id="Trazado_99048" data-name="Trazado 99048" d="M393.486,253.274l.192,2.681-37.3-.019a4.752,4.752,0,0,1,.195-2.681Z" transform="translate(-356.277 -239.717)" fill="#efeded"/>
        </g>
      </g>
      <g id="Grupo_53524" data-name="Grupo 53524" transform="translate(55.103 279.143)">
        <g id="Grupo_53522" data-name="Grupo 53522" transform="translate(0.745)">
          <path id="Trazado_99049" data-name="Trazado 99049" d="M343.328,260.181l1.825-7.1a7.44,7.44,0,0,1,13.963,0l1.3,7.928Z" transform="translate(-343.328 -248.216)" fill="#2d2a25"/>
        </g>
        <g id="Grupo_53523" data-name="Grupo 53523" transform="translate(0 7.558)">
          <path id="Trazado_99050" data-name="Trazado 99050" d="M343.276,253.32a3.432,3.432,0,0,0,.532,2.5h16.979a5.551,5.551,0,0,0,.552-2.541Z" transform="translate(-343.225 -246.942)" fill="#eae7e4"/>
          <path id="Trazado_99051" data-name="Trazado 99051" d="M361.284,257.208c-.091-1.542-3.332-6.238-8.757-6.238-6.946,0-8.54,3.935-9.177,5.972a2.184,2.184,0,0,0-.124.458l18.063-.014C361.289,257.326,361.286,257.268,361.284,257.208Z" transform="translate(-343.175 -250.97)" fill="#2d2a25"/>
        </g>
      </g>
      <path id="Trazado_99052" data-name="Trazado 99052" d="M343.889,204.32l-.661,122.986s9.622,4.833,18.694,1.059l3.466-102.371,2.678-.126,13.1,102.508s6.927,3.115,17.155-.656l-10.382-123.4Z" transform="translate(-325.109 -45.642)" fill="#002141"/>
      <path id="Trazado_99053" data-name="Trazado 99053" d="M390.454,204.32H346.309v17.174a98.658,98.658,0,0,0,21.472,5.988l.1-1.479,2.692-.132.3,2.11a162.509,162.509,0,0,0,21.507,1.743Z" transform="translate(-327.624 -45.642)" fill="#071a29"/>
      <g id="Grupo_53525" data-name="Grupo 53525" transform="translate(45.154 181.077)">
        <path id="Rectángulo_5111" data-name="Rectángulo 5111" d="M0,0H58.2a0,0,0,0,1,0,0V30.711a2.238,2.238,0,0,1-2.238,2.238H2.238A2.238,2.238,0,0,1,0,30.711V0A0,0,0,0,1,0,0Z" transform="translate(0 20.433)" fill="#8cfcfc"/>
        <rect id="Rectángulo_5112" data-name="Rectángulo 5112" width="58.204" height="18.742" rx="2.521" transform="translate(0 9.524)" fill="#1d1d1b"/>
        <rect id="Rectángulo_5113" data-name="Rectángulo 5113" width="58.204" height="18.742" rx="2.521" transform="translate(0 8.385)" fill="aqua"/>
        <path id="Trazado_99054" data-name="Trazado 99054" d="M349.482,233.361a10.439,10.439,0,1,0-10.44-10.439A10.453,10.453,0,0,0,349.482,233.361Zm0-17.525a7.084,7.084,0,1,1-7.086,7.086A7.092,7.092,0,0,1,349.482,215.836Z" transform="translate(-320.379 -212.482)" fill="aqua"/>
        <rect id="Rectángulo_5114" data-name="Rectángulo 5114" width="7.793" height="5.415" rx="0.552" transform="translate(25.394 25.715)" fill="#5e448f"/>
        <path id="Trazado_99055" data-name="Trazado 99055" d="M345.716,225.333v14.122c0,1.446,1.04,3.356,3.878,3.356h16.263s-14.586-.752-15.684-.925-3.011-.925-3.241-2.777S345.716,225.333,345.716,225.333Z" transform="translate(-344.627 -190.066)" fill="#454444"/>
      </g>
      <g id="Grupo_53526" data-name="Grupo 53526" transform="translate(39.248 65.539)">
        <path id="Trazado_99056" data-name="Trazado 99056" d="M351.755,175.583l-.181,8.162,10.826.37.233-10.618A17.465,17.465,0,0,1,351.755,175.583Z" transform="translate(-351.574 -164.946)" fill="#e8c0a8"/>
        <path id="Trazado_99057" data-name="Trazado 99057" d="M362.386,178.932l.181-8.178-10.826-.373-.233,10.637A17.465,17.465,0,0,0,362.386,178.932Z" transform="translate(-351.327 -170.381)" fill="#cf9f82"/>
      </g>
      <path id="Trazado_99058" data-name="Trazado 99058" d="M357.449,182.351c6.411,0,7.947-4.44,8.167-5.829a33.924,33.924,0,0,0-14.66-.659C350.827,177.475,351.156,182.351,357.449,182.351Z" transform="translate(-313.557 -96.167)" fill="#e8c0a8"/>
      <path id="Trazado_99059" data-name="Trazado 99059" d="M389.365,178.3a28.422,28.422,0,0,0-5.675-2.223c-.406-.088-4.331-.321-4.729-.4-.277,1.389-4.6,4.877-7.58,4.931-4.841.091-4.635-3.408-4.476-5.022-.582.08-1.153-.3-1.7-.016-2.278,1.18-8.51,7.665-12.185,21.672-2.906,11.079-8.944,36.554-7.061,66.094,0,0,19.048,6.85,49.623,1.018,0,0-1.767-65.243-2.319-72.222S392.548,180.326,389.365,178.3Z" transform="translate(-328.881 -95.988)" fill="#e9e9e9"/>
      <path id="Trazado_99060" data-name="Trazado 99060" d="M372.051,182.374l-2.978,1.836L361.9,243.136l-4.408,7.747s-3.943-6.982-3.7-8.878,10.843-54.672,12.687-58.177c-.7-1.273-1.386-2.7-1.386-2.7s3.17-4.418,4.169-4.344S372.051,182.374,372.051,182.374Z" transform="translate(-327.797 -93.676)" fill="#5e448f"/>
      <g id="Grupo_53527" data-name="Grupo 53527" transform="translate(52.554 82.343)">
        <path id="Trazado_99061" data-name="Trazado 99061" d="M346.954,210.2h0a7.93,7.93,0,0,0-2.942,2.423,21.006,21.006,0,0,0-1.981,4.646,50.775,50.775,0,0,0-1.117,6.471c-.173.557.6,1.4,1.438,1.122s1.353-3.329,1.5-4c.258-1.142.231-2.311.672-1.907s.365,2.385.541,3.644c.044.316.121.875.159,1.1.228,1.284.5,1.161,1.389,1.035.639-.093,1.07-.23.958-1.1a2.7,2.7,0,0,1-.091-.763,6.008,6.008,0,0,0,.327,1.051c.381.862,2.344.925,2.39-.384.049-.634.038-1.18.044-1.068.016.31.11.634.217,1.282.143.843,2.174,1.246,2.223-.154.03-.911-.085-1.726-.055-1.959a13.4,13.4,0,0,1,.222,1.693c.123.752.145,1.147.659,1.191s1.117.074,1.117-.324a36.123,36.123,0,0,0-.027-7.514,26.869,26.869,0,0,0-1.438-4.748,6.154,6.154,0,0,1-.027-.908c.03-.843-.4-1.144-1.271-1.353l-2.785-.667A1.742,1.742,0,0,0,346.954,210.2Z" transform="translate(-327.751 -119.903)" fill="#e8c0a8"/>
        <path id="Trazado_99062" data-name="Trazado 99062" d="M357.389,269.229c-.4-1.545-5.749-40.361-6.3-43.917s-6.573-24.408-9.213-33.522c-1.9-6.545-.247-14.125,5.511-15.143,6.416-1.136,11.186,4.665,12.717,12.673.878,4.58,6.575,31.977,6.778,35.212s.428,40.5.664,44.181C367.455,269.739,357.6,270.06,357.389,269.229Z" transform="translate(-341.128 -176.504)" fill="#fff"/>
      </g>
      <path id="Trazado_99063" data-name="Trazado 99063" d="M358.594,175.183a34.541,34.541,0,0,1,5.642,1.636s-5.03,7.316-10.67,11.57a48.718,48.718,0,0,1-4.048-9S355.241,178.413,358.594,175.183Z" transform="translate(-308.29 -96.466)" fill="#fff"/>
      <path id="Trazado_99064" data-name="Trazado 99064" d="M360.809,179.695l-4.9,6.194s-2.341-5.447-.321-9.794a24.325,24.325,0,0,1,3.024-.941S358.915,178.367,360.809,179.695Z" transform="translate(-319.267 -96.518)" fill="#fff"/>
      <g id="Grupo_53529" data-name="Grupo 53529" transform="translate(18.797)">
        <path id="Trazado_99065" data-name="Trazado 99065" d="M373.543,209.571s-28.25,4.446-32.029-3.584c-.574-1.208.181-9.248,1.026-14.97,1.249-8.447,4.2-18.958,8.776-24.877,7.566-9.778,26.647-19.814,35.7-11.724S413.769,186.986,373.543,209.571Z" transform="translate(-339.121 -137.85)" fill="#e8c0a8"/>
        <path id="Trazado_99066" data-name="Trazado 99066" d="M370.485,161.866l.063-.008.019-1.619c-4.237,2.061-8.614,2.972-12.764,4.149,3.867,8.938,12.778,6,14.416-2.259a4.64,4.64,0,0,0-1.734-.263C370.021,161.927,370.106,161.877,370.485,161.866Z" transform="translate(-357.803 -122.533)" fill="#e8c0a8"/>
        <path id="Trazado_99067" data-name="Trazado 99067" d="M355.686,152.986l-1.5.565A2.677,2.677,0,0,0,355.686,152.986Z" transform="translate(-331.354 -135.185)" fill="#d0904b"/>
        <path id="Trazado_99068" data-name="Trazado 99068" d="M350.919,192.088c-1.227,5.7-4.4,17.015-1.282,20.426,7.006-2.495,15.9-6.883,21.647-11.737,5.593-4.726,13.752-16.145,8.376-27.654-4.558-12.163-7.215-15.157-11.729-17.385-3.644-1.8-11.169-4.756-16.485-4.462a28.509,28.509,0,0,0-7.374,1.391c-1.334.453-3.636,2.475-5.277,3.48l.741-.277c2.045,3.68,11.836,1.97,12.443,6.246.708,4.956-7.283,15.577-7.229,20.549C344.794,186.913,350.488,186.55,350.919,192.088Z" transform="translate(-314.837 -138.205)" fill="#002141"/>
        <path id="Trazado_99069" data-name="Trazado 99069" d="M359.489,171.8c-2.585,3.06-7.961,5.2-9.973,3.5s-1.551-5.557,1.032-8.617,7.067-6.4,9.613-3.993C362.071,164.493,362.071,168.733,359.489,171.8Z" transform="translate(-320.926 -119.707)" fill="#e8c0a8"/>
        <path id="Trazado_99070" data-name="Trazado 99070" d="M377.227,162.221c2.516.873,2.165,1.71-.318,3.642-1.66,1.29-8.488,6.987-10.261,5.706l-1.092.818a48.689,48.689,0,0,1-10.267-2.829c-1.734-.637-5.236-1.655-6.792-2.851-3.749-2.884-5.541-15.826-.961-17.232s5.812,3.751,5.812,3.751-3-6.232,2.443-6.7,5.431,7.141,5.431,7.141-.236-1.432.886-1.419.167,1.693,1.723,3.1C368.81,159.836,373.332,160.87,377.227,162.221Z" transform="translate(-328.877 -146.499)" fill="#002141"/>
        <g id="Grupo_53528" data-name="Grupo 53528" transform="translate(11.137 31.115)">
          <path id="Trazado_99071" data-name="Trazado 99071" d="M357.824,157.89c-.916,1.49-4.1,6.916.192,9.276s6.081-5.135,6.081-5.135S359.77,159,357.824,157.89Z" transform="translate(-355.395 -157.745)" fill="url(#linear-gradient)"/>
          <path id="Trazado_99072" data-name="Trazado 99072" d="M357.131,158.07c4.871,2.009,7.278,5.922,2.92,3.793S354.587,157.022,357.131,158.07Z" transform="translate(-353.509 -157.837)" fill="url(#linear-gradient-2)"/>
          <path id="Trazado_99073" data-name="Trazado 99073" d="M361.707,162.978c-.165-3.112-3.392-3.375-4.262-1.164" transform="translate(-357.445 -153.431)" fill="none" stroke="#4b2b19" stroke-miterlimit="10" stroke-width="0.309"/>
        </g>
        <path id="Trazado_99074" data-name="Trazado 99074" d="M366.019,166.851c.623,1.213-1.043,6.556-9.306,3.9" transform="translate(-348.73 -111)" fill="none" stroke="#a56052" stroke-miterlimit="10" stroke-width="0.229"/>
      </g>
    </g>
  </g>
</svg>
