<svg xmlns="http://www.w3.org/2000/svg" width="528" height="273" viewBox="0 0 528 273">
  <g id="Grupo_56737" data-name="Grupo 56737" transform="translate(-180 -2725)">
    <path id="Trazado_104197" data-name="Trazado 104197" d="M0,0H528V273H0Z" transform="translate(180 2725)" fill="#f6f6f6"/>
    <path id="Trazado_104199" data-name="Trazado 104199" d="M4.072-14.219l4.648,11.6,4.648-11.6H15.8V0H13.926V-5.537l.176-5.977L9.434,0H8L3.34-11.484l.186,5.947V0H1.65V-14.219ZM25.352,0A3.8,3.8,0,0,1,25.1-1.113,4.031,4.031,0,0,1,22.09.2a3.73,3.73,0,0,1-2.563-.884,2.859,2.859,0,0,1-1-2.241A2.987,2.987,0,0,1,19.78-5.493a5.916,5.916,0,0,1,3.53-.913h1.758v-.83A2.029,2.029,0,0,0,24.5-8.745a2.276,2.276,0,0,0-1.67-.562,2.634,2.634,0,0,0-1.621.488,1.439,1.439,0,0,0-.654,1.182H18.74A2.493,2.493,0,0,1,19.3-9.165a3.832,3.832,0,0,1,1.523-1.167,5.125,5.125,0,0,1,2.114-.43,4.177,4.177,0,0,1,2.861.913,3.294,3.294,0,0,1,1.074,2.515v4.863a5.946,5.946,0,0,0,.371,2.314V0Zm-3-1.377a3.175,3.175,0,0,0,1.611-.439,2.658,2.658,0,0,0,1.1-1.143V-5.127H23.652q-3.32,0-3.32,1.943A1.645,1.645,0,0,0,20.9-1.855,2.177,2.177,0,0,0,22.354-1.377Zm10.664-1.27,2.461-7.92h1.934l-4.248,12.2q-.986,2.637-3.135,2.637l-.342-.029-.674-.127V2.646l.488.039a2.4,2.4,0,0,0,1.431-.371A2.686,2.686,0,0,0,31.777.957l.4-1.074-3.77-10.449h1.973ZM38.4-5.381a6.241,6.241,0,0,1,.61-2.793,4.553,4.553,0,0,1,1.7-1.914,4.626,4.626,0,0,1,2.485-.674,4.456,4.456,0,0,1,3.491,1.494,5.748,5.748,0,0,1,1.333,3.975v.127A6.3,6.3,0,0,1,47.427-2.4,4.486,4.486,0,0,1,45.737-.488,4.679,4.679,0,0,1,43.213.2,4.445,4.445,0,0,1,39.731-1.3,5.719,5.719,0,0,1,38.4-5.254Zm1.816.215a4.52,4.52,0,0,0,.815,2.822,2.61,2.61,0,0,0,2.183,1.064A2.594,2.594,0,0,0,45.4-2.358a4.943,4.943,0,0,0,.811-3.022A4.513,4.513,0,0,0,45.386-8.2a2.623,2.623,0,0,0-2.192-1.079,2.594,2.594,0,0,0-2.158,1.064A4.906,4.906,0,0,0,40.215-5.166ZM55.391-8.945a5.414,5.414,0,0,0-.889-.068A2.381,2.381,0,0,0,52.09-7.5V0H50.283V-10.566h1.758l.029,1.221a2.813,2.813,0,0,1,2.52-1.416,1.846,1.846,0,0,1,.8.137Zm6.133,3.564a6.241,6.241,0,0,1,.61-2.793,4.553,4.553,0,0,1,1.7-1.914,4.626,4.626,0,0,1,2.485-.674A4.456,4.456,0,0,1,69.81-9.268a5.748,5.748,0,0,1,1.333,3.975v.127A6.3,6.3,0,0,1,70.552-2.4,4.486,4.486,0,0,1,68.862-.488,4.679,4.679,0,0,1,66.338.2,4.445,4.445,0,0,1,62.856-1.3a5.719,5.719,0,0,1-1.333-3.955Zm1.816.215a4.52,4.52,0,0,0,.815,2.822,2.61,2.61,0,0,0,2.183,1.064,2.594,2.594,0,0,0,2.188-1.079,4.943,4.943,0,0,0,.811-3.022A4.513,4.513,0,0,0,68.511-8.2a2.623,2.623,0,0,0-2.192-1.079A2.594,2.594,0,0,0,64.16-8.213,4.906,4.906,0,0,0,63.34-5.166ZM80.322,0H78.516V-10.566h1.807ZM78.369-13.369a1.078,1.078,0,0,1,.269-.742,1.008,1.008,0,0,1,.8-.3,1.024,1.024,0,0,1,.8.3,1.067,1.067,0,0,1,.273.742,1.032,1.032,0,0,1-.273.732,1.043,1.043,0,0,1-.8.293,1.026,1.026,0,0,1-.8-.293A1.043,1.043,0,0,1,78.369-13.369Zm4.414,8A6.21,6.21,0,0,1,83.926-9.3a3.654,3.654,0,0,1,3.027-1.46,3.635,3.635,0,0,1,3.018,1.367l.088-1.172h1.65V-.254a4.3,4.3,0,0,1-1.216,3.232A4.487,4.487,0,0,1,87.227,4.16a5.435,5.435,0,0,1-2.236-.488,3.85,3.85,0,0,1-1.67-1.338l.938-1.084A3.533,3.533,0,0,0,87.1,2.686a2.768,2.768,0,0,0,2.056-.742,2.837,2.837,0,0,0,.737-2.09v-.908A3.713,3.713,0,0,1,86.934.2a3.609,3.609,0,0,1-3-1.494A6.529,6.529,0,0,1,82.783-5.371Zm1.816.205a4.738,4.738,0,0,0,.732,2.808,2.38,2.38,0,0,0,2.051,1.021,2.646,2.646,0,0,0,2.51-1.553V-7.715A2.677,2.677,0,0,0,87.4-9.229,2.4,2.4,0,0,0,85.342-8.2,5.16,5.16,0,0,0,84.6-5.166Zm16.357,4.121A3.837,3.837,0,0,1,97.861.2a3.285,3.285,0,0,1-2.573-.981,4.248,4.248,0,0,1-.894-2.905v-6.875H96.2V-3.74q0,2.4,1.953,2.4a2.7,2.7,0,0,0,2.754-1.543v-7.686h1.807V0H101ZM111.982,0a3.8,3.8,0,0,1-.254-1.113A4.031,4.031,0,0,1,108.721.2a3.73,3.73,0,0,1-2.563-.884,2.859,2.859,0,0,1-1-2.241,2.987,2.987,0,0,1,1.255-2.563,5.916,5.916,0,0,1,3.53-.913H111.7v-.83a2.029,2.029,0,0,0-.566-1.509,2.276,2.276,0,0,0-1.67-.562,2.634,2.634,0,0,0-1.621.488,1.439,1.439,0,0,0-.654,1.182h-1.816a2.493,2.493,0,0,1,.562-1.528,3.832,3.832,0,0,1,1.523-1.167,5.125,5.125,0,0,1,2.114-.43,4.177,4.177,0,0,1,2.861.913,3.294,3.294,0,0,1,1.074,2.515v4.863a5.946,5.946,0,0,0,.371,2.314V0Zm-3-1.377a3.175,3.175,0,0,0,1.611-.439,2.658,2.658,0,0,0,1.1-1.143V-5.127h-1.416q-3.32,0-3.32,1.943a1.645,1.645,0,0,0,.566,1.328A2.177,2.177,0,0,0,108.984-1.377ZM118.3,0h-1.807V-15H118.3Zm14.365,0a3.8,3.8,0,0,1-.254-1.113A4.031,4.031,0,0,1,129.4.2a3.73,3.73,0,0,1-2.563-.884,2.859,2.859,0,0,1-1-2.241,2.987,2.987,0,0,1,1.255-2.563,5.916,5.916,0,0,1,3.53-.913h1.758v-.83a2.029,2.029,0,0,0-.566-1.509,2.276,2.276,0,0,0-1.67-.562,2.634,2.634,0,0,0-1.621.488,1.439,1.439,0,0,0-.654,1.182h-1.816a2.493,2.493,0,0,1,.562-1.528,3.832,3.832,0,0,1,1.523-1.167,5.125,5.125,0,0,1,2.114-.43,4.177,4.177,0,0,1,2.861.913,3.294,3.294,0,0,1,1.074,2.515v4.863a5.946,5.946,0,0,0,.371,2.314V0Zm-3-1.377a3.175,3.175,0,0,0,1.611-.439,2.658,2.658,0,0,0,1.1-1.143V-5.127h-1.416q-3.32,0-3.32,1.943a1.645,1.645,0,0,0,.566,1.328A2.177,2.177,0,0,0,129.668-1.377ZM138.984,0h-1.807V-15h1.807Zm14.58-6.25a4.42,4.42,0,0,1-1.353,1.084,3.67,3.67,0,0,1-1.724.41,3.788,3.788,0,0,1-2.144-.605,3.936,3.936,0,0,1-1.411-1.7,5.809,5.809,0,0,1-.5-2.427,5.919,5.919,0,0,1,.542-2.568,3.981,3.981,0,0,1,1.538-1.748,4.386,4.386,0,0,1,2.324-.605,3.971,3.971,0,0,1,3.325,1.577,6.879,6.879,0,0,1,1.216,4.3v.527q0,4.15-1.641,6.06A6.3,6.3,0,0,1,148.789.01h-.352V-1.514h.381a4.968,4.968,0,0,0,3.438-1.167A5.013,5.013,0,0,0,153.564-6.25Zm-2.783,0a2.79,2.79,0,0,0,1.675-.557,3.281,3.281,0,0,0,1.118-1.377v-.723A4.972,4.972,0,0,0,152.8-11.8a2.3,2.3,0,0,0-1.953-1.113,2.32,2.32,0,0,0-1.914.913,3.767,3.767,0,0,0-.723,2.407,3.92,3.92,0,0,0,.7,2.4A2.211,2.211,0,0,0,150.781-6.25Zm16.006.186A8.263,8.263,0,0,1,165.7-1.348,3.855,3.855,0,0,1,162.314.2a3.883,3.883,0,0,1-3.369-1.509,7.843,7.843,0,0,1-1.133-4.507V-8.232a8.079,8.079,0,0,1,1.084-4.658,3.885,3.885,0,0,1,3.4-1.523,3.92,3.92,0,0,1,3.379,1.47,7.8,7.8,0,0,1,1.113,4.536ZM164.98-8.535a6.62,6.62,0,0,0-.645-3.345,2.219,2.219,0,0,0-2.041-1.05,2.189,2.189,0,0,0-2.021,1.045,6.464,6.464,0,0,0-.654,3.213v2.891a6.726,6.726,0,0,0,.669,3.4,2.214,2.214,0,0,0,2.026,1.1A2.184,2.184,0,0,0,164.3-2.314a6.483,6.483,0,0,0,.679-3.262Zm8.916-2.949a2.885,2.885,0,0,1,.815-2.109,2.809,2.809,0,0,1,2.095-.83,2.792,2.792,0,0,1,2.1.835,2.985,2.985,0,0,1,.806,2.163v.693a2.848,2.848,0,0,1-.815,2.1,2.811,2.811,0,0,1-2.075.815,2.873,2.873,0,0,1-2.1-.815,2.908,2.908,0,0,1-.83-2.173Zm1.348.752a1.841,1.841,0,0,0,.43,1.255,1.451,1.451,0,0,0,1.152.493,1.423,1.423,0,0,0,1.118-.479,1.9,1.9,0,0,0,.425-1.309v-.713a1.887,1.887,0,0,0-.42-1.26,1.416,1.416,0,0,0-1.143-.5,1.416,1.416,0,0,0-1.143.5,1.947,1.947,0,0,0-.42,1.3Zm5.576,7.246a2.869,2.869,0,0,1,.815-2.1,2.818,2.818,0,0,1,2.095-.825,2.843,2.843,0,0,1,2.1.82,2.944,2.944,0,0,1,.82,2.178v.693a2.869,2.869,0,0,1-.815,2.1,2.806,2.806,0,0,1-2.085.825,2.873,2.873,0,0,1-2.1-.815,2.908,2.908,0,0,1-.83-2.173Zm1.348.762a1.855,1.855,0,0,0,.43,1.265,1.451,1.451,0,0,0,1.152.493,1.413,1.413,0,0,0,1.123-.483,1.934,1.934,0,0,0,.42-1.313v-.723a1.85,1.85,0,0,0-.425-1.26,1.432,1.432,0,0,0-1.138-.488,1.446,1.446,0,0,0-1.128.483,1.877,1.877,0,0,0-.435,1.3Zm-4.932,1.65-1.025-.645,6.943-11.113,1.025.645Z" transform="translate(404 2809)" fill="#12263f"/>
    <path id="Trazado_104200" data-name="Trazado 104200" d="M4.072-14.219l4.648,11.6,4.648-11.6H15.8V0H13.926V-5.537l.176-5.977L9.434,0H8L3.34-11.484l.186,5.947V0H1.65V-14.219ZM25.352,0A3.8,3.8,0,0,1,25.1-1.113,4.031,4.031,0,0,1,22.09.2a3.73,3.73,0,0,1-2.563-.884,2.859,2.859,0,0,1-1-2.241A2.987,2.987,0,0,1,19.78-5.493a5.916,5.916,0,0,1,3.53-.913h1.758v-.83A2.029,2.029,0,0,0,24.5-8.745a2.276,2.276,0,0,0-1.67-.562,2.634,2.634,0,0,0-1.621.488,1.439,1.439,0,0,0-.654,1.182H18.74A2.493,2.493,0,0,1,19.3-9.165a3.832,3.832,0,0,1,1.523-1.167,5.125,5.125,0,0,1,2.114-.43,4.177,4.177,0,0,1,2.861.913,3.294,3.294,0,0,1,1.074,2.515v4.863a5.946,5.946,0,0,0,.371,2.314V0Zm-3-1.377a3.175,3.175,0,0,0,1.611-.439,2.658,2.658,0,0,0,1.1-1.143V-5.127H23.652q-3.32,0-3.32,1.943A1.645,1.645,0,0,0,20.9-1.855,2.177,2.177,0,0,0,22.354-1.377Zm10.664-1.27,2.461-7.92h1.934l-4.248,12.2q-.986,2.637-3.135,2.637l-.342-.029-.674-.127V2.646l.488.039a2.4,2.4,0,0,0,1.431-.371A2.686,2.686,0,0,0,31.777.957l.4-1.074-3.77-10.449h1.973ZM38.4-5.381a6.241,6.241,0,0,1,.61-2.793,4.553,4.553,0,0,1,1.7-1.914,4.626,4.626,0,0,1,2.485-.674,4.456,4.456,0,0,1,3.491,1.494,5.748,5.748,0,0,1,1.333,3.975v.127A6.3,6.3,0,0,1,47.427-2.4,4.486,4.486,0,0,1,45.737-.488,4.679,4.679,0,0,1,43.213.2,4.445,4.445,0,0,1,39.731-1.3,5.719,5.719,0,0,1,38.4-5.254Zm1.816.215a4.52,4.52,0,0,0,.815,2.822,2.61,2.61,0,0,0,2.183,1.064A2.594,2.594,0,0,0,45.4-2.358a4.943,4.943,0,0,0,.811-3.022A4.513,4.513,0,0,0,45.386-8.2a2.623,2.623,0,0,0-2.192-1.079,2.594,2.594,0,0,0-2.158,1.064A4.906,4.906,0,0,0,40.215-5.166ZM55.391-8.945a5.414,5.414,0,0,0-.889-.068A2.381,2.381,0,0,0,52.09-7.5V0H50.283V-10.566h1.758l.029,1.221a2.813,2.813,0,0,1,2.52-1.416,1.846,1.846,0,0,1,.8.137Zm13.516-5.283V-12.7h-.332a4.757,4.757,0,0,0-3.359,1.25A5.2,5.2,0,0,0,63.77-8.037a3.856,3.856,0,0,1,3.066-1.289A3.687,3.687,0,0,1,69.8-8.018a5.047,5.047,0,0,1,1.108,3.379,5.031,5.031,0,0,1-1.2,3.516A4.119,4.119,0,0,1,66.5.2a4.059,4.059,0,0,1-3.311-1.567,6.212,6.212,0,0,1-1.27-4.038V-6.1a9.36,9.36,0,0,1,1.675-6,6.151,6.151,0,0,1,4.985-2.124ZM66.533-7.822a2.882,2.882,0,0,0-1.709.557,2.9,2.9,0,0,0-1.084,1.4v.664a4.664,4.664,0,0,0,.791,2.832A2.37,2.37,0,0,0,66.5-1.3a2.3,2.3,0,0,0,1.919-.9,3.728,3.728,0,0,0,.7-2.354,3.729,3.729,0,0,0-.708-2.368A2.269,2.269,0,0,0,66.533-7.822Zm7.344.693.723-7.09h7.285v1.67H76.133L75.7-8.672a4.588,4.588,0,0,1,2.373-.615A3.923,3.923,0,0,1,81.162-8,5.033,5.033,0,0,1,82.3-4.531a4.858,4.858,0,0,1-1.187,3.462A4.325,4.325,0,0,1,77.8.2,4.494,4.494,0,0,1,74.727-.85,4.171,4.171,0,0,1,73.369-3.74h1.709A2.869,2.869,0,0,0,75.947-1.9a2.7,2.7,0,0,0,1.855.62,2.438,2.438,0,0,0,1.978-.859A3.593,3.593,0,0,0,80.5-4.512a3.3,3.3,0,0,0-.776-2.29,2.641,2.641,0,0,0-2.065-.864,2.978,2.978,0,0,0-1.855.518l-.479.391Zm10.244-4.355a2.885,2.885,0,0,1,.815-2.109,2.809,2.809,0,0,1,2.095-.83,2.792,2.792,0,0,1,2.1.835,2.985,2.985,0,0,1,.806,2.163v.693a2.848,2.848,0,0,1-.815,2.1,2.811,2.811,0,0,1-2.075.815,2.873,2.873,0,0,1-2.1-.815,2.908,2.908,0,0,1-.83-2.173Zm1.348.752a1.841,1.841,0,0,0,.43,1.255,1.451,1.451,0,0,0,1.152.493,1.423,1.423,0,0,0,1.118-.479,1.9,1.9,0,0,0,.425-1.309v-.713a1.887,1.887,0,0,0-.42-1.26,1.416,1.416,0,0,0-1.143-.5,1.416,1.416,0,0,0-1.143.5,1.947,1.947,0,0,0-.42,1.3Zm5.576,7.246a2.869,2.869,0,0,1,.815-2.1,2.818,2.818,0,0,1,2.095-.825,2.843,2.843,0,0,1,2.1.82,2.944,2.944,0,0,1,.82,2.178v.693a2.869,2.869,0,0,1-.815,2.1,2.806,2.806,0,0,1-2.085.825,2.873,2.873,0,0,1-2.1-.815,2.908,2.908,0,0,1-.83-2.173Zm1.348.762a1.855,1.855,0,0,0,.43,1.265,1.451,1.451,0,0,0,1.152.493A1.413,1.413,0,0,0,95.1-1.45a1.934,1.934,0,0,0,.42-1.313v-.723a1.85,1.85,0,0,0-.425-1.26,1.432,1.432,0,0,0-1.138-.488,1.446,1.446,0,0,0-1.128.483,1.877,1.877,0,0,0-.435,1.3Zm-4.932,1.65-1.025-.645,6.943-11.113,1.025.645ZM107.52-2.646l2.461-7.92h1.934l-4.248,12.2q-.986,2.637-3.135,2.637l-.342-.029-.674-.127V2.646l.488.039a2.4,2.4,0,0,0,1.431-.371,2.686,2.686,0,0,0,.845-1.357l.4-1.074-3.77-10.449h1.973Zm12.656-7.92.049,1.172a3.9,3.9,0,0,1,3.135-1.367,3.021,3.021,0,0,1,3.018,1.7,4,4,0,0,1,1.372-1.23,4.052,4.052,0,0,1,2-.469q3.477,0,3.535,3.682V0h-1.807V-6.973a2.426,2.426,0,0,0-.518-1.694,2.279,2.279,0,0,0-1.738-.562,2.4,2.4,0,0,0-1.67.6,2.436,2.436,0,0,0-.771,1.616V0h-1.816V-6.924a2.016,2.016,0,0,0-2.256-2.3,2.417,2.417,0,0,0-2.432,1.514V0h-1.807V-10.566ZM140.391.2a4.617,4.617,0,0,1-3.5-1.411,5.237,5.237,0,0,1-1.348-3.774v-.332a6.341,6.341,0,0,1,.6-2.808,4.685,4.685,0,0,1,1.68-1.934,4.223,4.223,0,0,1,2.339-.7,3.957,3.957,0,0,1,3.2,1.357,5.877,5.877,0,0,1,1.143,3.887v.752h-7.158a3.756,3.756,0,0,0,.913,2.524,2.87,2.87,0,0,0,2.222.962,3.147,3.147,0,0,0,1.621-.391,4.073,4.073,0,0,0,1.162-1.035l1.1.859A4.437,4.437,0,0,1,140.391.2Zm-.225-9.473a2.41,2.41,0,0,0-1.836.8,3.868,3.868,0,0,0-.918,2.231h5.293v-.137a3.441,3.441,0,0,0-.742-2.134A2.269,2.269,0,0,0,140.166-9.277Zm8.145-1.289.059,1.328a3.851,3.851,0,0,1,3.164-1.523q3.35,0,3.379,3.779V0h-1.807V-6.992a2.433,2.433,0,0,0-.522-1.689,2.094,2.094,0,0,0-1.6-.547,2.607,2.607,0,0,0-1.543.469,3.183,3.183,0,0,0-1.035,1.23V0H146.6V-10.566Zm8.848,5.186a6.241,6.241,0,0,1,.61-2.793,4.553,4.553,0,0,1,1.7-1.914,4.626,4.626,0,0,1,2.485-.674,4.456,4.456,0,0,1,3.491,1.494,5.748,5.748,0,0,1,1.333,3.975v.127a6.3,6.3,0,0,1-.591,2.769A4.486,4.486,0,0,1,164.5-.488,4.679,4.679,0,0,1,161.973.2,4.445,4.445,0,0,1,158.491-1.3a5.719,5.719,0,0,1-1.333-3.955Zm1.816.215a4.52,4.52,0,0,0,.815,2.822,2.61,2.61,0,0,0,2.183,1.064,2.594,2.594,0,0,0,2.188-1.079,4.943,4.943,0,0,0,.811-3.022,4.513,4.513,0,0,0-.825-2.817,2.623,2.623,0,0,0-2.192-1.079,2.594,2.594,0,0,0-2.158,1.064A4.906,4.906,0,0,0,158.975-5.166ZM175.2-2.8a1.33,1.33,0,0,0-.552-1.138,5.311,5.311,0,0,0-1.924-.7,9.1,9.1,0,0,1-2.178-.7,3.1,3.1,0,0,1-1.191-.977,2.336,2.336,0,0,1-.386-1.348,2.741,2.741,0,0,1,1.1-2.2,4.291,4.291,0,0,1,2.808-.9,4.415,4.415,0,0,1,2.915.928A2.947,2.947,0,0,1,176.9-7.461h-1.816a1.631,1.631,0,0,0-.63-1.279,2.36,2.36,0,0,0-1.587-.537,2.47,2.47,0,0,0-1.543.43,1.353,1.353,0,0,0-.557,1.123,1.1,1.1,0,0,0,.518.986,6.368,6.368,0,0,0,1.87.635,9.744,9.744,0,0,1,2.192.723A3.2,3.2,0,0,1,176.6-4.37,2.485,2.485,0,0,1,177-2.93a2.7,2.7,0,0,1-1.133,2.271A4.752,4.752,0,0,1,172.93.2a5.321,5.321,0,0,1-2.246-.449,3.653,3.653,0,0,1-1.528-1.255,3.025,3.025,0,0,1-.552-1.743h1.807a1.87,1.87,0,0,0,.728,1.44,2.822,2.822,0,0,0,1.792.532,2.913,2.913,0,0,0,1.646-.415A1.275,1.275,0,0,0,175.2-2.8ZM190.83,0a3.8,3.8,0,0,1-.254-1.113A4.031,4.031,0,0,1,187.568.2,3.73,3.73,0,0,1,185-.688a2.859,2.859,0,0,1-1-2.241,2.987,2.987,0,0,1,1.255-2.563,5.916,5.916,0,0,1,3.53-.913h1.758v-.83a2.029,2.029,0,0,0-.566-1.509,2.276,2.276,0,0,0-1.67-.562,2.634,2.634,0,0,0-1.621.488,1.439,1.439,0,0,0-.654,1.182h-1.816a2.493,2.493,0,0,1,.562-1.528,3.832,3.832,0,0,1,1.523-1.167,5.125,5.125,0,0,1,2.114-.43,4.177,4.177,0,0,1,2.861.913,3.294,3.294,0,0,1,1.074,2.515v4.863a5.946,5.946,0,0,0,.371,2.314V0Zm-3-1.377a3.175,3.175,0,0,0,1.611-.439,2.658,2.658,0,0,0,1.1-1.143V-5.127h-1.416q-3.32,0-3.32,1.943a1.645,1.645,0,0,0,.566,1.328A2.177,2.177,0,0,0,187.832-1.377ZM197.148,0h-1.807V-15h1.807Zm14.58-6.25a4.42,4.42,0,0,1-1.353,1.084,3.67,3.67,0,0,1-1.724.41,3.788,3.788,0,0,1-2.144-.605,3.936,3.936,0,0,1-1.411-1.7,5.809,5.809,0,0,1-.5-2.427,5.919,5.919,0,0,1,.542-2.568,3.981,3.981,0,0,1,1.538-1.748A4.386,4.386,0,0,1,209-14.414a3.971,3.971,0,0,1,3.325,1.577,6.879,6.879,0,0,1,1.216,4.3v.527q0,4.15-1.641,6.06A6.3,6.3,0,0,1,206.953.01H206.6V-1.514h.381a4.968,4.968,0,0,0,3.438-1.167A5.013,5.013,0,0,0,211.729-6.25Zm-2.783,0a2.79,2.79,0,0,0,1.675-.557,3.281,3.281,0,0,0,1.118-1.377v-.723a4.972,4.972,0,0,0-.771-2.891,2.3,2.3,0,0,0-1.953-1.113A2.32,2.32,0,0,0,207.1-12a3.767,3.767,0,0,0-.723,2.407,3.92,3.92,0,0,0,.7,2.4A2.211,2.211,0,0,0,208.945-6.25Zm16.006.186a8.263,8.263,0,0,1-1.084,4.717A3.855,3.855,0,0,1,220.479.2a3.883,3.883,0,0,1-3.369-1.509,7.843,7.843,0,0,1-1.133-4.507V-8.232a8.079,8.079,0,0,1,1.084-4.658,3.885,3.885,0,0,1,3.4-1.523,3.92,3.92,0,0,1,3.379,1.47,7.8,7.8,0,0,1,1.113,4.536Zm-1.807-2.471a6.62,6.62,0,0,0-.645-3.345,2.219,2.219,0,0,0-2.041-1.05,2.189,2.189,0,0,0-2.021,1.045,6.464,6.464,0,0,0-.654,3.213v2.891a6.726,6.726,0,0,0,.669,3.4,2.214,2.214,0,0,0,2.026,1.1,2.184,2.184,0,0,0,1.987-1.035,6.483,6.483,0,0,0,.679-3.262Zm3.965-2.949a2.885,2.885,0,0,1,.815-2.109,2.809,2.809,0,0,1,2.095-.83,2.792,2.792,0,0,1,2.1.835,2.985,2.985,0,0,1,.806,2.163v.693a2.848,2.848,0,0,1-.815,2.1,2.811,2.811,0,0,1-2.075.815,2.873,2.873,0,0,1-2.1-.815,2.908,2.908,0,0,1-.83-2.173Zm1.348.752a1.841,1.841,0,0,0,.43,1.255,1.451,1.451,0,0,0,1.152.493,1.423,1.423,0,0,0,1.118-.479,1.9,1.9,0,0,0,.425-1.309v-.713a1.887,1.887,0,0,0-.42-1.26,1.416,1.416,0,0,0-1.143-.5,1.416,1.416,0,0,0-1.143.5,1.947,1.947,0,0,0-.42,1.3Zm5.576,7.246a2.869,2.869,0,0,1,.815-2.1,2.818,2.818,0,0,1,2.095-.825,2.843,2.843,0,0,1,2.1.82,2.944,2.944,0,0,1,.82,2.178v.693a2.869,2.869,0,0,1-.815,2.1,2.806,2.806,0,0,1-2.085.825,2.873,2.873,0,0,1-2.1-.815,2.908,2.908,0,0,1-.83-2.173Zm1.348.762a1.855,1.855,0,0,0,.43,1.265,1.451,1.451,0,0,0,1.152.493,1.413,1.413,0,0,0,1.123-.483,1.934,1.934,0,0,0,.42-1.313v-.723a1.85,1.85,0,0,0-.425-1.26,1.432,1.432,0,0,0-1.138-.488,1.446,1.446,0,0,0-1.128.483,1.877,1.877,0,0,0-.435,1.3Zm-4.932,1.65-1.025-.645,6.943-11.113,1.025.645Z" transform="translate(404 2876.619)" fill="#12263f"/>
    <path id="Trazado_104202" data-name="Trazado 104202" d="M4.072-14.219l4.648,11.6,4.648-11.6H15.8V0H13.926V-5.537l.176-5.977L9.434,0H8L3.34-11.484l.186,5.947V0H1.65V-14.219ZM23.213.2a4.617,4.617,0,0,1-3.5-1.411A5.237,5.237,0,0,1,18.369-4.99v-.332a6.341,6.341,0,0,1,.6-2.808,4.685,4.685,0,0,1,1.68-1.934,4.223,4.223,0,0,1,2.339-.7,3.957,3.957,0,0,1,3.2,1.357,5.877,5.877,0,0,1,1.143,3.887v.752H20.176a3.756,3.756,0,0,0,.913,2.524,2.87,2.87,0,0,0,2.222.962,3.147,3.147,0,0,0,1.621-.391,4.073,4.073,0,0,0,1.162-1.035l1.1.859A4.437,4.437,0,0,1,23.213.2Zm-.225-9.473a2.41,2.41,0,0,0-1.836.8,3.868,3.868,0,0,0-.918,2.231h5.293v-.137a3.441,3.441,0,0,0-.742-2.134A2.269,2.269,0,0,0,22.988-9.277Zm8.145-1.289.059,1.328a3.85,3.85,0,0,1,3.164-1.523q3.35,0,3.379,3.779V0H35.928V-6.992a2.432,2.432,0,0,0-.522-1.689,2.094,2.094,0,0,0-1.6-.547,2.607,2.607,0,0,0-1.543.469,3.183,3.183,0,0,0-1.035,1.23V0H29.424V-10.566ZM39.98-5.381a6.241,6.241,0,0,1,.61-2.793,4.553,4.553,0,0,1,1.7-1.914,4.626,4.626,0,0,1,2.485-.674,4.456,4.456,0,0,1,3.491,1.494A5.748,5.748,0,0,1,49.6-5.293v.127A6.3,6.3,0,0,1,49.009-2.4,4.486,4.486,0,0,1,47.319-.488,4.679,4.679,0,0,1,44.795.2,4.445,4.445,0,0,1,41.313-1.3,5.719,5.719,0,0,1,39.98-5.254Zm1.816.215a4.52,4.52,0,0,0,.815,2.822,2.61,2.61,0,0,0,2.183,1.064,2.594,2.594,0,0,0,2.188-1.079,4.943,4.943,0,0,0,.811-3.022A4.513,4.513,0,0,0,46.968-8.2a2.623,2.623,0,0,0-2.192-1.079,2.594,2.594,0,0,0-2.158,1.064A4.906,4.906,0,0,0,41.8-5.166ZM56.973-8.945a5.414,5.414,0,0,0-.889-.068A2.381,2.381,0,0,0,53.672-7.5V0H51.865V-10.566h1.758l.029,1.221a2.813,2.813,0,0,1,2.52-1.416,1.846,1.846,0,0,1,.8.137Zm6.133,3.564a6.241,6.241,0,0,1,.61-2.793,4.553,4.553,0,0,1,1.7-1.914,4.626,4.626,0,0,1,2.485-.674,4.456,4.456,0,0,1,3.491,1.494,5.748,5.748,0,0,1,1.333,3.975v.127A6.3,6.3,0,0,1,72.134-2.4,4.486,4.486,0,0,1,70.444-.488,4.679,4.679,0,0,1,67.92.2,4.445,4.445,0,0,1,64.438-1.3a5.719,5.719,0,0,1-1.333-3.955Zm1.816.215a4.52,4.52,0,0,0,.815,2.822A2.61,2.61,0,0,0,67.92-1.279a2.594,2.594,0,0,0,2.188-1.079,4.943,4.943,0,0,0,.811-3.022A4.513,4.513,0,0,0,70.093-8.2,2.623,2.623,0,0,0,67.9-9.277a2.594,2.594,0,0,0-2.158,1.064A4.906,4.906,0,0,0,64.922-5.166ZM81.9,0H80.1V-10.566H81.9ZM79.951-13.369a1.078,1.078,0,0,1,.269-.742,1.008,1.008,0,0,1,.8-.3,1.024,1.024,0,0,1,.8.3,1.067,1.067,0,0,1,.273.742,1.032,1.032,0,0,1-.273.732,1.043,1.043,0,0,1-.8.293,1.026,1.026,0,0,1-.8-.293A1.043,1.043,0,0,1,79.951-13.369Zm4.414,8A6.21,6.21,0,0,1,85.508-9.3a3.654,3.654,0,0,1,3.027-1.46,3.635,3.635,0,0,1,3.018,1.367l.088-1.172h1.65V-.254a4.3,4.3,0,0,1-1.216,3.232A4.487,4.487,0,0,1,88.809,4.16a5.435,5.435,0,0,1-2.236-.488A3.85,3.85,0,0,1,84.9,2.334L85.84,1.25a3.533,3.533,0,0,0,2.842,1.436,2.768,2.768,0,0,0,2.056-.742,2.837,2.837,0,0,0,.737-2.09v-.908A3.713,3.713,0,0,1,88.516.2a3.609,3.609,0,0,1-3-1.494A6.529,6.529,0,0,1,84.365-5.371Zm1.816.205a4.738,4.738,0,0,0,.732,2.808,2.38,2.38,0,0,0,2.051,1.021,2.646,2.646,0,0,0,2.51-1.553V-7.715a2.677,2.677,0,0,0-2.49-1.514A2.4,2.4,0,0,0,86.924-8.2,5.16,5.16,0,0,0,86.182-5.166Zm16.357,4.121A3.837,3.837,0,0,1,99.443.2,3.285,3.285,0,0,1,96.87-.786a4.248,4.248,0,0,1-.894-2.905v-6.875h1.807V-3.74q0,2.4,1.953,2.4a2.7,2.7,0,0,0,2.754-1.543v-7.686H104.3V0h-1.719ZM113.564,0a3.8,3.8,0,0,1-.254-1.113A4.031,4.031,0,0,1,110.3.2a3.73,3.73,0,0,1-2.563-.884,2.859,2.859,0,0,1-1-2.241,2.987,2.987,0,0,1,1.255-2.563,5.916,5.916,0,0,1,3.53-.913h1.758v-.83a2.029,2.029,0,0,0-.566-1.509,2.276,2.276,0,0,0-1.67-.562,2.634,2.634,0,0,0-1.621.488,1.439,1.439,0,0,0-.654,1.182h-1.816a2.493,2.493,0,0,1,.562-1.528,3.832,3.832,0,0,1,1.523-1.167,5.125,5.125,0,0,1,2.114-.43,4.177,4.177,0,0,1,2.861.913,3.294,3.294,0,0,1,1.074,2.515v4.863a5.946,5.946,0,0,0,.371,2.314V0Zm-3-1.377a3.175,3.175,0,0,0,1.611-.439,2.658,2.658,0,0,0,1.1-1.143V-5.127h-1.416q-3.32,0-3.32,1.943a1.645,1.645,0,0,0,.566,1.328A2.177,2.177,0,0,0,110.566-1.377ZM119.883,0h-1.807V-15h1.807Zm14.365,0a3.8,3.8,0,0,1-.254-1.113A4.031,4.031,0,0,1,130.986.2a3.73,3.73,0,0,1-2.563-.884,2.859,2.859,0,0,1-1-2.241,2.987,2.987,0,0,1,1.255-2.563,5.916,5.916,0,0,1,3.53-.913h1.758v-.83a2.029,2.029,0,0,0-.566-1.509,2.276,2.276,0,0,0-1.67-.562,2.634,2.634,0,0,0-1.621.488,1.439,1.439,0,0,0-.654,1.182h-1.816a2.493,2.493,0,0,1,.562-1.528,3.832,3.832,0,0,1,1.523-1.167,5.125,5.125,0,0,1,2.114-.43,4.177,4.177,0,0,1,2.861.913,3.294,3.294,0,0,1,1.074,2.515v4.863a5.946,5.946,0,0,0,.371,2.314V0Zm-3-1.377a3.175,3.175,0,0,0,1.611-.439,2.658,2.658,0,0,0,1.1-1.143V-5.127h-1.416q-3.32,0-3.32,1.943a1.645,1.645,0,0,0,.566,1.328A2.177,2.177,0,0,0,131.25-1.377ZM140.566,0H138.76V-15h1.807Zm14.746-14.229V-12.7h-.332a4.757,4.757,0,0,0-3.359,1.25,5.2,5.2,0,0,0-1.445,3.408,3.856,3.856,0,0,1,3.066-1.289,3.687,3.687,0,0,1,2.964,1.309,5.047,5.047,0,0,1,1.108,3.379,5.031,5.031,0,0,1-1.2,3.516A4.119,4.119,0,0,1,152.91.2,4.059,4.059,0,0,1,149.6-1.372a6.212,6.212,0,0,1-1.27-4.038V-6.1a9.36,9.36,0,0,1,1.675-6,6.151,6.151,0,0,1,4.985-2.124Zm-2.373,6.406a2.882,2.882,0,0,0-1.709.557,2.9,2.9,0,0,0-1.084,1.4v.664a4.664,4.664,0,0,0,.791,2.832A2.37,2.37,0,0,0,152.91-1.3a2.3,2.3,0,0,0,1.919-.9,3.728,3.728,0,0,0,.7-2.354,3.729,3.729,0,0,0-.708-2.368A2.269,2.269,0,0,0,152.939-7.822Zm7.344.693.723-7.09h7.285v1.67h-5.752l-.43,3.877a4.588,4.588,0,0,1,2.373-.615A3.923,3.923,0,0,1,167.568-8a5.033,5.033,0,0,1,1.143,3.472,4.858,4.858,0,0,1-1.187,3.462A4.325,4.325,0,0,1,164.209.2,4.494,4.494,0,0,1,161.133-.85a4.171,4.171,0,0,1-1.357-2.891h1.709a2.869,2.869,0,0,0,.869,1.841,2.7,2.7,0,0,0,1.855.62,2.438,2.438,0,0,0,1.978-.859,3.593,3.593,0,0,0,.718-2.373,3.3,3.3,0,0,0-.776-2.29,2.641,2.641,0,0,0-2.065-.864,2.978,2.978,0,0,0-1.855.518l-.479.391Zm10.244-4.355a2.885,2.885,0,0,1,.815-2.109,2.809,2.809,0,0,1,2.095-.83,2.792,2.792,0,0,1,2.1.835,2.985,2.985,0,0,1,.806,2.163v.693a2.848,2.848,0,0,1-.815,2.1,2.811,2.811,0,0,1-2.075.815,2.873,2.873,0,0,1-2.1-.815,2.908,2.908,0,0,1-.83-2.173Zm1.348.752a1.841,1.841,0,0,0,.43,1.255,1.451,1.451,0,0,0,1.152.493,1.423,1.423,0,0,0,1.118-.479A1.9,1.9,0,0,0,175-10.771v-.713a1.887,1.887,0,0,0-.42-1.26,1.416,1.416,0,0,0-1.143-.5,1.416,1.416,0,0,0-1.143.5,1.947,1.947,0,0,0-.42,1.3Zm5.576,7.246a2.869,2.869,0,0,1,.815-2.1,2.818,2.818,0,0,1,2.095-.825,2.843,2.843,0,0,1,2.1.82,2.944,2.944,0,0,1,.82,2.178v.693a2.869,2.869,0,0,1-.815,2.1,2.806,2.806,0,0,1-2.085.825,2.873,2.873,0,0,1-2.1-.815,2.908,2.908,0,0,1-.83-2.173Zm1.348.762a1.855,1.855,0,0,0,.43,1.265,1.451,1.451,0,0,0,1.152.493A1.413,1.413,0,0,0,181.5-1.45a1.934,1.934,0,0,0,.42-1.313v-.723a1.85,1.85,0,0,0-.425-1.26,1.432,1.432,0,0,0-1.138-.488,1.446,1.446,0,0,0-1.128.483,1.877,1.877,0,0,0-.435,1.3Zm-4.932,1.65-1.025-.645,6.943-11.113,1.025.645Z" transform="translate(404 2944.238)" fill="#12263f"/>
    <path id="Trazado_104198" data-name="Trazado 104198" d="M8.408-3.779a1.408,1.408,0,0,0-.532-1.172,6.615,6.615,0,0,0-1.87-.869,17.942,17.942,0,0,1-2.187-.869Q1.055-8.047,1.055-10.42A3.345,3.345,0,0,1,1.743-12.5a4.453,4.453,0,0,1,1.948-1.406,7.582,7.582,0,0,1,2.832-.5,6.632,6.632,0,0,1,2.749.547,4.352,4.352,0,0,1,1.89,1.558A4.068,4.068,0,0,1,11.836-10H8.418a1.719,1.719,0,0,0-.532-1.348,2.075,2.075,0,0,0-1.44-.479A2.339,2.339,0,0,0,5-11.421a1.243,1.243,0,0,0-.532,1.03,1.252,1.252,0,0,0,.586.991,7.389,7.389,0,0,0,2.061.918A12.623,12.623,0,0,1,9.531-7.461a4.07,4.07,0,0,1,2.3,3.662A3.472,3.472,0,0,1,10.43-.869,6.255,6.255,0,0,1,6.572.2a7.653,7.653,0,0,1-3.13-.62,4.719,4.719,0,0,1-2.109-1.7A4.428,4.428,0,0,1,.625-4.609H4.063a2.181,2.181,0,0,0,.591,1.685,2.793,2.793,0,0,0,1.919.542,2.206,2.206,0,0,0,1.343-.366A1.209,1.209,0,0,0,8.408-3.779Zm4.619-1.6A6.236,6.236,0,0,1,13.643-8.2a4.4,4.4,0,0,1,1.768-1.9,5.323,5.323,0,0,1,2.705-.664,4.858,4.858,0,0,1,3.74,1.47,5.64,5.64,0,0,1,1.367,4v.117a5.472,5.472,0,0,1-1.372,3.921A4.871,4.871,0,0,1,18.135.2a4.927,4.927,0,0,1-3.623-1.353,5.29,5.29,0,0,1-1.475-3.667Zm3.291.205a3.932,3.932,0,0,0,.459,2.148,1.529,1.529,0,0,0,1.357.684q1.758,0,1.8-2.705v-.332q0-2.842-1.816-2.842-1.65,0-1.787,2.451ZM34.482-5.2A6.44,6.44,0,0,1,33.408-1.2,3.6,3.6,0,0,1,30.381.2a3.122,3.122,0,0,1-2.6-1.279L27.646,0H24.7V-15h3.291v5.283a3.013,3.013,0,0,1,2.373-1.045,3.6,3.6,0,0,1,3.047,1.416,6.473,6.473,0,0,1,1.074,3.984Zm-3.3-.205a4.309,4.309,0,0,0-.405-2.173,1.365,1.365,0,0,0-1.245-.649,1.575,1.575,0,0,0-1.543.85v4.2a1.584,1.584,0,0,0,1.563.84,1.4,1.4,0,0,0,1.475-1.133A8.148,8.148,0,0,0,31.182-5.4ZM42.324-7.588,41.24-7.666a1.947,1.947,0,0,0-1.992.977V0H35.957V-10.566h3.086l.107,1.357a2.548,2.548,0,0,1,2.314-1.553,3.209,3.209,0,0,1,.918.117ZM48.438.2A5.432,5.432,0,0,1,44.5-1.255,5.008,5.008,0,0,1,43-5.029V-5.3a6.489,6.489,0,0,1,.6-2.861,4.395,4.395,0,0,1,1.753-1.919,5.292,5.292,0,0,1,2.734-.679A4.574,4.574,0,0,1,51.6-9.38a5.43,5.43,0,0,1,1.289,3.853v1.279H46.348a2.372,2.372,0,0,0,.771,1.4,2.3,2.3,0,0,0,1.543.508A2.958,2.958,0,0,0,51.1-3.437l1.5,1.777A4.2,4.2,0,0,1,50.864-.308,5.891,5.891,0,0,1,48.438.2Zm-.371-8.418q-1.445,0-1.719,1.914h3.32v-.254a1.63,1.63,0,0,0-.4-1.226A1.593,1.593,0,0,0,48.066-8.223Zm11.68,5.254a.76.76,0,0,0-.439-.674,6.685,6.685,0,0,0-1.67-.527,7.615,7.615,0,0,1-2.031-.718,3.4,3.4,0,0,1-1.221-1.079,2.577,2.577,0,0,1-.42-1.455,2.92,2.92,0,0,1,1.2-2.4,4.948,4.948,0,0,1,3.145-.942,5.482,5.482,0,0,1,3.359.947,2.962,2.962,0,0,1,1.27,2.49h-3.3q0-1.27-1.338-1.27a1.326,1.326,0,0,0-.869.288.892.892,0,0,0-.352.718.819.819,0,0,0,.43.713,4.06,4.06,0,0,0,1.372.449,11.857,11.857,0,0,1,1.655.42A3.007,3.007,0,0,1,62.92-3.066,2.767,2.767,0,0,1,61.636-.713,5.632,5.632,0,0,1,58.311.2a5.747,5.747,0,0,1-2.422-.488,4.05,4.05,0,0,1-1.66-1.328,3.007,3.007,0,0,1-.6-1.768h3.076A1.272,1.272,0,0,0,57.2-2.319a2.009,2.009,0,0,0,1.2.337,1.58,1.58,0,0,0,1.011-.273A.875.875,0,0,0,59.746-2.969ZM70.41,0A3.716,3.716,0,0,1,70.1-.947,3.06,3.06,0,0,1,67.559.2a3.749,3.749,0,0,1-2.539-.9,2.875,2.875,0,0,1-1.045-2.271,2.955,2.955,0,0,1,1.27-2.6,6.468,6.468,0,0,1,3.691-.879h1.016v-.557q0-1.455-1.26-1.455A1.027,1.027,0,0,0,67.52-7.314H64.229a2.955,2.955,0,0,1,1.3-2.49,5.474,5.474,0,0,1,3.325-.957,4.8,4.8,0,0,1,3.193.986,3.429,3.429,0,0,1,1.2,2.705v4.678A4.79,4.79,0,0,0,73.7-.166V0ZM68.35-2.148a1.836,1.836,0,0,0,1.021-.264,1.653,1.653,0,0,0,.581-.6V-4.7h-.957q-1.719,0-1.719,1.543a.942.942,0,0,0,.3.728A1.1,1.1,0,0,0,68.35-2.148ZM78.545,0h-3.3V-15h3.3Zm5.5,0h-3.3V-10.566h3.3Zm-3.5-13.291a1.469,1.469,0,0,1,.508-1.152,1.916,1.916,0,0,1,1.318-.449,1.916,1.916,0,0,1,1.318.449,1.469,1.469,0,0,1,.508,1.152,1.469,1.469,0,0,1-.508,1.152,1.916,1.916,0,0,1-1.318.449,1.916,1.916,0,0,1-1.318-.449A1.469,1.469,0,0,1,80.547-13.291ZM91.182.2a5.432,5.432,0,0,1-3.936-1.45,5.008,5.008,0,0,1-1.5-3.774V-5.3a6.489,6.489,0,0,1,.6-2.861A4.395,4.395,0,0,1,88.1-10.083a5.292,5.292,0,0,1,2.734-.679A4.574,4.574,0,0,1,94.346-9.38a5.43,5.43,0,0,1,1.289,3.853v1.279H89.092a2.372,2.372,0,0,0,.771,1.4,2.3,2.3,0,0,0,1.543.508,2.958,2.958,0,0,0,2.441-1.094l1.5,1.777A4.2,4.2,0,0,1,93.608-.308,5.891,5.891,0,0,1,91.182.2Zm-.371-8.418q-1.445,0-1.719,1.914h3.32v-.254a1.63,1.63,0,0,0-.4-1.226A1.593,1.593,0,0,0,90.811-8.223Zm9.17-2.344.107,1.24a3.583,3.583,0,0,1,3.018-1.436,3.015,3.015,0,0,1,2.466.986,4.7,4.7,0,0,1,.845,2.969V0h-3.3V-6.67a1.783,1.783,0,0,0-.322-1.177,1.491,1.491,0,0,0-1.172-.376,1.569,1.569,0,0,0-1.436.762V0H96.895V-10.566Zm12.09-2.627v2.627h1.738v2.285H112.07v4.834a1.234,1.234,0,0,0,.215.83,1.152,1.152,0,0,0,.85.234,4.828,4.828,0,0,0,.82-.059V-.088A6.074,6.074,0,0,1,112.1.2a3.448,3.448,0,0,1-2.51-.8,3.282,3.282,0,0,1-.811-2.432V-8.281h-1.348v-2.285h1.348v-2.627ZM120.215.2a5.432,5.432,0,0,1-3.936-1.45,5.008,5.008,0,0,1-1.5-3.774V-5.3a6.489,6.489,0,0,1,.6-2.861,4.395,4.395,0,0,1,1.753-1.919,5.292,5.292,0,0,1,2.734-.679,4.574,4.574,0,0,1,3.516,1.382,5.43,5.43,0,0,1,1.289,3.853v1.279h-6.543a2.372,2.372,0,0,0,.771,1.4,2.3,2.3,0,0,0,1.543.508,2.958,2.958,0,0,0,2.441-1.094l1.5,1.777a4.2,4.2,0,0,1-1.743,1.353A5.891,5.891,0,0,1,120.215.2Zm-.371-8.418q-1.445,0-1.719,1.914h3.32v-.254a1.63,1.63,0,0,0-.4-1.226A1.593,1.593,0,0,0,119.844-8.223Z" transform="translate(231.335 2809)" fill="#12263f"/>
    <path id="Trazado_104201" data-name="Trazado 104201" d="M8.408-3.779a1.408,1.408,0,0,0-.532-1.172,6.615,6.615,0,0,0-1.87-.869,17.942,17.942,0,0,1-2.187-.869Q1.055-8.047,1.055-10.42A3.345,3.345,0,0,1,1.743-12.5a4.453,4.453,0,0,1,1.948-1.406,7.582,7.582,0,0,1,2.832-.5,6.632,6.632,0,0,1,2.749.547,4.352,4.352,0,0,1,1.89,1.558A4.068,4.068,0,0,1,11.836-10H8.418a1.719,1.719,0,0,0-.532-1.348,2.075,2.075,0,0,0-1.44-.479A2.339,2.339,0,0,0,5-11.421a1.243,1.243,0,0,0-.532,1.03,1.252,1.252,0,0,0,.586.991,7.389,7.389,0,0,0,2.061.918A12.623,12.623,0,0,1,9.531-7.461a4.07,4.07,0,0,1,2.3,3.662A3.472,3.472,0,0,1,10.43-.869,6.255,6.255,0,0,1,6.572.2a7.653,7.653,0,0,1-3.13-.62,4.719,4.719,0,0,1-2.109-1.7A4.428,4.428,0,0,1,.625-4.609H4.063a2.181,2.181,0,0,0,.591,1.685,2.793,2.793,0,0,0,1.919.542,2.206,2.206,0,0,0,1.343-.366A1.209,1.209,0,0,0,8.408-3.779ZM19.395,0a3.716,3.716,0,0,1-.312-.947A3.06,3.06,0,0,1,16.543.2,3.749,3.749,0,0,1,14-.708a2.875,2.875,0,0,1-1.045-2.271,2.955,2.955,0,0,1,1.27-2.6,6.468,6.468,0,0,1,3.691-.879h1.016v-.557q0-1.455-1.26-1.455A1.027,1.027,0,0,0,16.5-7.314H13.213a2.955,2.955,0,0,1,1.3-2.49,5.474,5.474,0,0,1,3.325-.957,4.8,4.8,0,0,1,3.193.986,3.429,3.429,0,0,1,1.2,2.705v4.678a4.79,4.79,0,0,0,.449,2.227V0ZM17.334-2.148a1.836,1.836,0,0,0,1.021-.264,1.653,1.653,0,0,0,.581-.6V-4.7h-.957q-1.719,0-1.719,1.543a.942.942,0,0,0,.3.728A1.1,1.1,0,0,0,17.334-2.148ZM27.891-13.193v2.627h1.738v2.285H27.891v4.834a1.234,1.234,0,0,0,.215.83,1.152,1.152,0,0,0,.85.234,4.828,4.828,0,0,0,.82-.059V-.088A6.074,6.074,0,0,1,27.92.2a3.448,3.448,0,0,1-2.51-.8A3.282,3.282,0,0,1,24.6-3.037V-8.281H23.252v-2.285H24.6v-2.627ZM34.395,0h-3.3V-10.566h3.3ZM30.9-13.291a1.469,1.469,0,0,1,.508-1.152,1.916,1.916,0,0,1,1.318-.449,1.916,1.916,0,0,1,1.318.449,1.469,1.469,0,0,1,.508,1.152,1.469,1.469,0,0,1-.508,1.152,1.916,1.916,0,0,1-1.318.449,1.916,1.916,0,0,1-1.318-.449A1.469,1.469,0,0,1,30.9-13.291ZM41.953-2.969a.76.76,0,0,0-.439-.674,6.685,6.685,0,0,0-1.67-.527,7.615,7.615,0,0,1-2.031-.718,3.4,3.4,0,0,1-1.221-1.079,2.577,2.577,0,0,1-.42-1.455,2.92,2.92,0,0,1,1.2-2.4,4.948,4.948,0,0,1,3.145-.942,5.482,5.482,0,0,1,3.359.947,2.962,2.962,0,0,1,1.27,2.49h-3.3q0-1.27-1.338-1.27a1.326,1.326,0,0,0-.869.288.892.892,0,0,0-.352.718.819.819,0,0,0,.43.713,4.06,4.06,0,0,0,1.372.449,11.857,11.857,0,0,1,1.655.42,3.007,3.007,0,0,1,2.383,2.939A2.767,2.767,0,0,1,43.843-.713,5.632,5.632,0,0,1,40.518.2,5.747,5.747,0,0,1,38.1-.293a4.05,4.05,0,0,1-1.66-1.328,3.007,3.007,0,0,1-.6-1.768h3.076A1.272,1.272,0,0,0,39.4-2.319a2.009,2.009,0,0,0,1.2.337,1.58,1.58,0,0,0,1.011-.273A.875.875,0,0,0,41.953-2.969ZM47.393,0V-8.281H45.859v-2.285h1.533v-.84a3.651,3.651,0,0,1,1.064-2.8,4.206,4.206,0,0,1,2.988-1A6.544,6.544,0,0,1,52.988-15L53-12.578a3.007,3.007,0,0,0-.811-.088q-1.494,0-1.494,1.289v.811h2.061v2.285H50.693V0ZM59.863,0a3.716,3.716,0,0,1-.312-.947A3.06,3.06,0,0,1,57.012.2a3.749,3.749,0,0,1-2.539-.9,2.875,2.875,0,0,1-1.045-2.271,2.955,2.955,0,0,1,1.27-2.6,6.468,6.468,0,0,1,3.691-.879H59.4v-.557q0-1.455-1.26-1.455a1.027,1.027,0,0,0-1.172,1.152H53.682a2.955,2.955,0,0,1,1.3-2.49,5.474,5.474,0,0,1,3.325-.957,4.8,4.8,0,0,1,3.193.986,3.429,3.429,0,0,1,1.2,2.705v4.678a4.79,4.79,0,0,0,.449,2.227V0ZM57.8-2.148a1.836,1.836,0,0,0,1.021-.264,1.653,1.653,0,0,0,.581-.6V-4.7h-.957q-1.719,0-1.719,1.543a.942.942,0,0,0,.3.728A1.1,1.1,0,0,0,57.8-2.148Zm11.191-.2a1.464,1.464,0,0,0,1.074-.376,1.379,1.379,0,0,0,.371-1.05h3.086A3.653,3.653,0,0,1,72.28-.918,4.631,4.631,0,0,1,69.072.2,4.689,4.689,0,0,1,65.439-1.25a5.7,5.7,0,0,1-1.328-4v-.137A6.436,6.436,0,0,1,64.7-8.218a4.3,4.3,0,0,1,1.7-1.885,5.081,5.081,0,0,1,2.637-.659,4.573,4.573,0,0,1,3.271,1.143,4.053,4.053,0,0,1,1.211,3.1H70.439a1.806,1.806,0,0,0-.4-1.26,1.382,1.382,0,0,0-1.074-.439q-1.279,0-1.494,1.631A11.508,11.508,0,0,0,67.4-5.166a4.52,4.52,0,0,0,.381,2.207A1.319,1.319,0,0,0,68.994-2.344Zm9.756-10.85v2.627h1.738v2.285H78.75v4.834a1.234,1.234,0,0,0,.215.83,1.152,1.152,0,0,0,.85.234,4.828,4.828,0,0,0,.82-.059V-.088A6.074,6.074,0,0,1,78.779.2a3.448,3.448,0,0,1-2.51-.8,3.282,3.282,0,0,1-.811-2.432V-8.281H74.111v-2.285h1.348v-2.627Zm2.324,7.813A6.236,6.236,0,0,1,81.689-8.2a4.4,4.4,0,0,1,1.768-1.9,5.323,5.323,0,0,1,2.705-.664,4.858,4.858,0,0,1,3.74,1.47,5.64,5.64,0,0,1,1.367,4v.117A5.472,5.472,0,0,1,89.9-1.255,4.871,4.871,0,0,1,86.182.2a4.927,4.927,0,0,1-3.623-1.353,5.29,5.29,0,0,1-1.475-3.667Zm3.291.205a3.932,3.932,0,0,0,.459,2.148,1.529,1.529,0,0,0,1.357.684q1.758,0,1.8-2.705v-.332q0-2.842-1.816-2.842-1.65,0-1.787,2.451ZM99.111-7.588l-1.084-.078a1.947,1.947,0,0,0-1.992.977V0H92.744V-10.566H95.83l.107,1.357a2.548,2.548,0,0,1,2.314-1.553,3.209,3.209,0,0,1,.918.117ZM103.77,0h-3.3V-10.566h3.3Zm-3.5-13.291a1.469,1.469,0,0,1,.508-1.152,1.916,1.916,0,0,1,1.318-.449,1.916,1.916,0,0,1,1.318.449,1.469,1.469,0,0,1,.508,1.152,1.469,1.469,0,0,1-.508,1.152,1.916,1.916,0,0,1-1.318.449,1.916,1.916,0,0,1-1.318-.449A1.469,1.469,0,0,1,100.273-13.291Zm5.107,7.91A6.236,6.236,0,0,1,106-8.2a4.4,4.4,0,0,1,1.768-1.9,5.323,5.323,0,0,1,2.705-.664,4.858,4.858,0,0,1,3.74,1.47,5.64,5.64,0,0,1,1.367,4v.117A5.472,5.472,0,0,1,114.2-1.255,4.871,4.871,0,0,1,110.488.2a4.927,4.927,0,0,1-3.623-1.353,5.29,5.29,0,0,1-1.475-3.667Zm3.291.205a3.932,3.932,0,0,0,.459,2.148,1.529,1.529,0,0,0,1.357.684q1.758,0,1.8-2.705v-.332q0-2.842-1.816-2.842-1.65,0-1.787,2.451Z" transform="translate(228.001 2876.62)" fill="#12263f"/>
    <path id="Trazado_104203" data-name="Trazado 104203" d="M17.93,0H14.521L9.482-8.848V0H6.055V-14.219H9.482l5.029,8.848v-8.848H17.93Zm1.6-5.381A6.236,6.236,0,0,1,20.146-8.2a4.4,4.4,0,0,1,1.768-1.9,5.323,5.323,0,0,1,2.705-.664,4.858,4.858,0,0,1,3.74,1.47,5.64,5.64,0,0,1,1.367,4v.117a5.472,5.472,0,0,1-1.372,3.921A4.871,4.871,0,0,1,24.639.2a4.927,4.927,0,0,1-3.623-1.353,5.29,5.29,0,0,1-1.475-3.667Zm3.291.205a3.932,3.932,0,0,0,.459,2.148,1.529,1.529,0,0,0,1.357.684q1.758,0,1.8-2.705v-.332q0-2.842-1.816-2.842-1.65,0-1.787,2.451ZM41.689-2.969a.76.76,0,0,0-.439-.674,6.685,6.685,0,0,0-1.67-.527,7.615,7.615,0,0,1-2.031-.718,3.4,3.4,0,0,1-1.221-1.079,2.577,2.577,0,0,1-.42-1.455,2.92,2.92,0,0,1,1.2-2.4,4.948,4.948,0,0,1,3.145-.942,5.482,5.482,0,0,1,3.359.947,2.962,2.962,0,0,1,1.27,2.49h-3.3q0-1.27-1.338-1.27a1.326,1.326,0,0,0-.869.288.892.892,0,0,0-.352.718.819.819,0,0,0,.43.713,4.06,4.06,0,0,0,1.372.449,11.857,11.857,0,0,1,1.655.42,3.007,3.007,0,0,1,2.383,2.939A2.767,2.767,0,0,1,43.579-.713,5.632,5.632,0,0,1,40.254.2a5.747,5.747,0,0,1-2.422-.488,4.05,4.05,0,0,1-1.66-1.328,3.007,3.007,0,0,1-.6-1.768h3.076a1.272,1.272,0,0,0,.488,1.069,2.009,2.009,0,0,0,1.2.337,1.58,1.58,0,0,0,1.011-.273A.875.875,0,0,0,41.689-2.969ZM52.354,0a3.716,3.716,0,0,1-.312-.947A3.06,3.06,0,0,1,49.5.2a3.749,3.749,0,0,1-2.539-.9,2.875,2.875,0,0,1-1.045-2.271,2.955,2.955,0,0,1,1.27-2.6,6.468,6.468,0,0,1,3.691-.879h1.016v-.557q0-1.455-1.26-1.455a1.027,1.027,0,0,0-1.172,1.152H46.172a2.955,2.955,0,0,1,1.3-2.49,5.474,5.474,0,0,1,3.325-.957,4.8,4.8,0,0,1,3.193.986A3.429,3.429,0,0,1,55.2-7.07v4.678a4.79,4.79,0,0,0,.449,2.227V0ZM50.293-2.148a1.836,1.836,0,0,0,1.021-.264,1.653,1.653,0,0,0,.581-.6V-4.7h-.957q-1.719,0-1.719,1.543a.942.942,0,0,0,.3.728A1.1,1.1,0,0,0,50.293-2.148ZM60.85-13.193v2.627h1.738v2.285H60.85v4.834a1.234,1.234,0,0,0,.215.83,1.152,1.152,0,0,0,.85.234,4.828,4.828,0,0,0,.82-.059V-.088A6.074,6.074,0,0,1,60.879.2a3.448,3.448,0,0,1-2.51-.8,3.282,3.282,0,0,1-.811-2.432V-8.281H56.211v-2.285h1.348v-2.627ZM67.354,0h-3.3V-10.566h3.3Zm-3.5-13.291a1.469,1.469,0,0,1,.508-1.152,1.916,1.916,0,0,1,1.318-.449A1.916,1.916,0,0,1,67-14.443a1.469,1.469,0,0,1,.508,1.152A1.469,1.469,0,0,1,67-12.139a1.916,1.916,0,0,1-1.318.449,1.916,1.916,0,0,1-1.318-.449A1.469,1.469,0,0,1,63.857-13.291ZM74.912-2.969a.76.76,0,0,0-.439-.674A6.685,6.685,0,0,0,72.8-4.17a7.615,7.615,0,0,1-2.031-.718,3.4,3.4,0,0,1-1.221-1.079,2.577,2.577,0,0,1-.42-1.455,2.92,2.92,0,0,1,1.2-2.4,4.948,4.948,0,0,1,3.145-.942,5.482,5.482,0,0,1,3.359.947,2.962,2.962,0,0,1,1.27,2.49H74.8q0-1.27-1.338-1.27a1.326,1.326,0,0,0-.869.288.892.892,0,0,0-.352.718.819.819,0,0,0,.43.713,4.06,4.06,0,0,0,1.372.449,11.857,11.857,0,0,1,1.655.42,3.007,3.007,0,0,1,2.383,2.939A2.767,2.767,0,0,1,76.8-.713,5.631,5.631,0,0,1,73.477.2a5.747,5.747,0,0,1-2.422-.488,4.05,4.05,0,0,1-1.66-1.328,3.007,3.007,0,0,1-.6-1.768h3.076a1.272,1.272,0,0,0,.488,1.069,2.009,2.009,0,0,0,1.2.337,1.58,1.58,0,0,0,1.011-.273A.875.875,0,0,0,74.912-2.969ZM80.352,0V-8.281H78.818v-2.285h1.533v-.84a3.651,3.651,0,0,1,1.064-2.8,4.206,4.206,0,0,1,2.988-1A6.544,6.544,0,0,1,85.947-15l.01,2.422a3.007,3.007,0,0,0-.811-.088q-1.494,0-1.494,1.289v.811h2.061v2.285H83.652V0ZM92.822,0a3.716,3.716,0,0,1-.312-.947A3.06,3.06,0,0,1,89.971.2a3.749,3.749,0,0,1-2.539-.9,2.875,2.875,0,0,1-1.045-2.271,2.955,2.955,0,0,1,1.27-2.6,6.468,6.468,0,0,1,3.691-.879h1.016v-.557q0-1.455-1.26-1.455a1.027,1.027,0,0,0-1.172,1.152H86.641a2.955,2.955,0,0,1,1.3-2.49,5.474,5.474,0,0,1,3.325-.957,4.8,4.8,0,0,1,3.193.986,3.429,3.429,0,0,1,1.2,2.705v4.678a4.79,4.79,0,0,0,.449,2.227V0ZM90.762-2.148a1.836,1.836,0,0,0,1.021-.264,1.653,1.653,0,0,0,.581-.6V-4.7h-.957q-1.719,0-1.719,1.543a.942.942,0,0,0,.3.728A1.1,1.1,0,0,0,90.762-2.148Zm11.191-.2a1.464,1.464,0,0,0,1.074-.376,1.379,1.379,0,0,0,.371-1.05h3.086a3.653,3.653,0,0,1-1.245,2.852A4.631,4.631,0,0,1,102.031.2,4.689,4.689,0,0,1,98.4-1.25a5.7,5.7,0,0,1-1.328-4v-.137a6.436,6.436,0,0,1,.591-2.827,4.3,4.3,0,0,1,1.7-1.885A5.081,5.081,0,0,1,102-10.762a4.573,4.573,0,0,1,3.271,1.143,4.053,4.053,0,0,1,1.211,3.1H103.4a1.806,1.806,0,0,0-.4-1.26,1.382,1.382,0,0,0-1.074-.439q-1.279,0-1.494,1.631a11.508,11.508,0,0,0-.068,1.426,4.52,4.52,0,0,0,.381,2.207A1.319,1.319,0,0,0,101.953-2.344Zm9.756-10.85v2.627h1.738v2.285h-1.738v4.834a1.234,1.234,0,0,0,.215.83,1.152,1.152,0,0,0,.85.234,4.828,4.828,0,0,0,.82-.059V-.088A6.074,6.074,0,0,1,111.738.2a3.448,3.448,0,0,1-2.51-.8,3.282,3.282,0,0,1-.811-2.432V-8.281H107.07v-2.285h1.348v-2.627Zm2.324,7.813a6.236,6.236,0,0,1,.615-2.817,4.4,4.4,0,0,1,1.768-1.9,5.323,5.323,0,0,1,2.705-.664,4.858,4.858,0,0,1,3.74,1.47,5.64,5.64,0,0,1,1.367,4v.117a5.472,5.472,0,0,1-1.372,3.921A4.871,4.871,0,0,1,119.141.2a4.927,4.927,0,0,1-3.623-1.353,5.29,5.29,0,0,1-1.475-3.667Zm3.291.205a3.932,3.932,0,0,0,.459,2.148,1.529,1.529,0,0,0,1.357.684q1.758,0,1.8-2.705v-.332q0-2.842-1.816-2.842-1.65,0-1.787,2.451ZM132.07-7.588l-1.084-.078a1.947,1.947,0,0,0-1.992.977V0H125.7V-10.566h3.086l.107,1.357a2.548,2.548,0,0,1,2.314-1.553,3.209,3.209,0,0,1,.918.117ZM136.729,0h-3.3V-10.566h3.3Zm-3.5-13.291a1.469,1.469,0,0,1,.508-1.152,1.916,1.916,0,0,1,1.318-.449,1.916,1.916,0,0,1,1.318.449,1.469,1.469,0,0,1,.508,1.152,1.469,1.469,0,0,1-.508,1.152,1.916,1.916,0,0,1-1.318.449,1.916,1.916,0,0,1-1.318-.449A1.469,1.469,0,0,1,133.232-13.291Zm5.107,7.91a6.236,6.236,0,0,1,.615-2.817,4.4,4.4,0,0,1,1.768-1.9,5.323,5.323,0,0,1,2.705-.664,4.858,4.858,0,0,1,3.74,1.47,5.64,5.64,0,0,1,1.367,4v.117a5.472,5.472,0,0,1-1.372,3.921A4.871,4.871,0,0,1,143.447.2a4.927,4.927,0,0,1-3.623-1.353,5.29,5.29,0,0,1-1.475-3.667Zm3.291.205a3.932,3.932,0,0,0,.459,2.148,1.529,1.529,0,0,0,1.357.684q1.758,0,1.8-2.705v-.332q0-2.842-1.816-2.842-1.65,0-1.787,2.451Z" transform="translate(228.001 2942.811)" fill="#12263f"/>
    <g id="estrella" transform="translate(228 2761.183)">
      <path id="Trazado_103834" data-name="Trazado 103834" d="M25.106,20.735l-8.328-.772L13.469,12.28a.667.667,0,0,0-1.226,0L8.935,19.962l-8.328.772A.667.667,0,0,0,.228,21.9l6.284,5.52-1.839,8.16a.667.667,0,0,0,.992.721l7.192-4.27,7.192,4.27a.667.667,0,0,0,.992-.721L19.2,27.421l6.284-5.52A.667.667,0,0,0,25.106,20.735Z" transform="translate(0 -11.877)" fill="aqua"/>
      <path id="Trazado_103835" data-name="Trazado 103835" d="M13.469,12.28a.667.667,0,0,0-1.226,0L8.935,19.962l-8.328.772A.667.667,0,0,0,.228,21.9l6.284,5.52-1.839,8.16a.667.667,0,0,0,.992.721l1.605-.953A29.436,29.436,0,0,1,15.1,16.079Z" transform="translate(0 -11.877)" fill="#96f8f8"/>
    </g>
    <g id="estrella-2" data-name="estrella" transform="translate(255.629 2761.183)">
      <path id="Trazado_103834-2" data-name="Trazado 103834" d="M25.106,20.735l-8.328-.772L13.469,12.28a.667.667,0,0,0-1.226,0L8.935,19.962l-8.328.772A.667.667,0,0,0,.228,21.9l6.284,5.52-1.839,8.16a.667.667,0,0,0,.992.721l7.192-4.27,7.192,4.27a.667.667,0,0,0,.992-.721L19.2,27.421l6.284-5.52A.667.667,0,0,0,25.106,20.735Z" transform="translate(0 -11.877)" fill="aqua"/>
      <path id="Trazado_103835-2" data-name="Trazado 103835" d="M13.469,12.28a.667.667,0,0,0-1.226,0L8.935,19.962l-8.328.772A.667.667,0,0,0,.228,21.9l6.284,5.52-1.839,8.16a.667.667,0,0,0,.992.721l1.605-.953A29.436,29.436,0,0,1,15.1,16.079Z" transform="translate(0 -11.877)" fill="#96f8f8"/>
    </g>
    <g id="estrella-3" data-name="estrella" transform="translate(283.257 2761.183)">
      <path id="Trazado_103834-3" data-name="Trazado 103834" d="M25.106,20.735l-8.328-.772L13.469,12.28a.667.667,0,0,0-1.226,0L8.935,19.962l-8.328.772A.667.667,0,0,0,.228,21.9l6.284,5.52-1.839,8.16a.667.667,0,0,0,.992.721l7.192-4.27,7.192,4.27a.667.667,0,0,0,.992-.721L19.2,27.421l6.284-5.52A.667.667,0,0,0,25.106,20.735Z" transform="translate(0 -11.877)" fill="aqua"/>
      <path id="Trazado_103835-3" data-name="Trazado 103835" d="M13.469,12.28a.667.667,0,0,0-1.226,0L8.935,19.962l-8.328.772A.667.667,0,0,0,.228,21.9l6.284,5.52-1.839,8.16a.667.667,0,0,0,.992.721l1.605-.953A29.436,29.436,0,0,1,15.1,16.079Z" transform="translate(0 -11.877)" fill="#96f8f8"/>
    </g>
    <g id="estrella-4" data-name="estrella" transform="translate(310.886 2761.183)">
      <path id="Trazado_103834-4" data-name="Trazado 103834" d="M25.106,20.735l-8.328-.772L13.469,12.28a.667.667,0,0,0-1.226,0L8.935,19.962l-8.328.772A.667.667,0,0,0,.228,21.9l6.284,5.52-1.839,8.16a.667.667,0,0,0,.992.721l7.192-4.27,7.192,4.27a.667.667,0,0,0,.992-.721L19.2,27.421l6.284-5.52A.667.667,0,0,0,25.106,20.735Z" transform="translate(0 -11.877)" fill="aqua"/>
      <path id="Trazado_103835-4" data-name="Trazado 103835" d="M13.469,12.28a.667.667,0,0,0-1.226,0L8.935,19.962l-8.328.772A.667.667,0,0,0,.228,21.9l6.284,5.52-1.839,8.16a.667.667,0,0,0,.992.721l1.605-.953A29.436,29.436,0,0,1,15.1,16.079Z" transform="translate(0 -11.877)" fill="#96f8f8"/>
    </g>
    <g id="estrella-5" data-name="estrella" transform="translate(338.514 2761.183)">
      <path id="Trazado_103834-5" data-name="Trazado 103834" d="M25.106,20.735l-8.328-.772L13.469,12.28a.667.667,0,0,0-1.226,0L8.935,19.962l-8.328.772A.667.667,0,0,0,.228,21.9l6.284,5.52-1.839,8.16a.667.667,0,0,0,.992.721l7.192-4.27,7.192,4.27a.667.667,0,0,0,.992-.721L19.2,27.421l6.284-5.52A.667.667,0,0,0,25.106,20.735Z" transform="translate(0 -11.877)" fill="aqua"/>
      <path id="Trazado_103835-5" data-name="Trazado 103835" d="M13.469,12.28a.667.667,0,0,0-1.226,0L8.935,19.962l-8.328.772A.667.667,0,0,0,.228,21.9l6.284,5.52-1.839,8.16a.667.667,0,0,0,.992.721l1.605-.953A29.436,29.436,0,0,1,15.1,16.079Z" transform="translate(0 -11.877)" fill="#96f8f8"/>
    </g>
    <g id="estrella-6" data-name="estrella" transform="translate(228 2830.1)">
      <path id="Trazado_103834-6" data-name="Trazado 103834" d="M25.106,20.735l-8.328-.772L13.469,12.28a.667.667,0,0,0-1.226,0L8.935,19.962l-8.328.772A.667.667,0,0,0,.228,21.9l6.284,5.52-1.839,8.16a.667.667,0,0,0,.992.721l7.192-4.27,7.192,4.27a.667.667,0,0,0,.992-.721L19.2,27.421l6.284-5.52A.667.667,0,0,0,25.106,20.735Z" transform="translate(0 -11.877)" fill="aqua"/>
      <path id="Trazado_103835-6" data-name="Trazado 103835" d="M13.469,12.28a.667.667,0,0,0-1.226,0L8.935,19.962l-8.328.772A.667.667,0,0,0,.228,21.9l6.284,5.52-1.839,8.16a.667.667,0,0,0,.992.721l1.605-.953A29.436,29.436,0,0,1,15.1,16.079Z" transform="translate(0 -11.877)" fill="#96f8f8"/>
    </g>
    <g id="estrella-7" data-name="estrella" transform="translate(255.629 2830.1)">
      <path id="Trazado_103834-7" data-name="Trazado 103834" d="M25.106,20.735l-8.328-.772L13.469,12.28a.667.667,0,0,0-1.226,0L8.935,19.962l-8.328.772A.667.667,0,0,0,.228,21.9l6.284,5.52-1.839,8.16a.667.667,0,0,0,.992.721l7.192-4.27,7.192,4.27a.667.667,0,0,0,.992-.721L19.2,27.421l6.284-5.52A.667.667,0,0,0,25.106,20.735Z" transform="translate(0 -11.877)" fill="aqua"/>
      <path id="Trazado_103835-7" data-name="Trazado 103835" d="M13.469,12.28a.667.667,0,0,0-1.226,0L8.935,19.962l-8.328.772A.667.667,0,0,0,.228,21.9l6.284,5.52-1.839,8.16a.667.667,0,0,0,.992.721l1.605-.953A29.436,29.436,0,0,1,15.1,16.079Z" transform="translate(0 -11.877)" fill="#96f8f8"/>
    </g>
    <g id="estrella-8" data-name="estrella" transform="translate(283.257 2830.1)">
      <path id="Trazado_103834-8" data-name="Trazado 103834" d="M25.106,20.735l-8.328-.772L13.469,12.28a.667.667,0,0,0-1.226,0L8.935,19.962l-8.328.772A.667.667,0,0,0,.228,21.9l6.284,5.52-1.839,8.16a.667.667,0,0,0,.992.721l7.192-4.27,7.192,4.27a.667.667,0,0,0,.992-.721L19.2,27.421l6.284-5.52A.667.667,0,0,0,25.106,20.735Z" transform="translate(0 -11.877)" fill="aqua"/>
      <path id="Trazado_103835-8" data-name="Trazado 103835" d="M13.469,12.28a.667.667,0,0,0-1.226,0L8.935,19.962l-8.328.772A.667.667,0,0,0,.228,21.9l6.284,5.52-1.839,8.16a.667.667,0,0,0,.992.721l1.605-.953A29.436,29.436,0,0,1,15.1,16.079Z" transform="translate(0 -11.877)" fill="#96f8f8"/>
    </g>
    <g id="estrella-9" data-name="estrella" transform="translate(228 2897.72)">
      <path id="Trazado_103834-9" data-name="Trazado 103834" d="M25.106,20.735l-8.328-.772L13.469,12.28a.667.667,0,0,0-1.226,0L8.935,19.962l-8.328.772A.667.667,0,0,0,.228,21.9l6.284,5.52-1.839,8.16a.667.667,0,0,0,.992.721l7.192-4.27,7.192,4.27a.667.667,0,0,0,.992-.721L19.2,27.421l6.284-5.52A.667.667,0,0,0,25.106,20.735Z" transform="translate(0 -11.877)" fill="aqua"/>
      <path id="Trazado_103835-9" data-name="Trazado 103835" d="M13.469,12.28a.667.667,0,0,0-1.226,0L8.935,19.962l-8.328.772A.667.667,0,0,0,.228,21.9l6.284,5.52-1.839,8.16a.667.667,0,0,0,.992.721l1.605-.953A29.436,29.436,0,0,1,15.1,16.079Z" transform="translate(0 -11.877)" fill="#96f8f8"/>
    </g>
    <g id="estrella-10" data-name="estrella" transform="translate(255.629 2897.72)">
      <path id="Trazado_103834-10" data-name="Trazado 103834" d="M25.106,20.735l-8.328-.772L13.469,12.28a.667.667,0,0,0-1.226,0L8.935,19.962l-8.328.772A.667.667,0,0,0,.228,21.9l6.284,5.52-1.839,8.16a.667.667,0,0,0,.992.721l7.192-4.27,7.192,4.27a.667.667,0,0,0,.992-.721L19.2,27.421l6.284-5.52A.667.667,0,0,0,25.106,20.735Z" transform="translate(0 -11.877)" fill="aqua"/>
      <path id="Trazado_103835-10" data-name="Trazado 103835" d="M13.469,12.28a.667.667,0,0,0-1.226,0L8.935,19.962l-8.328.772A.667.667,0,0,0,.228,21.9l6.284,5.52-1.839,8.16a.667.667,0,0,0,.992.721l1.605-.953A29.436,29.436,0,0,1,15.1,16.079Z" transform="translate(0 -11.877)" fill="#96f8f8"/>
    </g>
  </g>
</svg>
