<svg xmlns="http://www.w3.org/2000/svg" xmlns:xlink="http://www.w3.org/1999/xlink" width="138" height="137" viewBox="0 0 138 137">
  <defs>
    <linearGradient id="linear-gradient" x1="0.201" y1="0.099" x2="0.768" y2="0.892" gradientUnits="objectBoundingBox">
      <stop offset="0" stop-color="#5e448f"/>
      <stop offset="1" stop-color="aqua"/>
    </linearGradient>
  </defs>
  <g id="Grupo_56740" data-name="Grupo 56740" transform="translate(-825 -552)">
    <ellipse id="Elipse_1416" data-name="Elipse 1416" cx="69" cy="68.5" rx="69" ry="68.5" transform="translate(825 552)" fill="url(#linear-gradient)"/>
    <path id="Trazado_104205" data-name="Trazado 104205" d="M-9.57-42.432h7.764q9.229,0,9.229-9.033a7.811,7.811,0,0,0-2.2-5.737,8.332,8.332,0,0,0-6.2-2.222,8.92,8.92,0,0,0-5.688,1.9,5.81,5.81,0,0,0-2.417,4.736H-25.537a16.844,16.844,0,0,1,3.125-10.01,20.637,20.637,0,0,1,8.667-6.86A29.632,29.632,0,0,1-1.562-72.119q11.865,0,18.652,5.42t6.787,14.893a15.017,15.017,0,0,1-2.808,8.667,20.011,20.011,0,0,1-8.179,6.616A19.114,19.114,0,0,1,21.777-30.3,16.4,16.4,0,0,1,25-19.971,18.345,18.345,0,0,1,17.676-4.736Q10.352.977-1.562.977A31.528,31.528,0,0,1-14.526-1.685a20.311,20.311,0,0,1-9.058-7.373A19.169,19.169,0,0,1-26.66-19.775h16.553a7.409,7.409,0,0,0,2.637,5.664A9.309,9.309,0,0,0-.977-11.719a9.75,9.75,0,0,0,6.934-2.417,8.078,8.078,0,0,0,2.588-6.177q0-5.371-2.686-7.617a11.226,11.226,0,0,0-7.422-2.246H-9.57Z" transform="translate(894 655)" fill="#fff"/>
  </g>
</svg>
