<svg xmlns="http://www.w3.org/2000/svg" xmlns:xlink="http://www.w3.org/1999/xlink" width="406" height="295" viewBox="0 0 406 295">
  <defs>
    <linearGradient id="linear-gradient" x1="-1.737" y1="-4.037" x2="-0.47" y2="-1.466" gradientUnits="objectBoundingBox">
      <stop offset="0" stop-color="#ff928e"/>
      <stop offset="1" stop-color="#feb3b1"/>
    </linearGradient>
    <linearGradient id="linear-gradient-2" x1="-1.162" y1="-3.753" x2="-0.244" y2="-1.405" xlink:href="#linear-gradient"/>
    <linearGradient id="linear-gradient-3" x1="-1.17" y1="-3.591" x2="-0.254" y2="-1.348" xlink:href="#linear-gradient"/>
    <linearGradient id="linear-gradient-4" x1="-1.651" y1="-3.607" x2="-0.474" y2="-1.36" xlink:href="#linear-gradient"/>
    <linearGradient id="linear-gradient-5" x1="-1.359" y1="-3.341" x2="-0.343" y2="-1.242" xlink:href="#linear-gradient"/>
    <linearGradient id="linear-gradient-6" y1="0.5" x2="1" y2="0.5" gradientUnits="objectBoundingBox">
      <stop offset="0" stop-color="#dae3fe"/>
      <stop offset="1" stop-color="#e9effd"/>
    </linearGradient>
    <linearGradient id="linear-gradient-19" x1="0.5" y1="-16.086" x2="0.5" y2="-0.314" xlink:href="#linear-gradient"/>
    <linearGradient id="linear-gradient-20" x1="-3.758" y1="-22.715" x2="-1.564" y2="-10.75" xlink:href="#linear-gradient"/>
    <linearGradient id="linear-gradient-21" x1="4.873" y1="-1.058" x2="-10.04" y2="4.254" gradientUnits="objectBoundingBox">
      <stop offset="0" stop-color="#09005d"/>
      <stop offset="1" stop-color="#1a0f91"/>
    </linearGradient>
    <linearGradient id="linear-gradient-22" x1="1.168" y1="-33.944" x2="-0.581" y2="56.691" xlink:href="#linear-gradient-21"/>
    <linearGradient id="linear-gradient-23" x1="0.758" y1="-3" x2="-0.597" y2="15.393" xlink:href="#linear-gradient-21"/>
    <linearGradient id="linear-gradient-24" x1="0.51" y1="0.411" x2="0.539" y2="1.084" xlink:href="#linear-gradient"/>
    <linearGradient id="linear-gradient-25" x1="0.532" y1="0.006" x2="0.327" y2="3.202" gradientUnits="objectBoundingBox">
      <stop offset="0" stop-color="#cb236d"/>
      <stop offset="1" stop-color="#4c246d"/>
    </linearGradient>
    <linearGradient id="linear-gradient-26" x1="0" y1="0.5" x2="1" y2="0.5" xlink:href="#linear-gradient"/>
    <linearGradient id="linear-gradient-27" x1="0.311" y1="2.213" x2="0.471" y2="0.817" gradientUnits="objectBoundingBox">
      <stop offset="0" stop-color="#e1473d"/>
      <stop offset="1" stop-color="#e9605a"/>
    </linearGradient>
    <linearGradient id="linear-gradient-28" x1="0.554" y1="-2.158" x2="0.395" y2="6.275" xlink:href="#linear-gradient-25"/>
    <linearGradient id="linear-gradient-29" x1="0.486" y1="0.386" x2="0.757" y2="2.571" xlink:href="#linear-gradient"/>
    <linearGradient id="linear-gradient-30" x1="0.532" y1="0.118" x2="0.431" y2="1.151" xlink:href="#linear-gradient"/>
    <linearGradient id="linear-gradient-31" x1="-1.909" y1="9.651" x2="-3.505" y2="11.652" xlink:href="#linear-gradient-21"/>
    <linearGradient id="linear-gradient-32" x1="0.585" y1="-0.306" x2="0.151" y2="2.977" xlink:href="#linear-gradient"/>
    <linearGradient id="linear-gradient-33" x1="0.623" y1="0.5" x2="1.623" y2="0.5" xlink:href="#linear-gradient"/>
    <linearGradient id="linear-gradient-34" x1="-1.094" y1="8.927" x2="-2.029" y2="10.603" xlink:href="#linear-gradient-21"/>
    <linearGradient id="linear-gradient-35" x1="0" y1="0.5" x2="1" y2="0.5" xlink:href="#linear-gradient-21"/>
    <linearGradient id="linear-gradient-36" y1="0.5" x2="1" y2="0.5" gradientUnits="objectBoundingBox">
      <stop offset="0" stop-color="#4042e2"/>
      <stop offset="1" stop-color="#4f52ff"/>
    </linearGradient>
  </defs>
  <g id="Grupo_56706" data-name="Grupo 56706" transform="translate(-954 -3992)">
    <rect id="Rectángulo_5659" data-name="Rectángulo 5659" width="406" height="295" transform="translate(954 3992)" fill="none"/>
    <g id="Grupo_55560" data-name="Grupo 55560" transform="translate(621.359 3895.631)">
      <path id="Trazado_101605" data-name="Trazado 101605" d="M429.5,352.409s-65.066,3.86-68.652-13.745,12.692-8.3,10.878-16.614-33.314-20.658-27.333-53.312,27.214-24.232,34.065-40.463-28.935-34.565-4.691-65.187,43.439-4.591,58.948-5.3,12.29-29.736,41.779-30.823,29.08,35.66,47.114,36.634,10.984-12.455,38.07-8.872,24.154,17.708,51.171,11.054,56.1-30.015,86.718-.827-10.538,59.417-6.189,76.3,14.939,8.476,23.623,28.1-20.183,31.378-15.981,50.345-38.055,45.578-79.4,32.52S429.5,352.409,429.5,352.409Z" transform="translate(0 0)" fill="#fff"/>
      <g id="Grupo_55539" data-name="Grupo 55539" transform="translate(521.721 159.543)">
        <g id="Grupo_55535" data-name="Grupo 55535" transform="translate(22.492 27.207)" opacity="0.8">
          <path id="Trazado_101650" data-name="Trazado 101650" d="M1558.139,488.6c5.045,1.842,17.269,5.049,33.426.75a2.373,2.373,0,0,1,2.74,1.225,114.848,114.848,0,0,1,5.843,13.4,2.218,2.218,0,0,1-1.639,2.857c-6.434,1.388-25.312,4.233-39.052-6.238a3.56,3.56,0,0,1-1.306-2.033l-1.911-8.28A1.444,1.444,0,0,1,1558.139,488.6Z" transform="translate(-1556.201 -488.512)" fill="#a397e3"/>
          <path id="Trazado_101651" data-name="Trazado 101651" d="M1656.326,530.909a.578.578,0,0,1-.544-.383l-4.179-11.638a.578.578,0,0,1,1.088-.39l4.179,11.638a.578.578,0,0,1-.544.773Z" transform="translate(-1635.794 -513.219)" fill="url(#linear-gradient)"/>
          <path id="Trazado_101652" data-name="Trazado 101652" d="M1683.628,531.636a.578.578,0,0,1-.52-.326l-6.217-12.853a.578.578,0,1,1,1.04-.5l6.217,12.853a.577.577,0,0,1-.52.829Z" transform="translate(-1656.879 -512.812)" fill="url(#linear-gradient-2)"/>
          <path id="Trazado_101653" data-name="Trazado 101653" d="M1709.274,527.685a.577.577,0,0,1-.525-.336l-6.233-13.512a.578.578,0,1,1,1.049-.484l6.233,13.512a.577.577,0,0,1-.524.82Z" transform="translate(-1678.27 -508.964)" fill="url(#linear-gradient-3)"/>
          <path id="Trazado_101654" data-name="Trazado 101654" d="M1737.743,523.346a.578.578,0,0,1-.547-.392l-4.592-13.486a.578.578,0,0,1,1.094-.372l4.591,13.486a.578.578,0,0,1-.547.764Z" transform="translate(-1703.399 -505.365)" fill="url(#linear-gradient-4)"/>
          <path id="Trazado_101655" data-name="Trazado 101655" d="M1761.572,516.4a.577.577,0,0,1-.54-.373l-5.5-14.514a.578.578,0,0,1,1.08-.409l5.5,14.514a.578.578,0,0,1-.54.783Z" transform="translate(-1722.526 -498.709)" fill="url(#linear-gradient-5)"/>
        </g>
        <g id="Grupo_55536" data-name="Grupo 55536" transform="translate(74.03 5.6)" opacity="0.7">
          <path id="Trazado_101656" data-name="Trazado 101656" d="M1868.02,383.919l4.959,10.118a2,2,0,0,0,2.038,1.1c4.84-.6,21.043-3.323,33.548-13.923a2.692,2.692,0,0,0,.809-2.878l-6.035-18.77a2.417,2.417,0,0,0-3.013-1.574,34.844,34.844,0,0,0-17.134,12.539c-3.8,5.03-10.494,8.537-14,10.129A2.41,2.41,0,0,0,1868.02,383.919Z" transform="translate(-1867.773 -357.885)" fill="#91b3fa"/>
          <path id="Trazado_101657" data-name="Trazado 101657" d="M1941.315,487.021a.578.578,0,0,1-.514-.313l-6.645-12.9a.578.578,0,0,1,1.027-.529l6.645,12.9a.578.578,0,0,1-.513.842Z" transform="translate(-1923.122 -453.929)" fill="url(#linear-gradient-6)"/>
          <path id="Trazado_101658" data-name="Trazado 101658" d="M1960.422,472.506a.578.578,0,0,1-.5-.294l-8.171-14.517a.578.578,0,1,1,1.007-.567l8.172,14.517a.578.578,0,0,1-.5.861Z" transform="translate(-1937.795 -440.467)" fill="url(#linear-gradient-6)"/>
          <path id="Trazado_101659" data-name="Trazado 101659" d="M2005.692,490.775a.578.578,0,0,1-.532-.353l-3.6-8.523a.578.578,0,0,1,1.065-.45l3.6,8.523a.578.578,0,0,1-.532.8Z" transform="translate(-1979.391 -460.717)" fill="url(#linear-gradient-6)"/>
          <path id="Trazado_101660" data-name="Trazado 101660" d="M2016.486,421.671a.578.578,0,0,1-.538-.369l-7.24-18.625a.578.578,0,1,1,1.077-.418l7.24,18.625a.578.578,0,0,1-.538.787Z" transform="translate(-1985.362 -394.611)" fill="url(#linear-gradient-6)"/>
          <path id="Trazado_101661" data-name="Trazado 101661" d="M2040.746,401.095a.578.578,0,0,1-.555-.417l-5.892-20.335a.578.578,0,1,1,1.109-.322l5.892,20.335a.578.578,0,0,1-.555.739Z" transform="translate(-2006.735 -376.012)" fill="url(#linear-gradient-6)"/>
        </g>
        <g id="Grupo_55537" data-name="Grupo 55537" transform="translate(97.753 0)">
          <path id="Trazado_101662" data-name="Trazado 101662" d="M2011.337,352.148c1.4,2.4,4.37,7.822,4.613,10.915a1.072,1.072,0,0,0,.99.991c4.883.358,26.193,1.024,35.59-13.549a1.068,1.068,0,0,0,.119-.893c-.866-2.792-5.476-17.238-10.529-25.092a1.074,1.074,0,0,0-1.776-.036c-3.493,4.892-16.671,22.449-28.4,26.1A1.071,1.071,0,0,0,2011.337,352.148Z" transform="translate(-2011.191 -324.031)" fill="#91b3fa"/>
          <path id="Trazado_101663" data-name="Trazado 101663" d="M2187.222,385.458a.578.578,0,0,1-.573-.508c-.954-7.816-8.424-19.6-8.5-19.721a.578.578,0,1,1,.974-.621c.313.491,7.686,12.126,8.672,20.2a.577.577,0,0,1-.5.643A.61.61,0,0,1,2187.222,385.458Z" transform="translate(-2150.457 -357.673)" fill="url(#linear-gradient-6)"/>
          <path id="Trazado_101664" data-name="Trazado 101664" d="M2170.877,403.689a.578.578,0,0,1-.564-.455c-1.221-5.649-7.637-17.884-7.7-18.007a.578.578,0,0,1,1.022-.538c.267.508,6.555,12.5,7.81,18.3a.578.578,0,0,1-.443.687A.593.593,0,0,1,2170.877,403.689Z" transform="translate(-2137.508 -374.398)" fill="url(#linear-gradient-6)"/>
          <path id="Trazado_101665" data-name="Trazado 101665" d="M2176.992,481.032a.577.577,0,0,1-.527-.343l-2.685-6.019a.577.577,0,1,1,1.055-.47l2.685,6.019a.578.578,0,0,1-.527.813Z" transform="translate(-2146.844 -449.074)" fill="url(#linear-gradient-6)"/>
          <path id="Trazado_101666" data-name="Trazado 101666" d="M2160.044,491.647a.577.577,0,0,1-.542-.38l-2-5.475a.578.578,0,1,1,1.085-.4l2,5.475a.578.578,0,0,1-.542.776Z" transform="translate(-2133.274 -458.387)" fill="url(#linear-gradient-6)"/>
        </g>
        <g id="Grupo_55538" data-name="Grupo 55538" transform="translate(0 10.81)" opacity="0.7">
          <path id="Trazado_101667" data-name="Trazado 101667" d="M1421.631,389.526c4.153,2.632,16.7,10.047,26.585,10.287a.909.909,0,0,1,.84.635l4.678,14.587a.915.915,0,0,1-1.017,1.184c-5.491-.9-24.88-4.694-32.307-14.516a.916.916,0,0,1-.183-.553V390.3A.915.915,0,0,1,1421.631,389.526Z" transform="translate(-1420.227 -389.382)" fill="#91b3fa"/>
          <path id="Trazado_101668" data-name="Trazado 101668" d="M1578.924,470.869a.578.578,0,0,1-.555-.418l-3.41-11.865a.578.578,0,1,1,1.11-.319l3.41,11.865a.577.577,0,0,1-.4.715A.571.571,0,0,1,1578.924,470.869Z" transform="translate(-1549.345 -446.523)" fill="url(#linear-gradient-6)"/>
          <path id="Trazado_101669" data-name="Trazado 101669" d="M1559.7,467.578a.577.577,0,0,1-.563-.45l-2.716-12.017a.578.578,0,0,1,1.127-.254l2.715,12.017a.578.578,0,0,1-.564.7Z" transform="translate(-1533.884 -443.65)" fill="url(#linear-gradient-6)"/>
          <path id="Trazado_101670" data-name="Trazado 101670" d="M1538.441,456.522a.577.577,0,0,1-.56-.44,53.122,53.122,0,0,1-1.26-5.995.578.578,0,0,1,1.152.088c.005.4.629,3.176,1.23,5.632a.577.577,0,0,1-.423.7A.585.585,0,0,1,1538.441,456.522Z" transform="translate(-1517.365 -439.607)" fill="url(#linear-gradient-6)"/>
          <path id="Trazado_101671" data-name="Trazado 101671" d="M1459.33,426.665a.577.577,0,0,1-.577-.561c-.291-10.336-.018-10.782.084-10.951a.578.578,0,0,1,1.025.526c-.142.669-.084,5.827.045,10.392a.577.577,0,0,1-.561.594Zm.494-10.91h0Z" transform="translate(-1452.271 -410.66)" fill="url(#linear-gradient-6)"/>
        </g>
      </g>
      <g id="Grupo_55540" data-name="Grupo 55540" transform="translate(399.738 178.708)">
        <path id="Trazado_101672" data-name="Trazado 101672" d="M1678.579,602.466l49.034-93.938h-10.046a2.194,2.194,0,0,1-1.7-3.586l52.26-63.694a3.686,3.686,0,0,1,6.529,2.555l-3.673,62.285a6.224,6.224,0,0,1-6.921,5.817l-7-.8L1708.41,616.464a7.746,7.746,0,0,1-7.033,4.5h-16.862Z" transform="translate(-1513.861 -439.89)" fill="#392a8d"/>
        <path id="Trazado_101673" data-name="Trazado 101673" d="M1433.493,957.48l34.617,76.9a12.7,12.7,0,0,0,11.576,7.484h17.846a6.516,6.516,0,0,0,5.7-3.355l.635-1.144h0a5.1,5.1,0,0,1-4.544-2.783L1453.2,944.208Z" transform="translate(-1309.315 -860.788)" fill="#392a8d"/>
        <path id="Trazado_101674" data-name="Trazado 101674" d="M1110.619,908.268h0a7.571,7.571,0,0,0-10.994,1.747l-50.9,76.468a21.986,21.986,0,0,1-18.3,9.8h-7.162l-5.828-16.79s47.316-72.551,59.511-83.525c0,0,12.145-10.946,24.12-2.67a19.984,19.984,0,0,1,7.033,8.862Z" transform="translate(-962.079 -815.72)" fill="#392a8d"/>
        <path id="Trazado_101675" data-name="Trazado 101675" d="M682.777,1094.928s8.52-10.649,25.029-12.306c0,0,7.841,2.672,23.463,30.663s25.991,40.756,38.158,33.784l-1.007,1.673a18.35,18.35,0,0,1-15.719,8.882h-6.729a23.021,23.021,0,0,1-18.691-9.577C715.121,1131.146,690.246,1097.552,682.777,1094.928Z" transform="translate(-682.777 -976.306)" fill="#a397e3"/>
        <path id="Trazado_101676" data-name="Trazado 101676" d="M2221.032,562.116a.546.546,0,0,1-.542-.606l.345-3.041a.545.545,0,1,1,1.083.123l-.344,3.041A.545.545,0,0,1,2221.032,562.116Z" transform="translate(-1966.131 -538.45)" fill="url(#linear-gradient-19)"/>
        <path id="Trazado_101679" data-name="Trazado 101679" d="M1330.388,1206.193a.545.545,0,0,1-.451-.85l1.431-2.121a.545.545,0,0,1,.9.609l-1.431,2.121A.544.544,0,0,1,1330.388,1206.193Z" transform="translate(-1222.811 -1076.757)" fill="url(#linear-gradient-20)"/>
      </g>
      <g id="Grupo_55542" data-name="Grupo 55542" transform="translate(382.261 293.816)">
        <path id="Trazado_101682" data-name="Trazado 101682" d="M652.954,1201.241c1.088.437-6.979-10.627-8.584-20.947s-5.789-27.783-15.838-37.444-19.947-9.607-31.29,1.307c-9.452,9.1-15.448,13.813-19.133,14.957a1.43,1.43,0,0,0-.738,2.173c2.877,4.194,10.764,13.694,22.148,11.782,14.521-2.438,31.245-13.784,37.469-6.42s5.992,11.871,6.549,15.611S645.754,1198.353,652.954,1201.241Z" transform="translate(-577.119 -1135.78)" fill="#392a8d"/>
        <path id="Trazado_101683" data-name="Trazado 101683" d="M731.521,1212.219a32.894,32.894,0,0,1,4.85-4.614,27.389,27.389,0,0,1,5.767-3.515,19.2,19.2,0,0,1,3.254-1.1,14.333,14.333,0,0,1,3.466-.377c.294.016.588.014.881.048s.591.061.873.111l1.672.335,1.65.452,1.615.58a19.408,19.408,0,0,1,5.79,3.639,24.269,24.269,0,0,1,4.288,5.252l.446.717c.151.237.269.493.4.738.259.5.534.987.78,1.489.465,1.017.951,2.024,1.33,3.073a55.778,55.778,0,0,1,2.036,6.339.272.272,0,0,1-.519.165l0-.009c-.747-2.068-1.491-4.134-2.412-6.116-.43-1.005-.947-1.964-1.437-2.935-.259-.478-.544-.939-.815-1.409s-.57-.92-.87-1.369a24.235,24.235,0,0,0-4.182-4.858,18.784,18.784,0,0,0-5.409-3.292l-1.5-.528-1.543-.412-1.574-.3c-.26-.045-.51-.067-.766-.1s-.513-.03-.77-.048a12.823,12.823,0,0,0-3.1.312,17.854,17.854,0,0,0-3.028.942,30.346,30.346,0,0,0-5.655,3.106,45.233,45.233,0,0,0-5.1,4.078l-.009.008a.283.283,0,0,1-.408-.391Z" transform="translate(-705.924 -1191.554)" fill="#dce5fe"/>
      </g>
      <g id="Grupo_55549" data-name="Grupo 55549" transform="translate(572.657 277.675)">
        <g id="Grupo_55543" data-name="Grupo 55543" transform="translate(51.101 55.818)">
          <rect id="Rectángulo_5318" data-name="Rectángulo 5318" width="1.973" height="21.337" transform="translate(9.536 4.781)" fill="url(#linear-gradient-21)"/>
          <path id="Rectángulo_5319" data-name="Rectángulo 5319" d="M1.284,0H16a1.284,1.284,0,0,1,1.284,1.284v0a0,0,0,0,1,0,0H0a0,0,0,0,1,0,0v0A1.284,1.284,0,0,1,1.284,0Z" transform="translate(1.882 25.245)" fill="url(#linear-gradient-22)"/>
          <rect id="Rectángulo_5320" data-name="Rectángulo 5320" width="21.727" height="6.162" rx="3.081" fill="url(#linear-gradient-23)"/>
        </g>
        <g id="Grupo_55544" data-name="Grupo 55544" transform="translate(21.576 42.365)">
          <path id="Trazado_101684" data-name="Trazado 101684" d="M1977.5,1318.541a17.173,17.173,0,0,0-6.228,2.658,1.643,1.643,0,0,0-.725,1.57,69.663,69.663,0,0,0,7.369,23.13,2.491,2.491,0,0,1,.239,1.707l-.93,4.327-1.724,1.617h4.441l2.957-8-1.264-.4a2.393,2.393,0,0,1-1.671-2.24l-.148-8.584a9.766,9.766,0,0,0-2.345-6.463l7.093-.345Z" transform="translate(-1952.017 -1314.534)" fill="url(#linear-gradient-24)"/>
          <path id="Trazado_101685" data-name="Trazado 101685" d="M1989.953,1488.475c-.4.529,4.353,1.228,6.757.07,0,0,3.332-5.8,3.332-8.782,0,0-.265-.609-2.221-.471,0,0-1.119,6.864-2.3,7.633s-3.3.078-3.3.078A6.957,6.957,0,0,0,1989.953,1488.475Z" transform="translate(-1968.205 -1448.678)" fill="url(#linear-gradient-25)"/>
          <path id="Trazado_101686" data-name="Trazado 101686" d="M1900.553,1333.547c-.038-.065-7.636-.914-7.636-.914a17.569,17.569,0,0,1-.528,5.491c-.777,3.18-11.934,16.96-11.934,16.96l1.17,3.708a18.816,18.816,0,0,1-10.675.642l7.249-4.35s6.785-23.121,10.941-27.246l7.617-2.635Z" transform="translate(-1868.907 -1320.094)" fill="url(#linear-gradient-26)"/>
          <path id="Trazado_101687" data-name="Trazado 101687" d="M2009.758,1294.315s4.378,6.512,4.737,9.482-1.2,4.177-5.793,4.376-16.856.2-16.856.2l-10.466-8.945s7.627-2.722,9.61-3.491S2009.758,1294.315,2009.758,1294.315Z" transform="translate(-1961.07 -1294.315)" fill="url(#linear-gradient-27)"/>
          <path id="Trazado_101688" data-name="Trazado 101688" d="M1870.874,1520.715a2.142,2.142,0,0,1,.409,2.577s-9.976,1.768-12.685.966c0,0,.563-1.284,3.613-2.745l-.225.173a.364.364,0,0,0,.241.654C1864.235,1522.225,1868.395,1521.857,1870.874,1520.715Z" transform="translate(-1858.597 -1483.266)" fill="url(#linear-gradient-28)"/>
        </g>
        <g id="Grupo_55545" data-name="Grupo 55545" transform="translate(45.694)">
          <path id="Trazado_101689" data-name="Trazado 101689" d="M2035.721,1170.013a99.877,99.877,0,0,1-7.607-8.069,6.823,6.823,0,0,1-1.156-6.14,84.618,84.618,0,0,1,3.368-8.48c.284-.954,6-.914,6-.914s11.249,7.3,15.668,19.667l-4.964,1.545a57.977,57.977,0,0,0-5.839-8.06s5.021,6.633,5.2,9.349Z" transform="translate(-2022.991 -1128.51)" fill="#392a8d"/>
          <path id="Trazado_101690" data-name="Trazado 101690" d="M2044.568,1115.827c.06.2,1.552,5.144,1.668,5.247s3.272.273,4.757-.743l-2.52-5.275Z" transform="translate(-2037.924 -1102.343)" fill="url(#linear-gradient-29)"/>
          <path id="Trazado_101691" data-name="Trazado 101691" d="M2017.18,1075.848a10.078,10.078,0,0,0-1.019,6.688c.607,4.259,2.737,5.009,4.308,4.271a8.04,8.04,0,0,0,4.587-5.773C2025.946,1077.441,2019.365,1072.8,2017.18,1075.848Z" transform="translate(-2014.103 -1068.794)" fill="url(#linear-gradient-30)"/>
          <path id="Trazado_101692" data-name="Trazado 101692" d="M2012.689,1060.281s-1.43-5.875-5.685-3.158l-.537,1.346s-3.282-1.621-1.569-4.55a6.466,6.466,0,0,1,9.572-1.588c3.331,2.712,4.151,5.339,3.429,8.158s-2.684,1.45-2.684,1.45-.027-2.176-.965-2.733-1.207,1.036-1.207,1.036Z" transform="translate(-2004.403 -1048.773)" fill="url(#linear-gradient-31)"/>
          <path id="Trazado_101693" data-name="Trazado 101693" d="M2058.669,1094.942s-.753-3.016,1.034-2.792.557,2.876.019,3.827Z" transform="translate(-2049.561 -1083.215)" fill="url(#linear-gradient-32)"/>
          <path id="Trazado_101694" data-name="Trazado 101694" d="M2018.576,1269.6l3.746-3.61,5.182,2.189s5.157.8,8.109,0l2.952-.8,6.671-2.077,1.047,2.961a1.783,1.783,0,0,1-.651,2.048,11.773,11.773,0,0,1-1.684,1.05c-.879.384-21.656-.266-21.656-.266Z" transform="translate(-2016.232 -1227.739)" fill="url(#linear-gradient-33)"/>
          <path id="Trazado_101695" data-name="Trazado 101695" d="M2061,1042.508a1.155,1.155,0,0,1-.482-1.989c2.22-2.011,6.249-4.1,11.313.157,5.7,4.791,8.825,7.009,10.361,6.749a1.161,1.161,0,0,1,1.223,1.745,4.927,4.927,0,0,1-2.524,1.789C2070.46,1054.946,2066.318,1043.668,2061,1042.508Z" transform="translate(-2050.912 -1038.196)" fill="url(#linear-gradient-34)"/>
        </g>
        <g id="Grupo_55546" data-name="Grupo 55546" transform="translate(19.456 23.838)">
          <path id="Trazado_101696" data-name="Trazado 101696" d="M1989.488,1291.645h-.05l-21.727-.024a.972.972,0,1,1,0-1.945l21.728.024a.973.973,0,0,1,.048,1.944Z" transform="translate(-1946.732 -1271.918)" fill="url(#linear-gradient-35)"/>
          <path id="Trazado_101697" data-name="Trazado 101697" d="M1847.233,1182.311h18.095a3.448,3.448,0,0,1,3.119,1.978l8.365,17.738h-22.487a2.1,2.1,0,0,1-1.949-1.326l-6.487-16.414A1.445,1.445,0,0,1,1847.233,1182.311Z" transform="translate(-1845.786 -1182.311)" fill="aqua"/>
          <path id="Trazado_101698" data-name="Trazado 101698" d="M1917.023,1228.15c.392,1.218.1,2.4-.647,2.643s-1.675-.551-2.067-1.769-.1-2.4.647-2.643S1916.631,1226.932,1917.023,1228.15Z" transform="translate(-1902.828 -1219.055)" fill="#91b3fa"/>
        </g>
        <g id="Grupo_55548" data-name="Grupo 55548" transform="translate(0 43.359)">
          <path id="Trazado_101699" data-name="Trazado 101699" d="M1820.743,1301.325a.8.8,0,0,0-.189-.695.921.921,0,0,0-.692-.306h-90.668a1.049,1.049,0,0,0-.869.446.915.915,0,0,0-.068.927l.982,1.994a1.385,1.385,0,0,0,1.249.749h88.752a1.026,1.026,0,0,0,1.022-.791Z" transform="translate(-1728.162 -1300.325)" fill="url(#linear-gradient-36)"/>
          <g id="Grupo_55547" data-name="Grupo 55547" transform="translate(5.318 1.694)">
            <path id="Trazado_101700" data-name="Trazado 101700" d="M1761.109,1351.883a.78.78,0,0,1-.314-.067.821.821,0,0,1-.417-1.069l16.687-39.691a.789.789,0,0,1,1.045-.426.821.821,0,0,1,.417,1.069l-16.687,39.691A.8.8,0,0,1,1761.109,1351.883Z" transform="translate(-1760.314 -1310.564)" fill="url(#linear-gradient-36)"/>
            <path id="Trazado_101701" data-name="Trazado 101701" d="M1790.559,1351.883a.8.8,0,0,1-.731-.493L1773.14,1311.7a.821.821,0,0,1,.417-1.069.789.789,0,0,1,1.045.426l16.688,39.691a.821.821,0,0,1-.416,1.069A.781.781,0,0,1,1790.559,1351.883Z" transform="translate(-1770.964 -1310.563)" fill="url(#linear-gradient-36)"/>
            <path id="Trazado_101702" data-name="Trazado 101702" d="M2158.379,1351.883a.78.78,0,0,1-.314-.067.821.821,0,0,1-.416-1.069l16.687-39.691a.789.789,0,0,1,1.045-.426.821.821,0,0,1,.417,1.069l-16.687,39.691A.8.8,0,0,1,2158.379,1351.883Z" transform="translate(-2091.87 -1310.564)" fill="url(#linear-gradient-36)"/>
            <path id="Trazado_101703" data-name="Trazado 101703" d="M2187.828,1351.883a.8.8,0,0,1-.731-.493l-16.687-39.691a.821.821,0,0,1,.417-1.069.789.789,0,0,1,1.045.426l16.688,39.691a.822.822,0,0,1-.417,1.069A.779.779,0,0,1,2187.828,1351.883Z" transform="translate(-2102.52 -1310.563)" fill="url(#linear-gradient-36)"/>
          </g>
        </g>
      </g>
      <g id="Grupo_55553" data-name="Grupo 55553" transform="translate(505.12 312.922)">
        <g id="Grupo_55552" data-name="Grupo 55552">
          <g id="Grupo_55550" data-name="Grupo 55550" transform="translate(12.138 4.718)">
            <path id="Trazado_101704" data-name="Trazado 101704" d="M1406.931,1307.036a.927.927,0,0,1-.833-.521l-.891-1.832a11.285,11.285,0,0,1-2.759-.771l-1.712,1.107a.925.925,0,0,1-1.075-.05l-2.295-1.8a.925.925,0,0,1-.3-1.033l.665-1.926a11.289,11.289,0,0,1-1.407-2.495l-1.993-.427a.927.927,0,0,1-.725-.794l-.351-2.9a.926.926,0,0,1,.515-.945l1.832-.891a11.324,11.324,0,0,1,.771-2.759l-1.107-1.712a.927.927,0,0,1,.049-1.074l1.8-2.3a.927.927,0,0,1,1.032-.3l1.927.666a11.277,11.277,0,0,1,2.495-1.408l.427-1.992a.928.928,0,0,1,.794-.725l2.9-.351a.924.924,0,0,1,.944.512l.892,1.835a11.3,11.3,0,0,1,2.759.771l1.712-1.107a.928.928,0,0,1,1.073.048l2.3,1.8a.927.927,0,0,1,.3,1.03l-.666,1.929a11.3,11.3,0,0,1,1.407,2.494l1.993.428a.927.927,0,0,1,.725.794l.351,2.9a.925.925,0,0,1-.515.945l-1.832.891a11.325,11.325,0,0,1-.77,2.759l1.107,1.712a.928.928,0,0,1-.049,1.074l-1.8,2.3a.927.927,0,0,1-1.031.3l-1.928-.667a11.284,11.284,0,0,1-2.495,1.408l-.427,1.992a.927.927,0,0,1-.793.725l-2.9.351A.931.931,0,0,1,1406.931,1307.036Zm-4.605-4.775.364.169a9.845,9.845,0,0,0,3.079.86l.4.044,1.074,2.208,2.15-.26.515-2.4.376-.138a9.852,9.852,0,0,0,2.784-1.571l.313-.251,2.323.8,1.336-1.7-1.334-2.063.169-.364a9.849,9.849,0,0,0,.86-3.079l.044-.4,2.208-1.074-.261-2.15-2.4-.516-.138-.376a9.867,9.867,0,0,0-1.571-2.784l-.251-.313.8-2.322-1.7-1.336-2.064,1.334-.364-.169a9.853,9.853,0,0,0-3.079-.86l-.4-.044-1.074-2.208-2.15.261-.515,2.4-.376.138a9.859,9.859,0,0,0-2.784,1.571l-.312.251-2.323-.8-1.336,1.7,1.334,2.063-.169.364a9.85,9.85,0,0,0-.86,3.079l-.044.4-2.208,1.074.261,2.15,2.4.515.138.377a9.847,9.847,0,0,0,1.571,2.784l.251.313-.8,2.322,1.7,1.336Zm-2.378,1.538h0Zm-1.512-1.186h0Zm-.174-.586h0Zm-.007-17.208h0Zm8.54,16.332a7.765,7.765,0,1,1,7.724-8.7,7.8,7.8,0,0,1,.024,1.652.726.726,0,1,1-1.447-.133,6.342,6.342,0,0,0-.02-1.344,6.308,6.308,0,1,0-2.4,5.747.726.726,0,1,1,.892,1.147,7.754,7.754,0,0,1-3.826,1.573A7.914,7.914,0,0,1,1406.794,1301.151Z" transform="translate(-1393.245 -1279.803)" fill="#91b3fa"/>
            <path id="Trazado_101705" data-name="Trazado 101705" d="M1458.822,1348.7a3.317,3.317,0,1,1,3.1-4.511h0a3.321,3.321,0,0,1-3.1,4.511Zm0-5.183a1.864,1.864,0,1,0,1.738,1.194h0a1.868,1.868,0,0,0-1.738-1.194Z" transform="translate(-1445.206 -1331.765)" fill="#91b3fa"/>
          </g>
          <g id="Grupo_55551" data-name="Grupo 55551">
            <path id="Trazado_101706" data-name="Trazado 101706" d="M1324.874,1264.378a.644.644,0,0,1-.231-.043l-1.308-.507a.642.642,0,0,1-.409-.62l.033-.88a5.618,5.618,0,0,1-.883-.843l-.875.073a.638.638,0,0,1-.639-.378l-.567-1.285a.64.64,0,0,1,.151-.729l.643-.6a5.6,5.6,0,0,1-.027-1.22l-.671-.567a.643.643,0,0,1-.183-.722l.507-1.307a.651.651,0,0,1,.623-.409l.877.033a5.624,5.624,0,0,1,.843-.883l-.073-.875a.643.643,0,0,1,.381-.64l1.282-.566a.642.642,0,0,1,.731.153l.595.642a5.621,5.621,0,0,1,1.22-.027l.567-.671a.641.641,0,0,1,.722-.183l1.307.507a.64.64,0,0,1,.409.62l-.033.88a5.63,5.63,0,0,1,.883.843l.874-.073a.642.642,0,0,1,.642.383l.565,1.28a.641.641,0,0,1-.149.727l-.646.6a5.591,5.591,0,0,1,.027,1.22l.671.568a.641.641,0,0,1,.183.722l-.507,1.307a.644.644,0,0,1-.62.409l-.88-.033a5.611,5.611,0,0,1-.843.882l.073.875a.641.641,0,0,1-.379.639l-1.284.566a.64.64,0,0,1-.731-.153l-.595-.642a5.667,5.667,0,0,1-1.22.027l-.567.671A.64.64,0,0,1,1324.874,1264.378Zm-.342-.932,0,0Zm4.012-.094,0,0Zm-.507-.1h0Zm-4.011-.323.711.276.743-.878.3.042a4.509,4.509,0,0,0,1.474-.033l.3-.055.782.843.7-.308-.1-1.146.24-.181a4.541,4.541,0,0,0,1.019-1.066l.17-.248,1.149.044.276-.711-.878-.743.042-.3a4.532,4.532,0,0,0-.033-1.474l-.055-.3.843-.781-.308-.7-1.145.1-.181-.24a4.553,4.553,0,0,0-1.066-1.018l-.248-.17.044-1.149-.712-.276-.743.878-.3-.042a4.558,4.558,0,0,0-1.474.033l-.3.055-.782-.843-.7.308.1,1.146-.24.181a4.551,4.551,0,0,0-1.018,1.067l-.17.248-1.149-.044-.276.711.878.743-.042.3a4.541,4.541,0,0,0,.033,1.473l.055.3-.843.781.308.7,1.145-.1.181.24a4.535,4.535,0,0,0,1.066,1.018l.248.17Zm5.027.2v0Zm-8.166-3.167h0Zm.1-.511v0Zm10.909-.246v0Zm-.068-3h0Zm-.116-1.017h0Zm-.45-.266,0,0Zm.4-.277h0Zm-8.163-1.67h0Zm5.589-.127h0Zm-1.307-.507h0Zm-3.51-.037,0,0Zm2.106,9.449a3.929,3.929,0,1,1,3.849-4.721.545.545,0,0,1-1.068.219,2.839,2.839,0,1,0-.465,2.212.545.545,0,1,1,.89.629,3.943,3.943,0,0,1-3.206,1.661Z" transform="translate(-1319.865 -1251.283)" fill="#91b3fa"/>
          </g>
        </g>
      </g>
      <g id="Grupo_55554" data-name="Grupo 55554" transform="translate(652.31 261.768)">
        <path id="Trazado_101707" data-name="Trazado 101707" d="M2236.563,985.5a106.275,106.275,0,0,1-19.026-1.513c-3.68-.748-5.612-1.681-5.907-2.849-1.018-4.033-4.343-34.272,1.152-39.022a.358.358,0,0,1,.246-.087c4.552.162,44.546,1.673,46.993,4.886,2.649,3.479-4.629,33.019-7.132,36.32C2251.724,984.774,2244.568,985.5,2236.563,985.5Zm-23.417-42.753c-4.739,4.532-2.024,33.469-.825,38.217.1.391.819,1.4,5.359,2.325,10.823,2.2,32.838,1.894,34.64-.483,1.176-1.551,3.533-9.406,5.368-17.883,2.036-9.409,2.729-16.308,1.764-17.575C2257.76,945.127,2230.891,943.384,2213.146,942.749Z" transform="translate(-2209.7 -942.031)" fill="#91b3fa"/>
        <path id="Trazado_101708" data-name="Trazado 101708" d="M2266.5,1100.1h-3.209a.713.713,0,0,1-.713-.713v-9.6a.713.713,0,0,1,.713-.713h3.209a.713.713,0,0,1,.713.713v9.6A.713.713,0,0,1,2266.5,1100.1Zm-2.5-1.426h1.783V1090.5h-1.783Z" transform="translate(-2253.834 -1064.753)" fill="#91b3fa"/>
        <path id="Trazado_101709" data-name="Trazado 101709" d="M2298.8,1068.584h-4.385a.713.713,0,0,1-.713-.713v-15.847a.713.713,0,0,1,.713-.713h4.385a.713.713,0,0,1,.713.713v15.847A.713.713,0,0,1,2298.8,1068.584Zm-3.673-1.426h2.96v-14.42h-2.96Z" transform="translate(-2279.806 -1033.235)" fill="#91b3fa"/>
        <path id="Trazado_101710" data-name="Trazado 101710" d="M2340.184,1051.667H2334.1a.713.713,0,0,1-.714-.713v-19.2a.713.713,0,0,1,.714-.713h6.087a.713.713,0,0,1,.713.713v19.2A.713.713,0,0,1,2340.184,1051.667Zm-5.375-1.426h4.662v-17.773h-4.662Z" transform="translate(-2312.925 -1016.319)" fill="#91b3fa"/>
        <path id="Trazado_101711" data-name="Trazado 101711" d="M2400.738,1031.341h-7.29a.713.713,0,0,1-.713-.713V1007.4a.713.713,0,0,1,.713-.713h7.29a.713.713,0,0,1,.713.713v23.228A.713.713,0,0,1,2400.738,1031.341Zm-6.577-1.426h5.864v-21.8h-5.864Z" transform="translate(-2362.459 -995.992)" fill="#91b3fa"/>
      </g>
      <g id="Grupo_55559" data-name="Grupo 55559" transform="translate(427.612 176.551)">
        <g id="Grupo_55555" data-name="Grupo 55555" transform="translate(0 65.476)">
          <path id="Trazado_101712" data-name="Trazado 101712" d="M1807.933,1240.7l-.658.31a.189.189,0,1,1-.161-.341h.005l.66-.3h0a.182.182,0,0,1,.152.33Z" transform="translate(-1648.918 -1171.264)" fill="#bdd0fb"/>
          <path id="Trazado_101713" data-name="Trazado 101713" d="M1783.414,1250.865l-.676.269a.23.23,0,0,1-.17-.428h.006l.677-.254h0a.223.223,0,0,1,.161.417Z" transform="translate(-1628.402 -1179.68)" fill="#bdd0fb"/>
          <path id="Trazado_101714" data-name="Trazado 101714" d="M1758.432,1259.718l-.688.236a.267.267,0,0,1-.173-.5h.005l.688-.225a.261.261,0,0,1,.168.5Z" transform="translate(-1607.511 -1187.003)" fill="#bdd0fb"/>
          <path id="Trazado_101715" data-name="Trazado 101715" d="M1733.122,1267.562l-.7.211a.3.3,0,1,1-.172-.569l.005,0,.7-.2a.292.292,0,0,1,.167.561Z" transform="translate(-1586.354 -1193.497)" fill="#bdd0fb"/>
          <path id="Trazado_101716" data-name="Trazado 101716" d="M1707.571,1274.554l-.7.189a.329.329,0,1,1-.171-.635l.006,0,.7-.178a.323.323,0,0,1,.165.625Z" transform="translate(-1565 -1199.279)" fill="#bdd0fb"/>
          <path id="Trazado_101717" data-name="Trazado 101717" d="M1681.827,1280.818l-.707.171a.36.36,0,0,1-.169-.7h.006l.707-.16a.355.355,0,0,1,.163.69Z" transform="translate(-1543.485 -1204.454)" fill="#bdd0fb"/>
          <path id="Trazado_101718" data-name="Trazado 101718" d="M1655.941,1286.44l-.71.154a.391.391,0,1,1-.166-.764h.007l.709-.143a.386.386,0,0,1,.159.755Z" transform="translate(-1521.854 -1209.093)" fill="#bdd0fb"/>
          <path id="Trazado_101719" data-name="Trazado 101719" d="M1629.97,1291.5l-.715.137a.414.414,0,1,1-.156-.814h0l.713-.13a.411.411,0,0,1,.153.808Z" transform="translate(-1500.159 -1213.276)" fill="#bdd0fb"/>
          <path id="Trazado_101720" data-name="Trazado 101720" d="M1603.915,1296.064l-.717.123a.433.433,0,0,1-.147-.854h.005l.715-.116a.43.43,0,0,1,.143.849Z" transform="translate(-1478.4 -1217.049)" fill="#bdd0fb"/>
          <path id="Trazado_101721" data-name="Trazado 101721" d="M1577.782,1300.126l-.719.109a.452.452,0,1,1-.136-.894h.005l.718-.1a.449.449,0,0,1,.133.889Z" transform="translate(-1456.576 -1220.406)" fill="#bdd0fb"/>
          <path id="Trazado_101722" data-name="Trazado 101722" d="M1551.583,1303.712l-.721.1a.471.471,0,0,1-.125-.934h.005l.719-.09a.468.468,0,0,1,.122.928Z" transform="translate(-1434.698 -1223.367)" fill="#bdd0fb"/>
          <path id="Trazado_101723" data-name="Trazado 101723" d="M1525.325,1306.842l-.723.084a.49.49,0,1,1-.114-.974h.005l.721-.078a.487.487,0,0,1,.11.968Z" transform="translate(-1412.771 -1225.946)" fill="#bdd0fb"/>
          <path id="Trazado_101724" data-name="Trazado 101724" d="M1499.018,1309.526l-.724.072a.509.509,0,0,1-.1-1.014h.006l.722-.066a.506.506,0,0,1,.1,1.008Z" transform="translate(-1390.804 -1228.154)" fill="#bdd0fb"/>
          <path id="Trazado_101725" data-name="Trazado 101725" d="M1472.668,1311.772l-.725.06a.528.528,0,1,1-.087-1.053h.006l.723-.054a.525.525,0,0,1,.084,1.047Z" transform="translate(-1368.802 -1229.996)" fill="#bdd0fb"/>
          <path id="Trazado_101726" data-name="Trazado 101726" d="M1446.283,1313.582l-.726.048a.547.547,0,0,1-.073-1.092h.006l.724-.042a.544.544,0,0,1,.069,1.086Z" transform="translate(-1346.771 -1231.475)" fill="#bdd0fb"/>
          <path id="Trazado_101727" data-name="Trazado 101727" d="M1419.914,1314.975l-.728.034a.559.559,0,1,1-.052-1.117h0l.724-.032a.558.558,0,0,1,.052,1.115Z" transform="translate(-1324.761 -1232.614)" fill="#bdd0fb"/>
          <path id="Trazado_101728" data-name="Trazado 101728" d="M1393.541,1315.956l-.728.022a.565.565,0,1,1-.034-1.13h0l.724-.02a.564.564,0,0,1,.034,1.128Z" transform="translate(-1302.753 -1233.422)" fill="#bdd0fb"/>
          <path id="Trazado_101729" data-name="Trazado 101729" d="M1367.152,1316.487l-.728.009a.571.571,0,1,1-.014-1.143h0l.725-.007a.57.57,0,0,1,.014,1.141Z" transform="translate(-1280.732 -1233.854)" fill="#bdd0fb"/>
          <path id="Trazado_101730" data-name="Trazado 101730" d="M1340.756,1316.52l-.728,0a.578.578,0,0,1,.007-1.156h0l.725.006a.577.577,0,0,1-.006,1.153Z" transform="translate(-1258.705 -1233.867)" fill="#bdd0fb"/>
          <path id="Trazado_101731" data-name="Trazado 101731" d="M1314.36,1316.037l-.728-.017a.584.584,0,0,1,.028-1.168h0l.724.02h0a.583.583,0,0,1-.03,1.165Z" transform="translate(-1236.679 -1233.442)" fill="#bdd0fb"/>
          <path id="Trazado_101732" data-name="Trazado 101732" d="M1287.975,1315.049l-.728-.032a.59.59,0,0,1,.052-1.18h0l.724.034h0a.589.589,0,0,1-.053,1.177Z" transform="translate(-1214.663 -1232.595)" fill="#bdd0fb"/>
          <path id="Trazado_101733" data-name="Trazado 101733" d="M1261.611,1313.533l-.727-.047a.6.6,0,1,1,.077-1.19h0l.723.049h0a.6.6,0,0,1-.078,1.188Z" transform="translate(-1192.666 -1231.307)" fill="#bdd0fb"/>
          <path id="Trazado_101734" data-name="Trazado 101734" d="M1235.292,1311.457l-.726-.063a.6.6,0,0,1,.1-1.2h0l.722.065h0a.6.6,0,0,1-.105,1.2Z" transform="translate(-1170.708 -1229.551)" fill="#bdd0fb"/>
          <path id="Trazado_101735" data-name="Trazado 101735" d="M1209.025,1308.784l-.725-.08a.609.609,0,0,1,.133-1.211h0l.72.081h0a.608.608,0,0,1-.135,1.208Z" transform="translate(-1148.794 -1227.297)" fill="#bdd0fb"/>
          <path id="Trazado_101736" data-name="Trazado 101736" d="M1182.829,1305.473l-.723-.1a.615.615,0,0,1,.166-1.219h0l.717.1h0a.614.614,0,0,1-.167,1.217Z" transform="translate(-1126.941 -1224.51)" fill="#bdd0fb"/>
          <path id="Trazado_101737" data-name="Trazado 101737" d="M1156.727,1301.471l-.72-.118a.622.622,0,1,1,.2-1.227h0l.714.119h0a.621.621,0,0,1-.2,1.225Z" transform="translate(-1105.168 -1221.145)" fill="#bdd0fb"/>
          <path id="Trazado_101738" data-name="Trazado 101738" d="M1130.794,1296.751l-.716-.141a.621.621,0,1,1,.241-1.218h0l.71.138h0a.622.622,0,0,1-.238,1.221Z" transform="translate(-1083.545 -1217.19)" fill="#bdd0fb"/>
          <path id="Trazado_101739" data-name="Trazado 101739" d="M1105.042,1291.228l-.711-.165a.615.615,0,0,1,.278-1.2h0l.7.162h0a.616.616,0,0,1-.276,1.2Z" transform="translate(-1062.077 -1212.574)" fill="#bdd0fb"/>
          <path id="Trazado_101740" data-name="Trazado 101740" d="M1079.49,1284.8l-.705-.192a.609.609,0,0,1,.32-1.175h0l.7.187h0a.61.61,0,1,1-.317,1.178Z" transform="translate(-1040.779 -1207.198)" fill="#bdd0fb"/>
          <path id="Trazado_101741" data-name="Trazado 101741" d="M1054.216,1277.356l-.7-.221a.6.6,0,1,1,.364-1.149h0l.689.216h0a.6.6,0,1,1-.362,1.151Z" transform="translate(-1019.717 -1200.982)" fill="#bdd0fb"/>
          <path id="Trazado_101742" data-name="Trazado 101742" d="M1029.306,1268.794l-.686-.254a.6.6,0,1,1,.414-1.119h0l.677.248,0,0a.6.6,0,0,1-.412,1.122Z" transform="translate(-998.962 -1193.826)" fill="#bdd0fb"/>
          <path id="Trazado_101743" data-name="Trazado 101743" d="M1004.873,1258.969l-.67-.29a.59.59,0,1,1,.469-1.083l0,0,.661.284.005,0a.591.591,0,1,1-.467,1.086Z" transform="translate(-978.612 -1185.615)" fill="#bdd0fb"/>
          <path id="Trazado_101744" data-name="Trazado 101744" d="M981.062,1247.717l-.653-.333a.584.584,0,1,1,.531-1.041l0,0,.642.325.006,0a.585.585,0,1,1-.529,1.044Z" transform="translate(-958.785 -1176.212)" fill="#bdd0fb"/>
          <path id="Trazado_101745" data-name="Trazado 101745" d="M958.075,1234.853l-.627-.38a.578.578,0,1,1,.6-.988l.005,0,.614.37.007,0a.579.579,0,0,1-.6.992Z" transform="translate(-939.656 -1165.464)" fill="#bdd0fb"/>
          <path id="Trazado_101746" data-name="Trazado 101746" d="M936.188,1220.177l-.593-.434a.572.572,0,1,1,.675-.923l.006,0,.58.422.007.005a.573.573,0,0,1-.674.927Z" transform="translate(-921.454 -1153.203)" fill="#bdd0fb"/>
          <path id="Trazado_101747" data-name="Trazado 101747" d="M915.783,1203.508l-.547-.492a.566.566,0,0,1,.757-.842l.006.006.533.477.008.007a.567.567,0,0,1-.755.845Z" transform="translate(-904.502 -1139.281)" fill="#bdd0fb"/>
          <path id="Trazado_101748" data-name="Trazado 101748" d="M897.321,1184.7l-.488-.554a.56.56,0,1,1,.84-.74l.007.007.474.535.008.009a.561.561,0,1,1-.84.743Z" transform="translate(-889.183 -1123.578)" fill="#bdd0fb"/>
          <path id="Trazado_101749" data-name="Trazado 101749" d="M881.379,1163.747l-.409-.615a.55.55,0,0,1,.913-.614l.007.011.4.59.007.01a.553.553,0,1,1-.916.621Z" transform="translate(-875.983 -1106.105)" fill="#bdd0fb"/>
          <path id="Trazado_101750" data-name="Trazado 101750" d="M868.54,1140.831l-.318-.666a.532.532,0,0,1,.958-.462l.006.012.312.641.005.011a.535.535,0,1,1-.962.468Z" transform="translate(-865.379 -1087.015)" fill="#bdd0fb"/>
          <path id="Trazado_101751" data-name="Trazado 101751" d="M859.179,1116.28l-.216-.705a.513.513,0,0,1,.98-.305l0,.012.215.679,0,.012a.516.516,0,0,1-.985.311Z" transform="translate(-857.675 -1066.573)" fill="#bdd0fb"/>
          <path id="Trazado_101752" data-name="Trazado 101752" d="M853.474,1090.627l-.114-.728a.495.495,0,0,1,.976-.158l0,.011.117.7,0,.011a.5.5,0,0,1-.982.163Z" transform="translate(-853.012 -1045.222)" fill="#bdd0fb"/>
          <path id="Trazado_101753" data-name="Trazado 101753" d="M851.309,1064.436l-.019-.735a.476.476,0,0,1,.952-.029v.01l.024.715v.01a.479.479,0,0,1-.958.033Z" transform="translate(-851.29 -1023.427)" fill="#bdd0fb"/>
          <path id="Trazado_101754" data-name="Trazado 101754" d="M852.023,1038.167l.065-.731a.458.458,0,0,1,.912.077v.008l-.058.715v.008a.461.461,0,1,1-.918-.074Z" transform="translate(-851.9 -1001.566)" fill="#bdd0fb"/>
          <path id="Trazado_101755" data-name="Trazado 101755" d="M855.48,1012.145l.137-.72a.439.439,0,0,1,.863.16v.007l-.128.708v.007a.442.442,0,0,1-.87-.158Z" transform="translate(-854.78 -979.907)" fill="#bdd0fb"/>
          <path id="Trazado_101756" data-name="Trazado 101756" d="M861.333,986.574l.2-.7a.421.421,0,0,1,.811.222l0,.005-.187.7v.005a.424.424,0,0,1-.818-.22Z" transform="translate(-859.659 -958.621)" fill="#bdd0fb"/>
          <path id="Trazado_101757" data-name="Trazado 101757" d="M869.181,961.546l.246-.688a.4.4,0,0,1,.758.266v0l-.236.682,0,0a.405.405,0,1,1-.766-.265Z" transform="translate(-866.202 -937.781)" fill="#bdd0fb"/>
          <path id="Trazado_101758" data-name="Trazado 101758" d="M878.745,937.162l.288-.67a.371.371,0,0,1,.684.288v0l-.276.668v0a.376.376,0,1,1-.7-.287Z" transform="translate(-874.179 -917.48)" fill="#bdd0fb"/>
          <path id="Trazado_101759" data-name="Trazado 101759" d="M889.7,913.349l.322-.653a.341.341,0,0,1,.614.3v0l-.31.653v0a.346.346,0,0,1-.625-.3Z" transform="translate(-883.318 -897.648)" fill="#bdd0fb"/>
          <path id="Trazado_101760" data-name="Trazado 101760" d="M901.816,890.086l.351-.638a.311.311,0,0,1,.547.3v0l-.34.639v0a.316.316,0,1,1-.557-.3Z" transform="translate(-893.426 -878.27)" fill="#bdd0fb"/>
          <path id="Trazado_101761" data-name="Trazado 101761" d="M914.91,867.349l.375-.624a.28.28,0,0,1,.481.287l-.365.626a.285.285,0,0,1-.495-.284Z" transform="translate(-904.352 -859.328)" fill="#bdd0fb"/>
          <path id="Trazado_101762" data-name="Trazado 101762" d="M928.843,845.1l.4-.61a.25.25,0,0,1,.42.27l-.385.613a.255.255,0,0,1-.433-.269Z" transform="translate(-915.98 -840.793)" fill="#bdd0fb"/>
          <path id="Trazado_101763" data-name="Trazado 101763" d="M943.544,823.374l.416-.6a.209.209,0,0,1,.345.236l-.4.6a.216.216,0,1,1-.36-.238Z" transform="translate(-928.252 -822.688)" fill="#bdd0fb"/>
        </g>
        <g id="Grupo_55556" data-name="Grupo 55556" transform="translate(70.063)">
          <path id="Trazado_101764" data-name="Trazado 101764" d="M1274.956,596.888l.509-.522a.359.359,0,1,1,.514.5l0,0,0,0-.509.514,0,0a.356.356,0,0,1-.507-.5Z" transform="translate(-1274.855 -568.236)" fill="#91b3fa"/>
          <path id="Trazado_101765" data-name="Trazado 101765" d="M1293.718,578.49l.534-.5a.377.377,0,1,1,.513.552l0,0,0,0-.534.488,0,0a.374.374,0,0,1-.507-.55Z" transform="translate(-1290.498 -552.909)" fill="#91b3fa"/>
          <path id="Trazado_101766" data-name="Trazado 101766" d="M1313.357,561.037l.558-.471a.4.4,0,0,1,.509.6l0,0,0,0-.557.462,0,0a.392.392,0,0,1-.5-.6Z" transform="translate(-1306.872 -538.371)" fill="#91b3fa"/>
          <path id="Trazado_101767" data-name="Trazado 101767" d="M1333.809,544.548l.579-.444a.413.413,0,1,1,.5.656l0,0,0,0-.578.435,0,0a.41.41,0,0,1-.5-.653Z" transform="translate(-1323.923 -524.639)" fill="#91b3fa"/>
          <path id="Trazado_101768" data-name="Trazado 101768" d="M1355.013,529.039l.6-.417a.431.431,0,1,1,.492.708l0,0,0,0-.6.408,0,0a.428.428,0,0,1-.486-.705Z" transform="translate(-1341.6 -511.724)" fill="#91b3fa"/>
          <path id="Trazado_101769" data-name="Trazado 101769" d="M1376.909,514.525l.617-.389a.449.449,0,1,1,.479.76l0,0,0,0-.615.38,0,0a.446.446,0,0,1-.472-.757Z" transform="translate(-1359.854 -499.641)" fill="#91b3fa"/>
          <path id="Trazado_101770" data-name="Trazado 101770" d="M1399.44,501.021l.634-.361a.467.467,0,1,1,.462.813l0,0,0,0-.631.352,0,0a.464.464,0,0,1-.456-.809Z" transform="translate(-1378.636 -488.401)" fill="#91b3fa"/>
          <path id="Trazado_101771" data-name="Trazado 101771" d="M1422.556,488.544l.65-.332a.485.485,0,0,1,.442.864l0,0,0,0-.646.324,0,0a.482.482,0,0,1-.436-.861Z" transform="translate(-1397.905 -478.018)" fill="#91b3fa"/>
          <path id="Trazado_101772" data-name="Trazado 101772" d="M1446.206,477.111l.664-.3a.5.5,0,1,1,.418.916l0,0h0l-.66.295h0a.5.5,0,0,1-.412-.912Z" transform="translate(-1417.618 -468.507)" fill="#91b3fa"/>
          <path id="Trazado_101773" data-name="Trazado 101773" d="M1470.332,466.76l.678-.271a.519.519,0,0,1,.386.964h0l-.671.267h0a.519.519,0,0,1-.385-.963Z" transform="translate(-1437.725 -459.902)" fill="#91b3fa"/>
          <path id="Trazado_101774" data-name="Trazado 101774" d="M1494.981,457.567l.689-.241a.523.523,0,0,1,.345.988h0l-.683.237h0a.523.523,0,0,1-.344-.987Z" transform="translate(-1458.277 -452.261)" fill="#91b3fa"/>
          <path id="Trazado_101775" data-name="Trazado 101775" d="M1520.024,449.492l.7-.21a.527.527,0,0,1,.3,1.01h0l-.693.206h0a.527.527,0,0,1-.3-1.01Z" transform="translate(-1479.157 -445.554)" fill="#91b3fa"/>
          <path id="Trazado_101776" data-name="Trazado 101776" d="M1545.415,442.569l.709-.177a.531.531,0,1,1,.258,1.031h-.005l-.7.174h0a.531.531,0,0,1-.256-1.03Z" transform="translate(-1500.325 -439.809)" fill="#91b3fa"/>
          <path id="Trazado_101777" data-name="Trazado 101777" d="M1571.107,436.839l.716-.144a.536.536,0,1,1,.211,1.05h-.005l-.708.141h0a.535.535,0,0,1-.209-1.049Z" transform="translate(-1521.745 -435.058)" fill="#91b3fa"/>
          <path id="Trazado_101778" data-name="Trazado 101778" d="M1597.05,432.347l.723-.109a.54.54,0,0,1,.161,1.067h-.005l-.714.106h0a.539.539,0,0,1-.159-1.066Z" transform="translate(-1543.372 -431.343)" fill="#91b3fa"/>
          <path id="Trazado_101779" data-name="Trazado 101779" d="M1623.191,429.148l.728-.072a.544.544,0,1,1,.108,1.082h-.005l-.719.07h0a.543.543,0,0,1-.106-1.081Z" transform="translate(-1565.164 -428.706)" fill="#91b3fa"/>
          <path id="Trazado_101780" data-name="Trazado 101780" d="M1649.472,427.3l.731-.034a.548.548,0,1,1,.051,1.094h-.006l-.721.032h0a.547.547,0,0,1-.05-1.093Z" transform="translate(-1587.07 -427.202)" fill="#91b3fa"/>
          <path id="Trazado_101781" data-name="Trazado 101781" d="M1675.827,426.855l.732.007a.552.552,0,1,1-.01,1.1h-.006l-.721-.008h-.005a.551.551,0,0,1,.011-1.1Z" transform="translate(-1609.037 -426.855)" fill="#91b3fa"/>
          <path id="Trazado_101782" data-name="Trazado 101782" d="M1702.172,427.729l.73.049a.556.556,0,1,1-.075,1.109h-.007l-.719-.05h-.006a.555.555,0,0,1,.076-1.107Z" transform="translate(-1630.994 -427.583)" fill="#91b3fa"/>
          <path id="Trazado_101783" data-name="Trazado 101783" d="M1728.422,430.176l.725.092a.559.559,0,0,1-.14,1.109H1729l-.716-.091h0a.558.558,0,0,1,.141-1.108Z" transform="translate(-1652.872 -429.623)" fill="#91b3fa"/>
          <path id="Trazado_101784" data-name="Trazado 101784" d="M1754.507,434.037l.72.129a.561.561,0,1,1-.2,1.1h0l-.71-.128h-.005a.56.56,0,0,1,.2-1.1Z" transform="translate(-1674.617 -432.841)" fill="#91b3fa"/>
          <path id="Trazado_101785" data-name="Trazado 101785" d="M1780.356,439.251l.712.167a.562.562,0,1,1-.256,1.1h-.005l-.7-.165h0a.562.562,0,0,1,.257-1.094Z" transform="translate(-1696.163 -437.188)" fill="#91b3fa"/>
          <path id="Trazado_101786" data-name="Trazado 101786" d="M1805.889,445.843l.7.205a.564.564,0,0,1-.317,1.083h-.005l-.692-.2-.005,0a.564.564,0,0,1,.317-1.082Z" transform="translate(-1717.446 -442.683)" fill="#91b3fa"/>
          <path id="Trazado_101787" data-name="Trazado 101787" d="M1831.024,453.816l.69.243a.566.566,0,1,1-.376,1.068h0l-.005,0-.68-.241,0,0a.566.566,0,0,1,.377-1.067Z" transform="translate(-1738.397 -449.329)" fill="#91b3fa"/>
          <path id="Trazado_101788" data-name="Trazado 101788" d="M1855.686,463.156l.676.281a.568.568,0,0,1-.436,1.049h0l0,0-.666-.277,0,0a.567.567,0,0,1,.436-1.048Z" transform="translate(-1758.954 -457.115)" fill="#91b3fa"/>
          <path id="Trazado_101789" data-name="Trazado 101789" d="M1879.8,473.825l.66.317a.57.57,0,1,1-.493,1.027h0l0,0-.65-.313,0,0a.569.569,0,0,1,.493-1.026Z" transform="translate(-1779.055 -466.009)" fill="#91b3fa"/>
          <path id="Trazado_101790" data-name="Trazado 101790" d="M1903.312,485.769l.642.351a.571.571,0,0,1-.548,1h0l0,0-.633-.347,0,0a.571.571,0,0,1,.548-1Z" transform="translate(-1798.652 -475.965)" fill="#91b3fa"/>
          <path id="Trazado_101791" data-name="Trazado 101791" d="M1926.17,498.916l.623.383a.573.573,0,0,1-.6.977h0l0,0-.615-.379,0,0a.573.573,0,0,1,.6-.976Z" transform="translate(-1817.706 -486.925)" fill="#91b3fa"/>
          <path id="Trazado_101792" data-name="Trazado 101792" d="M1948.347,513.179l.6.412a.575.575,0,0,1-.648.95h0l0,0-.6-.408,0,0a.575.575,0,0,1,.649-.949Z" transform="translate(-1836.193 -498.816)" fill="#91b3fa"/>
          <path id="Trazado_101793" data-name="Trazado 101793" d="M1969.828,528.466l.584.439a.577.577,0,1,1-.693.922h0l0,0-.577-.434,0,0a.576.576,0,0,1,.693-.921Z" transform="translate(-1854.101 -511.562)" fill="#91b3fa"/>
          <path id="Trazado_101794" data-name="Trazado 101794" d="M1990.619,544.678l.565.463a.579.579,0,1,1-.733.9h0l0,0-.559-.458,0,0a.578.578,0,0,1,.733-.894Z" transform="translate(-1871.434 -525.079)" fill="#91b3fa"/>
          <path id="Trazado_101795" data-name="Trazado 101795" d="M2010.735,561.718l.547.484a.58.58,0,0,1-.769.869h0l0,0-.541-.48,0,0a.58.58,0,0,1,.769-.868Z" transform="translate(-1888.207 -539.288)" fill="#91b3fa"/>
          <path id="Trazado_101796" data-name="Trazado 101796" d="M2030.208,579.486l.529.5a.582.582,0,1,1-.8.844h0l0,0-.524-.5,0,0a.582.582,0,0,1,.8-.844Z" transform="translate(-1904.444 -554.106)" fill="#91b3fa"/>
          <path id="Trazado_101797" data-name="Trazado 101797" d="M2049.081,597.888l.513.518a.584.584,0,1,1-.83.822h0l0,0-.509-.515,0,0a.584.584,0,0,1,.83-.821Z" transform="translate(-1920.181 -569.452)" fill="#91b3fa"/>
          <path id="Trazado_101798" data-name="Trazado 101798" d="M2067.4,616.834l.5.532a.586.586,0,1,1-.854.8h0l0,0-.5-.528,0,0a.585.585,0,0,1,.854-.8Z" transform="translate(-1935.461 -585.255)" fill="#91b3fa"/>
          <path id="Trazado_101799" data-name="Trazado 101799" d="M2085.238,636.239l.486.543a.587.587,0,1,1-.875.784h0v0l-.483-.54v0a.587.587,0,0,1,.875-.783Z" transform="translate(-1950.335 -601.441)" fill="#91b3fa"/>
          <path id="Trazado_101800" data-name="Trazado 101800" d="M2102.65,656.023l.476.552a.589.589,0,1,1-.893.769v0l-.473-.549a.589.589,0,1,1,.892-.77Z" transform="translate(-1964.858 -617.946)" fill="#91b3fa"/>
          <path id="Trazado_101801" data-name="Trazado 101801" d="M2119.714,676.1l.467.558a.591.591,0,0,1-.907.759h0l-.465-.557a.591.591,0,1,1,.906-.759Z" transform="translate(-1979.092 -634.697)" fill="#91b3fa"/>
          <path id="Trazado_101802" data-name="Trazado 101802" d="M2136.511,696.4l.461.563a.593.593,0,1,1-.917.751h0l-.459-.562a.593.593,0,0,1,.917-.751Z" transform="translate(-1993.106 -651.634)" fill="#91b3fa"/>
          <path id="Trazado_101803" data-name="Trazado 101803" d="M2153.133,716.843l.457.565a.595.595,0,1,1-.925.748h0l-.456-.565a.594.594,0,0,1,.925-.747Z" transform="translate(-2006.973 -668.691)" fill="#91b3fa"/>
          <path id="Trazado_101804" data-name="Trazado 101804" d="M2169.673,737.344l.457.565a.6.6,0,0,1-.928.75h0l-.456-.566a.6.6,0,0,1,.928-.749Z" transform="translate(-2020.775 -685.8)" fill="#91b3fa"/>
          <path id="Trazado_101805" data-name="Trazado 101805" d="M2186.246,757.816l.459.563a.6.6,0,1,1-.926.758h0l-.459-.564a.6.6,0,1,1,.927-.755Z" transform="translate(-2034.604 -702.887)" fill="#91b3fa"/>
          <path id="Trazado_101806" data-name="Trazado 101806" d="M2202.973,778.156l.465.557a.6.6,0,0,1-.919.772v0l-.467-.559a.6.6,0,1,1,.922-.768Z" transform="translate(-2048.566 -719.866)" fill="#91b3fa"/>
          <path id="Trazado_101807" data-name="Trazado 101807" d="M2220,798.236l.475.546,0,0a.6.6,0,0,1-.909.79h0l-.478-.55a.6.6,0,1,1,.908-.789Z" transform="translate(-2062.781 -736.631)" fill="#91b3fa"/>
          <path id="Trazado_101808" data-name="Trazado 101808" d="M2237.5,817.9l.49.531,0,0a.6.6,0,1,1-.887.819h0l-.495-.537a.6.6,0,1,1,.887-.818Z" transform="translate(-2077.387 -753.053)" fill="#91b3fa"/>
          <path id="Trazado_101809" data-name="Trazado 101809" d="M2255.652,836.943l.512.509,0,0a.606.606,0,1,1-.854.858h0l-.518-.517a.605.605,0,0,1,.855-.857Z" transform="translate(-2092.552 -768.959)" fill="#91b3fa"/>
          <path id="Trazado_101810" data-name="Trazado 101810" d="M2274.7,855.077l.539.477.005,0a.607.607,0,1,1-.805.909h0l-.549-.487a.607.607,0,0,1,.806-.908Z" transform="translate(-2108.468 -784.113)" fill="#91b3fa"/>
          <path id="Trazado_101811" data-name="Trazado 101811" d="M2294.9,871.9l.573.432.008.006a.609.609,0,0,1-.734.972h0l-.587-.444a.609.609,0,1,1,.734-.971Z" transform="translate(-2125.347 -798.179)" fill="#91b3fa"/>
          <path id="Trazado_101812" data-name="Trazado 101812" d="M2316.483,886.859l.612.369.01.006a.611.611,0,0,1-.631,1.046h0l-.632-.382a.611.611,0,0,1,.631-1.045Z" transform="translate(-2143.404 -810.69)" fill="#91b3fa"/>
          <path id="Trazado_101813" data-name="Trazado 101813" d="M2339.636,899.195l.653.283.014.006a.613.613,0,1,1-.487,1.125h0l-.681-.3a.612.612,0,0,1,.488-1.124Z" transform="translate(-2162.782 -821.017)" fill="#91b3fa"/>
          <path id="Trazado_101814" data-name="Trazado 101814" d="M2364.314,908.022l.687.173.017,0a.615.615,0,0,1-.3,1.192h0l-.721-.182a.614.614,0,0,1,.3-1.191Z" transform="translate(-2183.452 -828.412)" fill="#91b3fa"/>
          <path id="Trazado_101815" data-name="Trazado 101815" d="M2390.115,912.554l.707.049h.018a.616.616,0,1,1-.086,1.229h0l-.743-.052a.616.616,0,1,1,.086-1.229Z" transform="translate(-2205.072 -832.211)" fill="#91b3fa"/>
          <path id="Trazado_101816" data-name="Trazado 101816" d="M2416.128,910.932l.666-.159.041-.01a.618.618,0,1,1,.287,1.2h0l-.747.178a.617.617,0,1,1-.286-1.2Z" transform="translate(-2226.918 -830.704)" fill="#91b3fa"/>
          <path id="Trazado_101817" data-name="Trazado 101817" d="M2440.124,899.689l.571-.393.027-.019a.62.62,0,1,1,.7,1.021h0l-.626.431a.619.619,0,0,1-.7-1.021Z" transform="translate(-2247.127 -821.041)" fill="#91b3fa"/>
          <path id="Trazado_101818" data-name="Trazado 101818" d="M2459.593,881.527l.439-.545.017-.021a.622.622,0,1,1,.968.78h0l-.473.586a.621.621,0,0,1-.968-.78Z" transform="translate(-2263.494 -805.653)" fill="#91b3fa"/>
          <path id="Trazado_101819" data-name="Trazado 101819" d="M2473.806,859.1l.295-.637.011-.022a.623.623,0,1,1,1.131.524h0l-.316.681a.623.623,0,0,1-1.131-.525Z" transform="translate(-2275.428 -786.752)" fill="#91b3fa"/>
          <path id="Trazado_101820" data-name="Trazado 101820" d="M2482.412,834.163l.134-.687,0-.026a.618.618,0,0,1,1.214.234l-.141.74a.62.62,0,0,1-1.218-.232v0Z" transform="translate(-2282.653 -765.777)" fill="#91b3fa"/>
          <path id="Trazado_101821" data-name="Trazado 101821" d="M2484.367,808.141l-.032-.711v-.014a.607.607,0,0,1,1.213-.058l.037.74a.609.609,0,1,1-1.217.061v-.018Z" transform="translate(-2284.271 -743.937)" fill="#91b3fa"/>
          <path id="Trazado_101822" data-name="Trazado 101822" d="M2481.615,782.183l-.1-.712v-.007a.582.582,0,0,1,1.15-.175l.115.725a.587.587,0,1,1-1.159.184v-.015Z" transform="translate(-2281.91 -722.252)" fill="#91b3fa"/>
          <path id="Trazado_101823" data-name="Trazado 101823" d="M2476.909,756.552l-.145-.707v-.005a.546.546,0,0,1,1.067-.233l.165.712a.555.555,0,1,1-1.082.251l0-.011Z" transform="translate(-2277.943 -700.875)" fill="#91b3fa"/>
          <path id="Trazado_101824" data-name="Trazado 101824" d="M2470.856,731.285l-.183-.7v0a.49.49,0,0,1,.944-.26l.2.7a.5.5,0,1,1-.959.277l0-.01Z" transform="translate(-2272.856 -679.83)" fill="#91b3fa"/>
          <path id="Trazado_101825" data-name="Trazado 101825" d="M2463.442,706.391l-.221-.687v0a.433.433,0,0,1,.821-.276l.242.69a.443.443,0,1,1-.836.293l0-.009Z" transform="translate(-2266.632 -659.102)" fill="#91b3fa"/>
          <path id="Trazado_101826" data-name="Trazado 101826" d="M2454.609,682.188l-.265-.671,0-.005a.349.349,0,0,1,.643-.27l.3.669a.364.364,0,0,1-.665.3l-.005-.013Z" transform="translate(-2259.219 -638.991)" fill="#91b3fa"/>
          <path id="Trazado_101827" data-name="Trazado 101827" d="M2443.377,659.164l-.352-.625,0-.009a.248.248,0,0,1,.424-.255l.4.621a.268.268,0,0,1-.452.288l-.007-.012Z" transform="translate(-2249.765 -619.901)" fill="#91b3fa"/>
        </g>
        <g id="Grupo_55557" data-name="Grupo 55557" transform="translate(241.107 12.232)">
          <path id="Trazado_101828" data-name="Trazado 101828" d="M2415.192,609.825l-3.326,5.36-2.2-4.557Z" transform="translate(-2392.999 -591.791)" fill="#7d97f4"/>
          <path id="Trazado_101829" data-name="Trazado 101829" d="M2308.905,500.8l6.6,21.679a1.6,1.6,0,0,0,2.049,1.044l21.517-7.442a.64.64,0,0,0,.061-1.185Z" transform="translate(-2308.905 -500.802)" fill="#91b3fa"/>
          <path id="Trazado_101830" data-name="Trazado 101830" d="M2331.1,518.835,2308.9,500.8l18.722,19.245-.859,1.526Z" transform="translate(-2308.905 -500.802)" fill="#7d97f4"/>
          <path id="Trazado_101831" data-name="Trazado 101831" d="M2409.625,617.851l2.207,3.446-.145-4.149Z" transform="translate(-2392.965 -597.903)" fill="#7d97f4"/>
        </g>
        <g id="Grupo_55558" data-name="Grupo 55558" transform="translate(11.539 53.528)">
          <path id="Trazado_101832" data-name="Trazado 101832" d="M948.49,782.47l.608,4.464,2.762-2.331Z" transform="translate(-943.951 -777.175)" fill="#7d97f4"/>
          <path id="Trazado_101833" data-name="Trazado 101833" d="M945.315,750.459,934.7,762.676a1.14,1.14,0,0,1-1.641.084l-11.864-11.122a.457.457,0,0,1,.305-.79Z" transform="translate(-921.049 -750.459)" fill="#91b3fa"/>
          <path id="Trazado_101834" data-name="Trazado 101834" d="M948.5,755.754l19.726-5.3-17.817,7.1.116,1.245Z" transform="translate(-943.959 -750.459)" fill="#7d97f4"/>
          <path id="Trazado_101835" data-name="Trazado 101835" d="M954.607,794.418l-2.443,1.6,1.3-2.663Z" transform="translate(-947.017 -786.263)" fill="#7d97f4"/>
        </g>
      </g>
    </g>
  </g>
</svg>
