<svg xmlns="http://www.w3.org/2000/svg" width="408.72" height="358.555" viewBox="0 0 408.72 358.555">
  <g id="Grupo_56420" data-name="Grupo 56420" transform="translate(-303.931 -95.829)">
    <g id="Grupo_56222" data-name="Grupo 56222" transform="translate(303.931 127.669)">
      <path id="Trazado_103442" data-name="Trazado 103442" d="M746.384,294.49l-190.1,190.1-9.354,9.354-19.97,19.97L480.654,560.22,337.664,417.231l34.784-34.776,42.572,42.572,40.916,40.916,24.717,24.717,24.717-24.717L655.984,315.321,711.6,259.706Z" transform="translate(-337.664 -259.706)" fill="aqua"/>
    </g>
    <g id="Grupo_56223" data-name="Grupo 56223" transform="translate(493.231 318.994)">
      <path id="Trazado_103443" data-name="Trazado 103443" d="M1341.292,1244.431v33.554l-9.354,9.354-19.97,19.97v-62.879Z" transform="translate(-1311.968 -1244.431)" fill="#e3892b"/>
    </g>
    <g id="Grupo_56224" data-name="Grupo 56224" transform="translate(381.287 183.268)">
      <path id="Trazado_103444" data-name="Trazado 103444" d="M989.019,558.744V603.2l-121.3,121.3H748.686a12.881,12.881,0,0,1-12.879-12.879V558.744a12.875,12.875,0,0,1,12.879-12.879H976.14c.213,0,.418.009.631.017A12.876,12.876,0,0,1,989.019,558.744Z" transform="translate(-735.807 -545.865)" fill="#392a8d"/>
    </g>
    <g id="Grupo_56225" data-name="Grupo 56225" transform="translate(391.198 164.257)">
      <path id="Trazado_103445" data-name="Trazado 103445" d="M1020.208,448.018v86.259l-83.39,83.39h-150V448.018Z" transform="translate(-786.819 -448.018)" fill="#fff"/>
    </g>
    <g id="Grupo_56226" data-name="Grupo 56226" transform="translate(391.2 164.255)">
      <rect id="Rectángulo_5455" data-name="Rectángulo 5455" width="233.385" height="20.491" transform="translate(233.385 20.491) rotate(180)" fill="#a397e3"/>
    </g>
    <path id="Rectángulo_5456" data-name="Rectángulo 5456" d="M3.871,0H29.416a3.871,3.871,0,0,1,3.871,3.871v0a3.871,3.871,0,0,1-3.871,3.871H3.871A3.871,3.871,0,0,1,0,3.872v0A3.871,3.871,0,0,1,3.871,0Z" transform="translate(400.948 170.628)" fill="#f5f7ff"/>
    <g id="Grupo_56229" data-name="Grupo 56229" transform="translate(634.658 345.83)">
      <g id="Grupo_56228" data-name="Grupo 56228">
        <g id="Grupo_56227" data-name="Grupo 56227">
          <path id="Trazado_103446" data-name="Trazado 103446" d="M2039.9,1382.552a.021.021,0,0,1,.012,0C2039.866,1382.573,2039.859,1382.575,2039.9,1382.552Z" transform="translate(-2039.874 -1382.551)" fill="#323657"/>
        </g>
      </g>
    </g>
    <g id="Grupo_56240" data-name="Grupo 56240" transform="translate(352.36 117.087)">
      <path id="Trazado_103450" data-name="Trazado 103450" d="M587.684,362.448c-.076-.915-.147-1.84-.212-2.748l.636-.045c.064.906.135,1.828.211,2.741Zm329.87-2.9-.363-.524a26.532,26.532,0,0,0,2.623-2.175l.434.467A26.648,26.648,0,0,1,917.554,359.548Zm-330.3-3.29c-.064-1.148-.12-2.307-.165-3.445l.637-.025c.045,1.135.1,2.29.165,3.435Zm335.417-1.441-.48-.419a29.546,29.546,0,0,0,2.093-2.69l.526.361A30.257,30.257,0,0,1,922.671,354.818Zm-335.692-5.451c-.027-1.149-.045-2.309-.054-3.448l.638,0c.008,1.135.026,2.292.053,3.438Zm339.609-.3-.57-.286a20.93,20.93,0,0,0,1.276-3.139l.609.19A21.594,21.594,0,0,1,926.588,349.071Zm-339.021-6.594-.638-.006c.012-1.15.033-2.31.065-3.448l.637.018C587.6,340.174,587.579,341.331,587.567,342.477Zm341.066-.06-.633-.073a17.107,17.107,0,0,0,.114-1.962c0-.468-.02-.943-.059-1.41l.635-.053c.041.485.062.978.062,1.464A17.694,17.694,0,0,1,928.634,342.417Zm-1.187-6.767a20.093,20.093,0,0,0-1.2-3.165l.576-.275a20.761,20.761,0,0,1,1.24,3.266Zm-339.688-.045-.637-.03c.053-1.148.117-2.307.191-3.443l.636.041C587.875,333.306,587.811,334.46,587.759,335.605Zm336.807-6.07a30.356,30.356,0,0,0-2.043-2.724l.489-.41a30.976,30.976,0,0,1,2.086,2.781ZM588.2,328.747l-.635-.053c.1-1.146.206-2.3.324-3.433l.634.066C588.409,326.455,588.3,327.605,588.2,328.747ZM920.209,324.3l-.277-.273a25.1,25.1,0,0,0-2.267-1.96l.388-.506a25.718,25.718,0,0,1,2.325,2.01l.281.277Zm-331.291-2.388-.633-.079c.143-1.14.3-2.29.464-3.417l.631.092C589.216,319.632,589.06,320.777,588.918,321.914Zm325.929-1.726a31.043,31.043,0,0,0-3.03-1.536l.258-.584a31.737,31.737,0,0,1,3.093,1.568Zm-6.209-2.769c-1.031-.35-2.1-.673-3.274-.988l.165-.616c1.187.318,2.271.645,3.315,1Zm-6.607-1.795c-1.014-.223-2.115-.447-3.367-.687l.12-.626c1.257.241,2.364.466,3.384.69Zm-312.116-.508-.629-.106c.192-1.134.4-2.276.612-3.394l.626.12C590.311,312.851,590.106,313.988,589.915,315.117Zm305.364-.8-1.028-.184q-1.176-.211-2.364-.426l.114-.627q1.186.216,2.362.425l1.028.184Zm-6.782-1.251c-1.218-.242-2.323-.476-3.378-.717l.142-.622c1.049.239,2.149.472,3.36.713Zm-6.732-1.548c-1.146-.309-2.261-.64-3.315-.982l.2-.607c1.044.339,2.148.667,3.284.973Zm-6.571-2.147c-1.088-.428-2.156-.89-3.175-1.374l.274-.576c1.005.477,2.06.934,3.135,1.356Zm-283.984-1-.624-.134c.242-1.124.5-2.255.766-3.363l.62.149C591.707,306.125,591.451,307.252,591.21,308.371Zm277.742-1.976c-1-.573-1.99-1.189-2.934-1.832l.359-.527c.93.634,1.9,1.241,2.891,1.805ZM863.24,302.5c-.888-.716-1.764-1.482-2.6-2.275l.438-.463c.827.782,1.69,1.536,2.565,2.242Zm-270.425-.809-.616-.164c.3-1.11.607-2.228.927-3.322l.612.179C593.419,299.476,593.108,300.589,592.815,301.694Zm265.4-3.935c-.761-.838-1.512-1.725-2.231-2.638l.5-.394c.709.9,1.451,1.777,2.2,2.6ZM594.742,295.1l-.608-.194c.35-1.094.718-2.195,1.093-3.272l.6.21C595.456,292.919,595.09,294.015,594.742,295.1Zm259.2-2.765c-.638-.929-1.268-1.905-1.87-2.9l.546-.33c.6.987,1.219,1.953,1.85,2.871ZM597,288.62l-.6-.226c.406-1.073.831-2.154,1.263-3.21l.59.241C597.829,286.478,597.406,287.552,597,288.62Zm253.364-2.186c-.53-.992-1.052-2.029-1.551-3.083l.576-.273c.5,1.044,1.012,2.072,1.537,3.056ZM599.6,282.267l-.583-.257c.463-1.05.947-2.106,1.436-3.137l.576.273C600.543,280.172,600.063,281.221,599.6,282.267ZM847.4,280.2c-.438-1.035-.869-2.113-1.281-3.2l.6-.226c.41,1.082.838,2.152,1.272,3.18Zm-244.859-4.137-.568-.289c.52-1.021,1.062-2.048,1.609-3.052l.56.306C603.6,274.028,603.063,275.05,602.545,276.066Zm242.413-2.311c-.362-1.064-.717-2.169-1.058-3.282l.61-.186c.338,1.107.692,2.205,1.051,3.263Zm-239.125-3.714-.551-.321c.578-.991,1.178-1.985,1.782-2.955l.541.337C607,268.066,606.408,269.055,605.833,270.041Zm237.107-2.881c-.3-1.085-.592-2.208-.873-3.338l.619-.154c.279,1.125.571,2.243.869,3.323Zm-233.478-2.944-.531-.353c.633-.954,1.29-1.911,1.951-2.846l.521.368C610.746,262.314,610.093,263.266,609.463,264.215Zm231.773-3.723c-.3-1.084-.654-2.176-1.044-3.244l.6-.219c.4,1.084.752,2.191,1.059,3.291Zm-227.81-1.881-.51-.383c.689-.916,1.4-1.833,2.115-2.727l.5.4C614.819,256.788,614.111,257.7,613.426,258.611ZM838.9,254.088c-.464-1.024-.975-2.053-1.521-3.059l.561-.3c.553,1.019,1.071,2.062,1.541,3.1Zm-221.188-.837-.486-.413c.741-.873,1.505-1.747,2.272-2.6l.474.427C619.209,251.513,618.449,252.382,617.712,253.25Zm4.594-5.1-.461-.44c.791-.828,1.6-1.656,2.42-2.461l.448.454C623.9,246.5,623.092,247.326,622.306,248.15Zm213.343-.069c-.6-.949-1.247-1.9-1.921-2.83l.516-.375c.682.939,1.336,1.9,1.944,2.863Zm-208.46-4.756-.435-.466c.836-.78,1.7-1.56,2.558-2.318l.421.479C628.877,241.774,628.021,242.549,627.189,243.325Zm204.446-.782c-.713-.868-1.468-1.738-2.245-2.585l.47-.431c.785.855,1.548,1.734,2.268,2.612Zm-199.293-3.754-.408-.49c.879-.731,1.782-1.46,2.685-2.169l.394.5C634.115,237.336,633.216,238.062,632.342,238.788Zm194.667-1.294c-.8-.788-1.643-1.576-2.5-2.343l.425-.476c.866.774,1.715,1.569,2.523,2.364Zm-189.275-2.94-.38-.512c.915-.679,1.854-1.356,2.792-2.012l.366.522C639.578,233.206,638.643,233.88,637.733,234.555ZM821.9,232.925c-.873-.712-1.782-1.423-2.7-2.113l.382-.51c.928.695,1.844,1.411,2.723,2.129Zm-178.556-2.3-.352-.532c.952-.629,1.927-1.256,2.9-1.862l.337.541C645.262,229.376,644.292,230,643.344,230.625Zm173.068-1.815c-.927-.64-1.889-1.278-2.86-1.9l.343-.538c.977.623,1.946,1.266,2.88,1.91ZM649.162,227l-.323-.55c.982-.578,1.989-1.153,2.994-1.71l.309.558C651.142,225.848,650.139,226.421,649.162,227Zm161.463-1.877c-.971-.573-1.975-1.144-2.985-1.7l.306-.559c1.016.556,2.026,1.13,3,1.707Zm-155.46-1.452-.3-.565c1.013-.529,2.048-1.053,3.078-1.559l.281.572C657.2,222.618,656.173,223.14,655.165,223.667ZM804.6,221.819c-1.006-.511-2.044-1.02-3.085-1.511l.272-.577c1.047.494,2.09,1.005,3.1,1.519ZM661.33,220.638l-.267-.579c1.036-.478,2.1-.952,3.151-1.409l.253.585C663.417,219.69,662.362,220.162,661.33,220.638Zm137.062-1.753c-1.036-.454-2.1-.9-3.165-1.338l.241-.591c1.069.436,2.139.888,3.18,1.344Zm-130.755-.977-.24-.591c1.058-.429,2.139-.853,3.214-1.26l.226.6C669.767,217.058,668.69,217.48,667.637,217.908Zm124.392-1.616c-1.061-.4-2.148-.8-3.229-1.176l.211-.6c1.086.381,2.178.778,3.244,1.181Zm-117.964-.82-.213-.6c1.078-.381,2.177-.756,3.268-1.114l.2.606C676.233,214.718,675.138,215.091,674.065,215.471Zm111.478-1.453c-1.08-.35-2.184-.694-3.281-1.022l.183-.611c1.1.33,2.211.675,3.3,1.027Zm-104.947-.7-.186-.61c1.093-.333,2.208-.66,3.312-.971l.173.614C682.8,212.665,681.685,212.991,680.6,213.323Zm98.362-1.276c-1.1-.3-2.215-.6-3.324-.876l.156-.618c1.114.281,2.237.577,3.337.88Zm-91.744-.589-.16-.617c1.1-.286,2.23-.566,3.349-.831l.147.621C689.435,210.895,688.313,211.174,687.214,211.458Zm85.078-1.092c-1.11-.255-2.239-.5-3.358-.736l.13-.624c1.123.234,2.257.483,3.371.739Zm-78.39-.494-.134-.623c1.118-.241,2.254-.475,3.379-.694l.122.626C696.148,209.4,695.016,209.631,693.9,209.872Zm71.659-.909c-1.118-.21-2.257-.412-3.385-.6l.105-.629c1.132.189,2.275.392,3.4.6Zm-64.914-.406-.11-.628c1.122-.2,2.267-.384,3.4-.559l.1.63C702.906,208.174,701.766,208.362,700.647,208.557Zm58.132-.729c-1.126-.166-2.272-.323-3.406-.468l.081-.632c1.138.145,2.288.3,3.418.47Zm-51.343-.32-.085-.632c1.133-.153,2.283-.3,3.419-.427l.073.634C709.712,207.213,708.565,207.357,707.437,207.509Zm44.522-.552c-1.135-.123-2.286-.237-3.422-.339l.057-.635c1.139.1,2.295.216,3.433.34Zm-37.7-.234-.061-.635c1.138-.11,2.292-.209,3.43-.3l.049.636C716.541,206.514,715.391,206.614,714.257,206.722Zm30.853-.38c-1.135-.08-2.29-.151-3.432-.211l.033-.637c1.146.06,2.3.131,3.444.212Zm-24.012-.148-.037-.637c1.139-.066,2.295-.123,3.437-.169l.025.637C723.385,206.071,722.233,206.128,721.1,206.194Zm17.144-.21c-1.138-.038-2.293-.067-3.432-.084l.01-.638c1.143.018,2.3.046,3.444.084Zm-10.293-.063-.014-.637c1.138-.024,2.294-.039,3.438-.042l0,.638C730.236,205.882,729.083,205.9,727.95,205.921Z" transform="translate(-586.925 -205.241)" fill="#e0e0e0"/>
    </g>
    <rect id="Rectángulo_5472" data-name="Rectángulo 5472" width="22.381" height="3.233" transform="translate(360.965 119.774)" fill="#d9d9d9"/>
    <rect id="Rectángulo_5473" data-name="Rectángulo 5473" width="31.748" height="3.233" transform="translate(360.965 125.75)" fill="#d9d9d9"/>
    <g id="Grupo_56295" data-name="Grupo 56295" transform="translate(407.58 208.911)">
      <g id="Grupo_56276" data-name="Grupo 56276" transform="translate(26.976 3.513)">
        <rect id="Rectángulo_5474" data-name="Rectángulo 5474" width="117.632" height="4.097" fill="#e8e8e8"/>
        <rect id="Rectángulo_5475" data-name="Rectángulo 5475" width="117.632" height="4.097" transform="translate(0 13.351)" fill="#e8e8e8"/>
        <rect id="Rectángulo_5476" data-name="Rectángulo 5476" width="117.632" height="4.097" transform="translate(0 26.23)" fill="#e8e8e8"/>
        <rect id="Rectángulo_5477" data-name="Rectángulo 5477" width="117.632" height="4.097" transform="translate(0 39.581)" fill="#e8e8e8"/>
        <rect id="Rectángulo_5478" data-name="Rectángulo 5478" width="117.632" height="4.097" transform="translate(0 54.58)" fill="#e8e8e8"/>
        <rect id="Rectángulo_5479" data-name="Rectángulo 5479" width="117.632" height="4.097" transform="translate(0 67.931)" fill="#e8e8e8"/>
        <rect id="Rectángulo_5480" data-name="Rectángulo 5480" width="117.632" height="4.097" transform="translate(0 80.811)" fill="#e8e8e8"/>
        <rect id="Rectángulo_5481" data-name="Rectángulo 5481" width="117.632" height="4.097" transform="translate(0 94.162)" fill="#e8e8e8"/>
      </g>
      <path id="Trazado_103574" data-name="Trazado 103574" d="M8.346,0h0a8.346,8.346,0,0,1,8.346,8.346h0a8.346,8.346,0,0,1-8.346,8.346h0A8.346,8.346,0,1,1,8.346,0Z" transform="translate(0)" fill="aqua"/>
      <g id="Grupo_56282" data-name="Grupo 56282" transform="translate(0 52.324)">
        <rect id="Rectángulo_5483" data-name="Rectángulo 5483" width="16.692" height="16.692" rx="8.346" fill="aqua"/>
        <g id="Grupo_56281" data-name="Grupo 56281" transform="translate(2.831 4.312)">
          <g id="Grupo_56280" data-name="Grupo 56280">
            <g id="Grupo_56279" data-name="Grupo 56279">
              <g id="Grupo_56278" data-name="Grupo 56278">
                <g id="Grupo_56277" data-name="Grupo 56277">
                  <path id="Trazado_103460" data-name="Trazado 103460" d="M890.647,977.411l-4.632-4.025a.911.911,0,0,1,1.2-1.376l3.276,2.846,4.656-5.21a.911.911,0,1,1,1.359,1.214Z" transform="translate(-885.702 -969.343)" fill="#fff"/>
                </g>
              </g>
            </g>
          </g>
        </g>
      </g>
      <g id="Grupo_56293" data-name="Grupo 56293" transform="translate(0 26.059)">
        <path id="Rectángulo_5484" data-name="Rectángulo 5484" d="M8.346,0h0a8.346,8.346,0,0,1,8.346,8.346v0a8.346,8.346,0,0,1-8.346,8.346h0A8.346,8.346,0,0,1,0,8.346v0A8.346,8.346,0,0,1,8.346,0Z" fill="aqua"/>
        <g id="Grupo_56287" data-name="Grupo 56287" transform="translate(2.831 4.312)">
          <g id="Grupo_56286" data-name="Grupo 56286">
            <g id="Grupo_56285" data-name="Grupo 56285">
              <g id="Grupo_56284" data-name="Grupo 56284">
                <g id="Grupo_56283" data-name="Grupo 56283">
                  <path id="Trazado_103461" data-name="Trazado 103461" d="M890.647,842.23l-4.632-4.025a.911.911,0,0,1,1.2-1.375l3.276,2.846,4.656-5.21a.911.911,0,1,1,1.359,1.214Z" transform="translate(-885.702 -834.162)" fill="#fff"/>
                </g>
              </g>
            </g>
          </g>
        </g>
        <rect id="Rectángulo_5485" data-name="Rectángulo 5485" width="16.692" height="16.692" rx="8.346" transform="translate(0 52.529)" fill="aqua"/>
        <g id="Grupo_56292" data-name="Grupo 56292" transform="translate(2.831 56.841)">
          <g id="Grupo_56291" data-name="Grupo 56291">
            <g id="Grupo_56290" data-name="Grupo 56290">
              <g id="Grupo_56289" data-name="Grupo 56289">
                <g id="Grupo_56288" data-name="Grupo 56288">
                  <path id="Trazado_103462" data-name="Trazado 103462" d="M890.647,1112.593l-4.632-4.024a.911.911,0,0,1,1.2-1.376l3.276,2.846,4.656-5.21a.911.911,0,1,1,1.359,1.214Z" transform="translate(-885.702 -1104.525)" fill="#fff"/>
                </g>
              </g>
            </g>
          </g>
        </g>
      </g>
      <g id="Grupo_56294" data-name="Grupo 56294" transform="translate(5.339 2.926)">
        <path id="Trazado_103463" data-name="Trazado 103463" d="M899.668,699.6a4.4,4.4,0,0,1,.042-.621,2.207,2.207,0,0,1,.162-.572,1.792,1.792,0,0,1,.346-.515,2.291,2.291,0,0,1,.593-.438l.487-.261a4.975,4.975,0,0,0,.593-.374,2.471,2.471,0,0,0,.5-.487.982.982,0,0,0,.212-.614.865.865,0,0,0-.339-.727,1.237,1.237,0,0,0-.777-.261,1.136,1.136,0,0,0-.5.106,1.886,1.886,0,0,0-.4.254,1.672,1.672,0,0,0-.3.332l-.226.325-1.454-1.017a2.817,2.817,0,0,1,1.165-1.342,3.424,3.424,0,0,1,1.8-.48,3.849,3.849,0,0,1,1.073.155,2.743,2.743,0,0,1,.96.494,2.571,2.571,0,0,1,.692.875,2.881,2.881,0,0,1,.268,1.3,2.547,2.547,0,0,1-.332,1.349,2.979,2.979,0,0,1-.981.953,6.057,6.057,0,0,1-.6.353,5.671,5.671,0,0,0-.558.325,1.6,1.6,0,0,0-.409.381.835.835,0,0,0-.156.508Zm.042,3.46v-2.118h1.85v2.118Z" transform="translate(-898.609 -692.906)" fill="#fff"/>
      </g>
    </g>
    <g id="Grupo_56299" data-name="Grupo 56299" transform="translate(433.053 95.829)">
      <path id="Trazado_103464" data-name="Trazado 103464" d="M1113.25,660.225a19.1,19.1,0,0,0-2.924,3.426c-1.384,2.075-5.056,2.185-5.213,5.018s4.993,2.92,7.7,2,3.113-3.689,4.748-4.381,2.484-1.252,2.358-2.6a16.465,16.465,0,0,0-1.031-3.542,11.146,11.146,0,0,1-1.613.39A13.37,13.37,0,0,1,1113.25,660.225Z" transform="translate(-1085.122 -550.499)" fill="#252840"/>
      <path id="Trazado_103465" data-name="Trazado 103465" d="M1163.094,231.3s-1.036,6.163-1.871,10.234h0a24.41,24.41,0,0,1-.834,3.369,47.387,47.387,0,0,1-4.565,5.058c-4.177,4.3-9.7,9.715-9.7,9.715l-2.157-4.1s4.9-5.747,8.226-9.582c1.538-1.775,2.738-3.139,2.958-3.336.695-.622,1.5-6.746,2.635-11.792a20.329,20.329,0,0,1,3.405-7.835Z" transform="translate(-1116.433 -198.319)" fill="#5e448f"/>
      <path id="Trazado_103466" data-name="Trazado 103466" d="M1155.824,345.184c-4.177,4.3-9.7,9.715-9.7,9.715l-2.157-4.1s4.9-5.747,8.226-9.582A6.969,6.969,0,0,1,1155.824,345.184Z" transform="translate(-1116.433 -293.544)" fill="#eea886"/>
      <g id="Grupo_56296" data-name="Grupo 56296" transform="translate(59.804 107.897)">
        <path id="Trazado_103467" data-name="Trazado 103467" d="M1316.418,651.3s1.418,1.569,2.257,2.52,4.052,2.651,4.07,5.475c.019,3.063-2.37,2.794-4.5,2.682a5.874,5.874,0,0,1-4.748-3.315c-.9-1.734-3.276-2.19-3.444-3.588s1.1-3.916,1.1-3.916Z" transform="translate(-1310.042 -651.162)" fill="#252840"/>
      </g>
      <path id="Trazado_103468" data-name="Trazado 103468" d="M1316.076,637.745l-.274,2.607s4.437,1.933,5.257.141l-.19-2.322Z" transform="translate(-1254.879 -532.455)" fill="#5f8cc9"/>
      <path id="Trazado_103469" data-name="Trazado 103469" d="M1147.25,650.861l-.242,1.887a9.3,9.3,0,0,0,5.635-.084l.06-1.678Z" transform="translate(-1118.881 -543.022)" fill="#5f8cc9"/>
      <path id="Trazado_103470" data-name="Trazado 103470" d="M1226.384,244.284c.154.548-28.4,0-28.4,0s7.9-5.749,8.411-7.285-2.011-10.751-2.34-13.749c-.264-2.4-.923-13.133.658-14.773,1.653-1.714,7.606-3.51,7.606-3.51l8.678.322a13.631,13.631,0,0,1,2.456.775c1.024.475,6.879,2.561,7.83,5.486s-5.842,12.331-5.842,12.331-.013.423-.034,1.115h0c-.027.924-.065,2.327-.1,3.85-.045,1.972-.085,4.143-.085,5.73A56.619,56.619,0,0,0,1226.384,244.284Z" transform="translate(-1159.953 -183.762)" fill="#5e448f"/>
      <path id="Trazado_103471" data-name="Trazado 103471" d="M1143.032,401.2s3.884,5.7,3.939,9.6-1.439,14.692-1.548,16.831S1143.3,447.6,1143.3,447.6s-1.554,1.444-6.216-.366c0,0-1.029-16.905-1.139-18.715s-.11-10.147-1.152-11.353-7.35-4.991-8.172-5.7-15.155,2.708-16.657,3.1c-3.889,1.008-2.116,7.775-1.256,10.808,1.439,5.075,2.7,23.4,2.7,23.4s-2.77,1.18-7.409.183c0,0-9.11-33.093-9.4-36.384s-.436-8.717,22.015-12.842Z" transform="translate(-1076.601 -340.678)" fill="#323657"/>
      <path id="Trazado_103472" data-name="Trazado 103472" d="M1258.854,107.428s-7.534-1.7-5.813,7.782,3.532,10.226,8.078,8.264,4.138-8.036,4.367-11.015S1261.257,107.532,1258.854,107.428Z" transform="translate(-1204.106 -105.079)" fill="#eea886"/>
      <path id="Trazado_103473" data-name="Trazado 103473" d="M1273.758,167.959s3.336,3.537,8.609.323c0,0-1.179-7.665-.558-11.4s-6.88,5.785-6.88,5.785c.1.052.164.408.179.915a10.21,10.21,0,0,1-.079,1.519C1274.875,166.343,1274.488,167.653,1273.758,167.959Z" transform="translate(-1221.004 -144.32)" fill="#eea886"/>
      <path id="Trazado_103474" data-name="Trazado 103474" d="M1304.524,138.47a.961.961,0,0,1,1.886.111c.133,1.254-.751,3.455-1.379,3.238S1304.388,139.624,1304.524,138.47Z" transform="translate(-1245.737 -129.597)" fill="#eea886"/>
      <path id="Trazado_103475" data-name="Trazado 103475" d="M1263.3,108.073s-.194-2.987-1.285-3.081-1.259,1.11-1.259,1.11l-1.1.208s.348-2.618-.741-3.075-7.058,1.441-7.933.673-.463-6.079,1.118-6.806,5.95-2.355,9.15-.189c0,0,2.495-.284,2.865,1.729S1263.98,106.576,1263.3,108.073Z" transform="translate(-1202.289 -95.829)" fill="#3a3f47"/>
      <path id="Trazado_103476" data-name="Trazado 103476" d="M1280.3,182.035c5.44-1.678,5.85-4.953,5.856-5-1.791,3.078-5.777,3.485-5.777,3.485A10.21,10.21,0,0,1,1280.3,182.035Z" transform="translate(-1226.276 -161.254)" fill="#a77860"/>
      <path id="Trazado_103477" data-name="Trazado 103477" d="M1273.217,203.987s-3.984,7.93-10.419,7.418-1.1-8.483-.8-8.557C1262.315,202.768,1268.594,201.2,1273.217,203.987Z" transform="translate(-1209.628 -181.644)" fill="#eea886"/>
      <path id="Trazado_103478" data-name="Trazado 103478" d="M1181.175,395.1s19.719,2.431,31.665.4l-22.827-2.852S1189.879,393.232,1181.175,395.1Z" transform="translate(-1146.409 -334.98)" fill="#d7c8f2"/>
      <path id="Trazado_103479" data-name="Trazado 103479" d="M1250.99,388.027l-1.469.744s.334,2.333,1.139,3.04l1.648-.42S1251.965,388.832,1250.99,388.027Z" transform="translate(-1201.476 -331.255)" fill="#eea886"/>
      <path id="Trazado_103480" data-name="Trazado 103480" d="M1279.9,259.942c-.294.34-4.17,1.9-8.55,3.586h0c-5.983,2.3-12.732,4.485-12.732,4.485l-1.536-3.293s7.068-3.84,11.843-6.533c2.256-1.272,4-2.288,4.247-2.523.768-.732.967-1.9.4-3.949s-1.865-11.445-2.011-12.542.366-4.022,3.108-4.169a8.232,8.232,0,0,1,4.138.628s.689.286,1.2,6.941S1280.594,259.137,1279.9,259.942Z" transform="translate(-1207.567 -207.948)" fill="#5e448f"/>
      <path id="Trazado_103481" data-name="Trazado 103481" d="M1332.19,274.738h0c-.026.924-.065,2.327-.1,3.85a19.232,19.232,0,0,1-1.1-11.885C1330.7,268.484,1332.169,274.651,1332.19,274.738Z" transform="translate(-1266.736 -233.504)" fill="#d7c8f2"/>
      <path id="Trazado_103482" data-name="Trazado 103482" d="M1227.52,290.373h0a24.471,24.471,0,0,1-.834,3.369,34.816,34.816,0,0,1-.092-10.089A56.942,56.942,0,0,0,1227.52,290.373Z" transform="translate(-1182.73 -247.16)" fill="#d7c8f2"/>
      <path id="Trazado_103483" data-name="Trazado 103483" d="M1271.349,359.742h0c-5.983,2.3-12.949,4.556-12.949,4.556l-1.319-3.364s7.068-3.84,11.843-6.533C1268.924,354.4,1270.662,355.247,1271.349,359.742Z" transform="translate(-1207.567 -304.162)" fill="#eea886"/>
      <path id="Trazado_103484" data-name="Trazado 103484" d="M1138.668,404.636l-28.027-.412,14.151,7.185Z" transform="translate(-1089.579 -344.305)" fill="#5e5853"/>
      <path id="Trazado_103485" data-name="Trazado 103485" d="M1178.924,413.119l13.876-5.375v-1.4l-14.973,5.4Z" transform="translate(-1143.712 -346.015)" fill="#91887f"/>
      <g id="Grupo_56297" data-name="Grupo 56297" transform="translate(38.594 56.942)">
        <path id="Trazado_103486" data-name="Trazado 103486" d="M1210.647,389.528s-1.75-.272-2.961-.554c-.937-.218-3.265.082-3.858.683s-2.479,4.788-2.836,5.044.183.847.809.55c0,0,.575,1.832,1.995,1.146s2.383-2.183,3.126-2.447,5.072-1.595,5.072-1.595S1211.762,389.082,1210.647,389.528Z" transform="translate(-1200.879 -388.903)" fill="#eea886"/>
      </g>
      <g id="Grupo_56298" data-name="Grupo 56298" transform="translate(38.72 57.422)">
        <path id="Trazado_103487" data-name="Trazado 103487" d="M1204.78,391.371a12.254,12.254,0,0,0-1.418.785c-.294.242-1.484,1.133-1.772,1.343s.435.806,2.562-.116S1204.78,391.371,1204.78,391.371Z" transform="translate(-1201.529 -391.371)" fill="#eea886"/>
      </g>
      <path id="Trazado_103488" data-name="Trazado 103488" d="M1037.452,346.815l-8.337-22.762-26.875.439,7.945,20.975Z" transform="translate(-1002.24 -279.71)" fill="#6e6760"/>
      <path id="Trazado_103489" data-name="Trazado 103489" d="M1077.4,367.088c.82,1.639.572,3.425-.553,3.988s-2.7-.309-3.523-1.949-.572-3.425.553-3.988S1076.575,365.448,1077.4,367.088Z" transform="translate(-1059.119 -312.676)" fill="#807066"/>
    </g>
    <g id="Grupo_56306" data-name="Grupo 56306" transform="translate(559.791 248.751)">
      <g id="Grupo_56300" data-name="Grupo 56300" transform="translate(0 0)">
        <path id="Rectángulo_5486" data-name="Rectángulo 5486" d="M1.845,0H10.4a1.844,1.844,0,0,1,1.844,1.844v0A1.845,1.845,0,0,1,10.4,3.69H1.845A1.845,1.845,0,0,1,0,1.845v0A1.845,1.845,0,0,1,1.845,0Z" fill="#e0e0e0"/>
      </g>
      <g id="Grupo_56301" data-name="Grupo 56301" transform="translate(0 8.848)">
        <path id="Rectángulo_5487" data-name="Rectángulo 5487" d="M1.845,0H10.4a1.844,1.844,0,0,1,1.844,1.844v0A1.845,1.845,0,0,1,10.4,3.69H1.845A1.845,1.845,0,0,1,0,1.845v0A1.845,1.845,0,0,1,1.845,0Z" fill="#e0e0e0"/>
      </g>
      <g id="Grupo_56302" data-name="Grupo 56302" transform="translate(0 17.696)">
        <path id="Rectángulo_5488" data-name="Rectángulo 5488" d="M1.845,0H10.4a1.844,1.844,0,0,1,1.844,1.844v0A1.845,1.845,0,0,1,10.4,3.69H1.845A1.845,1.845,0,0,1,0,1.845v0A1.845,1.845,0,0,1,1.845,0Z" fill="#e0e0e0"/>
      </g>
      <g id="Grupo_56303" data-name="Grupo 56303" transform="translate(0 26.543)">
        <path id="Rectángulo_5489" data-name="Rectángulo 5489" d="M1.845,0H10.4a1.844,1.844,0,0,1,1.844,1.844v0A1.845,1.845,0,0,1,10.4,3.69H1.845A1.845,1.845,0,0,1,0,1.845v0A1.845,1.845,0,0,1,1.845,0Z" fill="#e0e0e0"/>
      </g>
      <g id="Grupo_56304" data-name="Grupo 56304" transform="translate(0 35.391)">
        <path id="Rectángulo_5490" data-name="Rectángulo 5490" d="M1.845,0H10.4a1.844,1.844,0,0,1,1.844,1.844v0A1.845,1.845,0,0,1,10.4,3.69H1.845A1.845,1.845,0,0,1,0,1.845v0A1.845,1.845,0,0,1,1.845,0Z" fill="#e0e0e0"/>
      </g>
      <g id="Grupo_56305" data-name="Grupo 56305" transform="translate(0 44.239)">
        <path id="Rectángulo_5491" data-name="Rectángulo 5491" d="M1.845,0H10.4a1.844,1.844,0,0,1,1.844,1.844v0A1.845,1.845,0,0,1,10.4,3.69H1.845A1.845,1.845,0,0,1,0,1.845v0A1.845,1.845,0,0,1,1.845,0Z" fill="#e0e0e0"/>
      </g>
    </g>
    <g id="Grupo_56313" data-name="Grupo 56313" transform="translate(577.09 248.751)">
      <g id="Grupo_56307" data-name="Grupo 56307" transform="translate(0 0)">
        <rect id="Rectángulo_5492" data-name="Rectángulo 5492" width="3.484" height="3.69" rx="1.742" fill="#e0e0e0"/>
      </g>
      <g id="Grupo_56308" data-name="Grupo 56308" transform="translate(0 8.848)">
        <rect id="Rectángulo_5493" data-name="Rectángulo 5493" width="3.484" height="3.69" rx="1.742" fill="#e0e0e0"/>
      </g>
      <g id="Grupo_56309" data-name="Grupo 56309" transform="translate(0 17.696)">
        <rect id="Rectángulo_5494" data-name="Rectángulo 5494" width="3.484" height="3.69" rx="1.742" fill="#e0e0e0"/>
      </g>
      <g id="Grupo_56310" data-name="Grupo 56310" transform="translate(0 26.543)">
        <path id="Rectángulo_5495" data-name="Rectángulo 5495" d="M1.742,0h0A1.742,1.742,0,0,1,3.484,1.742v.206A1.742,1.742,0,0,1,1.742,3.69h0A1.742,1.742,0,0,1,0,1.948V1.742A1.742,1.742,0,0,1,1.742,0Z" fill="#e0e0e0"/>
      </g>
      <g id="Grupo_56311" data-name="Grupo 56311" transform="translate(0 35.391)">
        <rect id="Rectángulo_5496" data-name="Rectángulo 5496" width="3.484" height="3.69" rx="1.742" fill="#e0e0e0"/>
      </g>
      <g id="Grupo_56312" data-name="Grupo 56312" transform="translate(0 44.239)">
        <rect id="Rectángulo_5497" data-name="Rectángulo 5497" width="3.484" height="3.69" rx="1.742" fill="#e0e0e0"/>
      </g>
    </g>
    <g id="Grupo_56314" data-name="Grupo 56314" transform="translate(440.013 254.475)">
      <path id="Trazado_103490" data-name="Trazado 103490" d="M1740.33,1087.58s-5.232-11.855.838-10.873a22.114,22.114,0,0,1,4.187,5.189c1.606,2.637,4.947,9.613,4.823,11.973s-1.8,4.119-3.615,7.909c0,0-3.767,7.034-3.927,7.881l-3.983-2.068s3.375-6.725,5.754-12.638Z" transform="translate(-1602.196 -1044.728)" fill="#6f5be0"/>
      <rect id="Rectángulo_5498" data-name="Rectángulo 5498" width="70.75" height="10.82" transform="translate(88.354 50.086) rotate(9.72)" fill="#392a8d"/>
      <rect id="Rectángulo_5499" data-name="Rectángulo 5499" width="3.4" height="8.213" transform="translate(84.778 50.8) rotate(9.661)" fill="#2d3038"/>
      <path id="Trazado_103491" data-name="Trazado 103491" d="M1533.244,1601.74h-.987s.329-3.729-.585-3.765-3.18,3.034-4.533,3.509-8.3.877-8.334-.4,2.668-1.792,3.509-2.157,4.936-4.35,5.666-4.826,1.979-3.78,1.979-3.78l3.877-.172s.219,3.089.454,4.724a14.38,14.38,0,0,1,.16,1.531A28.266,28.266,0,0,1,1533.244,1601.74Z" transform="translate(-1425.399 -1458.458)" fill="#eea886"/>
      <path id="Trazado_103492" data-name="Trazado 103492" d="M1671.047,1599.078h-.823v-3.471c-.686.058-2.989,2.238-3.7,2.869s-1.69.6-4.693.793-3.285-1.606-2.81-2.219,2.011-.879,2.81-1.261,3.953-3.939,4.794-4.78a8.729,8.729,0,0,0,1.353-3.25l3.509.306a21.448,21.448,0,0,0,.378,4.053h0a.1.1,0,0,1,0,.014c.034.157.071.312.113.463C1672.5,1594.518,1671.047,1599.078,1671.047,1599.078Z" transform="translate(-1538.223 -1456.534)" fill="#eea886"/>
      <path id="Trazado_103493" data-name="Trazado 103493" d="M1587.211,1230.664a35.082,35.082,0,0,0-1.443,3.929c-.117.792-3.222,8.3-4.12,13.357-.538,3.029-2.022,12.512-2.142,13.717-.206,2.064-1.177,6.618-1.327,8.726-.084,1.178-5.886,19.262-7.291,28.7a17.407,17.407,0,0,0,5.844-.168,98.926,98.926,0,0,0,7.923-23.6,95.089,95.089,0,0,1,4.53-16.214c1.32-3.433,8.795-13.157,9.575-14.249s5.669-7.129,1.04-13.67S1587.211,1230.664,1587.211,1230.664Z" transform="translate(-1467.364 -1166.79)" fill="#292c47"/>
      <path id="Trazado_103494" data-name="Trazado 103494" d="M1682.945,1252.107c-.423,2.816.022,6.515.906,16.81s-1.548,22.76-1.548,22.76a12.356,12.356,0,0,1-6.575,0c.081-.724,0-25.094,0-27.265s-.624-4.636-.784-7.129a50.83,50.83,0,0,0-1.789-8.027c-.267-.958-.542-1.921-.81-2.853h0c-.151-.522-.3-1.036-.441-1.533-1.252-4.343-2.937-21.113-2.937-21.113s9.334-7.518,13.878-.44,2.211,12.224,2.051,13.109S1683.368,1249.292,1682.945,1252.107Z" transform="translate(-1546.386 -1160.452)" fill="#292c47"/>
      <path id="Trazado_103495" data-name="Trazado 103495" d="M1693.083,1306.247c-.073.161-4.723,10.484-5.92,12.274-.267-.958-.542-1.921-.809-2.853h0S1692.927,1306.474,1693.083,1306.247Z" transform="translate(-1560.395 -1229.717)" fill="#191b2b"/>
      <path id="Trazado_103496" data-name="Trazado 103496" d="M1671.047,1614.4h-.823v-3.471c-.686.057-2.989,2.238-3.7,2.869s-1.69.6-4.693.793-3.285-1.606-2.81-2.218,2.011-.879,2.81-1.261c3.212.172,7.132-4.344,9.013-4.335,1,0,.99.559,1.021.663h0a.1.1,0,0,1,0,.014q.051.236.113.463C1672.5,1609.844,1671.047,1614.4,1671.047,1614.4Z" transform="translate(-1538.223 -1471.859)" fill="#c6c9cc"/>
      <path id="Trazado_103497" data-name="Trazado 103497" d="M1533.244,1620.854h-.987s.329-3.729-.585-3.766-3.18,3.034-4.533,3.51-8.3.877-8.334-.4,2.668-1.792,3.509-2.157c2.865-.007,7.524-3.16,8.969-3.8a5.214,5.214,0,0,1,3.008-.255,14.382,14.382,0,0,1,.16,1.532A28.268,28.268,0,0,1,1533.244,1620.854Z" transform="translate(-1425.399 -1477.572)" fill="#c6c9cc"/>
      <path id="Trazado_103498" data-name="Trazado 103498" d="M1697.315,1027.161s1.49,3.941.331,6.986c0,0,5.461-.355,5.668-.993s-.219-6.542.532-8.286S1697.315,1027.161,1697.315,1027.161Z" transform="translate(-1569.227 -1002.656)" fill="#eea886"/>
      <path id="Trazado_103499" data-name="Trazado 103499" d="M1657.441,1065.638s-3.227,1.148-4.686,1.467-4.509,1.764-4.261,7.2a113.648,113.648,0,0,0,1.489,12.5,49.283,49.283,0,0,1-.414,11.179,40.9,40.9,0,0,0,16.838,0s-1.614-4.931-1.572-6.206,5.378-11.774,5.627-13.432,1.324-8.969-1.117-10.584-4.427-1.4-5.461-2.125S1658.951,1065.119,1657.441,1065.638Z" transform="translate(-1529.88 -1035.479)" fill="#6f5be0"/>
      <path id="Trazado_103500" data-name="Trazado 103500" d="M1660.258,1127.495a45.234,45.234,0,0,1-23.737.014,32.714,32.714,0,0,0,2.176-5.843v0a34.99,34.99,0,0,0,.814-3.92h0a35.51,35.51,0,0,0-.327-12.715c1.526-12.557,20.526-16.3,22.047-12.324s-2.949,21.086-3.176,22.553S1660.258,1127.495,1660.258,1127.495Z" transform="translate(-1520.245 -1056.439)" fill="#6f5be0"/>
      <path id="Trazado_103501" data-name="Trazado 103501" d="M1680.222,955.35c-2.2-.753-8.13-1.555-9.65,7.554s1.791,9.266,5.193,9.006,8.723-6.408,9.13-8.276S1686.487,957.5,1680.222,955.35Z" transform="translate(-1547.374 -946.654)" fill="#eea886"/>
      <path id="Trazado_103502" data-name="Trazado 103502" d="M1678.442,955.835s1.813,3.878,4.19,5.229c0,0,1.49,4.121,4.715,5.787,0,0,8.56-5.671,3.593-12.409S1679,953.07,1678.442,955.835Z" transform="translate(-1554.021 -943.641)" fill="#0f324f"/>
      <path id="Trazado_103503" data-name="Trazado 103503" d="M1696.892,992.368a1.118,1.118,0,0,1,2.051.056c.575,1.3-1.491,3.59-2.057,3.467S1696.161,994.167,1696.892,992.368Z" transform="translate(-1568.49 -976.289)" fill="#eea886"/>
      <path id="Trazado_103504" data-name="Trazado 103504" d="M1727.355,969.654c.187-.292,5.856-2.916,7.035,2.567s-4.565,11.859-5.572,14.6.455,9.168.455,9.168-3.456-3.267-4.5-6.687C1723.623,985.547,1723.237,976.077,1727.355,969.654Z" transform="translate(-1590.725 -957.811)" fill="#0f324f"/>
      <path id="Trazado_103505" data-name="Trazado 103505" d="M1734.314,972.271a5.719,5.719,0,0,0-1.959,3.539,4.252,4.252,0,0,1,.374-2.722A1.564,1.564,0,0,1,1734.314,972.271Z" transform="translate(-1597.398 -960.616)" fill="#e54242"/>
      <path id="Trazado_103506" data-name="Trazado 103506" d="M1647.724,1171.63c.361-1.345.831-4.29,1.019-5.552h0a3.193,3.193,0,0,0,.959-1.107c.283-.889,2.483-11.771,2.483-11.771S1654.5,1163.423,1647.724,1171.63Z" transform="translate(-1529.271 -1106.405)" fill="#1d3b54"/>
      <path id="Trazado_103507" data-name="Trazado 103507" d="M1560.338,1234.453s-2.363,1.1-2.914,1.267-1.614-.768-5.528-1.059c-.344-.026-.948.284-.805.738a6.113,6.113,0,0,0,2.575,1.878c.729.189,4.168,1.555,5.845.884a6.874,6.874,0,0,0,2.817-2.8Z" transform="translate(-1451.395 -1171.872)" fill="#eea886"/>
      <path id="Trazado_103508" data-name="Trazado 103508" d="M1600.3,1076.663s-4.526,1.794-4.794,8.085-.514,9.575-.76,10.546-.715,4.874-1.854,7.222c-1.1,2.278-8.385,5.879-8.385,5.879l2.214,2.817s11.434-6.053,12.048-7.908,3.142-14.764,3.343-16.941C1602.272,1084.61,1604.585,1076.793,1600.3,1076.663Z" transform="translate(-1478.334 -1044.74)" fill="#6f5be0"/>
      <path id="Trazado_103509" data-name="Trazado 103509" d="M1146.344,989.574c-.006.168-.018.337-.029.505h6.478c.011-.169.017-.337.023-.505Zm-72.249-1.789c0,.2,0,.389.006.587.012.819.047,1.632.116,2.44a38.439,38.439,0,0,0,1.1,6.727,39.188,39.188,0,0,0,10.347,18.115c.192.2.384.383.575.569.772.743,1.58,1.458,2.417,2.132a39.186,39.186,0,0,0,24.825,8.813c.157,0,.314,0,.471-.006a39.162,39.162,0,0,0,19.572-5.472,39.509,39.509,0,0,0,17.289-21.339c.308-.924.587-1.859.831-2.812a39.6,39.6,0,0,0,.959-5.211v-.006c.041-.378.081-.755.11-1.139.035-.366.064-.732.081-1.1.011-.169.017-.337.023-.505.018-.372.029-.738.035-1.11.005-.227.005-.453.005-.68a39.384,39.384,0,0,0-33.394-38.925c-.366-.058-.732-.11-1.1-.157-.407-.047-.813-.093-1.22-.128-.366-.035-.738-.064-1.1-.087-.848-.058-1.7-.082-2.556-.082-.726,0-1.447.018-2.161.058-1.226.064-2.434.192-3.631.366a39.482,39.482,0,0,0-30.4,23.4c-.058.128-.11.261-.162.389s-.1.25-.151.372c-.3.726-.575,1.464-.825,2.208a38.61,38.61,0,0,0-1.5,5.978c-.1.54-.174,1.086-.25,1.638-.006.093-.017.186-.029.285-.006.006-.006.011-.006.023a1.122,1.122,0,0,0-.012.14,1.408,1.408,0,0,0-.023.163v.041a.348.348,0,0,0-.012.081.86.86,0,0,0-.012.122c-.012.1-.023.2-.029.3-.058.6-.1,1.214-.134,1.824-.006.081-.012.168-.012.25q-.009.2-.017.4C1074.1,986.884,1074.095,987.331,1074.095,987.785Zm8.825,12.252-.151-.383c-.11-.285-.215-.569-.319-.86l-.238-.7c-.058-.174-.116-.349-.168-.523-.006-.012-.006-.023-.012-.035a.637.637,0,0,1-.029-.1c-.093-.29-.174-.587-.255-.883l-.093-.343c-.087-.313-.163-.633-.238-.953-.006-.029-.017-.064-.023-.1-.064-.3-.128-.593-.186-.889-.029-.122-.052-.244-.075-.366-.07-.372-.134-.749-.192-1.127-.1-.662-.18-1.33-.244-2-.023-.226-.041-.459-.058-.691,0,0,.005,0,0-.006,0-.076-.006-.145-.012-.221-.018-.314-.035-.628-.047-.941v-.093c-.006-.07-.006-.145-.006-.221-.006-.273-.012-.546-.012-.819,0-.255,0-.511.012-.761a28.7,28.7,0,0,1,.209-3.021,2.926,2.926,0,0,1,.035-.314.021.021,0,0,1,.006-.017c-.006-.006,0-.006,0-.006a.011.011,0,0,1,0-.018.216.216,0,0,1,.006-.064v-.012c0-.012,0-.018.006-.023a32.679,32.679,0,0,1,4.886-13.461,33.039,33.039,0,0,1,11.945-11.172,31.978,31.978,0,0,1,4-1.859c.436-.168.883-.331,1.33-.476a32.2,32.2,0,0,1,7.849-1.6c.871-.075,1.749-.11,2.637-.11.267,0,.529,0,.8.011.308.006.61.017.918.029.221.012.441.029.662.047a1.738,1.738,0,0,1,.18.012c.366.023.738.058,1.1.1l.279.035c.145.017.3.035.442.058.169.017.331.041.5.069.372.052.738.116,1.1.18l.1.017q.426.078.854.174c.018.006.035.006.052.012.116.023.238.052.354.081.267.058.529.122.79.192a3.4,3.4,0,0,1,.343.087c.3.081.6.163.906.256s.575.174.86.267c.134.041.267.087.4.134.569.192,1.133.4,1.685.627.151.058.3.122.453.186.232.1.459.2.691.3.186.081.372.163.552.256.273.122.54.256.807.389q.453.227.889.47c.337.18.662.366.987.558.674.4,1.325.813,1.964,1.255.273.186.54.377.807.581.337.238.662.488.982.744.285.227.569.459.848.7s.57.488.848.744a32.828,32.828,0,0,1,10.76,24.342c0,.227,0,.453-.006.68-.006.372-.017.738-.041,1.11-.006.168-.018.337-.029.505-.029.372-.058.738-.1,1.1q-.157,1.568-.465,3.091a31.88,31.88,0,0,1-.831,3.265c-.262.848-.557,1.685-.889,2.5a32.9,32.9,0,0,1-30.082,20.659c-.157.006-.314.006-.471.006a32.911,32.911,0,0,1-29.077-17.475c-.145-.279-.291-.558-.43-.837l-.255-.534c-.1-.209-.2-.418-.3-.633l-.093-.209c-.081-.186-.163-.372-.238-.563Z" transform="translate(-1067.094 -941.403)" fill="#3f444f"/>
      <circle id="Elipse_1418" data-name="Elipse 1418" cx="32.798" cy="32.798" r="32.798" transform="translate(0 46.383) rotate(-45)" fill="#b8b8b8" opacity="0.1"/>
      <path id="Trazado_103510" data-name="Trazado 103510" d="M1162.448,990.248s-42.715-5.294-51.226,39.787h0a32.918,32.918,0,0,1,51.227-39.787Z" transform="translate(-1093.913 -968.211)" fill="#869ac2" opacity="0.3"/>
    </g>
    <g id="Grupo_56337" data-name="Grupo 56337" transform="translate(329.346 299.078)">
      <g id="Grupo_56315" data-name="Grupo 56315" transform="translate(36.684 17.993)">
        <path id="Trazado_103511" data-name="Trazado 103511" d="M657.286,1255.263l14.273,7.845,14.333-22.555-17.335-6.022Z" transform="translate(-657.286 -1234.531)" fill="#292c47"/>
      </g>
      <g id="Grupo_56316" data-name="Grupo 56316" transform="translate(37.59 18.659)">
        <path id="Trazado_103512" data-name="Trazado 103512" d="M661.944,1257.348l13.347,7.337,13.4-21.093-16.211-5.631Z" transform="translate(-661.944 -1237.961)" fill="#e2d2ca"/>
      </g>
      <g id="Grupo_56317" data-name="Grupo 56317" transform="translate(32.701 29.414)">
        <path id="Trazado_103513" data-name="Trazado 103513" d="M636.786,1298s2.484-1.188,3.575-1.809,3.9-1.473,4.122-1.676,8.315-.7,8.805-1.125.968.992-1.129,1.451-5.013,1.582-5.173,2.4,2.153,1.013,2.388,1.688-.066.524-.4.669-2.751-1.2-3.814-.815-2.69-.146-3.506.133-4.78,1.613-4.78,1.613Z" transform="translate(-636.786 -1293.316)" fill="#eea886"/>
      </g>
      <g id="Grupo_56318" data-name="Grupo 56318" transform="translate(49.303 29.437)">
        <path id="Trazado_103514" data-name="Trazado 103514" d="M724.583,1307.737s2.087-1.879,3.1-2.664,2.905-3.1,3.184-3.232,3.9-7.562,4.489-7.86-.558-1.3-1.807.5-3.443,4.109-4.277,3.94-.116-2.424-.661-2.907-.519-.142-.785.114.055,3.057-.717,3.912-.91,2.592-1.49,3.252-3.382,3.877-3.382,3.877Z" transform="translate(-722.233 -1293.435)" fill="#eea886"/>
      </g>
      <g id="Grupo_56319" data-name="Grupo 56319" transform="translate(0.776 143.73)">
        <path id="Trazado_103515" data-name="Trazado 103515" d="M478.4,1882.088s-.451,3.134-.508,3.6-5.022-.278-5.022-.278l-.4-3.73S477.781,1881.646,478.4,1882.088Z" transform="translate(-472.47 -1881.684)" fill="#424773"/>
      </g>
      <g id="Grupo_56320" data-name="Grupo 56320" transform="translate(0 147.128)">
        <path id="Trazado_103516" data-name="Trazado 103516" d="M474.729,1899.384a13.411,13.411,0,0,0,3.095,2.711c1.522.823,3.913,1.149,4.812,2,.65.615,2.366,3.262-3.954,3.209s-9.367.374-10.044-.641.979-7.492.979-7.492A13.383,13.383,0,0,0,474.729,1899.384Z" transform="translate(-468.476 -1899.172)" fill="#292c47"/>
      </g>
      <g id="Grupo_56321" data-name="Grupo 56321" transform="translate(36.355 143.73)">
        <path id="Trazado_103517" data-name="Trazado 103517" d="M661.52,1882.088s-.451,3.134-.508,3.6-5.022-.278-5.022-.278l-.4-3.73S660.9,1881.646,661.52,1882.088Z" transform="translate(-655.588 -1881.684)" fill="#424773"/>
      </g>
      <g id="Grupo_56322" data-name="Grupo 56322" transform="translate(35.578 147.128)">
        <path id="Trazado_103518" data-name="Trazado 103518" d="M657.846,1899.384a13.415,13.415,0,0,0,3.095,2.711c1.522.823,7.121,1.5,8.021,2.351.649.615,1.73,3.091-7.162,2.859-6.318-.165-9.367.374-10.044-.641s.98-7.492.98-7.492S654.145,1899.747,657.846,1899.384Z" transform="translate(-651.593 -1899.172)" fill="#292c47"/>
      </g>
      <g id="Grupo_56323" data-name="Grupo 56323" transform="translate(0 63.618)">
        <path id="Trazado_103519" data-name="Trazado 103519" d="M479.3,1469.358s-4.666,7.413-4.318,14.114-1.692,14.016-2.393,21.016c-.781,7.8-3.979,26.278-4.095,30.452s.5,17.5.5,17.5l6.4.146s5.376-32.3,6.768-35.592,8.3-26.789,8.529-29.426S479.3,1469.358,479.3,1469.358Z" transform="translate(-468.476 -1469.358)" fill="#292c47"/>
      </g>
      <g id="Grupo_56324" data-name="Grupo 56324" transform="translate(8.472 62.341)">
        <path id="Trazado_103520" data-name="Trazado 103520" d="M538.988,1465.067s3.516,18.365,3.98,22.467.774,19.847,1.006,22.41,1.547,33.542,2.785,37.35h-8.183s-6.282-22.521-6.282-33.176-4.853-23.164-7.985-30.195-10.3-7.2-12.229-20.24C512.079,1463.683,536.381,1460.93,538.988,1465.067Z" transform="translate(-512.079 -1462.785)" fill="#292c47"/>
      </g>
      <g id="Grupo_56325" data-name="Grupo 56325" transform="translate(14.686 0.722)">
        <path id="Trazado_103521" data-name="Trazado 103521" d="M547.982,1146.212s6.263-2.339,9.15,2.428,2.609,14.311-.547,15.484-7.9.56-9.515-2.423-3.075-7.3-3.005-10.177S546.338,1147.044,547.982,1146.212Z" transform="translate(-544.063 -1145.639)" fill="#eea886"/>
      </g>
      <g id="Grupo_56326" data-name="Grupo 56326" transform="translate(16.47 13.482)">
        <path id="Trazado_103522" data-name="Trazado 103522" d="M563.3,1217.258a5.417,5.417,0,0,0,.17,2.524c.431.833-8.113.855-8.113.855a56.32,56.32,0,0,0-2.009-8.358C552.035,1208.45,563.3,1217.258,563.3,1217.258Z" transform="translate(-553.244 -1211.314)" fill="#eea886"/>
      </g>
      <g id="Grupo_56327" data-name="Grupo 56327" transform="translate(14.165 0)">
        <path id="Trazado_103523" data-name="Trazado 103523" d="M543.792,1156.37s.589.973,3,.6,5.344-3.58,6.349-3.932,1.015-.942,1.015-.942l.629.919,1.068.068s-.974-2.865.5-4.033-1.525-9.272-9.245-6.574c0,0-5.929,1.634-5.714,5.006S542.465,1154.691,543.792,1156.37Z" transform="translate(-541.38 -1141.924)" fill="#3a3f47"/>
      </g>
      <g id="Grupo_56328" data-name="Grupo 56328" transform="translate(17.61 19.508)">
        <path id="Trazado_103524" data-name="Trazado 103524" d="M568.706,1244.672s-.027-1.591-.748-1.744-7.962-.849-8.848-.5v1.854S560.816,1245.331,568.706,1244.672Z" transform="translate(-559.11 -1242.331)" fill="#e2d2ca"/>
      </g>
      <g id="Grupo_56329" data-name="Grupo 56329" transform="translate(24.527 7.712)">
        <path id="Trazado_103525" data-name="Trazado 103525" d="M596.963,1182.846c-.135-.565-1.573-2.182-2.124-.451s.832,4.059,1.6,3.859S597.305,1184.281,596.963,1182.846Z" transform="translate(-594.712 -1181.617)" fill="#eea886"/>
      </g>
      <g id="Grupo_56330" data-name="Grupo 56330" transform="translate(55.931 40.651)">
        <path id="Trazado_103526" data-name="Trazado 103526" d="M756.356,1351.15a.02.02,0,0,0-.012,0C756.394,1351.171,756.4,1351.173,756.356,1351.15Z" transform="translate(-756.344 -1351.149)" fill="#323657"/>
      </g>
      <g id="Grupo_56331" data-name="Grupo 56331" transform="translate(4.101 21.458)">
        <path id="Trazado_103527" data-name="Trazado 103527" d="M491.037,1312.186a66.244,66.244,0,0,0,10.39,1.853c6.549.722,22.913-.261,23.016-1.035s-3.52-28.811-3.314-30.255.317-6.589.317-6.589a36.261,36.261,0,0,0,3.25,10.307c.627,1.134,2.728,4.688,3.74,3.88,4.9-3.914,12.493-18.663,12.975-18.788-.4-.176-3.6-1.646-4.046-1.8-.392-.131-3.929,3.614-6.072,5.935-.956,1.035-1.634,1.786-1.634,1.786-.619-1.392-2.873-10.163-3.573-13.2-1.58-6.846-1.337-7.13-1.337-7.13-4.791-1.449-12.064-4.4-12.064-4.4l-9.6-.391s-8.807,1.939-12.275,3.505c-.329.148-.331,7.857-1.234,9.878l2.876,6.067s1.661,12.017,2.006,17.362C494.621,1291.633,491.037,1312.186,491.037,1312.186Z" transform="translate(-489.581 -1252.367)" fill="#323657"/>
      </g>
      <g id="Grupo_56332" data-name="Grupo 56332" transform="translate(2.946 24.963)">
        <path id="Trazado_103528" data-name="Trazado 103528" d="M484.394,1290.294a3.791,3.791,0,0,0,2.127,1.791,2.752,2.752,0,0,0,1.536.154l.376-.069h0l6.576-1.219s1.439-16.572-8.984-20.542C485.75,1270.5,482.092,1282.874,484.394,1290.294Z" transform="translate(-483.637 -1270.408)" fill="#323657"/>
      </g>
      <g id="Grupo_56333" data-name="Grupo 56333" transform="translate(5.829 38.257)">
        <path id="Trazado_103529" data-name="Trazado 103529" d="M498.479,1347.21h0a2.755,2.755,0,0,0,1.536.155l.376-.07h0l-.648-8.468Z" transform="translate(-498.479 -1338.827)" fill="#252840"/>
      </g>
      <g id="Grupo_56334" data-name="Grupo 56334" transform="translate(44.179 44.79)">
        <path id="Trazado_103530" data-name="Trazado 103530" d="M695.859,1374.242l.8,3.4a26.916,26.916,0,0,0,.83-5.19C696.538,1373.49,695.859,1374.242,695.859,1374.242Z" transform="translate(-695.859 -1372.455)" fill="#252840"/>
      </g>
      <g id="Grupo_56335" data-name="Grupo 56335" transform="translate(13.132 1.844)">
        <path id="Trazado_103531" data-name="Trazado 103531" d="M539.754,1151.428s-8.208-.947-.14,12.762Z" transform="translate(-536.064 -1151.414)" fill="#3a3f47"/>
      </g>
      <g id="Grupo_56336" data-name="Grupo 56336" transform="translate(52.121 19.104)">
        <path id="Trazado_103532" data-name="Trazado 103532" d="M743.307,1243.949l.834-1.433-6.571-2.267-.834,1.426Z" transform="translate(-736.735 -1240.248)" fill="#292c47"/>
      </g>
    </g>
    <g id="Grupo_56387" data-name="Grupo 56387" transform="translate(406.148 298.173)">
      <g id="Grupo_56346" data-name="Grupo 56346" transform="translate(65.069 29.627)">
        <g id="Grupo_56341" data-name="Grupo 56341" transform="translate(0 1.036)">
          <g id="Grupo_56340" data-name="Grupo 56340">
            <g id="Grupo_56339" data-name="Grupo 56339">
              <g id="Grupo_56338" data-name="Grupo 56338">
                <path id="Trazado_103533" data-name="Trazado 103533" d="M1198.667,1301.11s1.3-1.206,1.043-2.11a3.872,3.872,0,0,1,.194-1.985c.111-.475.156-2.01.509-1.925.6.144.459,2.6.533,3.117s1.655-1.226,2.2-1.318,3.288,2.692,2.064,3.766a17.59,17.59,0,0,1-3.091,1.742,9.572,9.572,0,0,1-1.016.869Z" transform="translate(-1198.667 -1295.086)" fill="#eea987"/>
              </g>
            </g>
          </g>
        </g>
        <g id="Grupo_56345" data-name="Grupo 56345" transform="translate(4.13)">
          <g id="Grupo_56344" data-name="Grupo 56344">
            <g id="Grupo_56343" data-name="Grupo 56343">
              <g id="Grupo_56342" data-name="Grupo 56342">
                <path id="Trazado_103534" data-name="Trazado 103534" d="M1219.921,1292.776s3.967-3.041,4.4-3.022.586.243.227.543-3.748,3.048-3.748,3.048,5.3-2.809,5.658-2.872c.21-.036.369.365.192.543s-5.109,3.28-5.109,3.28,4.953-2.614,5.269-2.577a.386.386,0,0,1,.12.709c-.354.219-4.813,2.905-4.813,2.905s3.724-1.676,3.973-1.487c.152.115.366.37-.609.772a34.873,34.873,0,0,0-3.095,1.687Z" transform="translate(-1219.921 -1289.755)" fill="#eea987"/>
              </g>
            </g>
          </g>
        </g>
      </g>
      <g id="Grupo_56347" data-name="Grupo 56347" transform="translate(37.499)">
        <path id="Trazado_103535" data-name="Trazado 103535" d="M1056.783,1137.283s9.489-.789,9.229,9.193-1.842,11.483.005,18.537-9.251-4.005-9.251-4.005Z" transform="translate(-1056.767 -1137.268)" fill="#e8734d"/>
      </g>
      <g id="Grupo_56349" data-name="Grupo 56349" transform="translate(5.525 141.555)">
        <g id="Grupo_56348" data-name="Grupo 56348">
          <path id="Trazado_103536" data-name="Trazado 103536" d="M895.289,1873.681s-3.523,4.95-3.04,5.734,4.188.9,6.444,0,2.309-6.7,3.329-9.19c.427-1.043-.487-4.123-1.772-4.347a5.217,5.217,0,0,0-2.683.433S898.9,1869.822,895.289,1873.681Z" transform="translate(-892.203 -1865.832)" fill="#363a5e"/>
        </g>
      </g>
      <g id="Grupo_56352" data-name="Grupo 56352" transform="translate(7.447 141.484)">
        <g id="Grupo_56351" data-name="Grupo 56351">
          <g id="Grupo_56350" data-name="Grupo 56350">
            <path id="Trazado_103537" data-name="Trazado 103537" d="M905.511,1865.978a24.19,24.19,0,0,0-1.012,4.12c-.225,1.669-2.51,5.213-2.4,5.662s3.007.854,4.189-.3,1.941-4.517,2.2-6.527a16.752,16.752,0,0,1,.548-2.8S906.638,1864.745,905.511,1865.978Z" transform="translate(-902.092 -1865.467)" fill="#eea886"/>
          </g>
        </g>
      </g>
      <g id="Grupo_56354" data-name="Grupo 56354" transform="translate(36.318 141.557)">
        <g id="Grupo_56353" data-name="Grupo 56353">
          <path id="Trazado_103538" data-name="Trazado 103538" d="M1053.651,1873.774s-3.4,4.867-2.913,5.652,4.189.9,6.444,0,2.309-6.7,3.329-9.19c.427-1.043-.487-4.123-1.772-4.346a5.562,5.562,0,0,0-2.792.48S1057.262,1869.915,1053.651,1873.774Z" transform="translate(-1050.69 -1865.846)" fill="#363a5e"/>
        </g>
      </g>
      <g id="Grupo_56357" data-name="Grupo 56357" transform="translate(38.241 141.374)">
        <g id="Grupo_56356" data-name="Grupo 56356">
          <g id="Grupo_56355" data-name="Grupo 56355">
            <path id="Trazado_103539" data-name="Trazado 103539" d="M1063.92,1865.609a34.469,34.469,0,0,1-.7,3.923c-.429,1.625-2.738,5.323-2.631,5.771s3.007.854,4.188-.3,2.094-4.5,2.2-6.527a11.219,11.219,0,0,0-.269-3.346A2.535,2.535,0,0,0,1063.92,1865.609Z" transform="translate(-1060.587 -1864.901)" fill="#eea886"/>
          </g>
        </g>
      </g>
      <g id="Grupo_56360" data-name="Grupo 56360" transform="translate(10.236 50.8)">
        <g id="Grupo_56359" data-name="Grupo 56359">
          <g id="Grupo_56358" data-name="Grupo 56358">
            <path id="Trazado_103540" data-name="Trazado 103540" d="M930.816,1409.432s-3.023,14.677-3.718,18.372-2.639,21.592-2.847,24.636-3.155,14.51-3.016,15.6-4.786,22.629-4.786,22.629,3.489.377,4.88-.205c.951-.4,8.589-19.828,8.589-25.262,0-7.512,4.195-17.318,4.8-19.029,5.986-16.829,7.084-20.823,7.917-21.838,0,0,.126,1.373.411,3.653.327,2.623,1.756,21.353,2.38,23.816s.14,10.8.487,15,.991,23.372.991,23.372,3.134.136,4.515-.687c.463-.276,2.061-20.6,2.131-25.6s.143-11.895.278-14.057c1.286-20.718,4.448-23.677-.532-38.339C943.976,1384.038,930.816,1409.432,930.816,1409.432Z" transform="translate(-916.45 -1398.732)" fill="#313657"/>
          </g>
        </g>
      </g>
      <g id="Grupo_56362" data-name="Grupo 56362" transform="translate(14.794 145.512)">
        <g id="Grupo_56361" data-name="Grupo 56361">
          <path id="Trazado_103541" data-name="Trazado 103541" d="M940.553,1886.2v5.182h-.644v-4.005Z" transform="translate(-939.908 -1886.202)" fill="#363a5e"/>
        </g>
      </g>
      <g id="Grupo_56364" data-name="Grupo 56364" transform="translate(45.588 145.512)">
        <g id="Grupo_56363" data-name="Grupo 56363">
          <path id="Trazado_103542" data-name="Trazado 103542" d="M1099.048,1886.2v5.182h-.644v-4.005Z" transform="translate(-1098.403 -1886.202)" fill="#363a5e"/>
        </g>
      </g>
      <g id="Grupo_56365" data-name="Grupo 56365" transform="translate(33.566 16.075)">
        <path id="Trazado_103543" data-name="Trazado 103543" d="M1036.526,1230.5a39.4,39.4,0,0,0,1.454-4.161c.029-.1.057-.209.084-.315.074-.287.142-.576.2-.864.034-.164.067-.327.1-.489a6.846,6.846,0,0,0,0-3.2c-.92-2.718,5.769-.836,5.769-.836s-1.3,7.189,0,9.614S1036.526,1230.5,1036.526,1230.5Z" transform="translate(-1036.526 -1220.004)" fill="#eea886"/>
      </g>
      <g id="Grupo_56366" data-name="Grupo 56366" transform="translate(19.312 24.671)">
        <path id="Trazado_103544" data-name="Trazado 103544" d="M988.761,1266.03c.745-.933-4.493-1.258-4.493-1.258l-6.111-.527a54.541,54.541,0,0,0-7.462,1.828c-3.261,1.129-7.532,7.306-7.532,7.306s5.894,13.836,7.023,17.807-1.28,14.075-1.28,14.075c7.065,3.846,21.017.411,21.017.411S984.358,1271.541,988.761,1266.03Z" transform="translate(-963.161 -1264.245)" fill="#eddad3"/>
      </g>
      <g id="Grupo_56367" data-name="Grupo 56367" transform="translate(45.904 36.244)">
        <path id="Trazado_103545" data-name="Trazado 103545" d="M1101.526,1330.7s-.275.58-1.028,2.863a45.736,45.736,0,0,1-.366-9.752A24.1,24.1,0,0,0,1101.526,1330.7Z" transform="translate(-1100.026 -1323.81)" fill="#cfbeb8"/>
      </g>
      <g id="Grupo_56368" data-name="Grupo 56368" transform="translate(33.566 24.347)">
        <path id="Trazado_103546" data-name="Trazado 103546" d="M1043.717,1263.217l-7.193,5.863.741-6.176S1041.459,1262,1043.717,1263.217Z" transform="translate(-1036.524 -1262.58)" fill="#eea886"/>
      </g>
      <g id="Grupo_56369" data-name="Grupo 56369" transform="translate(35.005 24.895)">
        <path id="Trazado_103547" data-name="Trazado 103547" d="M1054.432,1290.193c-.99,4.1,4.015,16.942,4.015,16.942l-8.446,2.86a1.8,1.8,0,0,1-2.351-1.39c-.952-5.341-3.422-19.662-3.7-26.012-.347-7.888,5.4-17.195,5.4-17.195,10.208,1.752,7.41,17.195,7.41,17.195s-.371.973-.866,2.493h0c-.125.382-.257.8-.393,1.243C1055.145,1287.471,1054.769,1288.8,1054.432,1290.193Z" transform="translate(-1043.933 -1265.398)" fill="#494f80"/>
      </g>
      <g id="Grupo_56370" data-name="Grupo 56370" transform="translate(18.081 24.671)">
        <path id="Trazado_103548" data-name="Trazado 103548" d="M972.329,1264.582l.126-.337s-5.228.8-7.885,2.122-7.743,8.182-7.743,8.182l6.653,8.783c.007,6.75-2.348,22.586-2.348,22.586l4.623,1.891a1.1,1.1,0,0,0,1.523-1c.074-4.82.3-19.1.412-24.668.138-6.75,4.955-17.668,4.955-17.668C972.539,1264.505,972.434,1264.544,972.329,1264.582Z" transform="translate(-956.827 -1264.245)" fill="#494f80"/>
      </g>
      <g id="Grupo_56371" data-name="Grupo 56371" transform="translate(24.105 51.325)">
        <path id="Trazado_103549" data-name="Trazado 103549" d="M987.831,1406.765a56.862,56.862,0,0,0,5.8,0c.78-.2,5.985-2.452,6.3-4.682s-12.094,2-12.094,2Z" transform="translate(-987.831 -1401.434)" fill="#eea886"/>
      </g>
      <g id="Grupo_56372" data-name="Grupo 56372" transform="translate(19.312 47.307)">
        <path id="Trazado_103550" data-name="Trazado 103550" d="M983.518,1383.135l-20.357-2.383,9.2,7.482Z" transform="translate(-963.161 -1380.752)" fill="#707070"/>
      </g>
      <g id="Grupo_56373" data-name="Grupo 56373" transform="translate(28.132 49.69)">
        <path id="Trazado_103551" data-name="Trazado 103551" d="M1008.933,1398.115l11.161-3.8v-1.3l-11.537,3.7Z" transform="translate(-1008.557 -1393.015)" fill="#a1a1a1"/>
      </g>
      <g id="Grupo_56374" data-name="Grupo 56374" transform="translate(28.945 23.531)">
        <path id="Trazado_103552" data-name="Trazado 103552" d="M1018.48,1258.38l-3.867,6.136-1.871,1.179,4.359-6.11Z" transform="translate(-1012.743 -1258.38)" fill="#fae6de"/>
      </g>
      <g id="Grupo_56375" data-name="Grupo 56375" transform="translate(30.816 23.531)">
        <path id="Trazado_103553" data-name="Trazado 103553" d="M1022.371,1264.516l2.75,1.179.741-6.177.376-1.139Z" transform="translate(-1022.371 -1258.38)" fill="#d6c5be"/>
      </g>
      <g id="Grupo_56376" data-name="Grupo 56376" transform="translate(9.865 50.024)">
        <path id="Trazado_103554" data-name="Trazado 103554" d="M929.391,1398.5a15.462,15.462,0,0,0,0,3.135s-12.554-1.254-13.724-3.01a7.567,7.567,0,0,1-1.129-3.888Z" transform="translate(-914.538 -1394.735)" fill="#494f80"/>
      </g>
      <g id="Grupo_56377" data-name="Grupo 56377" transform="translate(0 30.336)">
        <path id="Trazado_103555" data-name="Trazado 103555" d="M892.274,1317.857l-5.936-22.071-22.572-2.383,6.186,20.315Z" transform="translate(-863.766 -1293.404)" fill="#a1a1a1"/>
      </g>
      <g id="Grupo_56378" data-name="Grupo 56378" transform="translate(42.696 29.627)">
        <path id="Trazado_103556" data-name="Trazado 103556" d="M1098.584,1302.3c1.132-.933,1.8-1.276,3.162-2.451,2.123-1.828,4.837-4.142,4.837-4.142l2.579,3.788s-6.239,5.484-9.554,8.74h0s-4.2,4.506-5.135,4.108-4.283-5.249-6.954-9.911-3.868-7.639-4-9.669,6.587-3.008,6.587-3.008l5.262,11.493a17.006,17.006,0,0,0,1.413,2.14S1097.963,1302.715,1098.584,1302.3Z" transform="translate(-1083.515 -1289.754)" fill="#494f80"/>
      </g>
      <g id="Grupo_56379" data-name="Grupo 56379" transform="translate(28.314 0.934)">
        <path id="Trazado_103557" data-name="Trazado 103557" d="M1019.624,1142.168a8.064,8.064,0,0,0-9.259,6.38,19.623,19.623,0,0,0,.254,3.086c.258,1.375-1.379,5.153-1.091,5.381a8.645,8.645,0,0,0,1.543.622s.891,4.434,2.4,4.569a12.528,12.528,0,0,0,10.608-5.4C1027.361,1151.79,1029.121,1143.723,1019.624,1142.168Z" transform="translate(-1009.495 -1142.076)" fill="#eea886"/>
      </g>
      <g id="Grupo_56380" data-name="Grupo 56380" transform="translate(29.185 0.005)">
        <path id="Trazado_103558" data-name="Trazado 103558" d="M1013.976,1144.693a21.4,21.4,0,0,0,7.289,4.02c3.75.965,5.735,5.176,5.735,5.176s6.634-6.617,2.63-13.039S1013.982,1137.293,1013.976,1144.693Z" transform="translate(-1013.976 -1137.292)" fill="#e8734d"/>
      </g>
      <g id="Grupo_56381" data-name="Grupo 56381" transform="translate(37.164 10.833)">
        <path id="Trazado_103559" data-name="Trazado 103559" d="M1055.045,1193.838s3.925,10.3,3.466,12.783a13.317,13.317,0,0,1,5.555.768S1062.318,1188.99,1055.045,1193.838Z" transform="translate(-1055.045 -1193.024)" fill="#e8734d"/>
      </g>
      <g id="Grupo_56382" data-name="Grupo 56382" transform="translate(33.566 23.845)">
        <path id="Trazado_103560" data-name="Trazado 103560" d="M1038.6,1266l-2.079,1,7.064-7Z" transform="translate(-1036.524 -1259.993)" fill="#d6c5be"/>
      </g>
      <g id="Grupo_56383" data-name="Grupo 56383" transform="translate(35.644 23.845)">
        <path id="Trazado_103561" data-name="Trazado 103561" d="M1052.208,1259.993l-4.985,6.007,2.728,2.433,2.944-7.192Z" transform="translate(-1047.223 -1259.993)" fill="#fae6de"/>
      </g>
      <g id="Grupo_56384" data-name="Grupo 56384" transform="translate(35.104 19.177)">
        <path id="Trazado_103562" data-name="Trazado 103562" d="M1048.6,1235.97a8.692,8.692,0,0,1-4.158,2.921c.074-.287.142-.576.2-.864.035-.164.067-.327.1-.489A14.114,14.114,0,0,0,1048.6,1235.97Z" transform="translate(-1044.442 -1235.97)" fill="#a77860"/>
      </g>
      <g id="Grupo_56385" data-name="Grupo 56385" transform="translate(12.183 40.336)">
        <path id="Trazado_103563" data-name="Trazado 103563" d="M929.255,1346.482c.628,1.181.618,2.415-.023,2.756s-1.669-.342-2.3-1.523-.618-2.415.023-2.756S928.627,1345.3,929.255,1346.482Z" transform="translate(-926.471 -1344.871)" fill="#828282"/>
      </g>
      <g id="Grupo_56386" data-name="Grupo 56386" transform="translate(41.316 25.055)">
        <path id="Trazado_103564" data-name="Trazado 103564" d="M1076.415,1266.261a7.82,7.82,0,0,1,8.49,5.991S1076.545,1271.353,1076.415,1266.261Z" transform="translate(-1076.415 -1266.223)" fill="#494f80"/>
      </g>
    </g>
  </g>
</svg>
